<svg width="789" height="546" viewBox="0 0 789 546" fill="none" xmlns="http://www.w3.org/2000/svg">
<circle cx="522.5" cy="309.5" r="11.5" fill="#D9D9D9"/>
<path d="M523.562 303.656C523.562 303.267 523.678 302.886 523.894 302.562C524.111 302.239 524.418 301.986 524.778 301.837C525.138 301.688 525.533 301.649 525.915 301.725C526.297 301.801 526.648 301.989 526.923 302.264C527.199 302.539 527.386 302.89 527.462 303.272C527.538 303.654 527.499 304.05 527.35 304.41C527.201 304.769 526.949 305.077 526.625 305.293C526.301 305.51 525.921 305.625 525.531 305.625C525.009 305.625 524.508 305.418 524.139 305.048C523.77 304.679 523.562 304.178 523.562 303.656ZM529.727 308.596C529.685 308.739 529.588 308.859 529.457 308.931C529.326 309.002 529.172 309.019 529.029 308.977L523.469 307.341L522.922 308.162L525.406 308.881C525.491 308.906 525.569 308.95 525.634 309.011C525.698 309.071 525.748 309.146 525.778 309.229C525.809 309.312 525.819 309.401 525.808 309.489C525.797 309.577 525.766 309.661 525.717 309.735L524.328 311.805L527.906 312.842C528.274 312.949 528.598 313.173 528.829 313.479C529.06 313.785 529.185 314.158 529.188 314.541C529.186 315.011 528.998 315.461 528.666 315.792C528.334 316.124 527.884 316.311 527.415 316.313C527.245 316.313 527.076 316.289 526.913 316.242L515.843 313.032C515.475 312.925 515.152 312.701 514.921 312.395C514.69 312.089 514.564 311.716 514.562 311.333C514.563 311.058 514.628 310.786 514.751 310.54C514.875 310.294 515.054 310.08 515.275 309.915C515.495 309.75 515.751 309.639 516.022 309.59C516.293 309.541 516.572 309.555 516.836 309.633L519.981 310.547L522.338 307.012L519.466 306.168C519.323 306.126 519.202 306.028 519.131 305.897C519.06 305.766 519.043 305.612 519.085 305.469C519.127 305.326 519.225 305.206 519.356 305.134C519.487 305.063 519.641 305.046 519.784 305.089L529.346 307.901C529.489 307.943 529.608 308.04 529.68 308.17C529.751 308.3 529.768 308.453 529.727 308.596ZM522.267 309.141L521.114 310.87L523.194 311.474L524.354 309.745L522.267 309.141Z" fill="#343330"/>
<circle cx="279.5" cy="310.5" r="11.5" fill="#D9D9D9"/>
<path d="M287.875 304.938V315.062C287.875 315.212 287.816 315.355 287.71 315.46C287.605 315.566 287.462 315.625 287.312 315.625H282.25C281.803 315.625 281.375 315.802 281.058 316.118C280.742 316.433 280.564 316.861 280.562 317.308C280.565 317.423 280.531 317.536 280.467 317.631C280.402 317.726 280.31 317.799 280.203 317.839C280.117 317.872 280.025 317.884 279.934 317.873C279.843 317.862 279.756 317.83 279.681 317.778C279.606 317.726 279.544 317.656 279.502 317.575C279.459 317.494 279.437 317.404 279.438 317.312C279.438 316.865 279.26 316.436 278.943 316.119C278.627 315.803 278.198 315.625 277.75 315.625H272.688C272.538 315.625 272.395 315.566 272.29 315.46C272.184 315.355 272.125 315.212 272.125 315.062V304.938C272.125 304.788 272.184 304.645 272.29 304.54C272.395 304.434 272.538 304.375 272.688 304.375H277.188C277.784 304.375 278.357 304.612 278.778 305.034C279.2 305.456 279.438 306.028 279.438 306.625V312.794C279.436 312.939 279.489 313.079 279.586 313.187C279.684 313.294 279.818 313.361 279.963 313.374C280.04 313.379 280.117 313.368 280.189 313.342C280.262 313.316 280.329 313.275 280.385 313.223C280.441 313.17 280.486 313.106 280.516 313.035C280.547 312.965 280.563 312.888 280.562 312.811V306.625C280.562 306.028 280.8 305.456 281.222 305.034C281.643 304.612 282.216 304.375 282.812 304.375H287.312C287.462 304.375 287.605 304.434 287.71 304.54C287.816 304.645 287.875 304.788 287.875 304.938Z" fill="#343330"/>
<g opacity="0.28">
<path d="M351.268 156.34C351.268 156.34 352.849 161.145 350.737 161.924C348.392 162.789 348.911 155.954 348.911 155.954C348.911 155.954 343.802 161.363 342.701 158.867C341.684 156.562 346.752 153.669 346.752 153.669C346.752 153.669 339.364 153.008 340.044 150.209C340.742 147.334 347.798 151.062 347.798 151.062C347.798 151.062 345.29 145.323 347.798 144.142C350.586 142.828 351.268 151.062 351.268 151.062C351.268 151.062 357.167 145.646 358.773 148.262C360.353 150.836 353.161 153.669 353.161 153.669C353.161 153.669 358.638 155.309 357.943 157.579C357.188 160.045 351.268 156.34 351.268 156.34Z" stroke="black" stroke-width="2"/>
</g>
<g opacity="0.28">
<path d="M671.268 290.34C671.268 290.34 672.849 295.145 670.737 295.924C668.392 296.789 668.911 289.954 668.911 289.954C668.911 289.954 663.802 295.363 662.701 292.867C661.684 290.562 666.752 287.669 666.752 287.669C666.752 287.669 659.364 287.008 660.044 284.209C660.742 281.334 667.798 285.062 667.798 285.062C667.798 285.062 665.29 279.323 667.798 278.142C670.586 276.828 671.268 285.062 671.268 285.062C671.268 285.062 677.167 279.646 678.773 282.262C680.353 284.836 673.161 287.669 673.161 287.669C673.161 287.669 678.638 289.309 677.943 291.579C677.188 294.045 671.268 290.34 671.268 290.34Z" stroke="black" stroke-width="2"/>
</g>
<g opacity="0.28">
<path d="M610.268 184.34C610.268 184.34 611.849 189.145 609.737 189.924C607.392 190.789 607.911 183.954 607.911 183.954C607.911 183.954 602.802 189.363 601.701 186.867C600.684 184.562 605.752 181.669 605.752 181.669C605.752 181.669 598.364 181.008 599.044 178.209C599.742 175.334 606.798 179.062 606.798 179.062C606.798 179.062 604.29 173.323 606.798 172.142C609.586 170.828 610.268 179.062 610.268 179.062C610.268 179.062 616.167 173.646 617.773 176.262C619.353 178.836 612.161 181.669 612.161 181.669C612.161 181.669 617.638 183.309 616.943 185.579C616.188 188.045 610.268 184.34 610.268 184.34Z" stroke="black" stroke-width="2"/>
</g>
<g opacity="0.28">
<path d="M708.268 312.34C708.268 312.34 709.849 317.145 707.737 317.924C705.392 318.789 705.911 311.954 705.911 311.954C705.911 311.954 700.802 317.363 699.701 314.867C698.684 312.562 703.752 309.669 703.752 309.669C703.752 309.669 696.364 309.008 697.044 306.209C697.742 303.334 704.798 307.062 704.798 307.062C704.798 307.062 702.29 301.323 704.798 300.142C707.586 298.828 708.268 307.062 708.268 307.062C708.268 307.062 714.167 301.646 715.773 304.262C717.353 306.836 710.161 309.669 710.161 309.669C710.161 309.669 715.638 311.309 714.943 313.579C714.188 316.045 708.268 312.34 708.268 312.34Z" stroke="black" stroke-width="2"/>
</g>
<g opacity="0.28">
<path d="M689.268 424.34C689.268 424.34 690.849 429.145 688.737 429.924C686.392 430.789 686.911 423.954 686.911 423.954C686.911 423.954 681.802 429.363 680.701 426.867C679.684 424.562 684.752 421.669 684.752 421.669C684.752 421.669 677.364 421.008 678.044 418.209C678.742 415.334 685.798 419.062 685.798 419.062C685.798 419.062 683.29 413.323 685.798 412.142C688.586 410.828 689.268 419.062 689.268 419.062C689.268 419.062 695.167 413.646 696.773 416.262C698.353 418.836 691.161 421.669 691.161 421.669C691.161 421.669 696.638 423.309 695.943 425.579C695.188 428.045 689.268 424.34 689.268 424.34Z" stroke="black" stroke-width="2"/>
</g>
<g opacity="0.28">
<path d="M747.268 254.34C747.268 254.34 748.849 259.145 746.737 259.924C744.392 260.789 744.911 253.954 744.911 253.954C744.911 253.954 739.802 259.363 738.701 256.867C737.684 254.562 742.752 251.669 742.752 251.669C742.752 251.669 735.364 251.008 736.044 248.209C736.742 245.334 743.798 249.062 743.798 249.062C743.798 249.062 741.29 243.323 743.798 242.142C746.586 240.828 747.268 249.062 747.268 249.062C747.268 249.062 753.167 243.646 754.773 246.262C756.353 248.836 749.161 251.669 749.161 251.669C749.161 251.669 754.638 253.309 753.943 255.579C753.188 258.045 747.268 254.34 747.268 254.34Z" stroke="black" stroke-width="2"/>
</g>
<g opacity="0.28">
<path d="M708.268 73.3402C708.268 73.3402 709.849 78.1452 707.737 78.9243C705.392 79.7894 705.911 72.9539 705.911 72.9539C705.911 72.9539 700.802 78.3633 699.701 75.8667C698.684 73.5618 703.752 70.6688 703.752 70.6688C703.752 70.6688 696.364 70.0085 697.044 67.2089C697.742 64.3337 704.798 68.0618 704.798 68.0618C704.798 68.0618 702.29 62.3233 704.798 61.142C707.586 59.8285 708.268 68.0618 708.268 68.0618C708.268 68.0618 714.167 62.6458 715.773 65.2617C717.353 67.8357 710.161 70.6688 710.161 70.6688C710.161 70.6688 715.638 72.3089 714.943 74.5793C714.188 77.0454 708.268 73.3402 708.268 73.3402Z" stroke="black" stroke-width="2"/>
</g>
<g opacity="0.28">
<path d="M482.268 13.3402C482.268 13.3402 483.849 18.1452 481.737 18.9243C479.392 19.7894 479.911 12.9539 479.911 12.9539C479.911 12.9539 474.802 18.3633 473.701 15.8667C472.684 13.5618 477.752 10.6688 477.752 10.6688C477.752 10.6688 470.364 10.0085 471.044 7.20888C471.742 4.33372 478.798 8.06178 478.798 8.06178C478.798 8.06178 476.29 2.32329 478.798 1.14196C481.586 -0.171511 482.268 8.06178 482.268 8.06178C482.268 8.06178 488.167 2.64579 489.773 5.26167C491.353 7.83573 484.161 10.6688 484.161 10.6688C484.161 10.6688 489.638 12.3089 488.943 14.5793C488.188 17.0454 482.268 13.3402 482.268 13.3402Z" stroke="black" stroke-width="2"/>
</g>
<g opacity="0.28">
<path d="M231.268 534.34C231.268 534.34 232.849 539.145 230.737 539.924C228.392 540.789 228.911 533.954 228.911 533.954C228.911 533.954 223.802 539.363 222.701 536.867C221.684 534.562 226.752 531.669 226.752 531.669C226.752 531.669 219.364 531.008 220.044 528.209C220.742 525.334 227.798 529.062 227.798 529.062C227.798 529.062 225.29 523.323 227.798 522.142C230.586 520.828 231.268 529.062 231.268 529.062C231.268 529.062 237.167 523.646 238.773 526.262C240.353 528.836 233.161 531.669 233.161 531.669C233.161 531.669 238.638 533.309 237.943 535.579C237.188 538.045 231.268 534.34 231.268 534.34Z" stroke="black" stroke-width="2"/>
</g>
<g opacity="0.28">
<path d="M482.268 122.34C482.268 122.34 483.849 127.145 481.737 127.924C479.392 128.789 479.911 121.954 479.911 121.954C479.911 121.954 474.802 127.363 473.701 124.867C472.684 122.562 477.752 119.669 477.752 119.669C477.752 119.669 470.364 119.008 471.044 116.209C471.742 113.334 478.798 117.062 478.798 117.062C478.798 117.062 476.29 111.323 478.798 110.142C481.586 108.828 482.268 117.062 482.268 117.062C482.268 117.062 488.167 111.646 489.773 114.262C491.353 116.836 484.161 119.669 484.161 119.669C484.161 119.669 489.638 121.309 488.943 123.579C488.188 126.045 482.268 122.34 482.268 122.34Z" stroke="black" stroke-width="2"/>
</g>
<g opacity="0.28">
<path d="M47.2683 295.34C47.2683 295.34 48.8487 300.145 46.737 300.924C44.392 301.789 44.9106 294.954 44.9106 294.954C44.9106 294.954 39.8022 300.363 38.7008 297.867C37.684 295.562 42.7521 292.669 42.7521 292.669C42.7521 292.669 35.3643 292.008 36.0442 289.209C36.7425 286.334 43.7981 290.062 43.7981 290.062C43.7981 290.062 41.2905 284.323 43.7981 283.142C46.5863 281.828 47.2683 290.062 47.2683 290.062C47.2683 290.062 53.1674 284.646 54.7732 287.262C56.3532 289.836 49.1611 292.669 49.1611 292.669C49.1611 292.669 54.6377 294.309 53.943 296.579C53.1883 299.045 47.2683 295.34 47.2683 295.34Z" stroke="black" stroke-width="2"/>
</g>
<g opacity="0.28">
<path d="M47.2683 92.3402C47.2683 92.3402 48.8487 97.1452 46.737 97.9243C44.392 98.7894 44.9106 91.9539 44.9106 91.9539C44.9106 91.9539 39.8022 97.3633 38.7008 94.8667C37.684 92.5618 42.7521 89.6688 42.7521 89.6688C42.7521 89.6688 35.3643 89.0085 36.0442 86.2089C36.7425 83.3337 43.7981 87.0618 43.7981 87.0618C43.7981 87.0618 41.2905 81.3233 43.7981 80.142C46.5863 78.8285 47.2683 87.0618 47.2683 87.0618C47.2683 87.0618 53.1674 81.6458 54.7732 84.2617C56.3532 86.8357 49.1611 89.6688 49.1611 89.6688C49.1611 89.6688 54.6377 91.3089 53.943 93.5793C53.1883 96.0454 47.2683 92.3402 47.2683 92.3402Z" stroke="black" stroke-width="2"/>
</g>
<g opacity="0.28">
<path d="M661.268 539.34C661.268 539.34 662.849 544.145 660.737 544.924C658.392 545.789 658.911 538.954 658.911 538.954C658.911 538.954 653.802 544.363 652.701 541.867C651.684 539.562 656.752 536.669 656.752 536.669C656.752 536.669 649.364 536.008 650.044 533.209C650.742 530.334 657.798 534.062 657.798 534.062C657.798 534.062 655.29 528.323 657.798 527.142C660.586 525.828 661.268 534.062 661.268 534.062C661.268 534.062 667.167 528.646 668.773 531.262C670.353 533.836 663.161 536.669 663.161 536.669C663.161 536.669 668.638 538.309 667.943 540.579C667.188 543.045 661.268 539.34 661.268 539.34Z" stroke="black" stroke-width="2"/>
</g>
<g opacity="0.28">
<path d="M218.268 73.3402C218.268 73.3402 219.849 78.1452 217.737 78.9243C215.392 79.7894 215.911 72.9539 215.911 72.9539C215.911 72.9539 210.802 78.3633 209.701 75.8667C208.684 73.5618 213.752 70.6688 213.752 70.6688C213.752 70.6688 206.364 70.0085 207.044 67.2089C207.742 64.3337 214.798 68.0618 214.798 68.0618C214.798 68.0618 212.29 62.3233 214.798 61.142C217.586 59.8285 218.268 68.0618 218.268 68.0618C218.268 68.0618 224.167 62.6458 225.773 65.2617C227.353 67.8357 220.161 70.6688 220.161 70.6688C220.161 70.6688 225.638 72.3089 224.943 74.5793C224.188 77.0454 218.268 73.3402 218.268 73.3402Z" stroke="black" stroke-width="2"/>
</g>
<g opacity="0.28">
<path d="M290.268 82.3402C290.268 82.3402 291.849 87.1452 289.737 87.9243C287.392 88.7894 287.911 81.9539 287.911 81.9539C287.911 81.9539 282.802 87.3633 281.701 84.8667C280.684 82.5618 285.752 79.6688 285.752 79.6688C285.752 79.6688 278.364 79.0085 279.044 76.2089C279.742 73.3337 286.798 77.0618 286.798 77.0618C286.798 77.0618 284.29 71.3233 286.798 70.142C289.586 68.8285 290.268 77.0618 290.268 77.0618C290.268 77.0618 296.167 71.6458 297.773 74.2617C299.353 76.8357 292.161 79.6688 292.161 79.6688C292.161 79.6688 297.638 81.3089 296.943 83.5793C296.188 86.0454 290.268 82.3402 290.268 82.3402Z" stroke="black" stroke-width="2"/>
</g>
<g opacity="0.28">
<path d="M550.268 174.34C550.268 174.34 551.849 179.145 549.737 179.924C547.392 180.789 547.911 173.954 547.911 173.954C547.911 173.954 542.802 179.363 541.701 176.867C540.684 174.562 545.752 171.669 545.752 171.669C545.752 171.669 538.364 171.008 539.044 168.209C539.742 165.334 546.798 169.062 546.798 169.062C546.798 169.062 544.29 163.323 546.798 162.142C549.586 160.828 550.268 169.062 550.268 169.062C550.268 169.062 556.167 163.646 557.773 166.262C559.353 168.836 552.161 171.669 552.161 171.669C552.161 171.669 557.638 173.309 556.943 175.579C556.188 178.045 550.268 174.34 550.268 174.34Z" stroke="black" stroke-width="2"/>
</g>
<g opacity="0.28">
<path d="M476.268 184.34C476.268 184.34 477.849 189.145 475.737 189.924C473.392 190.789 473.911 183.954 473.911 183.954C473.911 183.954 468.802 189.363 467.701 186.867C466.684 184.562 471.752 181.669 471.752 181.669C471.752 181.669 464.364 181.008 465.044 178.209C465.742 175.334 472.798 179.062 472.798 179.062C472.798 179.062 470.29 173.323 472.798 172.142C475.586 170.828 476.268 179.062 476.268 179.062C476.268 179.062 482.167 173.646 483.773 176.262C485.353 178.836 478.161 181.669 478.161 181.669C478.161 181.669 483.638 183.309 482.943 185.579C482.188 188.045 476.268 184.34 476.268 184.34Z" stroke="black" stroke-width="2"/>
</g>
<g opacity="0.28">
<path d="M138.268 295.34C138.268 295.34 139.849 300.145 137.737 300.924C135.392 301.789 135.911 294.954 135.911 294.954C135.911 294.954 130.802 300.363 129.701 297.867C128.684 295.562 133.752 292.669 133.752 292.669C133.752 292.669 126.364 292.008 127.044 289.209C127.742 286.334 134.798 290.062 134.798 290.062C134.798 290.062 132.29 284.323 134.798 283.142C137.586 281.828 138.268 290.062 138.268 290.062C138.268 290.062 144.167 284.646 145.773 287.262C147.353 289.836 140.161 292.669 140.161 292.669C140.161 292.669 145.638 294.309 144.943 296.579C144.188 299.045 138.268 295.34 138.268 295.34Z" stroke="black" stroke-width="2"/>
</g>
<g opacity="0.28">
<path d="M580.268 291.34C580.268 291.34 581.849 296.145 579.737 296.924C577.392 297.789 577.911 290.954 577.911 290.954C577.911 290.954 572.802 296.363 571.701 293.867C570.684 291.562 575.752 288.669 575.752 288.669C575.752 288.669 568.364 288.008 569.044 285.209C569.742 282.334 576.798 286.062 576.798 286.062C576.798 286.062 574.29 280.323 576.798 279.142C579.586 277.828 580.268 286.062 580.268 286.062C580.268 286.062 586.167 280.646 587.773 283.262C589.353 285.836 582.161 288.669 582.161 288.669C582.161 288.669 587.638 290.309 586.943 292.579C586.188 295.045 580.268 291.34 580.268 291.34Z" stroke="black" stroke-width="2"/>
</g>
<g opacity="0.25">
<path d="M783.073 287L778.792 290.855L783.073 288.661L778.966 292.358L785.741 288.37L776 296.261L788 288.988L778.792 296.042L785.741 292.648L780.095 297.364L785.332 294.442L781.957 299.727" stroke="black"/>
</g>
<g opacity="0.25">
<path d="M686.073 203L681.792 206.855L686.073 204.661L681.966 208.358L688.741 204.37L679 212.261L691 204.988L681.792 212.042L688.741 208.648L683.095 213.364L688.332 210.442L684.957 215.727" stroke="black"/>
</g>
<g opacity="0.25">
<path d="M630.073 264L625.792 267.855L630.073 265.661L625.966 269.358L632.741 265.37L623 273.261L635 265.988L625.792 273.042L632.741 269.648L627.095 274.364L632.332 271.442L628.957 276.727" stroke="black"/>
</g>
<g opacity="0.25">
<path d="M416.073 271L411.792 274.855L416.073 272.661L411.966 276.358L418.741 272.37L409 280.261L421 272.988L411.792 280.042L418.741 276.648L413.095 281.364L418.332 278.442L414.957 283.727" stroke="black"/>
</g>
<g opacity="0.25">
<path d="M522.073 221L517.792 224.855L522.073 222.661L517.966 226.358L524.741 222.37L515 230.261L527 222.988L517.792 230.042L524.741 226.648L519.095 231.364L524.332 228.442L520.957 233.727" stroke="black"/>
</g>
<g opacity="0.25">
<path d="M272.073 243L267.792 246.855L272.073 244.661L267.966 248.358L274.741 244.37L265 252.261L277 244.988L267.792 252.042L274.741 248.648L269.095 253.364L274.332 250.442L270.957 255.727" stroke="black"/>
</g>
<g opacity="0.25">
<path d="M354.073 209L349.792 212.855L354.073 210.661L349.966 214.358L356.741 210.37L347 218.261L359 210.988L349.792 218.042L356.741 214.648L351.095 219.364L356.332 216.442L352.957 221.727" stroke="black"/>
</g>
<g opacity="0.25">
<path d="M466.073 222L461.792 225.855L466.073 223.661L461.966 227.358L468.741 223.37L459 231.261L471 223.988L461.792 231.042L468.741 227.648L463.095 232.364L468.332 229.442L464.957 234.727" stroke="black"/>
</g>
<g opacity="0.25">
<path d="M335.073 12L330.792 15.8545L335.073 13.6606L330.966 17.3576L337.741 13.3697L328 21.2606L340 13.9879L330.792 21.0424L337.741 17.6485L332.095 22.3636L337.332 19.4424L333.957 24.7273" stroke="black"/>
</g>
<g opacity="0.25">
<path d="M280.073 12L275.792 15.8545L280.073 13.6606L275.966 17.3576L282.741 13.3697L273 21.2606L285 13.9879L275.792 21.0424L282.741 17.6485L277.095 22.3636L282.332 19.4424L278.957 24.7273" stroke="black"/>
</g>
<path opacity="0.25" d="M662 149L647 155.519L651.214 157.376M662 149L651.214 157.376M662 149L660.167 162.216L654.985 159.443M662 149L654.039 158.937M651.214 157.376L652.175 164M654.039 158.937L652.175 164M654.039 158.937L654.985 159.443M652.175 164L654.985 159.443" stroke="black"/>
<path opacity="0.25" d="M17 228L2 234.519L6.2144 236.376M17 228L6.2144 236.376M17 228L15.167 241.216L9.98514 238.443M17 228L9.03856 237.937M6.2144 236.376L7.1746 243M9.03856 237.937L7.1746 243M9.03856 237.937L9.98514 238.443M7.1746 243L9.98514 238.443" stroke="black"/>
<path opacity="0.25" d="M150 329L135 335.519L139.214 337.376M150 329L139.214 337.376M150 329L148.167 342.216L142.985 339.443M150 329L142.039 338.937M139.214 337.376L140.175 344M142.039 338.937L140.175 344M142.039 338.937L142.985 339.443M140.175 344L142.985 339.443" stroke="black"/>
<path opacity="0.25" d="M237 202L222 208.519L226.214 210.376M237 202L226.214 210.376M237 202L235.167 215.216L229.985 212.443M237 202L229.039 211.937M226.214 210.376L227.175 217M229.039 211.937L227.175 217M229.039 211.937L229.985 212.443M227.175 217L229.985 212.443" stroke="black"/>
<path opacity="0.25" d="M549 529L534 535.519L538.214 537.376M549 529L538.214 537.376M549 529L547.167 542.216L541.985 539.443M549 529L541.039 538.937M538.214 537.376L539.175 544M541.039 538.937L539.175 544M541.039 538.937L541.985 539.443M539.175 544L541.985 539.443" stroke="black"/>
<path opacity="0.25" d="M175 365L160 371.519L164.214 373.376M175 365L164.214 373.376M175 365L173.167 378.216L167.985 375.443M175 365L167.039 374.937M164.214 373.376L165.175 380M167.039 374.937L165.175 380M167.039 374.937L167.985 375.443M165.175 380L167.985 375.443" stroke="black"/>
<path opacity="0.25" d="M158 227L143 233.519L147.214 235.376M158 227L147.214 235.376M158 227L156.167 240.216L150.985 237.443M158 227L150.039 236.937M147.214 235.376L148.175 242M150.039 236.937L148.175 242M150.039 236.937L150.985 237.443M148.175 242L150.985 237.443" stroke="black"/>
<path opacity="0.25" d="M36 397L21 403.519L25.2144 405.376M36 397L25.2144 405.376M36 397L34.167 410.216L28.9851 407.443M36 397L28.0386 406.937M25.2144 405.376L26.1746 412M28.0386 406.937L26.1746 412M28.0386 406.937L28.9851 407.443M26.1746 412L28.9851 407.443" stroke="black"/>
<path opacity="0.25" d="M424 245L409 251.519L413.214 253.376M424 245L413.214 253.376M424 245L422.167 258.216L416.985 255.443M424 245L416.039 254.937M413.214 253.376L414.175 260M416.039 254.937L414.175 260M416.039 254.937L416.985 255.443M414.175 260L416.985 255.443" stroke="black"/>
<path opacity="0.25" d="M447 79L432 85.5193L436.214 87.376M447 79L436.214 87.376M447 79L445.167 92.2164L439.985 89.4435M447 79L439.039 88.9369M436.214 87.376L437.175 94M439.039 88.9369L437.175 94M439.039 88.9369L439.985 89.4435M437.175 94L439.985 89.4435" stroke="black"/>
<path opacity="0.31" d="M523.793 133.76L522.883 128L521.039 134.043L514.214 131.681L518.859 136.357L512 140.462L519.915 138.995V146L523.42 138.995L531 141.83L525.137 136.357L530.162 132.398L523.793 133.76Z" stroke="black"/>
<path opacity="0.31" d="M600.793 316.76L599.883 311L598.039 317.043L591.214 314.681L595.859 319.357L589 323.462L596.915 321.995V329L600.42 321.995L608 324.83L602.137 319.357L607.162 315.398L600.793 316.76Z" stroke="black"/>
<path opacity="0.31" d="M591.793 225.76L590.883 220L589.039 226.043L582.214 223.681L586.859 228.357L580 232.462L587.915 230.995V238L591.42 230.995L599 233.83L593.137 228.357L598.162 224.398L591.793 225.76Z" stroke="black"/>
<path opacity="0.31" d="M507.793 171.76L506.883 166L505.039 172.043L498.214 169.681L502.859 174.357L496 178.462L503.915 176.995V184L507.42 176.995L515 179.83L509.137 174.357L514.162 170.398L507.793 171.76Z" stroke="black"/>
<path opacity="0.31" d="M237.793 151.76L236.883 146L235.039 152.043L228.214 149.681L232.859 154.357L226 158.462L233.915 156.995V164L237.42 156.995L245 159.83L239.137 154.357L244.162 150.398L237.793 151.76Z" stroke="black"/>
<path opacity="0.31" d="M297.793 143.76L296.883 138L295.039 144.043L288.214 141.681L292.859 146.357L286 150.462L293.915 148.995V156L297.42 148.995L305 151.83L299.137 146.357L304.162 142.398L297.793 143.76Z" stroke="black"/>
<g opacity="0.25">
<path d="M722.945 146.083C723.265 147.11 724.498 147.408 725.793 146.912C727.089 146.417 728.175 144.301 726.057 142.679C723.939 141.057 718.993 142.656 719.49 146.442C719.988 150.228 724.009 151.031 727.202 149.81C730.395 148.588 730.988 144.851 730.059 142.624C727.373 136.189 717.616 139.27 716.274 144.53C714.932 149.789 718.803 153.086 721.825 153.545" stroke="black" stroke-width="2"/>
</g>
<g opacity="0.25">
<path d="M591.945 484.083C592.265 485.11 593.498 485.408 594.793 484.912C596.089 484.417 597.175 482.301 595.057 480.679C592.939 479.057 587.993 480.656 588.49 484.442C588.988 488.228 593.009 489.031 596.202 487.81C599.395 486.588 599.988 482.851 599.059 480.624C596.373 474.189 586.616 477.27 585.274 482.53C583.932 487.789 587.803 491.086 590.825 491.545" stroke="black" stroke-width="2"/>
</g>
<g opacity="0.25">
<path d="M193.945 329.083C194.265 330.11 195.498 330.408 196.793 329.912C198.089 329.417 199.175 327.301 197.057 325.679C194.939 324.057 189.993 325.656 190.49 329.442C190.988 333.228 195.009 334.031 198.202 332.81C201.395 331.588 201.988 327.851 201.059 325.624C198.373 319.189 188.616 322.27 187.274 327.53C185.932 332.789 189.803 336.086 192.825 336.545" stroke="black" stroke-width="2"/>
</g>
<g opacity="0.25">
<path d="M149.945 188.083C150.265 189.11 151.498 189.408 152.793 188.912C154.089 188.417 155.175 186.301 153.057 184.679C150.939 183.057 145.993 184.656 146.49 188.442C146.988 192.228 151.009 193.031 154.202 191.81C157.395 190.588 157.988 186.851 157.059 184.624C154.373 178.189 144.616 181.27 143.274 186.53C141.932 191.789 145.803 195.086 148.825 195.545" stroke="black" stroke-width="2"/>
</g>
<g opacity="0.25">
<path d="M107.945 117.083C108.265 118.11 109.498 118.408 110.793 117.912C112.089 117.417 113.175 115.301 111.057 113.679C108.939 112.057 103.993 113.656 104.49 117.442C104.988 121.228 109.009 122.031 112.202 120.81C115.395 119.588 115.988 115.851 115.059 113.624C112.373 107.189 102.616 110.27 101.274 115.53C99.9317 120.789 103.803 124.086 106.825 124.545" stroke="black" stroke-width="2"/>
</g>
<g opacity="0.25">
<path d="M101.945 206.083C102.265 207.11 103.498 207.408 104.793 206.912C106.089 206.417 107.175 204.301 105.057 202.679C102.939 201.057 97.9927 202.656 98.4903 206.442C98.9878 210.228 103.009 211.031 106.202 209.81C109.395 208.588 109.988 204.851 109.059 202.624C106.373 196.189 96.6158 199.27 95.2737 204.53C93.9317 209.789 97.8034 213.086 100.825 213.545" stroke="black" stroke-width="2"/>
</g>
<g opacity="0.25">
<path d="M422.945 187.083C423.265 188.11 424.498 188.408 425.793 187.912C427.089 187.417 428.175 185.301 426.057 183.679C423.939 182.057 418.993 183.656 419.49 187.442C419.988 191.228 424.009 192.031 427.202 190.81C430.395 189.588 430.988 185.851 430.059 183.624C427.373 177.189 417.616 180.27 416.274 185.53C414.932 190.789 418.803 194.086 421.825 194.545" stroke="black" stroke-width="2"/>
</g>
<g opacity="0.25">
<path d="M296.945 212.083C297.265 213.11 298.498 213.408 299.793 212.912C301.089 212.417 302.175 210.301 300.057 208.679C297.939 207.057 292.993 208.656 293.49 212.442C293.988 216.228 298.009 217.031 301.202 215.81C304.395 214.588 304.988 210.851 304.059 208.624C301.373 202.189 291.616 205.27 290.274 210.53C288.932 215.789 292.803 219.086 295.825 219.545" stroke="black" stroke-width="2"/>
</g>
<g opacity="0.25">
<path d="M93.9451 470.083C94.265 471.11 95.4975 471.408 96.7933 470.912C98.0891 470.417 99.1753 468.301 97.0573 466.679C94.9393 465.057 89.9927 466.656 90.4903 470.442C90.9878 474.228 95.0086 475.031 98.2018 473.81C101.395 472.588 101.988 468.851 101.059 466.624C98.373 460.189 88.6158 463.27 87.2737 468.53C85.9317 473.789 89.8034 477.086 92.8255 477.545" stroke="black" stroke-width="2"/>
</g>
<g opacity="0.25">
<path d="M281.945 447.083C282.265 448.11 283.498 448.408 284.793 447.912C286.089 447.417 287.175 445.301 285.057 443.679C282.939 442.057 277.993 443.656 278.49 447.442C278.988 451.228 283.009 452.031 286.202 450.81C289.395 449.588 289.988 445.851 289.059 443.624C286.373 437.189 276.616 440.27 275.274 445.53C273.932 450.789 277.803 454.086 280.825 454.545" stroke="black" stroke-width="2"/>
</g>
</svg>
