<svg width="23" height="23" viewBox="0 0 23 23" fill="none" xmlns="http://www.w3.org/2000/svg">
<circle cx="11.5" cy="11.5" r="11.5" fill="#D9D9D9"/>
<path d="M19.875 5.9375V16.0625C19.875 16.2117 19.8157 16.3548 19.7102 16.4602C19.6048 16.5657 19.4617 16.625 19.3125 16.625H14.25C13.8032 16.625 13.3746 16.8022 13.0582 17.1178C12.7419 17.4333 12.5636 17.8615 12.5625 18.3083C12.5647 18.4231 12.5313 18.5359 12.4669 18.6309C12.4024 18.726 12.31 18.7987 12.2025 18.8391C12.1171 18.8721 12.025 18.8837 11.9342 18.873C11.8433 18.8623 11.7564 18.8296 11.681 18.7777C11.6057 18.7258 11.5441 18.6563 11.5017 18.5753C11.4592 18.4942 11.4372 18.404 11.4375 18.3125C11.4375 17.8649 11.2597 17.4357 10.9432 17.1193C10.6268 16.8028 10.1976 16.625 9.75 16.625H4.6875C4.53832 16.625 4.39524 16.5657 4.28975 16.4602C4.18426 16.3548 4.125 16.2117 4.125 16.0625V5.9375C4.125 5.78832 4.18426 5.64524 4.28975 5.53975C4.39524 5.43426 4.53832 5.375 4.6875 5.375H9.1875C9.78424 5.375 10.3565 5.61205 10.7785 6.03401C11.2004 6.45597 11.4375 7.02826 11.4375 7.625V13.7935C11.4355 13.9387 11.4886 14.0792 11.5861 14.1868C11.6835 14.2944 11.8181 14.3612 11.9627 14.3736C12.0397 14.3787 12.1168 14.3679 12.1895 14.342C12.2621 14.316 12.3286 14.2754 12.3848 14.2226C12.441 14.1699 12.4858 14.1061 12.5164 14.0353C12.547 13.9645 12.5627 13.8882 12.5625 13.8111V7.625C12.5625 7.02826 12.7996 6.45597 13.2215 6.03401C13.6435 5.61205 14.2158 5.375 14.8125 5.375H19.3125C19.4617 5.375 19.6048 5.43426 19.7102 5.53975C19.8157 5.64524 19.875 5.78832 19.875 5.9375Z" fill="#343330"/>
</svg>
