<svg width="188" height="182" viewBox="0 0 188 182" fill="none" xmlns="http://www.w3.org/2000/svg">
<path d="M33.2162 36.3364C56.5866 4.87962 99.4411 -0.736667 132.551 17.2517C181.926 44.074 182.032 121.986 122.178 145.529C99.8563 154.31 69.1161 152.571 48.6438 136.83C37.5007 128.262 29.9542 116.601 25.5375 108.194C14.6999 83.5857 20.1119 53.9727 33.2162 36.3364ZM21.9616 87.77C22.1332 94.2318 27.7648 114.481 43.388 128.936C82.7506 165.353 145.077 148.32 162.001 102.267C171.845 75.4777 165.721 37.2783 128.843 17.7019C88.1436 -3.90278 33.0291 15.8647 23.4579 63.5125C21.6459 71.472 21.1397 79.6584 21.9616 87.77Z" fill="black"/>
<path d="M86.9529 100.669C92.032 98.8981 96.8811 102.426 99.539 106.458C105.083 114.871 103.177 126.89 92.7801 126.282C89.7618 126.282 83.8952 121.513 82.03 114.694C80.206 108.031 82.9532 102.063 86.9529 100.669ZM82.7147 111.202C83.3204 118.345 88.7203 124.016 92.0903 124.657C94.2746 125.071 88.8301 120.92 87.9447 112.232C86.8792 101.672 93.6655 103.209 92.2756 101.986C91.4383 101.519 90.4619 101.343 89.5079 101.488C86.608 100.88 82.1879 105.014 82.7147 111.202Z" fill="black"/>
<path d="M129.704 81.657C134.166 76.8912 142.678 77.5274 146.971 88.157C150.902 97.8879 141.686 111.579 130.559 99.76C126.725 95.6903 125.631 86.0158 129.704 81.657ZM132.692 81.2384C134.061 81.6999 135.276 82.5108 136.207 83.5856C138.007 85.5025 139.26 87.8399 139.843 90.368C139.933 90.9909 140.358 91.5308 140.403 92.1736C140.53 93.6902 141.033 97.6221 139.922 99.6487C139.408 100.587 139.076 101.664 138.018 102.235C137.633 102.443 137.728 102.88 138.018 102.871C139.305 103.025 140.61 102.833 141.793 102.315C147.347 99.1288 147.124 89.8995 143.701 85.2966C138.651 77.3397 131.563 80.5573 132.692 81.2384Z" fill="black"/>
<path d="M97.9931 41.8481C101.449 39.7285 109.318 40.5375 113.585 41.9777C123.766 45.4096 129.095 52.9711 123.007 57.2302C117.825 60.8565 105.445 57.5193 100.102 53.9893C93.9007 49.8913 93.8183 44.4096 97.9931 41.8481ZM122.149 53.7319C122.836 54.7668 122.584 55.3581 123.241 54.6438C124.485 53.29 123.889 51.2319 121.983 49.0691C115.451 41.6588 102.269 40.7219 98.5525 43.1953C97.5882 43.8568 96.9258 44.853 96.701 45.9761C96.478 47.0991 96.7113 48.2626 97.3514 49.2236C97.6225 49.6156 98.8631 48.6106 99.4997 48.1089C104.007 44.5491 118.558 48.3099 122.149 53.7319Z" fill="black"/>
<path d="M67.3594 76.9728C63.0954 75.9179 62.79 71.8531 62.4725 67.6156C62.9204 63.2452 63.2944 59.094 67.0505 56.5541C74.4186 51.5724 77.8932 75.1306 67.3594 76.9728ZM69.693 57.4661C68.0251 56.7933 66.021 58.7053 65.4427 60.1903C61.7535 69.6588 65.127 75.9711 67.6236 75.6123C68.0852 75.5442 68.2087 75.3781 67.9874 74.9777C66.3401 71.9877 65.8357 65.1256 68.5725 59.8797C69.1954 58.687 70.1906 58.5641 70.1322 57.7684C70.1357 57.4694 69.8749 57.5392 69.693 57.4661Z" fill="black"/>
<path d="M138.447 40.4892C138.14 37.3331 140.394 35.9161 142.86 36.5507C148.179 37.9194 153.445 46.3082 152.908 51.0025C151.982 59.0989 140.858 52.9444 138.447 40.4892ZM149.139 50.4344C149.418 51.2862 149.521 52.1834 149.441 53.0739C149.545 53.6653 150.834 53.2401 151.258 52.2185C153.524 46.7949 143.344 34.9626 140.393 38.1454C138.308 40.3912 142.891 37.3746 148.382 48.2135C148.638 48.7185 148.929 49.9178 149.139 50.4344Z" fill="black"/>
<path d="M51.3994 98.1239C53.8274 101.531 54.7729 106.576 51.4801 108.549C47.5163 110.923 40.8552 105.928 40.3525 99.2469C39.8943 93.1754 47.1183 92.1156 51.3994 98.1239ZM43.7654 104.536C46.5657 107.755 49.0726 108.087 49.4553 107.958C50.2189 107.697 50.0902 107.227 49.6269 107.018C48.1289 106.071 46.9123 104.763 46.0939 103.224C42.4339 97.3748 45.7301 95.5492 44.0108 95.4877C41.7046 95.4063 40.5567 100.861 43.7654 104.536Z" fill="black"/>
<path d="M33.3505 62.2882C36.7548 62.9527 40.6379 69.9809 38.5342 75.9394C35.7321 83.878 27.5816 77.9162 28.0535 69.2301C28.3589 63.4859 31.2519 61.8763 33.3505 62.2882ZM35.1144 78.27C36.9007 77.6587 34.7455 76.7019 34.1724 74.6155C34.1037 74.3663 31.8147 68.5507 34.1398 65.3132C34.8587 64.3165 34.9068 64.3746 34.1398 63.9062C33.7365 63.725 33.2973 63.6333 32.8529 63.6377C32.4102 63.6422 31.9726 63.7427 31.5728 63.9319C31.1747 64.1211 30.8247 64.3942 30.5501 64.7311C30.2739 65.0681 30.08 65.4605 29.9805 65.8796C27.7927 74.0972 32.4925 79.157 35.1144 78.27Z" fill="black"/>
<path d="M69.9756 24.6454C74.5793 27.4693 61.4064 38.172 56.4011 34.6537C54.0589 33.0075 57.0514 29.353 59.814 27.2467C62.2214 25.4095 67.1804 22.9311 69.9756 24.6454ZM57.6846 33.8298C58.371 34.2118 58.685 34.3065 59.8981 32.6803C62.2112 30.1952 65.1127 28.2907 68.354 27.1304C68.9546 26.9909 69.7594 27.2035 69.5552 26.4261C69.2875 25.3945 68.7538 25.5025 67.6385 25.4759C62.6676 25.358 54.8843 32.2899 57.6846 33.8298Z" fill="black"/>
<path d="M73.2582 129.787C73.5448 130.221 73.7095 130.72 73.7404 131.234C73.7696 131.749 73.6632 132.262 73.4298 132.725C72.0863 134.639 68.1294 134.777 65.1043 134.327C62.9526 134.008 62.5305 133.514 62.0689 132.406C59.749 126.95 70.2125 126.345 73.2582 129.787ZM63.2288 130.551C63.5154 133.955 64.7148 129.471 70.6878 131.297C71.0516 131.408 71.6659 131.82 72.0605 131.9C73.3457 132.154 72.0605 127.747 65.1832 129.087C64.617 129.199 63.1241 129.998 63.2288 130.551Z" fill="black"/>
<path d="M130.283 122.601C131.98 125.014 126.134 132.717 121.921 132.083C115.389 131.094 126.523 117.255 130.283 122.601ZM123.469 130.157C123.737 129.638 124.039 129.135 124.375 128.654C125.175 127.352 126.191 126.187 127.381 125.205C128.281 124.365 129.118 124.614 129.065 123.617C129.037 123.083 128.938 122.968 128.356 122.953C125.134 122.852 122.668 126.385 121.288 129.548C120.756 130.762 122.966 131.539 123.469 130.157Z" fill="black"/>
<path d="M97.2705 20.9495C85.5578 21.7635 90.6522 9.83314 100.745 15.7801C103.662 17.4993 103.496 20.5176 97.2705 20.9495ZM92.2206 16.4645C91.5874 17.0027 91.9323 17.609 92.4677 18.1256C93.4543 19.0774 93.1008 18.0824 94.99 17.9146C99.429 17.5193 98.6071 19.6389 99.7448 19.2435C104.846 17.4728 95.2354 13.8897 92.2206 16.4595V16.4645Z" fill="black"/>
<path d="M95.4411 74.1723C98.8626 75.7022 98.9467 76.8832 99.4838 78.6457C99.7823 79.6241 99.1234 80.408 98.4439 81.109C97.9806 81.5857 97.2617 81.5974 96.3128 81.7568C95.3056 81.7811 94.3052 81.5884 93.3838 81.1929C92.4623 80.7974 91.6421 80.2086 90.9849 79.4694C89.7409 78.516 88.943 76.1274 89.8936 75.0377C90.5851 74.3145 91.5083 73.8365 92.5138 73.6796C93.5193 73.5228 94.5488 73.6962 95.4411 74.1723ZM91.0639 76.3965C91.0639 78.4763 92.8278 76.3598 95.4411 78.1804C96.891 79.192 97.0884 80.1739 97.5431 79.9397C98.401 79.5111 98.401 77.0508 95.4411 75.5591C92.7832 74.2186 90.7739 75.2271 91.0639 76.3965Z" fill="black"/>
</svg>
