<svg width="23" height="23" viewBox="0 0 23 23" fill="none" xmlns="http://www.w3.org/2000/svg">
<circle cx="11.5" cy="11.5" r="11.5" fill="#D9D9D9"/>
<path d="M12.5625 5.65625C12.5625 5.26687 12.678 4.88623 12.8943 4.56247C13.1106 4.23871 13.4181 3.98637 13.7778 3.83736C14.1376 3.68835 14.5334 3.64937 14.9153 3.72533C15.2972 3.80129 15.648 3.9888 15.9234 4.26413C16.1987 4.53947 16.3862 4.89027 16.4622 5.27217C16.5381 5.65407 16.4991 6.04992 16.3501 6.40966C16.2011 6.7694 15.9488 7.07688 15.625 7.29321C15.3013 7.50954 14.9206 7.625 14.5312 7.625C14.0091 7.625 13.5083 7.41758 13.1391 7.04837C12.7699 6.67915 12.5625 6.1784 12.5625 5.65625ZM18.7268 10.5957C18.6847 10.7388 18.5876 10.8594 18.4566 10.9308C18.3257 11.0023 18.1717 11.0188 18.0286 10.9768L12.469 9.34133L11.922 10.1619L14.4061 10.8812C14.4911 10.9058 14.5691 10.9501 14.6338 11.0106C14.6985 11.071 14.748 11.1459 14.7782 11.2291C14.8085 11.3122 14.8188 11.4014 14.8081 11.4893C14.7974 11.5771 14.7662 11.6612 14.7169 11.7348L13.3282 13.8048L16.9064 14.8419C17.2745 14.9494 17.598 15.1729 17.8288 15.4791C18.0597 15.7853 18.1855 16.1579 18.1875 16.5413C18.1858 17.0108 17.9985 17.4606 17.6664 17.7924C17.3343 18.1242 16.8844 18.3112 16.4149 18.3125C16.2451 18.3126 16.0761 18.2889 15.9129 18.2422L4.84289 15.0324C4.47494 14.9248 4.15157 14.7012 3.92087 14.395C3.69018 14.0888 3.56449 13.7163 3.5625 13.333C3.56309 13.0575 3.62775 12.786 3.75137 12.5399C3.87499 12.2938 4.05418 12.0798 4.27476 11.9149C4.49535 11.75 4.75128 11.6386 5.02232 11.5897C5.29335 11.5407 5.57206 11.5555 5.83641 11.6328L8.98148 12.5469L11.3384 9.01156L8.46609 8.16781C8.32297 8.12567 8.20245 8.02839 8.13105 7.89739C8.05964 7.76639 8.04321 7.61238 8.08535 7.46926C8.1275 7.32614 8.22477 7.20562 8.35577 7.13421C8.48678 7.06281 8.64078 7.04637 8.78391 7.08852L18.3464 9.90102C18.4886 9.94326 18.6083 10.04 18.6796 10.1701C18.7508 10.3002 18.7678 10.4531 18.7268 10.5957ZM11.2673 11.1406L10.1142 12.8703L12.1941 13.4736L13.3535 11.7446L11.2673 11.1406Z" fill="#343330"/>
</svg>
