<svg width="125" height="121" viewBox="0 0 125 121" fill="none" xmlns="http://www.w3.org/2000/svg">
<path d="M11.2471 24.4249C30.7639 -1.84677 66.5519 -6.53729 94.2022 8.48596C135.435 30.887 135.524 95.9564 85.54 115.619C66.8987 122.952 41.2273 121.5 24.1307 108.353C14.8251 101.198 8.52301 91.4587 4.83458 84.4375C-4.21595 63.8857 0.303591 39.154 11.2471 24.4249ZM1.84831 67.3804C1.9916 72.7771 6.69456 89.6885 19.7416 101.761C52.6136 132.175 104.663 117.95 118.796 79.4875C127.017 57.1142 121.903 25.2115 91.1056 8.86193C57.1173 -9.18152 11.0909 7.32755 3.09786 47.1214C1.58466 53.7689 1.16192 60.6058 1.84831 67.3804Z" fill="black"/>
<path d="M56.1233 78.1529C60.3648 76.6741 64.4143 79.6207 66.634 82.9877C71.2638 90.0145 69.6718 100.052 60.9896 99.544C58.469 99.544 53.5697 95.561 52.0121 89.8661C50.4889 84.3015 52.783 79.3169 56.1233 78.1529ZM52.5839 86.9499C53.0897 92.9154 57.5992 97.6517 60.4135 98.1872C62.2377 98.5327 57.6909 95.0658 56.9515 87.8101C56.0616 78.9909 61.729 80.2742 60.5683 79.2531C59.869 78.8631 59.0536 78.7162 58.2569 78.8369C55.8352 78.3291 52.1439 81.7822 52.5839 86.9499Z" fill="black"/>
<path d="M91.8253 62.275C95.551 58.2948 102.66 58.8261 106.245 67.7036C109.528 75.8305 101.832 87.2647 92.5389 77.394C89.3377 73.995 88.4234 65.9153 91.8253 62.275ZM94.32 61.9254C95.4635 62.3108 96.4781 62.9881 97.2562 63.8857C98.7593 65.4866 99.8054 67.4387 100.293 69.5501C100.367 70.0703 100.722 70.5212 100.76 71.0581C100.866 72.3247 101.286 75.6085 100.359 77.301C99.9286 78.0849 99.6521 78.9838 98.7679 79.4611C98.447 79.6345 98.5258 79.9994 98.7679 79.9924C99.8427 80.1212 100.933 79.9604 101.92 79.5277C106.559 76.8668 106.373 69.1588 103.514 65.3146C99.2967 58.6693 93.3772 61.3566 94.32 61.9254Z" fill="black"/>
<path d="M65.3429 29.028C68.2288 27.2578 74.8004 27.9334 78.3641 29.1362C86.8659 32.0024 91.3166 38.3175 86.2325 41.8746C81.905 44.9031 71.5662 42.116 67.104 39.1679C61.9253 35.7454 61.8565 31.1672 65.3429 29.028ZM85.516 38.9529C86.0892 39.8172 85.8785 40.3111 86.4274 39.7145C87.4663 38.5838 86.969 36.865 85.377 35.0587C79.9218 28.8698 68.9138 28.0874 65.81 30.1531C65.0047 30.7055 64.4516 31.5375 64.2639 32.4755C64.0776 33.4135 64.2725 34.3851 64.807 35.1877C65.0334 35.5151 66.0694 34.6758 66.601 34.2568C70.3654 31.2838 82.5168 34.4247 85.516 38.9529Z" fill="black"/>
<path d="M39.7601 58.3628C36.1992 57.4819 35.9442 54.0871 35.6791 50.5481C36.0531 46.898 36.3655 43.4311 39.5022 41.3099C45.6553 37.1494 48.557 56.8243 39.7601 58.3628ZM41.7089 42.0716C40.3161 41.5097 38.6424 43.1065 38.1595 44.3468C35.0787 52.2545 37.8959 57.5263 39.9808 57.2266C40.3663 57.1698 40.4694 57.031 40.2846 56.6967C38.9089 54.1995 38.4877 48.4685 40.7732 44.0873C41.2934 43.0912 42.1245 42.9886 42.0758 42.3241C42.0786 42.0743 41.8608 42.1326 41.7089 42.0716Z" fill="black"/>
<path d="M99.1258 27.8931C98.8693 25.2572 100.752 24.0738 102.811 24.6038C107.254 25.7469 111.651 32.7529 111.203 36.6735C110.429 43.4352 101.139 38.2952 99.1258 27.8931ZM108.055 36.199C108.288 36.9104 108.374 37.6597 108.307 38.4034C108.394 38.8973 109.47 38.5422 109.824 37.689C111.717 33.1594 103.215 23.2775 100.751 25.9356C99.0097 27.8113 102.837 25.2919 107.423 34.3442C107.636 34.7659 107.88 35.7675 108.055 36.199Z" fill="black"/>
<path d="M26.4321 76.0275C28.4597 78.8729 29.2492 83.0862 26.4994 84.7343C23.1893 86.7168 17.6265 82.5451 17.2067 76.9654C16.8241 71.8947 22.8568 71.0096 26.4321 76.0275ZM20.0568 81.3826C22.3954 84.0712 24.489 84.3487 24.8085 84.2404C25.4462 84.0226 25.3387 83.63 24.9518 83.4552C23.7008 82.6643 22.6849 81.5724 22.0013 80.2866C18.9449 75.4018 21.6976 73.8772 20.2618 73.8258C18.3359 73.7579 17.3772 78.3138 20.0568 81.3826Z" fill="black"/>
<path d="M11.3591 46.0989C14.2021 46.6539 17.4449 52.5236 15.6881 57.4999C13.3481 64.1299 6.54153 59.1508 6.9356 51.8966C7.19066 47.0992 9.60663 45.7549 11.3591 46.0989ZM12.8322 59.4463C14.3239 58.9358 12.5241 58.1367 12.0455 56.3942C11.9882 56.1861 10.0766 51.3291 12.0183 48.6253C12.6187 47.7929 12.6588 47.8414 12.0183 47.4502C11.6815 47.2988 11.3147 47.2223 10.9436 47.226C10.5739 47.2298 10.2085 47.3137 9.87458 47.4717C9.54213 47.6297 9.24982 47.8578 9.02055 48.1391C8.78984 48.4206 8.62792 48.7483 8.5448 49.0983C6.71779 55.9614 10.6427 60.1872 12.8322 59.4463Z" fill="black"/>
<path d="M41.945 14.6608C45.7896 17.0193 34.7888 25.9578 30.6089 23.0194C28.6529 21.6446 31.152 18.5925 33.459 16.8334C35.4694 15.299 39.6107 13.2291 41.945 14.6608ZM31.6807 22.3313C32.2539 22.6504 32.5161 22.7295 33.5292 21.3713C35.4609 19.2959 37.884 17.7053 40.5908 16.7363C41.0924 16.6197 41.7644 16.7973 41.5939 16.1481C41.3704 15.2865 40.9247 15.3767 39.9933 15.3545C35.842 15.256 29.3421 21.0453 31.6807 22.3313Z" fill="black"/>
<path d="M44.6867 102.471C44.926 102.834 45.0635 103.251 45.0893 103.68C45.1137 104.11 45.0248 104.539 44.8299 104.925C43.7079 106.524 40.4036 106.639 37.8773 106.263C36.0803 105.996 35.7278 105.584 35.3424 104.659C33.405 100.102 42.1432 99.5967 44.6867 102.471ZM36.311 103.109C36.5503 105.952 37.552 102.208 42.5401 103.732C42.8439 103.825 43.3569 104.169 43.6865 104.236C44.7597 104.448 43.6864 100.768 37.9432 101.887C37.4703 101.98 36.2236 102.647 36.311 103.109Z" fill="black"/>
<path d="M92.3082 96.4698C93.7254 98.4856 88.8433 104.919 85.3254 104.389C79.8702 103.563 89.1686 92.0054 92.3082 96.4698ZM86.618 102.781C86.8415 102.347 87.0937 101.927 87.3746 101.525C88.0423 100.438 88.8906 99.4646 89.8851 98.6451C90.636 97.9431 91.3352 98.1512 91.2908 97.3188C91.2679 96.8721 91.1848 96.7764 90.699 96.7639C88.0079 96.6793 85.9488 99.6301 84.7967 102.272C84.3525 103.286 86.1981 103.935 86.618 102.781Z" fill="black"/>
<path d="M64.7394 11.5742C54.9581 12.254 59.2125 2.29018 67.6411 7.25685C70.0772 8.69273 69.9382 11.2135 64.7394 11.5742ZM60.5222 7.82843C59.9935 8.27792 60.2815 8.78429 60.7286 9.21575C61.5525 10.0107 61.2573 9.17968 62.835 9.03956C66.5421 8.70938 65.8557 10.4796 66.8057 10.1494C71.0659 8.67053 63.0399 5.67809 60.5222 7.82427V7.82843Z" fill="black"/>
<path d="M63.2117 56.024C66.069 57.3017 66.1392 58.2881 66.5877 59.76C66.8371 60.5772 66.2868 61.2318 65.7194 61.8173C65.3325 62.2154 64.7321 62.2252 63.9396 62.3583C63.0985 62.3786 62.2631 62.2177 61.4936 61.8874C60.7241 61.557 60.0391 61.0654 59.4903 60.448C58.4514 59.6517 57.7851 57.6569 58.5789 56.7468C59.1564 56.1427 59.9274 55.7436 60.7671 55.6125C61.6068 55.4815 62.4666 55.6264 63.2117 56.024ZM59.5562 57.8816C59.5562 59.6185 61.0293 57.8509 63.2117 59.3714C64.4225 60.2163 64.5873 61.0364 64.9671 60.8408C65.6835 60.4828 65.6835 58.4281 63.2117 57.1823C60.992 56.0627 59.3141 56.9049 59.5562 57.8816Z" fill="black"/>
</svg>
