<svg width="138" height="144" viewBox="0 0 138 144" fill="none" xmlns="http://www.w3.org/2000/svg">
<path d="M47.0776 109.575C48.3278 109.132 49.6087 108.781 50.9101 108.525L51.0676 109.103C51.0852 109.171 51.1267 109.23 51.1846 109.27C51.2424 109.31 51.3127 109.328 51.3826 109.32L56.5351 108.72C57.9526 105.488 60.5551 100.59 60.5926 100.515C60.5551 99.2925 60.5926 98.265 60.5926 97.095C57.6451 98.19 52.1926 100.268 49.3426 101.595C49.2781 101.637 49.2283 101.697 49.2001 101.769C49.1718 101.84 49.1666 101.918 49.1851 101.993C49.1851 101.993 49.2376 102.18 49.3051 102.45C47.9101 102.45 43.7326 102.248 42.7276 103.2C42.5713 103.418 42.4946 103.682 42.5101 103.95C42.4501 104.985 42.9676 113.025 43.7926 115.388C44.2201 116.625 45.1201 116.49 45.7351 115.305C46.4469 113.52 46.9039 111.645 47.0926 109.733C47.0926 109.635 47.0701 109.643 47.0776 109.575ZM46.2151 102.863C47.1301 102.788 47.4151 102.803 49.3801 102.743C49.7326 104.078 50.4601 106.823 50.8351 108.225C49.5118 108.43 48.2057 108.733 46.9276 109.133C46.5293 107.064 46.2911 104.968 46.2151 102.863Z" fill="#FFFCF9"/>
<path d="M116.107 37.2224C116.295 36.9599 116.055 36.6224 115.852 36.3599C116.426 35.7699 117.062 35.2443 117.75 34.7924C118.91 34.2141 119.971 33.4546 120.892 32.5424C121.275 32.1449 121.995 31.3274 121.725 30.8474C121.455 30.3674 120.975 30.3374 120.322 30.6149C120.605 30.3181 120.836 29.9758 121.005 29.6024C121.215 29.0174 120.72 28.5449 119.647 28.9799C120.037 28.3574 120.127 27.7049 119.467 27.3899C118.935 27.1349 118.155 27.7424 117.705 28.1399C116.821 28.912 115.992 29.744 115.222 30.6299C114.75 29.6399 114 28.4999 113.062 28.8599C112.125 29.2199 112.852 30.8324 113.332 31.7099L111.63 32.8874C111.373 32.7485 111.082 32.6836 110.79 32.6999C108.855 33.0299 99.9674 39.7949 99.0674 39.7949C98.3774 39.7949 88.5224 35.0699 80.0024 33.7049C79.986 33.6538 79.9554 33.6084 79.9143 33.5739C79.8732 33.5394 79.8231 33.5172 79.7699 33.5099C78.2839 33.2564 76.7772 33.1434 75.2699 33.1724C75.2242 33.1755 75.1798 33.1885 75.1396 33.2105C75.0995 33.2326 75.0646 33.2631 75.0374 33.2999H74.4074C74.2574 32.6924 73.7024 31.2899 73.5074 30.7499C74.0174 30.3074 74.7224 30.0824 75.0899 29.3699C75.7649 28.0499 75.7349 25.7549 75.5474 24.2849C76.3949 23.6399 76.4174 22.6049 76.2224 21.5474C76.1474 21.1199 75.9149 20.1524 75.5549 19.9124C75.3524 19.7774 74.9249 19.9124 74.5574 20.0474C74.1899 19.1924 74.1899 19.5824 74.3399 19.2374C74.4096 19.0784 74.4502 18.9083 74.4599 18.7349C74.8574 18.8549 75.6824 18.0599 75.3974 17.0099C75.2481 16.6341 75.0649 16.2726 74.8499 15.9299C74.9549 15.6749 75.1799 15.3674 74.4749 14.4299C74.1713 14.1024 73.7771 13.8727 73.3424 13.7699H72.9974C72.7487 13.4086 72.3832 13.1438 71.9624 13.0199C71.3272 12.858 70.6538 12.9523 70.0874 13.2824C69.9374 13.3949 69.8174 13.5449 69.6674 13.6499C69.3283 13.444 68.9392 13.3351 68.5424 13.3351C68.1457 13.3351 67.7566 13.444 67.4174 13.6499C67.2189 13.7278 67.0382 13.8451 66.8861 13.9946C66.734 14.1441 66.6137 14.3228 66.5324 14.5199C66.165 14.3931 65.7751 14.3443 65.3877 14.3766C65.0003 14.4089 64.6239 14.5216 64.2824 14.7074C62.9868 15.41 62.0177 16.5918 61.5824 17.9999C61.5703 18.2123 61.5703 18.4251 61.5824 18.6374H61.4999C60.3749 18.4724 58.9424 21.1424 60.0899 23.2199C60.2249 23.4674 60.3974 23.6999 60.5624 23.9699C61.0424 24.7199 60.8549 24.9449 61.9274 25.8599C62.2424 26.1299 62.2949 26.1074 62.4899 26.2724C62.6849 26.4374 62.6099 26.3549 62.7224 26.7749C62.7838 27.0224 62.8936 27.2551 63.0455 27.4598C63.1974 27.6645 63.3884 27.8371 63.6074 27.9674C63.6871 28.701 64 29.3897 64.4999 29.9324C64.6583 30.1096 64.843 30.2614 65.0474 30.3824C65.1026 30.4135 65.1642 30.4315 65.2274 30.4349C65.4524 31.8299 65.7299 33.6449 65.8499 34.4174L65.1824 34.7774C64.3091 35.1288 63.4598 35.5372 62.6399 35.9999C62.5756 36.0444 62.5302 36.1113 62.5124 36.1874C61.7174 36.6074 60.9674 37.0049 60.5399 37.2599C54.5849 40.7924 37.6724 64.0799 37.4999 65.1449C37.4809 65.206 37.4809 65.2714 37.4999 65.3324C37.7424 65.7192 38.0377 66.0701 38.3774 66.3749C38.2728 66.5659 38.147 66.7445 38.0024 66.9074C36.5024 67.8899 34.2524 69.3524 33.0449 70.6574C32.9603 70.7329 32.8967 70.8292 32.8606 70.9368C32.8245 71.0443 32.817 71.1595 32.839 71.2708C32.861 71.3821 32.9116 71.4858 32.9858 71.5715C33.0601 71.6573 33.1554 71.7223 33.2624 71.7599C33.4874 71.8349 33.5249 71.8124 34.9874 71.0099C34.5855 71.3625 34.2568 71.7906 34.0199 72.2699C33.9224 72.6824 34.2974 72.9224 34.7699 72.8474C35.0358 72.7777 35.2889 72.6664 35.5199 72.5174C35.3847 72.7263 35.3127 72.9698 35.3127 73.2187C35.3127 73.4675 35.3847 73.7111 35.5199 73.9199C36.2699 74.8649 38.2349 71.8874 39.2699 71.1524C39.6899 71.6849 40.2599 72.9299 41.1674 72.5999C41.9549 72.3074 41.0924 70.5749 41.1674 70.0724C41.4726 69.7794 41.7985 69.5087 42.1424 69.2624C42.721 69.6915 43.3825 69.9955 44.0849 70.1549C45.3224 70.1549 58.2374 57.1199 59.2199 56.0774C58.8674 59.3924 57.0899 73.6199 57.4649 76.3874C57.6374 77.6399 60.6449 77.8199 61.9124 77.8874C61.5299 86.8874 61.2749 100.522 61.2074 100.665C59.2199 104.947 58.6799 106.117 58.0124 107.415C56.7974 109.74 51.6824 118.32 51.1049 120.27C51.0224 120.577 51.0149 120.697 51.3374 121.267C50.371 122.284 49.4739 123.363 48.6524 124.5C48.2399 125.25 50.0099 132.24 51.2624 134.715C51.5474 135.27 52.0124 136.125 52.6349 136.102C54.5099 136.035 54.5024 129.3 54.4499 127.417C54.4496 127.359 54.4283 127.303 54.3899 127.26C54.7298 126.753 55.1005 126.267 55.4999 125.805C55.7384 125.969 55.9891 126.114 56.2499 126.24C56.5049 126.352 56.7899 126.157 56.9999 125.985C59.4974 124.02 72.9674 107.235 75.8549 99.3149C77.1674 95.6999 78.9149 90.7049 79.4099 87.1649C79.7126 84.9267 79.7403 82.6599 79.4924 80.4149C79.4924 80.3831 79.5051 80.3526 79.5276 80.3301C79.5501 80.3076 79.5806 80.2949 79.6124 80.2949C79.6443 80.2949 79.6748 80.3076 79.6973 80.3301C79.7198 80.3526 79.7324 80.3831 79.7324 80.4149C80.108 82.6727 80.1812 84.9704 79.9499 87.2474C79.3949 92.1599 75.5174 102.397 73.4474 106.162C75.2324 105.832 78.8624 105.112 80.6174 104.587C86.4674 102.81 91.8674 97.5074 92.3399 91.5524C92.4928 88.747 92.4928 85.9354 92.3399 83.1299C92.2893 79.257 91.7859 75.4034 90.8399 71.6474C92.4299 70.7849 93.8849 69.7724 94.3574 68.8424C95.3699 66.8549 92.6924 55.4174 92.1074 52.2074C95.3099 52.5599 100.762 53.1974 103.305 51.2099C106.215 48.8699 112.5 42.2849 116.107 37.2224ZM54.0449 127.005C52.6949 126.187 50.8049 124.245 50.5199 122.722C50.8274 122.332 51.1499 121.972 51.4499 121.567C52.4664 123.118 53.7336 124.49 55.1999 125.625C54.788 126.062 54.4023 126.523 54.0449 127.005ZM113.67 31.9199C113.709 31.8952 113.737 31.8565 113.748 31.8119C113.759 31.7672 113.753 31.72 113.73 31.6799C113.467 31.1924 112.68 29.4749 113.227 29.2799C113.542 29.1599 113.82 29.3549 114.052 29.6174C114.407 30.0678 114.684 30.575 114.87 31.1174C114.884 31.1615 114.909 31.201 114.944 31.2317C114.979 31.2624 115.021 31.283 115.066 31.2915C115.112 31.3 115.159 31.296 115.202 31.2798C115.245 31.2637 115.284 31.2361 115.312 31.1999C116.062 30.3674 117.817 28.4699 118.807 27.9599C119.557 27.5699 119.737 28.2899 117.9 29.9699C117.478 30.2918 117.072 30.6347 116.685 30.9974C116.664 31.0269 116.652 31.0623 116.652 31.0987C116.652 31.1351 116.664 31.1705 116.685 31.1999C116.685 31.3949 116.842 31.6124 117.112 31.4099C117.764 30.8377 118.453 30.309 119.175 29.8274C119.543 29.5658 119.971 29.4008 120.42 29.3474C120.195 30.0374 118.102 31.9124 117.922 32.1224C117.865 32.1736 117.831 32.2452 117.826 32.3217C117.821 32.3982 117.846 32.4735 117.896 32.5315C117.947 32.5895 118.017 32.6255 118.094 32.6317C118.17 32.638 118.246 32.614 118.305 32.5649C119.137 32.0249 120.592 30.7649 121.095 30.9524C121.597 31.1399 120.105 32.5349 119.73 32.8649C117.577 34.7324 118.132 33.5324 115.642 36.0674C114.559 34.8801 113.314 33.8502 111.945 33.0074L113.67 31.9199ZM81.0824 67.7924C80.9549 66.7574 80.7974 65.6399 80.6024 64.4774L80.9249 64.0499C82.4249 62.1224 82.8749 59.0549 82.7324 56.6474C83.5349 60.1649 84.1724 63.6224 84.6599 67.0574L81.0824 67.7924ZM69.9299 42.1124C67.9574 40.6124 64.7849 38.0249 62.9399 36.2549L65.9399 34.7549C68.6947 37.3281 71.0528 40.2953 72.9374 43.5599C75.819 48.8537 77.9567 54.5196 79.2899 60.3974L68.5949 45.2699L69.9899 42.3749C70.0084 42.3304 70.0126 42.2812 70.0018 42.2341C69.9911 42.1871 69.9659 42.1446 69.9299 42.1124ZM74.9999 33.6074C75.0449 33.6899 75.5624 34.7924 76.3499 36.7199C76.3499 36.8024 76.2074 38.6774 76.1399 39.3374C75.1827 38.958 74.2799 38.4536 73.4549 37.8374C73.6199 37.1849 74.3624 34.2224 74.4149 33.5549L74.9999 33.6074ZM72.3374 41.6624C72.3899 41.5274 72.4424 41.3474 72.5024 41.1374L73.0049 41.3999C73.2899 41.5874 73.1774 41.0174 73.4324 42.6674C73.4324 42.9449 73.5074 43.2524 73.5224 43.5899C73.1774 42.9674 72.7499 42.2999 72.3449 41.6624H72.3374ZM71.9174 41.0324C70.5005 39.0227 68.8876 37.1586 67.1024 35.4674L72.7499 37.9199C72.5324 38.4374 72.2174 40.0199 71.9249 41.0324H71.9174ZM77.6849 45.4274C76.9349 43.3799 76.3574 41.0924 76.0724 40.4924C76.0894 40.3053 76.0894 40.1171 76.0724 39.9299C76.181 39.9703 76.2945 39.9956 76.4099 40.0049C76.4823 40.0058 76.5525 39.9804 76.6076 39.9335C76.6628 39.8867 76.6991 39.8215 76.7099 39.7499C76.7699 39.5024 76.8674 38.2499 76.8824 37.9724C79.0642 43.4808 80.8855 49.1252 82.3349 54.8699C78.0974 45.8549 78.7499 48.4649 77.6924 45.4274H77.6849ZM83.8874 59.7449C82.1774 51.5474 79.1699 41.3249 75.7499 33.7499C77.0059 33.7506 78.2598 33.851 79.4999 34.0499C80.1374 39.7499 79.6049 39.5549 80.0324 39.7799C80.4599 40.0049 83.0324 41.0399 83.4149 41.1974C83.3774 41.7749 83.9174 58.2899 83.8949 59.7449H83.8874ZM75.2549 20.3924C75.6459 21.2457 75.7839 22.1932 75.6524 23.1224C75.5914 23.359 75.4659 23.5739 75.2899 23.7433C75.114 23.9128 74.8945 24.03 74.6558 24.0821C74.4171 24.1342 74.1687 24.119 73.9382 24.0383C73.7076 23.9576 73.504 23.8145 73.3499 23.6249C72.9921 22.8711 72.7228 22.0783 72.5474 21.2624C72.7499 20.9999 74.9099 20.4749 75.2549 20.3924ZM64.9349 27.8924C64.661 27.7677 64.3806 27.6576 64.0949 27.5624C63.9032 27.4836 63.7321 27.362 63.5947 27.2068C63.4573 27.0517 63.3572 26.8671 63.3022 26.6673C63.2472 26.4674 63.2387 26.2576 63.2773 26.054C63.3159 25.8504 63.4006 25.6583 63.5249 25.4924C63.9974 25.0949 64.4249 25.1174 64.8149 25.7099C65.0624 26.1674 65.0549 26.2049 65.1674 26.2499C65.1997 26.2642 65.2347 26.2713 65.2699 26.2709C65.3052 26.2706 65.34 26.2627 65.3719 26.2477C65.4039 26.2328 65.4323 26.2113 65.4552 26.1845C65.4782 26.1577 65.4951 26.1263 65.5049 26.0924C65.6161 25.623 65.6339 25.1363 65.5574 24.6599C65.4674 24.1424 65.4524 21.8474 65.4674 21.7724C65.6865 21.8879 65.9326 21.9423 66.1799 21.9299C67.5374 21.8774 67.8074 21.1799 68.3474 20.6099C68.9699 20.6699 69.0974 20.9699 69.8024 20.6099C70.1326 20.4222 70.4354 20.19 70.7024 19.9199C70.918 20.0082 71.1262 20.1135 71.3249 20.2349C71.7744 20.4511 72.2814 20.5175 72.7714 20.4243C73.2614 20.3312 73.7086 20.0834 74.0474 19.7174C74.1299 19.8749 74.2049 20.0324 74.2724 20.1974C73.5832 20.4113 72.9344 20.7383 72.3524 21.1649C72.2249 21.3224 72.4124 22.1774 72.4574 22.3799C71.8292 22.459 71.2212 22.6549 70.6649 22.9574C70.5524 22.5674 70.3049 21.8399 69.9149 21.6374C69.7976 21.6015 69.6723 21.6015 69.5549 21.6374C68.8799 21.7424 66.4574 22.4699 66.1649 22.8674C65.9099 23.1449 66.6374 25.2899 66.8624 25.6424C67.7249 26.9774 70.2524 26.5874 70.7249 25.0274C70.8419 24.5039 70.8419 23.961 70.7249 23.4374C70.9424 23.4374 71.5949 23.2049 71.6699 23.1824C72.1874 24.3449 72.3374 24.4124 72.9374 25.6649C72.8549 25.7324 72.7199 25.8449 72.6074 25.9199C72.0749 26.2724 71.9624 26.2124 71.9924 26.3624C72.0012 26.3922 72.0205 26.4178 72.0467 26.4343C72.0729 26.4509 72.1043 26.4573 72.1349 26.4524C72.4497 26.4075 72.7573 26.3217 73.0499 26.1974C73.2251 26.1321 73.3695 26.0037 73.4549 25.8374C73.6649 25.3649 72.5024 23.5874 72.0449 23.0549C72.1349 23.0549 72.3449 22.9049 72.5024 22.8224C72.7124 23.6624 72.8549 24.3224 73.6649 24.6524C73.899 24.7408 74.1486 24.7811 74.3986 24.7708C74.6486 24.7604 74.8939 24.6998 75.1199 24.5924C75.2399 25.9124 75.2174 28.0574 74.5874 29.2274C74.2649 29.8349 73.4699 30.0674 72.9599 30.5699C72.8099 30.7124 72.9074 30.9149 72.9599 31.1324C73.7924 33.4499 73.8074 33.4424 73.7624 33.7424C73.5417 34.9876 73.2334 36.2156 72.8399 37.4174C72.6524 37.3349 70.5449 36.2174 66.4199 34.6124C66.2924 33.7649 65.6099 29.2424 65.3924 28.4099C65.4074 28.1174 65.3699 28.0499 64.9349 27.8549V27.8924ZM70.1849 24.8324C69.9449 25.6499 68.8124 26.0024 68.0024 25.7774C67.1924 25.5524 67.1399 25.1399 66.7574 24.1649C66.5782 23.7925 66.4543 23.3958 66.3899 22.9874C66.6374 22.7174 69.3449 22.1624 69.6824 22.1099C70.1558 22.9197 70.3334 23.8688 70.1849 24.7949V24.8324ZM40.8374 69.8624C40.5524 70.1399 40.9349 71.0474 40.9949 71.8349C40.9949 71.9024 40.9949 72.1949 40.9499 72.2174C40.5374 72.3524 40.1549 71.7299 39.9224 71.3549C39.6899 70.9799 39.4574 70.4699 39.0899 70.6049C38.3399 70.9574 36.5999 73.2674 35.9174 73.5074C35.5724 72.8474 37.5449 70.9649 37.6124 70.8599C37.6414 70.8117 37.6565 70.7565 37.6563 70.7003C37.656 70.644 37.6403 70.589 37.611 70.541C37.5816 70.4931 37.5396 70.4541 37.4896 70.4283C37.4396 70.4026 37.3835 70.391 37.3274 70.3949C37.1924 70.3949 37.1024 70.5149 36.8924 70.7024C36.2537 71.3258 35.5226 71.847 34.7249 72.2474C35.4481 71.4178 36.2221 70.6338 37.0424 69.8999C37.083 69.8583 37.1115 69.8065 37.1249 69.7499C37.1249 69.7499 36.9674 69.3524 36.6599 69.5099C36.2249 69.7499 34.1099 70.9724 33.4424 71.2874C33.3524 71.2274 33.4049 71.1374 33.4424 71.0474C34.4999 69.7499 36.8249 68.1749 38.2499 67.1774C38.4172 67.0052 38.5564 66.8078 38.6624 66.5924C39.6493 67.5107 40.7022 68.3555 41.8124 69.1199C41.4704 69.3442 41.1446 69.5923 40.8374 69.8624ZM58.2899 76.6799C58.1249 76.5749 58.0049 76.4774 57.9824 76.3424C57.5699 73.2824 59.8649 55.9424 59.8274 55.2599C59.8275 55.2199 59.8195 55.1803 59.8039 55.1434C59.7884 55.1065 59.7656 55.0731 59.7369 55.0451C59.7083 55.0172 59.6743 54.9952 59.637 54.9806C59.5998 54.966 59.56 54.9589 59.5199 54.9599C59.1374 54.9599 59.8124 54.9599 50.2574 64.1099C49.6274 64.7024 44.8124 69.3074 44.0099 69.6149C42.9074 69.5324 38.7599 66.2249 38.0849 65.1824C39.3899 62.5424 55.2149 40.8224 60.6899 37.4999C61.1099 37.2449 61.8299 36.8474 62.6174 36.4274C62.8897 36.6843 63.1833 36.9176 63.4949 37.1249C65.2349 38.7749 67.6574 40.8299 69.4949 42.3749L68.0624 45.2174C68.0407 45.2551 68.0293 45.2977 68.0293 45.3412C68.0293 45.3846 68.0407 45.4273 68.0624 45.4649C79.6949 62.1524 79.5224 61.9649 79.5974 61.9649C80.3431 65.8211 80.8069 69.7264 80.9849 73.6499C80.9849 74.7074 80.9849 74.6174 81.0299 74.5424C81.0749 74.4674 81.0299 74.5949 81.0299 74.5949C79.2149 76.5749 61.2524 78.4199 58.2899 76.6799ZM99.7499 51.8324C96.3524 52.3049 92.5124 51.5999 91.7699 51.5699C91.3573 49.5706 90.5351 47.6783 89.3549 46.0124C89.3369 45.9882 89.3104 45.9716 89.2807 45.966C89.251 45.9604 89.2202 45.9663 89.1946 45.9824C89.1691 45.9985 89.1505 46.0237 89.1427 46.0529C89.1348 46.0821 89.1383 46.1132 89.1524 46.1399C89.5874 47.0249 91.0424 50.8424 91.4024 51.7724C91.2899 52.1324 94.7924 66.6149 93.8024 68.5649C92.9174 70.3274 87.7649 72.5474 85.9049 73.1849C85.5372 69.0096 84.9362 64.8582 84.1049 60.7499C84.3599 58.5899 84.0299 45.7499 83.9324 41.0024C83.9296 40.9473 83.9112 40.8941 83.8793 40.8489C83.8474 40.8038 83.8035 40.7686 83.7524 40.7474L80.3849 39.3299C80.3696 37.5476 80.257 35.7675 80.0474 33.9974C88.4549 35.4524 98.2499 40.2599 99.0674 40.2674C100.252 40.2674 109.057 33.5174 110.88 33.2474C111.69 33.1199 115.17 36.1574 115.575 36.9974C112.02 41.9624 105.772 48.4874 102.877 50.7449C101.945 51.3685 100.868 51.7429 99.7499 51.8324Z" fill="#FFFCF9"/>
<path d="M69.4126 23.3325C69.4032 23.2832 69.3843 23.2363 69.3568 23.1944C69.3293 23.1525 69.2938 23.1164 69.2524 23.0882C69.2109 23.0599 69.1644 23.0402 69.1153 23.03C69.0662 23.0198 69.0156 23.0193 68.9663 23.0287C68.9171 23.0381 68.8702 23.057 68.8283 23.0845C68.7863 23.112 68.7503 23.1475 68.722 23.1889C68.6938 23.2304 68.6741 23.2769 68.6639 23.326C68.6537 23.3751 68.6532 23.4257 68.6626 23.475C68.8126 24.225 68.8426 24.3974 69.1726 24.3974C69.235 24.3977 69.2964 24.3823 69.3514 24.3528C69.4063 24.3233 69.453 24.2805 69.4873 24.2284C69.5215 24.1763 69.5423 24.1164 69.5475 24.0543C69.5528 23.9921 69.5425 23.9296 69.5176 23.8725C69.4951 23.7525 69.4276 23.4 69.4126 23.3325ZM71.7076 28.2975C72.1951 28.44 72.6601 28.2075 72.6451 28.0875C72.6301 27.9675 72.6451 28.0275 71.9851 27.78C71.5426 27.615 71.0551 27.03 70.8826 27.12C70.7101 27.21 70.9726 27.69 71.0326 27.78C71.1931 28.0234 71.4308 28.2057 71.7076 28.2975ZM85.4251 21.1725C84.4426 25.29 83.7226 28.785 83.6026 29.4825C83.5229 29.7859 83.5076 30.1027 83.5576 30.4125C83.9551 31.26 89.0926 32.9325 89.7451 32.6025C90.3976 32.2725 92.0926 28.455 94.0651 24.5175C95.2735 24.5561 96.4825 24.4681 97.6726 24.255C98.9256 24.0251 100.145 23.6396 101.303 23.1075C103.838 21.9375 106.613 16.9275 106.988 14.4074C107.269 11.6715 106.689 8.91595 105.33 6.52495C99.0376 -4.38755 80.5801 1.48495 82.0801 13.6049C82.5084 16.3782 83.6624 18.989 85.4251 21.1725ZM90.0001 30.105C90.0001 30.225 89.8651 30.21 89.2501 30.105C87.9922 29.9469 86.7742 29.5578 85.6576 28.9575C85.1326 28.6725 84.9901 28.6125 85.0426 28.485C85.0951 28.3575 85.2076 28.4025 86.0176 28.6275C86.0926 28.6275 88.4176 29.3775 89.0851 29.61C89.9476 30 90.0001 30 90.0001 30.105ZM89.8651 17.9025C90.666 17.944 91.4641 17.7787 92.1826 17.4225C92.8504 17.746 93.5728 17.9418 94.3126 18C93.0526 20.3475 90.4951 25.1325 89.6701 27.6825L86.4901 26.805C87.2401 24.96 88.8976 20.64 89.8501 17.9025H89.8651ZM89.6026 17.28C89.0427 17.1954 88.5261 16.9295 88.1319 16.5231C87.7376 16.1166 87.4876 15.5921 87.4201 15.03C87.2101 13.53 88.1701 11.85 89.6176 12.2475C90.5251 12.495 90.6376 13.215 90.4801 14.1225C90.3451 14.7825 89.8576 16.44 89.5876 17.25L89.6026 17.28ZM91.6426 15.4799C91.7227 14.9892 91.9068 14.5212 92.1826 14.1075C92.3138 13.8819 92.5057 13.6977 92.7363 13.5757C92.967 13.4537 93.2273 13.3989 93.4876 13.4174C94.0426 13.5825 94.2826 14.6325 93.8251 15.2924C93.3854 15.8759 92.838 16.3698 92.2126 16.7475C91.9974 16.6211 91.826 16.432 91.7214 16.2054C91.6168 15.9788 91.5841 15.7257 91.6276 15.4799H91.6426ZM84.7501 5.94745C88.1101 1.90495 94.4326 0.299951 99.0001 1.96495C101.481 2.81668 103.568 4.54125 104.873 6.81745C106.166 9.09262 106.719 11.7138 106.455 14.3175C106.11 16.65 103.455 21.495 101.123 22.5675C98.99 23.5402 96.6632 24.0123 94.3201 23.9475C94.0651 23.9475 93.7951 23.9474 93.6976 24.1274C93.2551 25.0274 92.4451 26.7675 91.6501 28.4025C91.1011 28.1374 90.5318 27.9167 89.9476 27.7425C90.8176 25.2525 93.5626 20.3625 94.8676 17.9925C95.9983 18.0893 97.1349 17.893 98.1676 17.4225C98.4466 17.2756 98.6779 17.0522 98.8344 16.7785C98.991 16.5047 99.0661 16.192 99.0512 15.8771C99.0362 15.5621 98.9317 15.258 98.75 15.0003C98.5682 14.7427 98.3168 14.5422 98.0251 14.4225C96.8626 13.8525 95.8201 15.2175 95.2126 16.365C95.0476 16.665 94.8601 17.0175 94.6501 17.415C94.0435 17.3751 93.4453 17.2514 92.8726 17.0475C93.443 16.6466 93.9488 16.161 94.3726 15.6075C94.6101 15.2489 94.7304 14.8254 94.7169 14.3955C94.7035 13.9656 94.557 13.5505 94.2976 13.2075C94.0939 12.9708 93.8108 12.8167 93.5015 12.7739C93.1922 12.7311 92.8779 12.8026 92.6176 12.975C92.0924 13.2977 91.6714 13.7652 91.4053 14.3213C91.1393 14.8774 91.0394 15.4985 91.1176 16.11C91.1991 16.4551 91.3851 16.7668 91.6501 17.0025C91.1581 17.2062 90.63 17.3082 90.0976 17.3025C90.3976 16.4175 90.8851 14.82 91.0126 14.1674C91.0926 13.7954 91.1103 13.4128 91.0651 13.035C91.0071 12.7106 90.8566 12.41 90.6317 12.1691C90.4068 11.9283 90.1172 11.7576 89.7976 11.6775C87.9751 11.16 86.6326 13.1775 86.8951 15.06C86.9692 15.7346 87.2588 16.3673 87.7208 16.8645C88.1828 17.3616 88.7927 17.6967 89.4601 17.82C88.5001 20.52 87.0001 24.8775 86.2501 26.7375L84.6001 26.31C85.6576 21 85.7851 21.1275 85.6351 21.06C83.931 18.8872 82.8406 16.2973 82.4776 13.56C82.3008 12.2026 82.4118 10.8233 82.8033 9.51175C83.1949 8.20017 83.8582 6.98573 84.7501 5.94745ZM95.1601 17.46C95.6851 16.5075 96.7351 14.4225 97.7551 14.9325C97.9591 15.0146 98.1368 15.151 98.269 15.3268C98.4011 15.5026 98.4828 15.7111 98.5051 15.93C98.4901 17.25 96.4351 17.4825 95.1301 17.46H95.1601ZM123.87 20.7675C124.774 20.2359 125.841 20.0544 126.87 20.2575C128 20.2777 129.079 20.7295 129.887 21.5202C130.694 22.3109 131.169 23.3806 131.213 24.51C130.533 24.1157 129.739 23.9674 128.963 24.09C127.08 24.2549 124.62 25.275 124.95 27.09C125.22 28.59 127.2 28.3875 128.7 27.9825C130.2 27.5775 131.393 26.8425 131.7 25.395C133.523 26.7225 133.95 29.0475 134.025 31.32C134.025 31.3518 134.038 31.3823 134.06 31.4048C134.083 31.4273 134.113 31.44 134.145 31.44C134.177 31.44 134.207 31.4273 134.23 31.4048C134.252 31.3823 134.265 31.3518 134.265 31.32C134.318 28.7775 133.86 26.2875 131.783 24.84C131.804 24.1888 131.693 23.5401 131.456 22.933C131.22 22.326 130.862 21.7733 130.406 21.3085C129.949 20.8436 129.403 20.4762 128.801 20.2285C128.198 19.9808 127.552 19.858 126.9 19.8675C125.859 19.7154 124.797 19.933 123.9 20.4825C123.623 20.6175 123.75 20.82 123.87 20.7675ZM130.71 26.145C129.863 27.255 127.463 27.8325 126.353 27.645C125.94 27.5775 125.603 27.405 125.513 26.9775C125.243 25.4775 127.83 24.66 129.375 24.6075C130.004 24.5592 130.632 24.72 131.16 25.065C131.103 25.4571 130.949 25.8285 130.71 26.145ZM120.435 12C121.238 11.01 120.698 9.28495 118.455 9.27745C117.585 9.27745 117.165 10.1625 117.225 11.01C117.36 13.0275 119.633 12.9675 120.435 12ZM117.75 10.9725C117.75 10.4775 117.983 9.83245 118.5 9.83995C119.708 9.83995 120.263 10.4025 120.263 11.025C120.233 12.4425 117.653 13.1775 117.75 10.9725ZM117.443 96C110.85 93.3675 107.79 106.11 102.405 117.06C102.371 117.52 102.386 117.983 102.45 118.44C102.45 119.587 102.578 127.185 103.245 128.047C103.425 128.392 104.183 128.047 104.535 127.83C107.529 125.977 110.35 123.858 112.965 121.5C112.987 121.474 113.004 121.445 113.015 121.412C113.025 121.38 113.028 121.346 113.025 121.312C114.42 119.325 119.648 108.975 120.915 103.785C121.8 100.11 120.923 97.3725 117.443 96ZM119.798 105.525C116.268 105.073 112.856 103.958 109.74 102.24C111.495 98.9174 113.663 95.13 117.24 96.555C121.223 98.1375 121.14 101.415 119.798 105.502V105.525ZM107.318 125.025C107.087 124.832 106.836 124.666 106.568 124.53C105.554 124.015 104.383 123.902 103.29 124.215C103.215 123.322 102.788 117.517 102.788 117.465C108.405 119.52 106.673 118.627 112.238 121.395C111.653 121.95 109.455 123.487 107.318 125.01V125.025ZM111.188 103.32C111.919 103.72 112.67 104.083 113.438 104.407C111.719 107.108 110.199 109.93 108.893 112.852C107.633 115.485 107.678 115.47 106.395 118.342C105.645 118.102 104.895 117.877 104.145 117.652C104.955 116.04 110.715 104.25 111.188 103.305V103.32ZM106.688 118.417C109.125 114.045 111.608 108.607 113.738 104.505C114.488 104.82 115.238 105.075 115.988 105.3C115.59 106.05 114.428 108.045 114.12 108.622C113.813 109.2 110.73 115.275 110.513 115.74C110.168 116.49 109.223 118.582 108.93 119.25C108.165 118.912 107.43 118.657 106.658 118.402L106.688 118.417ZM109.2 119.347C109.658 118.515 111.54 115.02 111.773 114.57C112.125 113.872 116.055 105.84 116.273 105.375C116.963 105.57 117.69 105.735 118.155 105.825C116.783 109.575 112.83 116.797 111.405 120.36C110.108 119.752 109.815 119.602 109.17 119.332L109.2 119.347ZM109.658 102.457L111 103.207C108.295 107.815 105.938 112.618 103.95 117.577L102.825 117.232C107.183 107.947 107.385 106.732 109.628 102.442L109.658 102.457ZM112.748 121.012L111.615 120.472C112.838 118.072 116.663 111.915 118.41 105.877C118.83 105.952 119.243 106.02 119.64 106.072C117.713 111.215 115.399 116.204 112.718 120.997L112.748 121.012ZM89.2501 125.88C89.549 125.632 89.7627 125.297 89.8609 124.922C89.9592 124.546 89.937 124.15 89.7976 123.787C89.734 123.265 89.4943 122.78 89.1181 122.411C88.7419 122.043 88.2515 121.814 87.7277 121.762C87.2039 121.709 86.6778 121.837 86.2361 122.123C85.7944 122.41 85.4634 122.838 85.2976 123.337C84.3376 122.715 83.2951 122.055 82.2976 121.425C83.0476 120.427 85.2526 120.87 85.4776 121.687C85.4826 121.719 85.5 121.748 85.526 121.767C85.552 121.786 85.5845 121.794 85.6163 121.789C85.6482 121.784 85.6767 121.766 85.6957 121.74C85.7147 121.714 85.7226 121.682 85.7176 121.65C85.6051 120.345 82.8901 119.58 81.7951 121.117C80.8276 120.525 79.6276 119.805 78.6226 119.257C79.4851 118.507 81.4126 118.927 81.6226 119.707C81.6325 119.734 81.6515 119.756 81.6763 119.77C81.7011 119.784 81.73 119.789 81.7579 119.784C81.7859 119.778 81.811 119.763 81.8288 119.741C81.8466 119.719 81.8559 119.691 81.8551 119.662C81.7576 118.447 79.2451 117.63 78.1051 118.965C77.6274 118.697 77.1251 118.476 76.6051 118.305C76.5101 118.266 76.4057 118.254 76.3046 118.273C76.2034 118.292 76.1098 118.339 76.0351 118.41C74.1376 120.772 67.7401 126.907 64.7851 127.62C64.7108 127.631 64.6408 127.662 64.5821 127.709C64.5233 127.755 64.478 127.817 64.4506 127.887C64.4233 127.957 64.4148 128.033 64.4261 128.107C64.4374 128.181 64.4681 128.251 64.5151 128.31C65.164 128.969 65.9071 129.527 66.7201 129.967C65.9701 130.717 65.3851 131.392 64.9501 131.88C64.7251 132.12 64.6051 136.71 64.8001 137.722C64.8291 137.822 64.8931 137.907 64.9801 137.962C65.9251 138.607 78.0976 143.872 79.3426 143.167C80.1751 142.695 90.1126 132.352 90.2701 132.037C90.5101 131.542 90.4276 128.242 90.4126 126.922C90.3526 126.525 89.6101 126.097 89.2501 125.88ZM65.2501 135.787V134.115C68.3626 135.615 75.4876 138.675 78.1876 139.53C78.8776 139.755 78.9376 139.725 79.2976 139.53C81.3601 138.21 88.6426 130.005 89.9776 128.752V130.335C85.9276 134.392 79.0501 141.502 78.9226 141.097C78.1801 141.052 65.8951 136.087 65.2501 135.787ZM89.0626 123.352C89.3322 123.807 89.4771 124.324 89.4826 124.852C89.48 125.021 89.4387 125.186 89.362 125.335C89.2852 125.485 89.1751 125.615 89.0401 125.715C88.4101 125.295 87.2176 124.515 85.8076 123.6C86.5801 122.077 88.2976 122.055 89.0326 123.352H89.0626ZM65.0626 128.152C68.2576 127.207 74.3251 121.357 76.3651 118.822C76.8561 118.959 77.3293 119.153 77.7751 119.4C77.0251 120.795 77.8276 122.325 78.1126 122.107C78.2701 121.987 77.9851 121.942 77.9401 121.207C77.9209 120.671 78.0425 120.138 78.2926 119.662C79.3276 120.202 80.5426 120.907 81.5701 121.5C80.9401 122.902 81.6976 124.29 81.9601 124.087C82.2226 123.885 81.8401 123.93 81.7951 123.195C81.7768 122.713 81.8691 122.233 82.0651 121.792C83.1226 122.415 84.2026 123.06 85.1926 123.667C85.04 124.041 84.9795 124.446 85.016 124.848C85.0526 125.25 85.1851 125.637 85.4026 125.977C85.4124 125.99 85.4247 126.001 85.4387 126.009C85.4527 126.017 85.4682 126.022 85.4842 126.024C85.5002 126.027 85.5165 126.025 85.5321 126.021C85.5477 126.017 85.5623 126.01 85.5751 126C85.5879 125.99 85.5986 125.978 85.6067 125.964C85.6148 125.95 85.62 125.934 85.6221 125.918C85.6242 125.902 85.6231 125.886 85.6189 125.87C85.6147 125.855 85.6074 125.84 85.5976 125.827C85.4628 125.529 85.3962 125.205 85.4027 124.878C85.4092 124.551 85.4886 124.23 85.6351 123.937C87.3826 125.002 88.7926 125.895 89.2276 126.187C89.1451 126.262 81.3226 133.222 78.6601 135.292C76.9126 134.835 67.7401 130.282 65.0626 128.152ZM65.3476 132.33C68.7451 133.83 76.4626 137.31 78.2401 137.647C78.5476 137.707 78.6676 137.73 79.2526 137.265C81.7501 135.262 89.8726 126.765 89.9476 126.855C89.9512 126.877 89.9512 126.9 89.9476 126.922V128.422C88.2751 129.765 78.9751 139.53 78.8251 139.065C78.0751 139.065 65.8876 134.092 65.2651 133.815C65.2501 133.5 65.3176 132.66 65.3476 132.33ZM79.0051 142.665C78.2551 143.092 66.8326 138.45 65.3026 137.505C65.2451 137.027 65.2176 136.546 65.2201 136.065C68.5051 137.685 78.0601 141.72 78.9376 141.682C80.2201 141.615 89.2876 131.407 89.9326 130.695C89.94 131.078 89.9023 131.461 89.8201 131.835C89.6926 132.082 79.5001 142.387 79.0051 142.665ZM16.8676 100.387C16.9201 101.19 16.9576 101.887 16.9576 102.54C16.9576 102.639 16.9971 102.735 17.0674 102.805C17.1378 102.875 17.2331 102.915 17.3326 102.915C17.4321 102.915 17.5274 102.875 17.5978 102.805C17.6681 102.735 17.7076 102.639 17.7076 102.54C17.7076 101.842 17.6701 101.152 17.6176 100.335C17.6106 100.235 17.5644 100.143 17.4892 100.077C17.4139 100.012 17.3158 99.9792 17.2163 99.9862C17.1169 99.9932 17.0243 100.039 16.9589 100.115C16.8935 100.19 16.8606 100.288 16.8676 100.387ZM131.145 85.35C131.096 85.3528 131.048 85.3654 131.004 85.387C130.96 85.4087 130.921 85.4389 130.889 85.476C130.857 85.513 130.832 85.5561 130.817 85.6027C130.802 85.6494 130.796 85.6986 130.8 85.7475C130.845 86.4375 130.89 87.1799 130.89 87.8999C130.89 87.9994 130.93 88.0948 131 88.1651C131.07 88.2354 131.166 88.2749 131.265 88.2749C131.365 88.2749 131.46 88.2354 131.53 88.1651C131.601 88.0948 131.64 87.9994 131.64 87.8999C131.64 87.1499 131.595 86.4 131.543 85.695C131.54 85.646 131.527 85.5981 131.506 85.554C131.484 85.51 131.454 85.4708 131.417 85.4386C131.38 85.4065 131.336 85.3821 131.29 85.3668C131.243 85.3516 131.194 85.3459 131.145 85.35ZM14.9251 98.5199C15.0246 98.5199 15.1199 98.4804 15.1903 98.4101C15.2606 98.3398 15.3001 98.2444 15.3001 98.1449C15.3001 98.0455 15.2606 97.9501 15.1903 97.8798C15.1199 97.8094 15.0246 97.7699 14.9251 97.7699C14.0176 97.7699 13.2601 97.8374 12.5101 97.8224C12.4099 97.8224 12.3138 97.8617 12.2422 97.9318C12.1707 98.0019 12.1296 98.0973 12.1276 98.1974C12.1276 98.2969 12.1671 98.3923 12.2374 98.4626C12.3078 98.5329 12.4031 98.5724 12.5026 98.5724C13.2751 98.5874 14.1226 98.5574 14.9251 98.5199ZM128.82 83.13C127.92 83.13 127.163 83.1824 126.405 83.1899C126.306 83.1899 126.21 83.2295 126.14 83.2998C126.07 83.3701 126.03 83.4655 126.03 83.5649C126.03 83.6644 126.07 83.7598 126.14 83.8301C126.21 83.9004 126.306 83.9399 126.405 83.9399C127.215 83.9399 128.055 83.9399 128.865 83.88C128.965 83.874 129.058 83.8288 129.124 83.7542C129.19 83.6797 129.224 83.5819 129.218 83.4825C129.212 83.383 129.166 83.29 129.092 83.2239C129.017 83.1578 128.92 83.124 128.82 83.13ZM16.6651 93.8849C16.7101 94.5749 16.7551 95.3175 16.7551 96.0375C16.757 96.1363 16.7971 96.2306 16.8671 96.3005C16.937 96.3704 17.0312 96.4105 17.1301 96.4125C17.2296 96.4125 17.3249 96.3729 17.3953 96.3026C17.4656 96.2323 17.5051 96.1369 17.5051 96.0375C17.5051 95.2875 17.4601 94.5375 17.4151 93.8325C17.4081 93.733 17.3619 93.6404 17.2867 93.575C17.2114 93.5096 17.1133 93.4767 17.0138 93.4837C16.9144 93.4907 16.8218 93.5368 16.7564 93.6121C16.691 93.6873 16.6581 93.7855 16.6651 93.8849ZM131.438 81.3975C131.438 80.6475 131.393 79.8975 131.34 79.1925C131.333 79.093 131.287 79.0004 131.212 78.935C131.136 78.8696 131.038 78.8367 130.939 78.8437C130.839 78.8507 130.747 78.8969 130.681 78.9721C130.616 79.0473 130.583 79.1455 130.59 79.245C130.635 79.935 130.68 80.6775 130.68 81.3975C130.68 81.4969 130.72 81.5923 130.79 81.6626C130.86 81.7329 130.956 81.7725 131.055 81.7725C131.155 81.7725 131.251 81.7332 131.323 81.6631C131.394 81.593 131.436 81.4976 131.438 81.3975ZM22.2001 98.4224C22.2494 98.4205 22.2977 98.4089 22.3425 98.3882C22.3873 98.3676 22.4275 98.3383 22.461 98.3021C22.4944 98.2659 22.5204 98.2234 22.5374 98.1771C22.5544 98.1309 22.5621 98.0817 22.5601 98.0325C22.5525 97.9343 22.5081 97.8426 22.4358 97.7759C22.3634 97.7091 22.2685 97.6721 22.1701 97.6724C21.2626 97.7099 20.5051 97.74 19.7476 97.7249C19.6481 97.7249 19.5528 97.7645 19.4824 97.8348C19.4121 97.9051 19.3726 98.0005 19.3726 98.0999C19.3726 98.1994 19.4121 98.2948 19.4824 98.3651C19.5528 98.4354 19.6481 98.4749 19.7476 98.4749C20.5501 98.49 21.3901 98.4599 22.2001 98.4224ZM136.095 83.0325C135.345 83.07 134.513 83.0925 133.68 83.0925C133.631 83.0904 133.581 83.0984 133.535 83.116C133.489 83.1336 133.446 83.1603 133.41 83.1946C133.375 83.229 133.346 83.2702 133.327 83.3158C133.308 83.3614 133.298 83.4104 133.298 83.46C133.298 83.5601 133.337 83.6563 133.407 83.7278C133.477 83.7993 133.572 83.8405 133.673 83.8425C134.528 83.8425 135.218 83.8425 136.125 83.7825C136.174 83.7805 136.223 83.7689 136.267 83.7482C136.312 83.7276 136.353 83.6983 136.386 83.6621C136.419 83.6259 136.445 83.5834 136.462 83.5371C136.479 83.4909 136.487 83.4417 136.485 83.3925C136.476 83.2949 136.431 83.2043 136.359 83.1378C136.287 83.0714 136.193 83.0339 136.095 83.0325ZM4.9651 76.2C5.0626 76.2749 26.2126 73.14 27.1201 72.585C27.1703 72.5483 27.2105 72.4995 27.2367 72.4431C27.2629 72.3867 27.2744 72.3245 27.2701 72.2625C27.2701 71.295 26.0026 62.2125 25.3951 59.9475C25.3201 59.67 25.2451 59.3925 25.0726 59.295C23.9251 58.6049 3.7051 62.415 2.4976 63.195C2.46487 63.2143 2.4366 63.2403 2.41463 63.2713C2.39265 63.3024 2.37748 63.3377 2.3701 63.375C2.1151 64.2825 4.3126 75.75 4.9651 76.2ZM2.8276 63.555C4.2676 62.9025 22.6201 59.5424 24.7201 59.805C25.2301 61.1175 26.5951 70.7325 26.6851 72.1425C25.6426 72.45 5.25009 75.9525 5.1751 75.9675C5.1001 75.9825 5.0926 76.0725 4.9351 75.6C4.2751 73.62 2.7901 65.25 2.8276 63.555Z" fill="#FFFCF9"/>
<path d="M28.7701 73.2524C28.8109 73.1767 28.8292 73.0908 28.8226 73.0049C28.8226 71.8124 27.1126 58.5749 26.5051 57.5174C26.4575 57.4395 26.3901 57.3755 26.3097 57.332C26.2294 57.2886 26.1389 57.2671 26.0476 57.2699C23.5351 56.9624 2.34013 61.1024 0.945127 62.0699C0.750127 62.2049 0.780127 62.5424 0.802627 62.9024C0.922627 64.8749 3.05263 77.8499 3.80263 77.7749C3.88513 77.7749 3.85513 77.7149 3.66013 78.1124C2.49013 80.5199 0.270127 88.2299 0.315127 89.7824C0.315127 90.4349 0.465126 91.2824 1.11013 91.2374C5.73763 90.6674 28.4251 87.0674 34.9501 85.7249C35.2051 85.6724 35.3701 85.4399 35.3626 85.0574C35.2856 84.4202 35.0924 83.8025 34.7926 83.2349C33.8776 81.5174 30.0826 74.7149 28.7701 73.2524ZM3.84763 77.5424C3.26263 76.7924 1.11013 63.8699 1.27513 62.4374C2.92513 61.5824 23.8351 57.5399 26.0251 57.8699C26.6251 59.5199 28.1776 71.4374 28.2751 72.8699C25.6201 73.7849 7.23763 76.7549 3.84763 77.5424ZM4.17763 77.7674C4.80763 77.6099 26.2651 74.0174 28.2301 73.4999C29.3026 74.4974 34.1476 83.1149 34.4626 83.8499C30.1576 84.5999 4.62013 88.8674 0.862627 89.4374C0.915127 87.1649 3.24763 79.2224 4.17763 77.7674Z" fill="#FFFCF9"/>
<path d="M6.99764 85.545C7.65014 85.4475 21.4951 83.7825 26.4976 82.425C26.5285 82.4171 26.5549 82.3972 26.5711 82.3698C26.5872 82.3423 26.5918 82.3096 26.5839 82.2788C26.5759 82.2479 26.5561 82.2215 26.5286 82.2054C26.5012 82.1892 26.4685 82.1846 26.4376 82.1925C25.4551 82.395 13.4701 83.9925 6.98264 85.3125C6.96471 85.3093 6.94629 85.3102 6.92877 85.3151C6.91124 85.3201 6.89508 85.329 6.88149 85.3411C6.8679 85.3532 6.85725 85.3683 6.85035 85.3851C6.84345 85.402 6.84047 85.4202 6.84164 85.4383C6.84281 85.4565 6.84811 85.4742 6.85712 85.49C6.86613 85.5058 6.87863 85.5194 6.89366 85.5297C6.90869 85.54 6.92586 85.5467 6.94388 85.5493C6.96189 85.552 6.98028 85.5505 6.99764 85.545ZM17.1151 33.36C16.835 33.9928 16.5994 34.6444 16.4101 35.31C16.399 35.4168 16.4284 35.5239 16.4926 35.61C17.2501 36.75 25.0126 45.5025 27.0376 46.7325C27.3151 46.905 27.6451 47.025 27.8476 46.7775C29.3187 44.9471 31.2384 43.5286 33.4201 42.66C35.1959 42.0318 37.0576 41.6802 38.9401 41.6175C40.4401 41.4825 40.7026 41.3325 41.2801 40.35C41.9614 39.057 42.8652 37.8942 43.9501 36.915C45.3335 35.7054 46.869 34.6818 48.5176 33.87C48.5918 33.828 48.6499 33.7623 48.6825 33.6835C48.7151 33.6047 48.7204 33.5172 48.6976 33.435C48.4441 32.7899 48.1089 32.1799 47.7001 31.62C47.9701 31.53 48.2701 31.4475 48.2701 31.1775C48.2701 30.4275 41.7301 20.9625 39.9151 19.1775C39.7276 18.99 39.4576 18.7425 39.2101 18.7575C35.4601 18.9675 31.8076 22.5075 29.6926 25.5975C27.2701 25.5075 25.7026 25.29 22.9426 26.4525C20.9942 27.2796 19.2375 28.5001 17.7826 30.0375C17.5576 30.27 16.0276 31.89 16.0051 32.0175C15.9826 32.145 16.0276 32.145 17.1151 33.36ZM47.1151 33.15C43.9876 33.6825 41.9926 36.285 40.5226 39.1125C39.8701 40.3725 39.9301 40.4325 39.2401 40.4175C38.0336 40.3492 36.8232 40.3944 35.6251 40.5525C34.7464 40.6839 33.8823 40.8999 33.0451 41.1975C31.1401 41.8725 28.9576 44.0325 27.7951 45.6375C27.7704 45.6705 27.739 45.6979 27.703 45.718C27.667 45.738 27.6271 45.7502 27.586 45.7537C27.545 45.7573 27.5036 45.7521 27.4647 45.7385C27.4257 45.725 27.3901 45.7033 27.3601 45.675C24.9226 43.1625 20.6101 38.7525 18.4426 36.2175C18.3376 36.105 18.5176 35.94 18.6226 36.06C20.0251 37.56 23.6476 41.1525 27.5326 45.06C28.8451 43.3875 30.8701 41.3625 32.8726 40.6575C33.9646 40.268 35.1009 40.0161 36.2551 39.9075C37.3361 39.8254 38.4217 39.8254 39.5026 39.9075C39.9451 39.3975 42.1351 33.6075 47.1001 32.9625C47.1147 32.9732 47.1266 32.987 47.1351 33.0029C47.1435 33.0188 47.1483 33.0364 47.149 33.0545C47.1498 33.0725 47.1464 33.0904 47.1392 33.107C47.1321 33.1235 47.1213 33.1382 47.1076 33.15H47.1151ZM39.2026 19.365C40.7026 20.415 46.8076 29.4525 47.6026 31.035C46.2231 31.4721 44.8914 32.0475 43.6276 32.7525C42.4309 33.3524 41.3831 34.2118 40.5605 35.2679C39.7379 36.324 39.1613 37.5503 38.8726 38.8575C36.1801 34.4775 32.4226 29.655 29.9251 26.1075C30.0751 26.01 34.2901 19.6575 39.2026 19.365ZM23.1076 26.865C25.8451 25.7625 27.3601 26.0175 29.6251 26.115C31.8751 29.955 35.9176 35.37 38.5801 38.9175C36.1227 38.336 33.5368 38.6917 31.3276 39.915C30.0001 40.665 28.3801 42.465 27.3826 43.5825C25.9426 42.4275 17.6326 33.5775 16.2976 32.0775C18.3526 29.7525 20.2501 28.005 23.1076 26.835V26.865ZM9.38264 45.9375C9.19727 45.8074 8.97813 45.7339 8.75181 45.7259C8.52549 45.718 8.30171 45.7758 8.10764 45.8925C7.9663 45.9556 7.83877 46.0458 7.73231 46.1581C7.62586 46.2705 7.54257 46.4026 7.4872 46.5472C7.43183 46.6917 7.40547 46.8457 7.40962 47.0004C7.41377 47.1551 7.44835 47.3074 7.51139 47.4488C7.57442 47.5901 7.66468 47.7176 7.777 47.8241C7.88932 47.9305 8.02151 48.0138 8.16602 48.0692C8.31053 48.1246 8.46454 48.1509 8.61924 48.1468C8.77393 48.1426 8.9263 48.108 9.06764 48.045C9.29342 47.9956 9.49886 47.8788 9.65673 47.71C9.8146 47.5412 9.91743 47.3284 9.9516 47.0998C9.98576 46.8713 9.94964 46.6377 9.84803 46.4301C9.74642 46.2225 9.58412 46.0507 9.38264 45.9375ZM8.88764 47.4375C8.36264 47.6025 8.04764 47.4375 7.92014 47.1825C7.68014 46.65 7.98014 45.8325 8.76014 46.0725C9.30764 46.275 9.75014 47.1975 8.88764 47.475V47.4375ZM47.5201 11.6175C47.7376 12.06 48.7501 11.895 49.1926 11.7525C49.4251 11.6775 49.5751 11.595 49.5976 11.37C49.6651 10.8075 49.7401 5.93251 49.4851 5.46001C49.4588 5.41047 49.4184 5.36981 49.369 5.34312C49.3197 5.31644 49.2635 5.30492 49.2076 5.31001C48.4074 5.30779 47.6113 5.42406 46.8451 5.65501C46.5376 5.84251 47.2501 11.1225 47.5201 11.6175ZM47.0026 5.83501C47.6954 5.7359 48.3961 5.70325 49.0951 5.73751C49.1401 6.29251 49.0201 11.1 49.0126 11.175C48.6958 11.2886 48.3575 11.3296 48.0226 11.295C47.9701 11.1225 47.8801 10.6575 47.7676 10.0725C47.4372 8.67469 47.1818 7.26016 47.0026 5.83501ZM8.65514 39.6075C8.7271 39.6444 8.80679 39.6636 8.88764 39.6636C8.96849 39.6636 9.04818 39.6444 9.12014 39.6075C9.40989 39.4288 9.6397 39.1676 9.78014 38.8575C9.79921 38.8079 9.80509 38.7542 9.79721 38.7016C9.78932 38.649 9.76793 38.5994 9.73514 38.5575C9.37514 38.13 5.44514 33.5775 4.96514 33.8625C4.3758 34.244 3.81665 34.6703 3.29264 35.1375C3.27152 35.1564 3.2546 35.1795 3.24297 35.2054C3.23134 35.2312 3.22527 35.2592 3.22514 35.2875C3.21014 35.6775 7.57514 39.1725 8.65514 39.6075ZM5.05514 34.0575C5.60264 34.455 7.44764 36.735 9.15764 38.7525C9.08407 38.8684 8.99299 38.9721 8.88764 39.06C7.08979 37.9093 5.37323 36.6363 3.75014 35.25C4.15702 34.8228 4.59307 34.4243 5.05514 34.0575ZM16.8376 17.5125C17.0026 14.6025 18.6976 13.2525 20.4676 12.9075C19.9651 14.7525 20.0476 17.1525 21.8701 17.46C22.7401 17.6025 23.1676 17.1525 23.7976 16.6275C26.4901 14.3775 24.3151 12.1275 21.2776 12.285C22.4101 9.18001 25.0276 6.65252 28.5001 6.57002C28.532 6.57002 28.5625 6.55737 28.585 6.53487C28.6075 6.51236 28.6201 6.48184 28.6201 6.45002C28.6201 6.41819 28.6075 6.38767 28.585 6.36516C28.5625 6.34266 28.532 6.33001 28.5001 6.33001C24.7501 6.25501 21.8026 8.95502 20.6401 12.33C18.6376 12.675 16.6501 14.175 16.5976 17.4675C16.5947 17.4833 16.5949 17.4995 16.5982 17.5152C16.6015 17.5308 16.6078 17.5457 16.6169 17.559C16.6259 17.5722 16.6375 17.5835 16.6509 17.5923C16.6644 17.601 16.6794 17.6071 16.6951 17.61C16.7109 17.613 16.7271 17.6128 16.7428 17.6095C16.7585 17.6062 16.7733 17.5998 16.7866 17.5908C16.7998 17.5817 16.8111 17.5702 16.8199 17.5567C16.8287 17.5433 16.8347 17.5283 16.8376 17.5125ZM21.1051 12.8175C22.2226 12.7425 23.8876 13.0875 24.3451 14.1C24.6076 14.6775 24.3451 15.39 23.4151 16.17C23.1627 16.423 22.8746 16.6377 22.5601 16.8075C21.4351 17.2875 20.1901 15.9 21.1051 12.8175ZM23.2501 118.89C22.5255 118.696 21.7694 118.649 21.0263 118.751C20.2832 118.854 19.5681 119.104 18.9231 119.487C18.278 119.87 17.7161 120.378 17.2704 120.981C16.8247 121.585 16.5041 122.271 16.3276 123C15.9945 124.515 16.2766 126.1 17.1121 127.406C17.9476 128.713 19.2679 129.634 20.7826 129.968C22.2974 130.301 23.8824 130.019 25.189 129.183C26.4957 128.348 27.417 127.027 27.7501 125.513C27.8925 124.782 27.8888 124.03 27.7393 123.301C27.5898 122.572 27.2975 121.88 26.8792 121.264C26.4608 120.649 25.9248 120.122 25.302 119.714C24.6791 119.307 23.9818 119.027 23.2501 118.89ZM25.5676 125.003C25.2667 126.203 24.5463 127.256 23.5366 127.971C22.527 128.686 21.2947 129.017 20.0626 128.903C18.9316 128.461 17.9927 127.634 17.411 126.568C16.8294 125.502 16.6423 124.265 16.8826 123.075C17.1633 121.846 17.877 120.758 18.8933 120.012C19.9096 119.266 21.1607 118.91 22.4176 119.01C23.5598 119.482 24.4989 120.342 25.0696 121.438C25.6403 122.534 25.8061 123.796 25.5376 125.003H25.5676Z" fill="#FFFCF9"/>
<path d="M33.2401 121.027C32.5872 120.802 31.8875 120.748 31.2076 120.87C30.9259 120.224 30.5791 119.608 30.1726 119.032C30.6601 118.59 31.9951 117.36 31.6726 116.782C30.5249 115.41 29.1622 114.232 27.6376 113.295C27.001 112.938 26.3 112.711 25.5751 112.627C25.0951 112.695 23.9551 114.562 23.7001 114.982C23.5351 114.982 22.9501 114.795 22.9051 114.772C22.9051 114.232 22.7476 112.282 22.2601 112.057C21.715 111.857 21.1489 111.718 20.5726 111.645C20.0401 111.562 15.2476 112.44 14.8951 113.085C14.6626 113.52 15.2026 115.162 15.3601 115.62C14.9556 115.843 14.5672 116.093 14.1976 116.37C13.4476 116.902 13.6501 116.88 13.5151 116.82C13.352 116.742 13.1771 116.691 12.9976 116.67C12.3985 116.319 11.6961 116.186 11.0101 116.295C10.3201 116.52 8.69262 120.225 8.43012 121.177C8.34421 121.418 8.32098 121.676 8.36262 121.927C8.54262 122.422 9.74262 122.82 10.2451 122.977C10.1064 123.942 10.1064 124.922 10.2451 125.887C9.58512 126.067 8.21262 126.472 8.28762 127.147C8.36262 127.822 10.1176 132.277 10.8451 132.63C11.2436 132.853 11.6844 132.99 12.139 133.033C12.5936 133.075 13.0521 133.022 13.4851 132.877C13.729 132.756 13.9645 132.618 14.1901 132.465C14.4901 132.69 14.8051 132.892 15.1276 133.087C14.8951 133.665 14.3776 134.955 14.5426 135.54C14.6251 135.847 14.8726 135.945 15.2176 136.072C16.1701 136.417 21.3001 137.647 22.0801 137.512C22.3726 137.467 22.5301 137.16 22.6201 136.867C22.7868 136.202 22.8848 135.521 22.9126 134.835C23.2978 134.797 23.6808 134.739 24.0601 134.662C24.2918 135.07 24.5881 135.437 24.9376 135.75C25.3201 136.02 25.6426 135.885 26.0776 135.607C26.2876 135.877 26.6026 136.252 26.9401 136.29C27.7876 136.387 31.2901 133.087 31.6501 132.412C31.9501 131.85 30.8551 130.845 30.3676 130.402C30.895 129.609 31.309 128.745 31.5976 127.837C32.1386 127.919 32.686 127.949 33.2326 127.927C33.4801 127.927 33.7651 127.837 33.8701 127.605C34.3276 126.562 34.1926 122.61 33.8701 121.605C33.8251 121.312 33.4876 121.117 33.2401 121.027ZM33.4201 121.717C33.6751 122.692 33.7576 126.375 33.3826 127.327C32.7342 127.391 32.0799 127.361 31.4401 127.237C31.3718 127.226 31.3016 127.24 31.2433 127.277C31.185 127.315 31.1429 127.373 31.1251 127.44C30.8264 128.454 30.3627 129.412 29.7526 130.275C29.7092 130.332 29.6896 130.404 29.698 130.475C29.7064 130.547 29.7421 130.612 29.7976 130.657C30.3238 131.074 30.7709 131.582 31.1176 132.157C30.7426 132.772 27.8101 135.457 27.0001 135.682C26.8801 135.682 26.5501 135.232 26.4676 135.112C26.1906 134.696 25.9401 134.263 25.7176 133.815C25.6852 133.75 25.6295 133.699 25.5615 133.672C25.4935 133.646 25.4181 133.646 25.3501 133.672C23.1751 134.49 22.3501 134.01 22.3501 134.55C22.3511 135.358 22.2193 136.162 21.9601 136.927C20.1976 136.736 18.4619 136.348 16.7851 135.772C16.8661 134.972 17.0896 134.192 17.4451 133.47C17.6701 132.967 16.7701 133.11 15.0901 131.4C15.0361 131.35 14.9651 131.322 14.8914 131.322C14.8177 131.322 14.7467 131.35 14.6926 131.4C13.9426 132.015 12.9676 132.615 12.7726 132.517C12.3901 132.33 10.6276 128.332 10.5226 127.522C11.0561 127.151 11.6616 126.895 12.3001 126.772C12.3682 126.753 12.427 126.71 12.4656 126.651C12.5042 126.591 12.5201 126.52 12.5101 126.45C12.3263 125.388 12.3263 124.302 12.5101 123.24C12.5216 123.174 12.5078 123.107 12.4717 123.052C12.4355 122.996 12.3795 122.956 12.3151 122.94C11.7497 122.792 11.2054 122.572 10.6951 122.287C10.5301 122.167 10.5451 122.175 10.5601 122.047C11.0456 120.297 11.8241 118.641 12.8626 117.15C13.2676 117.037 14.3626 117.84 14.7376 118.125C14.7768 118.163 14.8293 118.184 14.8839 118.184C14.9385 118.184 14.9909 118.163 15.0301 118.125C15.3747 117.767 15.7458 117.437 16.1401 117.135C17.2801 116.272 17.5876 116.385 17.4901 116.085C17.1453 115.332 16.9517 114.52 16.9201 113.692C17.0364 113.596 17.1683 113.52 17.3101 113.467C18.0103 113.191 18.7297 112.965 19.4626 112.792C20.351 112.545 21.2641 112.396 22.1851 112.35C22.3426 112.417 22.4851 113.1 22.5226 113.31C22.8001 114.81 22.6126 115.117 22.8301 115.14C24.9676 115.35 25.4026 115.942 25.5526 115.68C25.9685 114.953 26.4532 114.267 27.0001 113.632C27.1576 113.475 27.1501 113.4 27.6226 113.67C29.0342 114.592 30.2984 115.723 31.3726 117.022C31.4851 117.217 30.5101 118.252 29.7976 118.86C29.5501 119.077 29.9026 119.175 30.5476 120.405C31.1926 121.635 31.0426 121.98 31.3876 121.905C32.0527 121.746 32.7371 121.683 33.4201 121.717ZM137.513 59.0474C135.94 58.4052 134.292 57.9691 132.608 57.7499C131.378 57.5549 129.93 57.3599 128.708 57.2024C129.885 55.5374 133.373 51.3224 133.958 50.2949C134.123 50.0174 133.808 49.6274 133.575 49.3949C132.27 47.9999 129.75 47.4749 127.815 47.1749C126.705 46.9949 122.07 46.4249 121.283 46.7999C120.338 47.2499 113.348 57.7499 113.138 59.3474C113.138 59.6174 113.228 59.7224 113.49 59.8199C114.593 60.2249 119.565 60.8549 120.675 61.1174C119.175 63.7424 112.508 72.6149 111.855 73.8674C111.698 74.1824 111.795 74.3699 111.983 74.4299C112.658 74.6978 113.352 74.9134 114.06 75.0749C114.33 75.1574 114.923 74.7899 115.785 74.2649C119.655 71.9399 136.26 60.9749 137.535 59.5574C137.57 59.5241 137.598 59.4837 137.616 59.4388C137.634 59.3939 137.643 59.3456 137.64 59.2972C137.638 59.2489 137.626 59.2015 137.604 59.1584C137.582 59.1153 137.551 59.0774 137.513 59.0474ZM121.395 68.0474C115.02 72.2549 112.868 73.4849 112.793 73.5374C113.82 71.9699 120.203 63.2249 121.298 61.1324C121.317 61.092 121.326 61.0478 121.326 61.0031C121.326 60.9584 121.316 60.9143 121.297 60.8741C121.277 60.8338 121.249 60.7984 121.214 60.7705C121.179 60.7425 121.139 60.7226 121.095 60.7124C120.345 60.4424 114.885 59.8574 113.595 59.3999C113.76 58.0049 120.57 47.4599 121.395 47.0399C122.22 46.6199 130.223 47.5724 131.723 48.6449C130.935 50.1824 126.585 55.5674 125.88 56.8199C125.738 57.0749 125.693 57.3224 125.97 57.3899C126.248 57.4574 133.298 58.2824 134.835 58.7849C132.96 60.3524 123.495 66.6374 121.395 68.0174V68.0474ZM73.2826 22.1924C73.2826 22.2599 73.3276 22.3424 73.4401 22.7774C73.4697 22.8717 73.5346 22.951 73.6213 22.9986C73.708 23.0461 73.8097 23.0582 73.9051 23.0324C74.0006 23.0045 74.0811 22.9399 74.1289 22.8527C74.1768 22.7655 74.188 22.6629 74.1601 22.5674C74.0851 22.2749 74.0176 22.0274 73.9726 21.9074C73.9289 21.825 73.8561 21.7619 73.7684 21.7303C73.6807 21.6987 73.5844 21.7009 73.4982 21.7365C73.412 21.7721 73.3422 21.8385 73.3024 21.9228C73.2625 22.0071 73.2555 22.1032 73.2826 22.1924Z" fill="#FFFCF9"/>
</svg>
