<svg width="150" height="150" viewBox="0 0 150 150" fill="none" xmlns="http://www.w3.org/2000/svg">
<path d="M81.9837 49.1753C81.3612 49.4948 82.3872 50.64 82.6242 49.749C82.6617 49.4753 82.2635 49.0313 81.9837 49.1753Z" fill="#FFFCF9"/>
<path d="M85.5953 48.174C85.6328 47.9002 85.2353 47.4585 84.9548 47.601C84.3338 47.925 85.3583 49.065 85.5953 48.174Z" fill="#FFFCF9"/>
<path d="M49.9986 94.0635C49.9017 94.0862 49.8178 94.1464 49.7654 94.2309C49.7129 94.3155 49.6962 94.4174 49.7189 94.5142C49.7415 94.6111 49.8018 94.695 49.8863 94.7475C49.9708 94.7999 50.0727 94.8167 50.1696 94.794C55.7605 93.4951 61.5601 93.3716 67.2012 94.4313C72.8423 95.491 78.2018 97.7108 82.9401 100.95C83.0202 100.95 83.0982 100.925 83.1627 100.877C83.2272 100.83 83.2749 100.763 83.2987 100.686C83.3225 100.61 83.3212 100.528 83.295 100.452C83.2688 100.377 83.2191 100.311 83.1531 100.266C78.3609 96.9857 72.9376 94.74 67.2293 93.6721C61.5209 92.6042 55.6526 92.7375 49.9986 94.0635Z" fill="#FFFCF9"/>
<path d="M85.4147 97.905C76.8182 92.529 67.2107 88.9155 57.0174 90.4147C56.9216 90.4307 56.8357 90.4832 56.7779 90.5613C56.72 90.6393 56.6947 90.7367 56.7072 90.833C56.7198 90.9294 56.7692 91.0171 56.8451 91.0777C56.921 91.1383 57.0175 91.1671 57.1142 91.158C63.3985 90.3341 69.789 91.1612 75.6564 93.558C78.8925 94.9924 82.0211 96.6579 85.0179 98.5417C85.1024 98.5944 85.2043 98.6113 85.3012 98.5888C85.3981 98.5663 85.4821 98.5062 85.5347 98.4217C85.5873 98.3373 85.6042 98.2354 85.5817 98.1385C85.5592 98.0416 85.4991 97.9576 85.4147 97.905Z" fill="#FFFCF9"/>
<path d="M63.7289 87.6803C63.6295 87.6838 63.5355 87.7268 63.4677 87.7996C63.3999 87.8725 63.3639 87.9693 63.3674 88.0688C63.371 88.1682 63.414 88.2622 63.4868 88.33C63.5597 88.3978 63.6565 88.4338 63.7559 88.4303C72.4031 88.1234 80.8655 90.9798 87.5579 96.4643C87.9232 96.7763 88.4189 96.1898 88.0342 95.8845C81.1869 90.3082 72.555 87.3945 63.7289 87.6803Z" fill="#FFFCF9"/>
<path d="M61.6665 84.9495C61.567 84.9568 61.4745 85.0032 61.4093 85.0787C61.3442 85.1542 61.3116 85.2524 61.3189 85.3519C61.3261 85.4513 61.3726 85.5438 61.4481 85.609C61.5235 85.6742 61.6218 85.7068 61.7212 85.6995C72.1682 84.9259 82.5109 88.2114 90.5962 94.872C90.9585 95.1848 91.4587 94.5982 91.0718 94.293C82.8322 87.5203 72.3041 84.175 61.6665 84.9495Z" fill="#FFFCF9"/>
<path d="M65.3122 83.2665C70.3665 82.5717 75.5126 83.0348 80.3615 84.6208C85.2105 86.2069 89.6356 88.8744 93.3022 92.4218C93.6397 92.763 94.1835 92.2193 93.8235 91.8833C90.07 88.2638 85.5456 85.5414 80.5896 83.9204C75.6336 82.2995 70.3748 81.8221 65.208 82.524C65.1114 82.54 65.0249 82.593 64.9669 82.6719C64.9089 82.7508 64.8841 82.8492 64.8977 82.9462C64.9113 83.0431 64.9623 83.1309 65.0397 83.1907C65.1172 83.2506 65.215 83.2778 65.3122 83.2665Z" fill="#FFFCF9"/>
<path d="M26.877 84.9863C24.8408 85.4783 24.6855 88.3313 26.9858 88.3613C30.09 88.3785 30.1583 84.1928 26.877 84.9863ZM28.452 86.9318C28.2314 87.1976 27.9411 87.3968 27.6136 87.5069C27.2861 87.617 26.9345 87.6336 26.598 87.555C25.575 87.18 26.0505 85.9673 27.1065 85.7003C27.927 85.3058 29.0205 86.1053 28.4513 86.9318H28.452Z" fill="#FFFCF9"/>
<path d="M114.809 94.5847C114.391 94.5847 114.2 94.5847 113.111 101.494C112.586 104.806 112.095 108.304 112.009 108.948C112.055 109.72 113.555 109.357 114.09 109.473C126.554 109.32 126.856 95.5125 114.809 94.5847ZM121.361 105.937C119.198 108.328 115.592 108.912 112.805 108.664C113.246 105.439 114.545 96.7095 115.016 95.343C120.865 95.6347 125.561 101.294 121.361 105.937Z" fill="#FFFCF9"/>
<path d="M146.087 41.5095C144.697 40.4647 143.05 41.352 141.802 40.2428C141.678 40.1217 141.529 40.0282 141.366 39.9683C141.203 39.9084 141.029 39.8835 140.856 39.8951C140.682 39.9067 140.513 39.9546 140.36 40.0356C140.206 40.1167 140.071 40.2292 139.963 40.3657C139.535 40.8948 139.286 41.547 139.254 42.2273C134.836 46.779 129.601 50.2957 121.404 52.281C123.119 50.5218 124.52 48.4818 125.546 46.2495C128.021 40.2127 117.991 35.5995 113.621 34.503C113.428 33.6847 114.02 32.3782 114.261 31.5397C114.535 30.435 113.736 29.8897 113.151 30.1897C111.71 30.6652 111.019 32.2537 110.182 33.348C108.548 35.523 109.781 36.1792 111.7 37.161C111.643 37.2353 111.618 37.3291 111.629 37.4221C111.641 37.515 111.689 37.5996 111.763 37.6575C112.754 38.643 117.613 42.5055 115.717 43.9755C114.691 44.7682 111.616 47.1435 109.831 48.6623C106.349 48.4943 104.83 48.486 102.58 48.8738C102.553 48.8786 102.529 48.8923 102.51 48.9128C102.492 48.9332 102.481 48.9592 102.479 48.9867C102.477 49.0141 102.484 49.0414 102.499 49.0643C102.515 49.0872 102.537 49.1043 102.563 49.113C109.197 52.3125 110.389 60.8827 108.245 67.0005C109.717 66.8985 112.299 67.0635 113.521 66.4942C118.141 66.036 124.672 64.7692 128.112 62.814C131.632 60.8969 134.683 58.2222 137.044 54.983C139.406 51.7438 141.019 48.0208 141.766 44.0828C143.108 43.5826 144.485 43.1816 145.885 42.8827C146.535 42.7807 147.01 41.8357 146.087 41.5095ZM116.569 36.2917C120.61 37.8735 126.677 41.7577 124.863 45.9382C123.697 48.4779 122.03 50.7556 119.962 52.6343C119.227 52.8128 118.26 53.0032 117.51 53.1697C119.697 50.9908 121.687 48.622 123.456 46.0913C123.952 45.4543 124.266 44.6949 124.365 43.8938C123.981 41.2725 121.515 40.5247 119.477 39.1312C118.423 38.5443 117.408 37.8902 116.438 37.173C116.526 36.8875 116.57 36.5904 116.569 36.2917ZM112.454 36.7237L110.844 35.8417C110.437 35.6227 110.019 35.277 110.225 34.7752C110.709 33.8886 111.261 33.0406 111.875 32.2387C112.234 31.6012 112.814 31.1162 113.504 30.8745C113.558 30.9015 113.596 31.1175 113.549 31.3147C113.173 32.3136 112.912 33.3524 112.773 34.4107C112.729 34.6284 112.741 34.8535 112.806 35.0656C112.872 35.2777 112.989 35.47 113.148 35.625C113.055 36.0622 112.809 36.4519 112.454 36.7237ZM113.459 38.1705C113.198 37.9312 112.951 37.6837 112.699 37.4685C113.061 37.2476 113.362 36.9416 113.578 36.5773C113.794 36.2129 113.917 35.8012 113.937 35.3782C114.528 35.5575 115.15 35.7652 115.774 35.9917C116.085 37.3717 114.763 38.8335 113.459 38.1705ZM108.937 49.35C109.345 49.3133 109.829 49.548 110.197 49.3395C111.946 47.8395 115.13 45.3795 116.155 44.5868C118.232 42.9158 115.672 40.467 114.316 39.0547C114.697 39.0389 115.066 38.9222 115.386 38.7168C115.706 38.5113 115.966 38.2244 116.139 37.8855C118.186 39.702 122.989 41.0917 123.617 43.854C123.525 44.5118 123.26 45.1331 122.848 45.654C121.019 48.2744 118.951 50.7192 116.67 52.9568C116.299 52.5068 115.401 51.4215 114.919 52.0942C114.899 52.1396 114.889 52.1883 114.888 52.2377C114.888 52.287 114.897 52.3359 114.915 52.3817C114.934 52.4275 114.961 52.4692 114.996 52.5044C115.03 52.5396 115.071 52.5677 115.117 52.587C115.57 52.8013 115.946 53.1495 116.195 53.5845C116.448 54.5243 118.084 53.7262 118.755 53.6715C126.681 52.0905 133.823 48.8197 138.078 44.3715C138.57 44.4852 139.015 44.747 139.353 45.1215C135.085 55.7903 126.166 62.0047 114.849 62.2447C115.233 57.3067 113.679 51.756 108.937 49.35ZM136.061 55.125C131.094 62.1592 123.25 64.7183 114.399 65.6437C114.635 64.7806 114.768 63.8923 114.793 62.9977C126.335 62.7788 135.451 56.5118 139.897 45.7388C141.235 47.4277 137.325 53.337 136.061 55.125ZM140.775 45.1687C140.742 45.3022 140.7 45.4335 140.665 45.5663C140.218 44.7552 139.51 44.1193 138.656 43.7625C139.005 43.416 139.489 42.6675 139.991 42.858C140.214 42.9347 140.416 43.0614 140.582 43.2283C140.748 43.3953 140.874 43.5981 140.95 43.8211C141.026 44.0442 141.049 44.2816 141.019 44.5152C140.988 44.7488 140.905 44.9724 140.775 45.1687ZM141.595 43.3185C141.254 42.8146 140.785 42.4109 140.236 42.1493C139.723 42.1605 140.376 41.0047 140.54 40.839C141.039 39.9645 142.468 42.3757 145.04 42.3232C143.875 42.5917 142.725 42.9239 141.595 43.3185Z" fill="#FFFCF9"/>
<path d="M84.3058 47.1517C84.659 47.0535 85.0618 46.803 85.3805 46.9732C85.4729 47.0101 85.5762 47.0088 85.6676 46.9696C85.759 46.9303 85.8311 46.8564 85.868 46.764C85.9049 46.6716 85.9036 46.5683 85.8643 46.4769C85.8251 46.3855 85.7511 46.3134 85.6588 46.2765C85.2148 46.0605 83.7208 46.1647 83.984 46.9702C84.0174 47.0257 84.0646 47.0715 84.121 47.1034C84.1774 47.1352 84.241 47.1518 84.3058 47.1517Z" fill="#FFFCF9"/>
<path d="M81.5585 49.1445C81.6382 48.8676 81.802 48.6222 82.0273 48.4425C82.1068 48.3828 82.1594 48.294 82.1735 48.1956C82.1876 48.0971 82.1619 47.9971 82.1023 47.9175C82.0426 47.838 81.9538 47.7854 81.8553 47.7713C81.7568 47.7572 81.6568 47.7828 81.5773 47.8425C81.2152 48.1262 80.9539 48.5188 80.8318 48.9623C80.8125 49.0569 80.8304 49.1553 80.8819 49.237C80.9334 49.3187 81.0143 49.3774 81.108 49.4009C81.2017 49.4244 81.3008 49.4108 81.3847 49.3631C81.4686 49.3153 81.5309 49.237 81.5585 49.1445Z" fill="#FFFCF9"/>
<path d="M85.3306 51.0645C84.9819 51.4035 85.5219 51.9435 85.8609 51.5948C86.0109 51.4448 86.1384 51.3008 86.2674 51.153C86.0776 51.4823 85.8669 51.924 86.4309 52.008C87.1674 51.7973 87.1809 50.7008 86.7241 50.1855C86.1436 49.6883 85.7454 50.7788 85.3306 51.0645Z" fill="#FFFCF9"/>
<path d="M83.814 50.8688C84.2565 51.0773 85.2037 50.3588 84.663 49.9035C84.4215 49.7138 84.138 49.9785 84.0292 50.148C83.82 49.9133 84.3067 48.2888 83.61 48.3165C83.5105 48.3165 83.4151 48.356 83.3448 48.4263C83.2745 48.4967 83.235 48.5921 83.235 48.6915C83.2837 49.296 82.995 50.679 83.814 50.8688Z" fill="#FFFCF9"/>
<path d="M130.528 96.1373C128.07 91.1618 121.903 88.2143 114.678 87.0218C117.672 84.3255 118.865 83.2095 118.939 83.0625C119.245 81.8468 119.034 77.6423 119.628 76.5233C119.658 76.4435 119.663 76.3561 119.641 76.2737C119.618 76.1912 119.571 76.1179 119.504 76.0643C115.374 73.2469 110.856 71.0442 106.092 69.525C110.273 62.934 108.499 51.1035 99.8332 48.8738C101.467 46.542 99.7627 42.9795 96.9015 43.2143C95.0117 43.2426 93.1275 43.4275 91.2682 43.767C91.7415 43.368 91.4932 42.492 91.1542 42.171C92.6752 41.3153 90.7462 38.6205 89.2792 38.7555C89.3542 37.6005 88.5487 35.49 87.195 36.4095C86.7985 35.8256 86.2967 35.3207 85.7152 34.9208C84.9577 34.4708 83.985 34.3665 83.5665 35.1825C82.941 34.7814 82.237 34.5188 81.5017 34.4123C80.5477 34.3988 79.7017 35.0123 79.8172 35.868C78.8032 35.643 77.6872 35.7503 77.1352 36.768C76.869 37.3793 77.472 37.7265 76.5232 37.6815C75.1935 37.8023 74.3482 39.6143 75.6982 40.4648C74.2245 40.8015 73.0732 43.4708 75.0802 43.8915C74.3707 44.8665 73.8847 46.32 74.694 47.3018C64.2727 49.0463 55.9665 50.499 48.1125 52.053C44.3212 53.7615 41.484 56.0115 37.8502 57.903C37.765 57.9473 37.7001 58.0225 37.6687 58.1131C37.6373 58.2038 37.6419 58.3031 37.6815 58.3905C38.235 59.6085 48.3405 60.4905 50.3602 60.6578C59.6472 59.3122 68.855 57.4678 77.9437 55.1325C74.7652 57.675 70.224 60.051 69.8295 64.5863C59.8875 63.456 50.6137 64.896 42.7612 69.9C29.475 77.7863 15.702 85.6928 3.39746 95.457C3.74471 97.7438 4.52246 100.051 4.63871 102.202C4.64608 102.285 4.68106 102.363 4.73809 102.425C4.79512 102.486 4.87093 102.526 4.95349 102.539C5.03604 102.552 5.12061 102.537 5.19375 102.497C5.2669 102.456 5.32443 102.393 5.35721 102.316C14.2447 99.717 24.291 99.651 33.4927 101.69C40.98 103.004 38.5095 106.519 40.7797 107.015C40.9155 107.048 43.4445 107.362 43.4797 107.321C43.9545 107.28 44.1682 106.739 44.1547 106.368C44.4247 102.918 46.4602 102.836 49.7512 102.993C65.0955 103.989 70.62 106.511 83.34 114.618C83.3876 114.649 83.442 114.669 83.4986 114.675C83.5551 114.681 83.6124 114.674 83.6656 114.653C83.7189 114.633 83.7666 114.601 83.805 114.559C83.8435 114.517 83.8714 114.467 83.8867 114.412C91.449 107.662 102.573 97.8533 107.524 93.4118C105.619 101.221 103.879 109.121 101.915 118.859C101.905 118.909 101.906 118.961 101.916 119.011C101.927 119.061 101.948 119.109 101.978 119.151C102.008 119.192 102.046 119.228 102.091 119.254C102.135 119.28 102.184 119.297 102.235 119.304C110.026 120.3 120.102 120.545 126.263 115.586C132.136 111.176 134.175 102.546 130.528 96.1373ZM96.9187 43.9643C99.5752 43.9448 100.475 46.8795 99.0315 48.6735C98.0064 48.4324 96.9577 48.3066 95.9047 48.2985C96.0772 47.5372 96.0385 46.7432 95.7926 46.0024C95.5468 45.2615 95.1032 44.6019 94.5097 44.0948C95.3017 44.0198 96.1065 43.971 96.9187 43.9643ZM94.7655 58.902C94.5555 57.9435 95.4022 57.8003 95.6115 58.7655C96.0102 61.7042 95.6868 64.6957 94.6695 67.4813C90.9017 66.9834 87.0693 67.4213 83.511 68.7563C82.3318 68.105 81.1047 67.5443 79.8405 67.0793C81.7492 65.7038 84.1785 63.7725 86.0497 62.5118C87.974 64.827 90.6429 66.4018 93.6 66.9668C93.6847 66.9639 93.7661 66.9336 93.8321 66.8804C93.8981 66.8273 93.9451 66.7541 93.966 66.672C94.8252 64.1777 95.0987 61.5191 94.7655 58.902ZM90.9322 48.021C91.2258 47.4953 91.3725 46.9003 91.3568 46.2984C91.3411 45.6965 91.1636 45.1099 90.843 44.6003C91.6387 44.475 92.514 44.2905 93.393 44.2253C94.1099 44.6088 94.6728 45.2277 94.9869 45.9776C95.3011 46.7275 95.3474 47.5627 95.118 48.3428C93.8212 48.45 91.266 48.705 90.393 48.7928C90.063 48.5535 90.8632 48.3825 90.9322 48.021ZM81.15 46.6628C82.2577 47.1308 83.298 46.1513 83.7262 45.1253C84.116 45.2832 84.5475 45.3056 84.9515 45.1888C85.3555 45.0719 85.7085 44.8227 85.9537 44.481C86.0903 44.6031 86.259 44.6836 86.4399 44.7129C86.6207 44.7423 86.8062 44.7193 86.9745 44.6468C87.192 45.0098 87.6937 45.6713 88.0792 46.1693C88.0539 46.4759 88.1101 46.7838 88.242 47.0618C88.3273 47.2314 88.4649 47.3692 88.6344 47.4549C88.8039 47.5405 88.9964 47.5695 89.1836 47.5376C89.3708 47.5057 89.5428 47.4146 89.6744 47.2776C89.806 47.1407 89.8901 46.9651 89.9145 46.7768C89.9085 46.6755 90.1995 46.6808 90.297 46.4715C90.4611 46.2626 90.5413 46 90.522 45.735C90.6937 46.4535 90.6315 47.79 89.7682 47.9955C89.4757 48.012 89.199 48.3705 89.373 48.6428C90.0221 49.7458 90.8289 50.7481 91.7677 51.618C92.0257 53.7795 88.6927 56.55 87.3255 53.895C87.8272 53.4413 88.0072 54.0285 88.4025 54.3653C88.6275 54.5903 89.0092 54.2153 88.782 53.9858C88.4908 53.7447 88.2353 53.4637 88.023 53.151C87.948 53.001 87.798 53.001 87.6435 53.076C86.8173 53.6935 85.7835 53.9656 84.7605 53.835C84.1811 53.6918 83.6369 53.4325 83.1608 53.0726C82.6847 52.7128 82.2866 52.26 81.9907 51.7418C81.9307 51.3795 81.8295 50.775 81.3427 50.5418C80.772 50.1315 80.6167 49.1858 80.3265 48.537C80.7267 47.9754 81.007 47.3374 81.15 46.6628ZM85.0657 54.375C83.2342 55.488 80.4907 53.8793 80.3617 51.8138C80.3738 51.6489 80.4485 51.4948 80.5705 51.3832C80.6925 51.2717 80.8526 51.211 81.018 51.2138C81.198 51.3353 81.2317 51.8048 81.2805 52.0185C81.4087 52.5308 82.0252 53.349 82.4932 53.157C83.171 53.8666 84.0873 54.3005 85.0657 54.375ZM41.6595 58.875C40.6763 58.7422 39.704 58.5384 38.7502 58.2653C39.762 57.9443 40.7685 56.4653 41.7885 57.249C41.9775 57.5295 41.52 57.6608 41.5185 57.9203C41.4547 58.3523 42.0022 58.2668 42.159 58.5443C42.1083 58.6359 42.0366 58.7143 41.9498 58.7728C41.8629 58.8314 41.7634 58.8684 41.6595 58.881V58.875ZM50.2845 59.892C47.73 59.6805 44.9647 59.367 42.735 59.043C42.8053 58.9467 42.8546 58.8367 42.8797 58.7202C42.9048 58.6036 42.9052 58.4831 42.8808 58.3664C42.8564 58.2497 42.8078 58.1394 42.7381 58.0426C42.6684 57.9459 42.5792 57.8649 42.4762 57.8048C42.5401 57.6767 42.5753 57.5362 42.5794 57.3931C42.5834 57.25 42.5562 57.1077 42.4997 56.9762C42.4431 56.8447 42.3586 56.7271 42.252 56.6316C42.1453 56.5361 42.0191 56.465 41.8822 56.4233C43.9512 55.068 46.1057 53.848 48.3322 52.7708C49.1535 52.8059 49.9425 53.101 50.5852 53.6135C51.2279 54.1261 51.6913 54.8295 51.9084 55.6224C52.1255 56.4153 52.0851 57.2566 51.7931 58.0251C51.5011 58.7935 50.9726 59.4494 50.2837 59.898L50.2845 59.892ZM51.6345 59.7105C52.1155 59.1678 52.4622 58.5196 52.6466 57.8182C52.8309 57.1168 52.8477 56.3818 52.6957 55.6727C52.5436 54.9636 52.227 54.3002 51.7712 53.736C51.3155 53.1719 50.7335 52.7228 50.0722 52.425C57.8047 50.9438 66.1185 49.4753 76.5142 47.7555C76.5405 48.4815 77.1495 49.3995 77.9482 49.0088C78.1732 48.8588 78.1777 48.654 78.3877 48.9765C78.4764 49.087 78.5875 49.1776 78.7135 49.2423C78.8396 49.307 78.9778 49.3445 79.1193 49.3523C79.2608 49.3601 79.4023 49.338 79.5347 49.2875C79.6671 49.2369 79.7874 49.1591 79.8877 49.059C80.0797 49.5658 80.3065 50.0587 80.5665 50.5343C79.3365 50.934 79.4677 52.4378 80.0805 53.3535C79.7908 53.547 79.5185 53.7653 79.2667 54.006C70.1657 56.4044 60.9421 58.3107 51.636 59.7165L51.6345 59.7105ZM40.7415 106.076C40.6945 106.09 40.6451 106.096 40.596 106.091C40.5469 106.087 40.4992 106.073 40.4555 106.05C40.4119 106.028 40.3731 105.996 40.3415 105.959C40.3099 105.921 40.286 105.877 40.2712 105.83C39.7387 104.131 38.6902 102.64 37.2715 101.564C35.8527 100.488 34.1341 99.8798 32.3542 99.825C32.2548 99.825 32.1594 99.7855 32.089 99.7152C32.0187 99.6449 31.9792 99.5495 31.9792 99.45C31.9792 99.3506 32.0187 99.2552 32.089 99.1849C32.1594 99.1145 32.2548 99.075 32.3542 99.075C34.2946 99.1265 36.1702 99.7842 37.7178 100.956C39.2653 102.128 40.4072 103.755 40.983 105.608C41.0121 105.702 41.003 105.804 40.9579 105.891C40.9127 105.979 40.835 106.045 40.7415 106.076ZM40.9417 102.776C35.808 94.7505 14.5522 93.6143 5.71421 94.578C16.896 86.0445 29.1892 78.789 41.0902 71.76C49.4737 66.0938 59.0902 63.999 69.819 65.3408C69.993 67.5698 71.7277 67.7835 73.761 67.8585C76.8735 67.8585 80.5365 64.3823 81.9022 61.1955C82.8686 59.3681 83.6502 57.4489 84.2355 55.4663C84.6166 55.4129 84.9846 55.2901 85.3215 55.104C83.403 59.0933 82.6867 64.1198 78.93 66.8078C78.5835 67.059 78.8775 67.4655 79.1617 67.6148C80.466 68.1225 81.5805 68.5898 82.68 69.147C81.2197 69.7733 79.7055 70.947 78.2857 71.4263C70.401 66.5348 59.4825 66.576 50.3317 68.2013C41.967 72.171 34.896 77.6423 26.8125 82.125C21.6652 85.1093 16.3432 88.1948 11.2567 91.5353C11.188 91.5805 11.136 91.6471 11.1089 91.7248C11.0818 91.8025 11.0809 91.8869 11.1065 91.9651C11.1321 92.0433 11.1827 92.1109 11.2505 92.1575C11.3183 92.2041 11.3995 92.2271 11.4817 92.223C18.6423 91.7489 25.8284 92.6186 32.6692 94.7873C35.6887 95.7263 39.39 97.2098 41.2485 100.37C41.0056 101.147 40.9018 101.961 40.9417 102.774V102.776ZM45.882 81.171C38.433 82.995 39.5002 80.3708 41.0377 74.325C45.4065 71.919 48.8872 68.4533 54.2857 68.325C62.4352 67.725 70.893 67.7505 77.6287 71.9123C74.4405 73.7205 71.2537 75.6338 68.0962 77.6498C67.527 77.8965 66.9937 78.6143 66.3855 78.504C59.4773 78.6823 52.6061 79.5756 45.882 81.1695V81.171ZM65.532 79.2893C63.1402 80.8478 60.6765 82.5338 58.0267 84.4253C57.1785 84.3135 55.4062 84.966 54.8557 84.3315C54.1252 83.2995 54.3307 81.5993 54.234 80.367C57.9777 79.8072 61.7485 79.4469 65.5305 79.2878L65.532 79.2893ZM32.8995 94.0733C26.4172 92.0286 19.6291 91.1255 12.8377 91.404C21.861 85.662 31.1985 80.604 40.1377 74.8823C38.1427 81.6165 39.0127 83.7413 46.0717 81.897C48.5402 81.336 51.018 80.861 53.505 80.472C53.4797 81.4035 53.5324 82.3355 53.6625 83.2583C53.8702 85.1708 55.1985 85.614 56.859 85.2585C52.8082 88.2365 48.9425 91.4585 45.2835 94.9065C43.7483 96.1674 42.4898 97.7315 41.5867 99.501C39.4852 96.417 35.6535 94.9388 32.898 94.0718L32.8995 94.0733ZM60.0982 102.844C60.0697 102.939 60.0046 103.019 59.9171 103.066C59.8297 103.114 59.727 103.124 59.6317 103.096C59.7262 102.98 41.6122 98.493 43.2165 106.096C43.2271 106.144 43.2282 106.194 43.2196 106.242C43.211 106.291 43.1929 106.337 43.1664 106.379C43.1399 106.42 43.1055 106.456 43.0651 106.484C43.0247 106.513 42.9792 106.533 42.9311 106.543C42.883 106.554 42.8332 106.555 42.7847 106.546C42.7362 106.538 42.6898 106.52 42.6483 106.493C42.6068 106.467 42.5708 106.432 42.5426 106.392C42.5144 106.351 42.4944 106.306 42.4837 106.258C41.6955 103.074 44.8087 100.8 48.7732 100.924C52.5127 100.902 56.2378 101.391 59.8455 102.375C59.8926 102.389 59.9366 102.413 59.9748 102.444C60.0129 102.475 60.0446 102.513 60.0679 102.557C60.0912 102.6 60.1058 102.648 60.1107 102.697C60.1157 102.746 60.1109 102.795 60.0967 102.842L60.0982 102.844ZM71.1187 102.199C71.0871 102.293 71.0193 102.371 70.9303 102.415C70.8412 102.46 70.7383 102.467 70.644 102.435C70.569 102.409 62.9122 99.8505 57.279 99.0653C51.2925 98.2313 45.159 99.5153 43.3155 101.986C43.0402 102.381 42.411 101.924 42.7155 101.536C45.0225 98.4413 51.9907 97.569 57.384 98.3205C63.084 99.1155 70.809 101.696 70.884 101.722C70.9779 101.754 71.0552 101.822 71.0989 101.911C71.1426 102 71.1492 102.103 71.1172 102.197L71.1187 102.199ZM82.5937 104.342C80.1125 102.272 77.26 100.694 74.1885 99.6915C68.6481 97.7062 62.7987 96.7226 56.9137 96.7868C52.7467 97.0035 43.707 97.3868 41.6767 102.132C41.808 99.4463 43.6837 97.3455 45.795 95.457C55.7242 85.9395 70.8577 76.257 82.737 69.9495C85.62 68.412 89.5507 67.8143 94.4115 68.1698C94.131 68.583 93.8797 69.9563 93.3885 69.7785C90.7189 69.4195 88.017 69.3677 85.3357 69.624C85.2865 69.6283 85.2385 69.6421 85.1947 69.6649C85.1508 69.6877 85.1118 69.7188 85.08 69.7567C85.0482 69.7945 85.0241 69.8382 85.0092 69.8853C84.9942 69.9324 84.9887 69.982 84.993 70.0313C85.0015 70.1307 85.0492 70.2227 85.1256 70.287C85.1634 70.3188 85.2071 70.3429 85.2542 70.3578C85.3014 70.3727 85.351 70.3783 85.4002 70.374C88.0004 70.1259 90.6204 70.1732 93.21 70.515C92.748 71.2672 92.2279 71.9822 91.6545 72.6533C91.5993 72.5807 91.5191 72.5312 91.4295 72.5145C88.6869 72.0545 85.8939 71.9766 83.13 72.2828C83.0807 72.2881 83.033 72.3032 82.9896 72.327C82.9461 72.3508 82.9078 72.3829 82.8768 72.4215C82.8457 72.4601 82.8226 72.5045 82.8087 72.552C82.7949 72.5996 82.7905 72.6494 82.7958 72.6986C82.8012 72.7479 82.8162 72.7956 82.84 72.839C82.8638 72.8825 82.896 72.9208 82.9346 72.9518C82.9732 72.9829 83.0175 73.006 83.0651 73.0199C83.1126 73.0338 83.1625 73.0381 83.2117 73.0328C85.8731 72.7384 88.5623 72.8094 91.2045 73.2435C90.609 73.8653 89.8672 75.0548 89.0295 75.1808C88.8105 75.0623 80.463 73.2645 82.6867 74.9303C84.6113 75.0602 86.5216 75.352 88.3972 75.8025C87.5347 76.5435 86.1292 76.3373 85.278 77.0288C84.846 77.205 84.567 77.7113 84.807 78.0255C83.982 77.8935 77.976 76.7505 77.9377 77.7435C77.9377 77.843 77.9772 77.9384 78.0475 78.0087C78.1179 78.079 78.2133 78.1185 78.3127 78.1185C79.2772 78.2258 85.5292 78.1133 84.2235 79.2803C83.8987 79.743 83.7885 80.7848 84.5355 80.85C84.72 80.7795 84.5512 81.3578 84.7387 81.5528C79.8081 79.6595 74.5071 78.9293 69.2482 79.419C69.1488 79.4284 69.0571 79.4768 68.9934 79.5538C68.9297 79.6307 68.8991 79.7298 68.9085 79.8293C68.9178 79.9287 68.9663 80.0204 69.0432 80.0841C69.1202 80.1478 69.2193 80.1784 69.3187 80.169C79.7557 79.0928 89.91 83.3378 97.1302 90.6428C97.2035 90.643 97.2753 90.6216 97.3366 90.5815C97.3979 90.5413 97.4461 90.484 97.4752 90.4168C97.5044 90.3495 97.5131 90.2752 97.5005 90.203C97.4878 90.1308 97.4542 90.0639 97.404 90.0105C94.0686 86.4824 90.0169 83.7088 85.521 81.876C85.7136 81.7829 85.874 81.6343 85.9815 81.4493C85.9869 81.5758 86.0288 81.698 86.1021 81.8012C86.1754 81.9044 86.277 81.9842 86.3947 82.031C86.5123 82.0777 86.641 82.0895 86.7651 82.0648C86.8893 82.0401 87.0037 81.98 87.0945 81.8918C87.6938 81.2087 88.3715 80.5985 89.1135 80.0738C92.9038 81.5629 96.3238 83.8608 99.135 86.8073C99.1684 86.8448 99.209 86.8753 99.2544 86.8968C99.2998 86.9184 99.3491 86.9306 99.3993 86.9327C99.4495 86.9348 99.4996 86.9268 99.5467 86.9092C99.5938 86.8915 99.6368 86.8646 99.6733 86.83C99.7097 86.7954 99.7388 86.7539 99.7589 86.7078C99.779 86.6617 99.7896 86.6121 99.7901 86.5618C99.7906 86.5115 99.781 86.4617 99.7619 86.4152C99.7427 86.3688 99.7145 86.3266 99.6787 86.2913C97.0362 83.5253 93.8677 81.3153 90.3592 79.791C92.1708 79.6467 93.9437 79.19 95.5995 78.441C98.5041 79.9052 101.182 81.7816 103.549 84.012C103.585 84.0475 103.627 84.0756 103.674 84.0944C103.72 84.1133 103.77 84.1227 103.82 84.122C103.87 84.1213 103.92 84.1105 103.966 84.0903C104.012 84.0701 104.053 84.0409 104.088 84.0044C104.122 83.9679 104.149 83.9248 104.166 83.8778C104.184 83.8308 104.192 83.7807 104.189 83.7306C104.187 83.6805 104.175 83.6313 104.153 83.586C104.132 83.5406 104.101 83.5001 104.064 83.4668C101.79 81.3272 99.2374 79.5053 96.4747 78.051C97.7157 77.4815 98.9064 76.8084 100.034 76.0388C102.847 77.4192 105.439 79.2117 107.723 81.357C108.07 81.696 108.598 81.1395 108.237 80.811C105.997 78.7097 103.468 76.9388 100.728 75.552C101.622 74.8882 102.46 74.152 103.233 73.3508C105.843 74.5142 108.303 75.9879 110.56 77.7398C110.599 77.7697 110.644 77.7915 110.692 77.804C110.74 77.8166 110.79 77.8196 110.839 77.8129C110.888 77.8061 110.935 77.7898 110.977 77.7649C111.02 77.7399 111.057 77.7068 111.087 77.6674C111.117 77.628 111.139 77.5831 111.152 77.5353C111.164 77.4874 111.167 77.4376 111.16 77.3886C111.154 77.3396 111.137 77.2924 111.112 77.2497C111.087 77.207 111.054 77.1697 111.015 77.1398C108.781 75.4076 106.354 73.9401 103.782 72.7665C104.498 71.9664 105.145 71.1068 105.715 70.197C110.228 71.6183 114.519 73.6647 118.465 76.2765C116.338 77.4548 106.84 85.1265 103.114 87.8423C101.594 88.9568 82.6717 104.258 82.5937 104.34V104.342ZM87.4522 78.987C86.739 78.5258 85.629 80.4225 85.395 80.9198C85.6065 80.0849 86.0776 79.3388 86.7405 78.789C86.813 78.7276 86.8598 78.6411 86.8717 78.5468C86.8836 78.4525 86.8596 78.3572 86.8045 78.2797C86.7495 78.2022 86.6673 78.1482 86.5744 78.1283C86.4814 78.1085 86.3844 78.1243 86.3025 78.1725C86.507 78.0493 86.7221 77.9444 86.9452 77.859C87.0207 77.8298 87.0848 77.777 87.1278 77.7084C87.1708 77.6397 87.1904 77.5591 87.1837 77.4784C87.1771 77.3977 87.1444 77.3213 87.0908 77.2607C87.0371 77.2001 86.9653 77.1584 86.886 77.142C88.2075 76.5338 89.286 77.817 89.4915 78.9848C88.4261 79.5123 87.4915 80.2704 86.7555 81.204C86.8577 80.5784 87.1093 79.9867 87.489 79.479C87.5435 79.4061 87.5696 79.3157 87.5625 79.2249C87.5553 79.1341 87.5153 79.049 87.45 78.9855L87.4522 78.987ZM83.862 113.444L83.592 109.606C85.6714 107.729 87.9067 106.033 90.2737 104.536C90.3577 104.482 90.4169 104.398 90.4385 104.301C90.4601 104.204 90.4422 104.102 90.3888 104.018C90.3354 103.934 90.2509 103.875 90.1537 103.853C90.0566 103.831 89.9549 103.849 89.871 103.903C87.6346 105.321 85.5131 106.913 83.526 108.663L83.4277 107.264L101.767 92.2935C101.806 92.2624 101.837 92.224 101.861 92.1806C101.884 92.1372 101.898 92.0896 101.903 92.0406C101.908 91.9915 101.904 91.942 101.889 91.8948C101.875 91.8476 101.852 91.8037 101.821 91.7655C101.79 91.7274 101.751 91.6957 101.708 91.6724C101.664 91.649 101.617 91.6345 101.568 91.6295C101.519 91.6246 101.469 91.6294 101.422 91.6436C101.375 91.6577 101.331 91.6811 101.293 91.7123L83.3632 106.35L83.2612 104.899C92.901 97.4423 93.3307 95.9633 110.177 83.4248C112.161 81.882 116.578 78.2835 118.713 76.9748C118.492 78.2515 118.377 79.5445 118.37 80.8403L108.805 88.5975C108.745 88.6464 108.702 88.7126 108.681 88.7872C108.66 88.8617 108.663 88.9409 108.689 89.0139C108.714 89.0869 108.762 89.15 108.826 89.1947C108.889 89.2394 108.964 89.2635 109.042 89.2635C109.243 89.2635 108.523 89.7885 118.342 81.8325C118.327 82.263 118.312 82.6163 118.3 82.6793C117.586 83.5568 90.5925 107.468 83.862 113.443V113.444ZM129.055 104.214L131.571 104.346C131.336 107.514 130.08 110.519 127.993 112.913C127.442 112.459 125.968 110.663 125.419 111.302C125.365 111.385 125.348 111.487 125.369 111.584C125.391 111.681 125.45 111.766 125.534 111.819C126.248 112.287 126.903 112.84 127.484 113.465C125.404 115.599 122.798 117.148 119.929 117.956L119.268 115.576C119.239 115.483 119.175 115.404 119.089 115.357C119.004 115.311 118.903 115.299 118.809 115.325C118.715 115.351 118.635 115.413 118.586 115.498C118.537 115.582 118.522 115.682 118.546 115.777L119.213 118.177C116.388 118.916 113.468 119.228 110.55 119.1L110.93 116.562C110.94 116.466 110.913 116.37 110.854 116.293C110.795 116.217 110.708 116.166 110.613 116.152C110.517 116.138 110.42 116.161 110.341 116.217C110.262 116.272 110.208 116.356 110.189 116.451L109.793 119.091C107.434 119.056 105.079 118.897 102.736 118.613C104.747 108.664 106.527 100.631 108.496 92.6183C110.671 90.4905 112.729 88.8345 114.156 87.489C114.343 87.894 114.956 87.7635 115.319 87.8955C115.229 88.4798 114.506 90.6518 115.34 90.7793C115.44 90.7793 115.535 90.7398 115.605 90.6694C115.676 90.5991 115.715 90.5037 115.715 90.4043C115.721 89.604 115.836 88.8083 116.059 88.0395C118.262 88.4662 120.411 89.1352 122.467 90.0345L121.165 92.1825C121.14 92.2247 121.123 92.2714 121.116 92.3202C121.108 92.3689 121.11 92.4186 121.122 92.4664C121.134 92.5142 121.155 92.5593 121.184 92.599C121.213 92.6387 121.25 92.6723 121.292 92.6978C121.334 92.7233 121.381 92.7402 121.43 92.7477C121.479 92.7551 121.528 92.7529 121.576 92.7411C121.624 92.7293 121.669 92.7083 121.709 92.6791C121.748 92.6499 121.782 92.6132 121.807 92.571L123.151 90.3555C125.988 91.7865 128.074 93.459 129.517 95.8725L127.616 96.822C127.571 96.8431 127.53 96.8731 127.496 96.9103C127.462 96.9474 127.436 96.991 127.42 97.0384C127.403 97.0858 127.396 97.136 127.399 97.1861C127.402 97.2363 127.416 97.2852 127.438 97.3302C127.461 97.3751 127.492 97.415 127.53 97.4476C127.568 97.4803 127.613 97.5049 127.66 97.52C127.708 97.5351 127.759 97.5405 127.809 97.5358C127.859 97.5311 127.907 97.5164 127.951 97.4925L129.887 96.5258C131.055 98.6949 131.643 101.129 131.594 103.592L129.094 103.46C128.995 103.455 128.897 103.49 128.823 103.556C128.748 103.623 128.704 103.717 128.698 103.817C128.693 103.916 128.728 104.014 128.795 104.088C128.861 104.163 128.955 104.207 129.055 104.213V104.214Z" fill="#FFFCF9"/>
</svg>
