<svg width="136" height="144" viewBox="0 0 136 144" fill="none" xmlns="http://www.w3.org/2000/svg">
<path fill-rule="evenodd" clip-rule="evenodd" d="M127.627 51.8737C130.237 54.3967 132.325 57.4417 133.891 60.7477H133.891C138.153 70.6027 135.003 82.4917 130.15 92.0692C130.057 92.3002 129.843 92.3107 129.688 92.2042C129.624 92.3287 129.56 92.4525 129.496 92.5762C128.46 92.1127 127.396 91.6417 126.349 91.179H126.348L126.346 91.1782L126.342 91.176C124.15 90.2062 122.032 89.2702 120.406 88.5022H120.405C119.701 88.17 118.926 87.8932 118.056 87.8062C117.907 87.8062 117.763 87.8167 117.623 87.8362L114.402 86.1525V86.1532C113.821 85.7662 113.286 85.8412 112.662 86.1532C112.39 86.2957 112.125 86.4487 111.867 86.6115L109.703 85.1085V85.1092C109.181 84.7612 108.746 84.2392 108.746 83.5432C107.702 79.7152 105.266 76.3222 101.873 74.1465C100.649 73.2487 99.3104 72.504 97.9011 71.9128C98.0984 60.4344 97.8441 48.8811 96.3051 37.779C78.2954 35.256 59.5896 34.386 41.7539 38.214C40.4628 47.813 39.8237 60.2005 40.4439 72.8062C39.6618 73.2292 38.9074 73.7047 38.1861 74.2335C34.7931 76.4085 32.3571 79.8015 31.3131 83.6295C31.3131 83.9775 31.1391 84.3255 30.9651 84.5865L30.9036 84.648C30.855 84.6975 30.8148 84.738 30.7734 84.777C30.5771 84.9622 30.3523 85.1175 29.0624 86.01L29.0589 86.0122L29.0547 86.0152C28.7981 86.1922 28.4995 86.3992 28.1509 86.6407C27.8791 86.4675 27.599 86.3055 27.3111 86.154V86.1532C26.8161 85.824 26.2146 85.7827 25.6581 86.1532L22.4393 87.8355C22.2987 87.816 22.1541 87.8055 22.0041 87.8055C21.1341 87.8925 20.3586 88.1692 19.6551 88.5015C18.1611 89.2065 15.8918 90.4545 13.4477 91.8315C14.1872 86.7675 14.7175 82.7182 13.3904 76.6702C12.2106 71.292 9.56613 66.0547 6.16938 62.0535C4.97238 60.6435 3.79038 59.2035 2.77638 57.7035C-1.17012 51.8655 -0.442621 44.1307 2.60238 38.0407C7.18638 28.8727 17.2739 21.5392 26.0931 18.987C29.0777 18.1248 31.7995 17.8445 34.582 17.5578C38.8268 17.1205 43.2128 16.6687 48.8879 14.115C53.1826 12.0868 55.4253 10.4679 57.6355 8.87239C58.9643 7.91314 60.2814 6.96237 62.0256 5.93622C65.9399 3.73422 72.1716 2.31147 76.4684 1.76022C83.5154 0.71622 90.8234 0.10722 97.7841 1.84722C107.696 4.35822 116.103 11.8515 116.664 21.945C116.745 23.8017 116.47 25.6209 116.195 27.4375C115.878 29.5364 115.561 31.6317 115.794 33.777C116.456 40.1778 121.039 44.9616 125.331 49.4427C126.115 50.2605 126.888 51.0681 127.627 51.8737ZM110.139 100.769C111.357 102.184 114.138 105.304 117.126 108.532C112.605 112.115 107.25 114.433 100.816 114.928C101.527 114.318 101.869 113.623 101.699 112.603V112.602C100.863 107.169 98.8641 101.139 96.3944 96.1987C90.6306 94.2922 83.3556 92.6565 77.4591 91.5757C84.5316 91.365 90.9261 91.389 97.2621 91.8082L97.2944 90.9915C97.3311 90.0532 97.3679 89.1127 97.4046 88.1692V88.17C97.8764 88.731 98.3451 89.289 98.8281 89.8065C99.5241 90.5895 100.394 91.1985 101.264 91.7205C101.749 92.0115 102.154 92.0325 102.583 92.0535C102.922 92.0707 103.277 92.0887 103.7 92.2425C103.741 92.2627 103.787 92.2837 103.836 92.3055C103.993 92.3752 104.176 92.4577 104.309 92.5905C105.088 93.174 105.893 93.7852 106.68 94.4077C106.63 94.7272 106.594 95.0497 106.572 95.3752C106.572 95.979 106.597 96.5527 107.181 96.9412C107.952 97.7715 108.763 98.5612 109.615 99.2835C109.615 100.043 109.73 100.201 109.965 100.522C110.017 100.594 110.075 100.673 110.139 100.769ZM17.7056 114.208C18.5184 114.843 19.4084 115.384 20.3504 115.822C24.4968 117.676 28.9156 117.018 32.9485 116.4C32.8282 115.975 32.9009 115.495 33.2271 114.951C35.4029 109.992 38.0999 105.381 41.4059 101.117C41.5473 100.929 41.6648 100.765 41.7684 100.621L41.7695 100.62L41.7701 100.619L41.7703 100.618C42.405 99.735 42.522 99.573 44.4651 98.7585C49.7589 96.513 56.203 94.1407 61.8805 92.2837C59.1965 92.4322 56.397 92.5942 53.4609 92.7637H53.4605H53.4582L53.4515 92.7645H53.4489H53.441L53.4347 92.7652C50.052 92.9602 46.4882 93.1665 42.7109 93.3742C42.4512 91.9425 42.2139 90.4942 41.9981 89.0332C41.7447 89.328 41.4899 89.6167 41.2311 89.8942C40.5351 90.6772 39.6651 91.2862 38.7951 91.8082C38.3096 92.0992 37.9053 92.1202 37.4766 92.1412C37.137 92.1585 36.7821 92.1765 36.3591 92.3302C36.318 92.3505 36.2721 92.3715 36.2237 92.3932C36.0668 92.463 35.883 92.5455 35.7501 92.6782C34.909 93.2715 34.096 93.8932 33.3112 94.5277C33.352 94.8075 33.3821 95.091 33.4011 95.376C33.4011 96.021 33.3711 96.4312 32.8791 96.942C32.1209 97.7287 31.3446 98.496 30.5309 99.2017V99.2025C30.5477 100.107 30.4365 100.259 30.183 100.608L30.1827 100.609L30.1822 100.609C30.1305 100.681 30.0727 100.759 30.0089 100.855C28.0584 103.12 22.1034 109.754 17.7056 114.208ZM97.8254 75.5385L97.8239 75.579C97.9281 75.651 98.0309 75.7245 98.1329 75.7995C98.0316 75.711 97.9289 75.6247 97.8254 75.5385ZM51.6719 22.7272C52.0551 23.1105 57.0456 30.5805 57.2909 31.0635V31.0627C57.9501 32.361 56.9399 32.3535 56.2911 31.7722C55.4826 31.0477 50.8019 24.8145 50.2799 23.5102C50.0189 22.6402 51.0629 22.2052 51.6719 22.7272ZM70.4646 30.732C70.9289 27.3262 71.1531 20.4697 70.8996 19.0732C70.7256 18.3772 69.5826 18.3757 69.5076 19.0732C69.4874 19.2585 69.7424 29.3955 69.8556 30.645C69.7686 31.08 70.3776 31.167 70.4646 30.732ZM88.8224 25.9462C88.2809 27.03 85.4796 30.8722 83.7921 32.469C83.2236 33.0067 82.8434 32.5027 83.1996 31.9312C84.0269 30.6052 87.3044 26.0107 87.8654 25.3372C88.2134 25.0762 88.9964 25.3372 88.8224 25.9462Z" fill="#FFFCF9"/>
<path d="M77.2505 134.962C75.9628 135.991 75.47 135.946 74.2055 136.789C74.0263 136.968 74.114 137.25 74.6143 137.092C75.4183 136.839 76.6633 136.232 77.5985 135.484C77.8843 135.341 77.7223 134.725 77.2505 134.962Z" fill="#FFFCF9"/>
<path d="M77.1982 137.086C74.9324 138.597 74.6009 138.596 74.0549 138.822C73.9552 138.863 73.9964 139.423 74.4502 139.349C75.8122 139.128 77.0092 138.138 77.4832 137.821C78.8069 136.939 78.0269 136.256 77.1974 137.085L77.1982 137.086Z" fill="#FFFCF9"/>
<path d="M72.3369 93.4837C72.2499 99.228 72.2064 104.164 72.8154 109.819C72.8154 110.167 73.7349 110.107 73.6479 109.672C73.1259 103.93 73.2309 99.1972 73.1874 93.4545C73.1821 92.7195 72.3496 92.631 72.3369 93.4837Z" fill="#FFFCF9"/>
<path fill-rule="evenodd" clip-rule="evenodd" d="M60.84 92.3422C54.1663 94.6447 44.5391 98.3999 42.483 99.2902C42.0438 99.4799 41.9307 99.6457 41.7999 99.8377C41.7759 99.8722 41.7513 99.9082 41.724 99.9457C38.1382 104.325 35.49 109.321 33.0532 114.43C32.6347 115.308 32.1832 116.257 32.8792 117.127C33.5752 117.823 34.3582 118.345 35.3152 118.693C35.3152 118.693 40.611 121.384 41.6512 121.9C41.973 124.388 42.3396 125.951 42.6209 127.151C42.6846 127.422 42.7438 127.675 42.7972 127.915C42.8842 128.785 43.4062 129.568 44.0152 130.09C45.0592 130.699 46.1032 131.221 47.1472 131.656C48.0278 132.082 48.8675 132.488 49.6743 132.878C57.7235 136.772 62.5061 139.086 72.117 143.228C72.3585 143.308 72.5257 143.166 72.618 142.937C79.8142 139.636 86.4585 135.324 92.6497 130.352C92.916 130.138 93.1845 129.925 93.4545 129.71C94.6567 128.755 95.8807 127.782 96.9997 126.697C98.1645 125.569 98.2147 123.937 98.2635 122.377C98.2732 122.043 98.2837 121.712 98.3047 121.39C98.3295 121.018 98.355 120.644 98.3812 120.271C98.4517 119.244 98.5237 118.214 98.5657 117.179C99.2422 116.707 99.9105 116.227 100.567 115.735C101.35 115.3 101.959 114.604 102.22 113.734C102.307 112.777 102.22 111.733 101.959 110.776L101.96 110.775C101.038 105.915 99.579 101.078 97.1797 96.6697C96.795 95.9617 96.5377 95.724 96.0877 95.5965C91.911 94.4107 84.6165 92.6999 78.5017 91.5464C77.3325 91.5779 76.1452 91.6154 74.937 91.6597C75.0412 91.6799 75.1455 91.7002 75.2497 91.7212C82.6065 92.9474 88.8052 94.2277 95.9647 96.3187C89.8882 100.738 83.475 104.571 76.6417 107.817C75.3337 108.442 73.7302 108.983 72.1935 109.501C71.505 109.733 70.83 109.961 70.2007 110.19C69.819 109.901 62.3259 107.239 57.0387 105.361C56.266 105.087 55.5404 104.829 54.891 104.598C54.0755 104.308 53.2498 104.024 52.4199 103.74C49.1627 102.623 45.8399 101.483 42.8077 99.8032C50.4854 96.6862 53.6386 95.5965 57.1074 94.3972C58.6774 93.855 60.312 93.2894 62.46 92.5042H62.4607C62.7423 92.4014 63.0251 92.3017 63.3087 92.2057C62.4966 92.25 61.6739 92.295 60.84 92.3422ZM33.3142 115.56C32.9662 116.865 34.0185 117.37 34.9672 117.822C38.0255 119.281 40.588 120.555 42.8361 121.673C47.1883 123.838 50.362 125.417 53.673 126.61C54.0562 126.748 54.4419 126.903 54.8242 127.057C55.4745 127.318 56.1153 127.576 56.718 127.741C56.9385 127.801 57.173 127.879 57.4149 127.96C58.2226 128.232 59.1135 128.53 59.85 128.263C60.61 127.986 60.9859 127.216 61.3263 126.518C61.4146 126.337 61.5004 126.162 61.59 126.001C62.2974 124.468 63.7102 121.915 65.3055 119.032C66.7493 116.424 68.3422 113.545 69.6975 110.908C69.3637 110.719 62.8575 108.324 52.455 104.685C51.8826 104.485 51.3052 104.288 50.7259 104.091C47.8218 103.102 44.8683 102.097 42.2452 100.528C39.324 104.246 36.7245 108.226 34.7062 112.515C34.1842 113.472 33.6622 114.516 33.3142 115.56ZM45.8069 130.202C46 130.281 46.1887 130.357 46.365 130.438L46.3819 130.446C54.789 134.521 63.197 138.598 71.766 142.188C70.6627 133.737 69.9577 122.797 70.1235 111.846C68.9527 114.051 67.7519 116.24 66.5508 118.429C65.2018 120.888 63.8529 123.346 62.5477 125.827C62.1127 126.871 61.5907 127.741 60.8947 128.524C60.1987 129.133 59.1547 129.307 58.2847 129.046C53.238 127.493 47.0107 124.543 42.3082 122.223C42.5377 123.646 43.1377 127.27 43.668 128.611C44.0076 129.469 44.9512 129.853 45.8069 130.202ZM97.3837 121.948C97.41 121.225 97.4392 120.394 97.5232 119.389C97.5577 118.873 97.587 118.355 97.6125 117.837C96.8347 118.368 96.0487 118.892 95.2627 119.416L95.1742 119.476C88.4482 123.959 80.8605 127.208 77.6865 128.002C76.9035 128.176 76.1205 127.654 75.9465 126.871C75.8925 126.709 75.7807 126.277 75.6165 125.647C74.8845 122.83 73.1197 116.035 70.9027 111.591C70.92 111.808 70.917 112.377 70.9117 113.262C70.8877 117.323 70.824 128.05 72.552 142.08C80.8927 138.396 87.8865 133.541 94.9132 127.393C95.6962 126.871 96.3922 126.175 96.9142 125.392C97.2982 124.336 97.3335 123.346 97.3837 121.948ZM95.6092 118.171C97.3492 117.04 99.027 115.939 100.568 114.604V114.603C101.371 113.908 101.29 113.043 101.203 112.109C101.194 112.013 101.185 111.916 101.177 111.819C100.953 109.123 99.2115 102.765 96.3697 97.0664C94.1917 98.7577 87.1935 103.6 81.2475 106.721C78.2895 108.355 74.8282 109.727 71.5155 110.808C73.8435 114.544 76.2915 124.612 76.6395 126.044C76.6657 126.15 76.68 126.208 76.6815 126.214C76.9297 126.915 77.1645 127.306 77.8605 127.132C78.3825 127.045 78.8175 126.871 79.2525 126.697C85.179 124.543 91.0747 121.31 95.6092 118.171Z" fill="#FFFCF9"/>
<path fill-rule="evenodd" clip-rule="evenodd" d="M32.4433 79.89C34.2048 76.6702 37.1117 74.0865 40.4232 72.3765C40.4343 72.6135 40.4459 72.8505 40.4579 73.0875C36.6799 75.1485 33.625 78.198 32.0083 82.239C31.9067 82.5187 31.8347 82.8202 31.7621 83.1247C31.5861 83.8627 31.4062 84.6172 30.7903 85.11C30.0024 85.716 29.2143 86.28 28.397 86.802C28.2528 86.7045 28.1061 86.6107 27.957 86.52C29.0658 85.695 29.3643 85.4917 29.595 85.3342C29.7616 85.2202 29.8929 85.131 30.2683 84.849C30.6163 84.588 30.8773 84.153 30.9643 83.718C31.3123 82.413 31.7473 81.108 32.4433 79.89ZM33.3705 95.01C33.8735 94.5967 34.3741 94.1902 34.8801 93.8107C35.3151 93.3757 35.8371 93.0277 36.3591 92.7667C36.7071 92.6505 37.0551 92.6122 37.4031 92.5732C37.5771 92.5537 37.7511 92.535 37.9251 92.5057C38.9691 92.2447 39.8391 91.7227 40.6221 90.9397C41.112 90.45 41.602 89.9595 42.0609 89.454C42.0172 89.1652 41.9745 88.875 41.9325 88.5847C40.2128 90.5055 39.0306 91.8097 36.9681 91.8097C35.9241 92.0707 34.9671 92.5927 34.1841 93.3757C33.8622 93.6172 33.5485 93.8587 33.2406 94.1025C33.2964 94.4017 33.3398 94.7047 33.3705 95.01Z" fill="#FFFCF9"/>
<path fill-rule="evenodd" clip-rule="evenodd" d="M102.81 92.1967C100.623 92.1967 98.8721 90.2827 97.3916 88.491L97.4268 87.5887C97.6646 87.8587 97.8746 88.1055 98.0734 88.3372C98.8706 89.274 99.4729 89.9805 100.915 91.0252C101.267 91.2802 101.785 91.4602 102.307 91.5472C103.994 91.5472 105.104 92.5012 106.762 93.9464C106.717 94.1722 106.678 94.3995 106.647 94.629C105.987 94.0845 105.312 93.549 104.637 93.0667C104.115 92.6317 103.506 92.2837 102.81 92.1967ZM112.152 86.4375C111.781 86.1585 111.189 85.713 110.206 84.9757V84.975C109.858 84.801 109.51 84.453 109.249 84.105C108.988 83.496 108.814 82.887 108.727 82.191C108.241 80.4922 106.257 77.1015 103.333 74.709C101.83 73.4565 99.9236 72.2947 97.9091 71.4269L97.9001 71.9554C102.642 74.034 106.852 78.0502 108.224 82.8472C108.311 83.4562 108.572 84.0652 108.92 84.5872C109.442 85.0222 109.964 85.4572 110.573 85.8052C110.982 86.112 111.391 86.3887 111.801 86.6535C111.916 86.5792 112.033 86.508 112.152 86.4375ZM98.0441 75.8002C97.9699 75.7507 97.8964 75.702 97.8221 75.654C97.8289 75.3765 97.8356 75.099 97.8424 74.8207C98.0276 74.9692 98.2114 75.1222 98.3921 75.2782C98.7401 75.5392 98.3921 75.9742 98.0441 75.8002Z" fill="#FFFCF9"/>
<path d="M78.5561 63.7057C78.4856 63.0075 78.0341 62.3137 77.4251 61.9657C76.7291 61.7047 76.0331 61.7047 75.3371 61.8787C72.4226 62.5125 66.8689 62.4232 64.4614 61.9642C63.7654 61.7032 62.9824 61.6162 62.1994 61.7032C60.1354 62.2942 60.0934 64.8945 61.8514 65.7052C61.9384 65.7052 61.9384 65.7922 62.0254 65.7922C63.0199 66.165 64.2776 65.3115 64.7224 67.5322C64.9181 68.0212 66.6364 73.4272 66.8861 74.0775C66.9859 74.3377 67.5731 74.0287 67.5416 73.803C67.3736 72.6112 66.1196 69.774 65.7664 68.49C65.5256 67.614 65.2444 66.75 64.8094 65.88C64.3744 65.271 63.6784 64.923 62.8954 65.01C62.0254 65.01 61.1554 64.401 61.4164 63.444C61.7644 62.313 62.8954 62.487 63.8524 62.661C66.6634 63.3937 72.4391 63.3952 75.2501 62.6617C76.1201 62.4877 77.3381 62.3137 77.6861 63.4447C77.9471 64.4017 77.0771 65.0107 76.2071 65.0107C75.5111 64.9237 74.8151 65.2717 74.3801 65.7937C73.3909 67.773 72.3724 72.432 71.8414 73.6942C71.6149 74.232 72.4249 74.1517 72.5239 73.8907C73.1816 72.153 73.9796 68.883 74.7281 67.0117C74.8151 66.5767 75.0761 66.2287 75.4241 66.0547C75.8591 65.9677 76.2071 65.9677 76.6421 65.9677C77.7731 65.8807 78.6701 64.8337 78.5561 63.7057Z" fill="#FFFCF9"/>
<path d="M33.575 94.7662C33.2098 91.4767 30.8998 87.6862 27.137 85.8052C26.789 85.6312 26.441 85.5442 26.093 85.6312C25.658 85.8052 25.223 86.0662 24.788 86.3272C23.9578 86.7105 23.1748 87.141 22.4045 87.618C19.3625 87.2745 15.029 90.9532 2.68928 97.638C2.60228 97.725 2.77478 97.9822 2.95028 97.899C8.31803 95.3415 13.7405 91.8082 18.785 89.286C19.742 88.677 20.873 88.329 22.004 88.155C23.396 88.329 24.701 88.938 25.745 89.895C27.92 91.635 29.312 94.071 29.834 96.7687C30.008 97.3777 30.095 98.0737 30.095 98.7697C30.182 99.1177 30.182 99.4657 30.095 99.9007C30.008 100.162 29.834 100.423 29.573 100.684C29.225 101.119 28.877 101.554 28.442 101.902C21.749 109.312 18.2465 113.173 13.3033 117.736C12.8683 118.084 13.4773 118.606 13.8253 118.258C16.5755 115.968 18.194 114.064 21.0463 111.211C25.0985 107.028 27.4963 104.191 30.0073 101.293C30.3553 100.945 30.5293 100.597 30.7033 100.162C30.728 99.9607 30.746 99.7597 30.7565 99.5587C31.9483 98.4862 32.4313 97.938 33.2263 97.029C33.6613 96.333 33.8353 95.55 33.5743 94.767L33.575 94.7662ZM31.226 98.2462C31.0693 98.3857 30.9125 98.5177 30.7558 98.646C30.5863 95.5912 29.3345 92.8035 27.398 90.5902C26.0308 89.0857 24.1085 88.0215 23.063 87.7425C25.0048 86.8372 25.1548 86.4397 26.3533 86.2402C26.8753 86.3272 27.3973 86.5012 27.8323 86.8492C31.3198 89.1052 32.9765 92.5995 33.0523 95.6362C33.0785 96.6802 32.0083 97.5502 31.2253 98.2462H31.226Z" fill="#FFFCF9"/>
<path d="M134.848 94.9403C129.976 92.2928 120.778 88.3133 119.622 87.8933C118.998 87.6533 118.321 87.5722 117.65 87.6352C116.518 86.9347 114.728 85.9305 114.364 85.7565C114.049 85.605 113.731 85.5075 113.445 85.5435C112.662 85.7175 111.879 86.1525 111.27 86.6745C109.455 87.9698 108.142 89.4983 107.094 91.8945C106.833 92.5905 106.572 93.3735 106.485 94.1565C106.311 94.9395 106.311 95.7225 106.485 96.4185C106.92 97.2885 107.616 97.9845 108.312 98.5935C109.441 99.8632 109.129 99.003 109.269 99.9855C109.53 100.594 109.965 101.204 110.4 101.639C110.688 101.927 121.845 114.772 126.148 118.082C126.496 118.43 127.105 117.821 126.67 117.56C124.582 115.733 122.631 113.773 120.754 111.731C118.477 109.255 113.428 104.036 110.922 101.029C110.4 100.42 109.878 99.9855 109.878 99.1155C109.878 97.8105 110.139 96.5925 110.487 95.3745C111.183 93.0255 112.662 90.9375 114.663 89.4585C115.62 88.5885 116.925 88.1535 118.23 87.9795C119.361 88.1535 120.492 88.5015 121.449 89.1105C125.886 91.0245 130.324 93.0255 134.674 95.0265C134.935 95.2875 135.109 95.0265 134.848 94.9395V94.9403ZM109.53 96.4193C109.378 97.4835 109.379 96.792 109.228 98.5095C109.061 98.3692 108.9 98.2252 108.747 98.0722C108.051 97.3762 106.893 96.5925 106.92 95.4623C106.963 93.6338 107.529 91.8952 108.486 90.4155C109.777 88.0913 112.311 86.3895 113.635 86.169C114.103 86.2357 116.041 87.2797 116.916 87.762C113.723 88.5697 110.386 92.1345 109.53 96.4185V96.4193Z" fill="#FFFCF9"/>
<path d="M84.9944 49.2637C80.1749 36.4132 60.4184 35.6767 54.7169 48.2197C52.0199 54.0487 54.1079 60.8355 57.2399 66.1425C59.0759 69.2295 61.1504 72.0765 62.6992 75.2205C62.1929 75.3037 61.8322 75.4327 61.6769 75.9735C61.4159 77.4525 61.2419 78.9315 61.3289 80.4112C61.2419 82.0642 61.3289 83.7172 61.4159 85.3702C61.4159 85.5442 61.5029 85.7182 61.6769 85.7182C64.4752 86.2972 72.4904 86.9317 77.5117 85.8922C77.6857 85.8052 77.7727 85.7182 77.7727 85.5442C77.9204 82.7295 78.0014 78.9232 77.5117 76.1482C77.3422 75.5565 76.9274 75.4575 76.4249 75.3727C80.7509 67.0357 83.0909 66.1897 85.2547 58.3995C86.1247 55.3545 86.0377 52.2225 84.9937 49.2637H84.9944ZM76.9034 77.0182C77.1547 79.7032 77.2439 82.4692 77.0939 85.1602C73.4377 85.9065 65.9684 85.7775 62.0947 84.9862C62.0332 83.9302 61.9987 82.8622 61.9979 81.7927C66.4732 81.8182 73.6649 82.005 76.1197 82.0642C76.2937 82.0642 76.3807 81.8902 76.3807 81.7162C76.3807 81.6292 76.2937 81.5422 76.1197 81.4552C75.2317 81.444 63.6014 81.2055 62.0017 81.219C62.0122 80.3415 62.0474 79.4647 62.1127 78.5917C64.4039 78.582 66.7042 78.3945 69.0802 78.3945C75.5137 78.3945 74.4134 78.5055 76.2067 78.5055C76.5547 78.5055 76.5547 77.9835 76.2067 77.9835C71.1502 77.622 66.2879 77.826 62.1479 78.1515C62.1862 77.7142 62.2319 77.2777 62.2859 76.8442C62.2859 75.8992 62.3827 75.8002 63.5039 75.8002C68.5057 75.1747 74.8447 75.6112 76.6417 76.0612C76.8157 76.2352 76.8157 76.6702 76.9027 77.0182H76.9034ZM80.9054 66.4035C79.1174 69.2992 76.7384 72.072 75.7409 75.2887C69.6884 74.568 68.5747 74.5462 63.3982 75.1335C61.8517 70.3597 57.6592 67.38 54.9787 59.0955C53.0947 53.2717 54.5309 46.941 59.8507 42.9997C67.8119 37.2105 80.2619 39.9127 84.0374 49.0027C86.4734 54.8317 83.9504 61.3575 80.9054 66.4035Z" fill="#FFFCF9"/>
<path d="M26.5026 88.5375C26.8808 88.5375 27.1874 88.2307 27.1874 87.8527C27.1874 87.4747 26.8808 87.168 26.5026 87.168C26.1245 87.168 25.8179 87.4747 25.8179 87.8527C25.8179 88.2307 26.1245 88.5375 26.5026 88.5375Z" fill="#FFFCF9"/>
<path d="M113.131 88.6635C113.509 88.6635 113.816 88.3568 113.816 87.9788C113.816 87.6008 113.509 87.294 113.131 87.294C112.753 87.294 112.446 87.6008 112.446 87.9788C112.446 88.3568 112.753 88.6635 113.131 88.6635Z" fill="#FFFCF9"/>
<path d="M48.1048 76.7565C48.0178 75.9735 47.4103 75.7867 46.7998 75.7125C45.9321 75.6075 45.0598 75.6255 44.1898 75.7125C40.7151 75.8775 36.7671 77.2995 33.9231 79.9755C33.6621 80.0625 33.8361 80.3235 34.0971 80.2365C35.6631 79.1055 37.3873 78.198 39.2301 77.4525C41.9518 76.3515 44.1726 76.4085 46.2771 76.4085C46.7991 76.4085 47.4951 76.4955 47.0601 77.1045C45.0253 79.1385 42.4581 80.6572 39.4041 81.6285C39.2301 81.7155 39.1431 81.8025 39.1431 81.9765C39.1431 84.5332 38.1096 86.8215 36.4461 88.7625C35.9241 89.3715 35.2281 89.8935 34.6191 90.4155C34.2703 90.5902 34.6656 91.2292 35.0541 91.0245C35.8468 90.6067 36.5331 89.9797 37.0551 89.2845C38.7891 87.3022 39.8488 85.1175 39.9223 82.245C42.4296 81.4545 44.6961 80.1787 46.7991 78.4957C47.3211 78.0607 48.1911 77.5387 48.1041 76.7557L48.1048 76.7565Z" fill="#FFFCF9"/>
<path fill-rule="evenodd" clip-rule="evenodd" d="M96.8273 37.605C96.8273 37.344 96.6533 37.17 96.3923 37.17C77.82 34.6777 60.129 34.017 41.754 37.692C41.3948 37.743 41.301 38.1045 41.4098 38.3565C40.5758 43.5337 40.0635 52.6125 39.927 58.0515C39.7856 64.2013 39.8721 70.4922 40.3004 76.7467C40.6266 76.6522 40.9556 76.5667 41.2871 76.4902C40.3062 63.0598 41.1572 51.9284 41.9207 41.9412C42.0088 40.7892 42.0957 39.6523 42.1785 38.529C52.428 36.4995 60.2348 36.024 69.114 36.0652C69.108 36.6663 69.1478 37.5199 69.2078 38.7828C69.348 41.7493 69.5948 46.9737 69.5948 56.4847C69.813 74.5867 69.4605 80.523 68.9145 89.718C68.8823 90.2602 68.85 90.8137 68.8163 91.3815C59.8141 91.8405 49.5627 92.499 44.7665 92.8072L44.7656 92.808L44.7391 92.8095C44.1863 92.8447 43.7069 92.8755 43.311 92.901C42.6003 88.7917 42.0733 84.879 41.6932 81.1402C41.3658 81.2812 41.0341 81.4147 40.6986 81.54C41.0906 85.5345 41.6354 89.4952 42.363 93.375C42.45 93.549 42.537 93.636 42.711 93.636C49.845 93.201 56.8928 92.853 64.0268 92.505L65.1809 92.448C76.6574 91.8802 86.7143 91.383 97.2623 92.07C97.5233 92.07 97.6928 91.896 97.6973 91.635C97.7438 89.103 97.8555 86.223 97.9778 83.0595V83.0587C98.0033 82.3867 98.0303 81.7012 98.0565 81.0037C97.8398 80.9055 97.6245 80.8035 97.4115 80.6977C97.3463 82.725 97.215 84.7642 97.0845 86.8012V86.802C96.9908 88.2585 96.8978 89.7142 96.828 91.1625C87.8295 90.645 78.831 90.8857 69.8558 91.3282C70.992 76.6935 70.215 40.7437 69.8558 36.0697C75.6195 36.1192 83.313 36.4365 95.9003 38.052C97.4468 50.6057 97.7385 63.5509 97.5128 76.248C97.7498 76.2847 97.986 76.3267 98.2208 76.3725C98.58 65.1925 98.6903 51.5774 96.8273 37.6057V37.605Z" fill="#FFFCF9"/>
<path d="M106.136 79.8892C103.7 77.3662 100.046 76.0612 96.6523 75.7132C95.7823 75.6262 94.8253 75.5392 93.9553 75.6262C93.3463 75.6262 92.5633 75.7133 92.2153 76.2353C91.8673 76.7573 92.3893 77.5402 92.8243 77.8882C94.934 79.8292 97.454 81.279 100.224 82.1587C100.272 83.8882 100.748 85.551 101.524 87.024C102.291 88.4775 103.638 90.2602 105.091 91.026C105.263 91.1167 105.439 91.113 105.526 90.939C105.613 90.765 105.613 90.591 105.439 90.504C104.83 89.895 104.221 89.46 103.612 88.851C101.899 86.8515 101.047 84.5715 100.915 82.065C100.915 81.891 100.828 81.717 100.654 81.717C98.7403 81.108 96.9133 80.238 95.2603 79.107C94.8253 78.846 94.3903 78.498 94.0423 78.15C93.6073 77.889 93.2593 77.541 92.9983 77.193C92.5633 76.584 93.3463 76.497 93.7813 76.497C98.327 76.497 101.767 77.2957 105.961 80.325C106.135 80.325 106.309 80.064 106.135 79.89L106.136 79.8892Z" fill="#FFFCF9"/>
</svg>
