<svg width="150" height="150" viewBox="0 0 150 150" fill="none" xmlns="http://www.w3.org/2000/svg">
<path fill-rule="evenodd" clip-rule="evenodd" d="M137.1 89.4375C128.933 81.855 115.793 77.4375 104.933 74.91C105.44 72.5881 105.714 70.2214 105.75 67.845C105.795 67.8452 105.84 67.836 105.881 67.8179C105.922 67.7999 105.959 67.7734 105.989 67.7402C106.02 67.707 106.043 67.6678 106.057 67.6252C106.072 67.5825 106.077 67.5373 106.073 67.4925C105.78 64.2975 104.903 58.5675 103.478 55.65C100.44 49.4175 95.2951 45.345 89.0251 42.6675C84.1201 40.5825 78.5251 40.4175 76.7251 39.9825C76.3776 39.2065 76.2356 38.3542 76.3126 37.5075C77.4895 36.8034 78.4298 35.7645 79.0136 34.5234C79.5974 33.2824 79.7981 31.8956 79.5901 30.54C79.8565 30.3782 80.1075 30.1925 80.3401 29.985C80.3898 30.0113 80.4451 30.025 80.5013 30.025C80.5575 30.025 80.6129 30.0113 80.6626 29.985C81.4156 29.6354 82.0816 29.1231 82.6126 28.485C83.5051 27.2925 82.8901 26.7825 83.0251 25.2C83.0377 24.8685 83.1141 24.5426 83.2501 24.24C84.9151 20.9175 85.2376 19.1475 84.4726 15.3225C84.1576 13.755 82.6426 13.5975 81.9376 12.885C81.2326 12.1725 81.3826 10.68 80.1751 9.95251C78.4086 8.87332 76.4668 8.11182 74.4376 7.70251C69.2701 6.81751 68.8951 10.2975 65.6926 10.23C63.5176 10.185 61.6651 9.03001 58.6276 11.475C57.6859 12.1934 56.9165 13.1129 56.3754 14.1665C55.8344 15.2201 55.5353 16.3811 55.5001 17.565C55.5751 19.4625 57.0376 21.51 57.0901 23.34C57.1351 24.84 56.4976 26.625 57.4126 27.84C57.8101 28.365 58.4026 28.7625 58.5976 29.34C59.0309 29.8568 59.5361 30.3089 60.0976 30.6825C60.1484 30.7015 60.2043 30.7015 60.2551 30.6825C60.9646 31.2724 61.7976 31.6954 62.6926 31.92C63.3542 34.0997 64.6618 36.0271 66.4426 37.4475C66.2015 38.202 65.9083 38.9387 65.5651 39.6525C65.054 39.8915 64.5217 40.0823 63.9751 40.2225C58.0651 41.895 52.7926 42.09 46.0651 47.94C41.3432 51.949 38.0158 57.3536 36.5626 63.375C36.1444 65.1455 35.918 66.956 35.8876 68.775C35.8876 69.6 35.8876 69.7875 36.8701 69.8025C37.0274 71.9211 37.3585 74.0232 37.8601 76.0875C19.4326 81.705 1.17008 93.2925 4.05758 112.342C6.60758 129.135 30.4501 136.605 47.1826 139.635C63.1043 142.392 79.3131 143.103 95.4151 141.75C108.338 140.64 119.633 138.165 126.773 134.565C146.58 124.5 153.45 104.647 137.1 89.4375ZM104.61 74.5725C103.335 79.0725 100.35 80.445 95.7976 81.435C92.5501 82.185 88.3951 80.475 85.9201 78.2475C83.0101 75.63 74.0026 65.01 72.3376 63.465C71.9476 62.1225 71.2351 55.215 71.5351 53.715C71.7001 53.535 71.7376 53.5875 71.8426 53.715C72.1276 54.0675 72.1051 54.135 74.3326 60.6375C74.3576 60.7112 74.4068 60.7742 74.4721 60.8164C74.5375 60.8586 74.6152 60.8775 74.6926 60.87C80.9926 60.2025 89.6926 63.93 91.2901 66.21C91.331 66.2488 91.3793 66.2787 91.4322 66.2981C91.4851 66.3174 91.5414 66.3257 91.5976 66.3225C93.7951 66.3225 103.268 66.5925 105.428 67.8225V67.875C105.354 70.1273 105.08 72.3686 104.61 74.5725ZM123.533 99.9675C126.629 99.9118 129.7 100.531 132.533 101.783C140.52 105.66 134.573 112.058 123.533 112.05C123.447 112.044 123.363 112.071 123.296 112.125C123.23 112.179 123.187 112.257 123.175 112.342C123.164 112.427 123.185 112.513 123.235 112.582C123.284 112.652 123.359 112.701 123.443 112.717C126.623 113.618 128.693 115.073 129.443 116.7C130.043 118.065 129.623 119.528 128.085 120.825C124.23 124.103 116.085 124.635 110.64 123.075C110.563 123.054 110.481 123.06 110.407 123.091C110.334 123.123 110.273 123.179 110.236 123.25C110.198 123.32 110.186 123.402 110.201 123.48C110.216 123.559 110.257 123.63 110.318 123.683C111.818 124.98 112.268 126.442 111.668 127.8C109.253 133.268 93.9751 134.37 88.2451 129.518C88.1938 129.473 88.1306 129.443 88.0631 129.434C87.9956 129.424 87.9268 129.434 87.8648 129.462C87.8029 129.491 87.7506 129.537 87.7143 129.595C87.6779 129.652 87.6591 129.719 87.6601 129.788C87.6601 135.038 74.0476 137.88 66.0226 133.995C63.7726 132.915 62.3551 131.445 62.3551 129.788C62.3548 129.721 62.3356 129.655 62.2996 129.599C62.2636 129.543 62.2124 129.498 62.1519 129.47C62.0914 129.441 62.024 129.431 61.9578 129.439C61.8915 129.448 61.829 129.475 61.7776 129.518C59.8951 131.108 56.7826 132.128 53.3701 132.518C50.3527 132.839 47.302 132.602 44.3701 131.82C41.1901 130.92 39.1201 129.473 38.3701 127.838C37.7701 126.48 38.1901 125.018 39.7276 123.713C39.7874 123.661 39.8278 123.591 39.842 123.513C39.8562 123.435 39.8434 123.355 39.8057 123.286C39.7679 123.217 39.7076 123.162 39.6347 123.132C39.5618 123.102 39.4808 123.098 39.4051 123.12C33.9901 124.62 25.8376 124.155 21.9526 120.87C20.4526 119.565 19.9876 118.103 20.5876 116.73C21.3376 115.103 23.4001 113.64 26.5876 112.74C26.6667 112.723 26.7366 112.677 26.7833 112.611C26.8301 112.545 26.8503 112.464 26.8399 112.383C26.8295 112.303 26.7893 112.23 26.7273 112.178C26.6653 112.126 26.5859 112.099 26.5051 112.103C15.5401 112.103 9.39758 105.728 17.5051 101.79C20.3358 100.531 23.4075 99.9066 26.5051 99.96C26.5724 99.9633 26.6384 99.9413 26.6903 99.8984C26.7422 99.8554 26.7762 99.7947 26.7856 99.728C26.795 99.6613 26.7791 99.5935 26.7411 99.5379C26.7031 99.4823 26.6456 99.4429 26.5801 99.4275C23.3701 98.5275 21.2626 97.0575 20.5351 95.4075C19.9126 94.0125 20.3326 92.5125 21.9001 91.1775C24.3376 89.1 28.4176 88.245 31.6501 88.0725C30.4704 89.7343 29.8647 91.7355 29.9251 93.7725C30.0676 97.215 33.5851 100.02 36.5176 101.857C35.7057 103.457 35.4674 105.286 35.8426 107.04C36.8476 112.005 43.6276 114.75 48.4576 116.175C48.0151 118.245 47.0326 130.193 49.0351 129.953C51.4576 129.668 52.2751 122.243 55.0351 120.87C55.4101 120.69 58.2226 119.97 62.4826 118.822C72.4543 119.904 82.5147 119.887 92.4826 118.77C94.3426 119.145 95.4826 119.378 95.7451 119.475C98.6101 120.66 99.9076 128.025 102.338 128.153C104.168 128.25 102.818 118.568 102.518 116.745C111.233 113.91 118.2 106.875 112.268 99.9975C115.125 98.0475 118.703 95.07 119.018 91.6275C119.097 90.4383 118.918 89.2459 118.493 88.1325C121.688 88.3125 125.708 89.1675 128.115 91.215C129.66 92.535 130.088 94.0125 129.473 95.3925C128.723 97.0275 126.653 98.4825 123.473 99.3825C123.416 99.4113 123.369 99.4566 123.339 99.5125C123.308 99.5684 123.295 99.6323 123.302 99.6956C123.308 99.759 123.334 99.8189 123.375 99.8674C123.416 99.9159 123.471 99.9508 123.533 99.9675ZM42.8851 82.095C41.6581 82.1508 40.4421 82.3522 39.2626 82.695C39.8784 82.1122 40.5757 81.6221 41.3326 81.24C41.8203 81.576 42.3404 81.8624 42.8851 82.095ZM51.9676 113.363C53.3101 115.147 53.7976 116.468 56.0701 119.97C55.3201 120.18 54.9076 120.315 54.7726 120.382C51.8551 121.882 50.9401 129.247 48.9226 129.51C48.7426 129.51 48.5701 129.008 48.5251 128.828C47.8201 126.33 48.1726 118.418 48.6901 116.078C48.7501 115.77 51.6976 113.565 51.9676 113.363ZM111.75 100.26C117.36 106.83 110.588 113.34 102.315 116.01C102.18 115.26 102.038 114.63 101.918 114.21C101.708 113.513 95.3701 109.485 94.5676 108.96C88.5852 111.493 82.4233 113.578 76.1326 115.2C85.2451 117.263 84.7126 116.925 84.4276 117.083C86.5801 117.533 88.5151 117.923 90.1426 118.245C81.5536 119.044 72.909 119.044 64.3201 118.245C77.6551 114.638 100.26 107.902 111.75 100.26ZM99.8551 112.905C100.494 113.317 101.091 113.789 101.64 114.315C102.293 116.565 103.38 125.985 102.435 127.568C102.39 127.65 102.345 127.71 102.278 127.71C100.223 127.583 98.7226 119.888 95.7676 118.95C97.2751 117 98.5276 114.87 99.8851 112.905H99.8551ZM100.508 80.97C93.7201 83.22 52.9951 111.428 48.7576 115.53C44.1676 114.202 37.3501 111.563 36.3901 106.868C36.0435 105.279 36.2499 103.62 36.9751 102.165C42.2851 105.36 49.6276 107.978 55.5451 109.83C67.0426 101.078 68.4076 99.8775 73.5451 96.2475C68.0326 93.03 55.6276 85.905 49.7626 83.37C50.4204 83.2979 51.0704 83.1674 51.7051 82.98V83.895L52.4101 84.2325V82.7325C54.3733 82.0366 56.1638 80.9265 57.6601 79.4775C59.4901 77.6625 63.9301 72.0375 65.6626 69.8625C65.8355 69.9174 66.0202 69.9233 66.1963 69.8796C66.3723 69.8359 66.5329 69.7443 66.6601 69.615C67.1421 69.1281 67.5558 68.5781 67.8901 67.98C67.9707 67.8499 68.0096 67.6983 68.0016 67.5455C67.9935 67.3926 67.9389 67.2459 67.8451 67.125C70.8001 63.435 70.5001 64.0275 70.5976 63.78C70.8333 62.3158 70.9711 60.8375 71.0101 59.355C71.1366 60.8344 71.3672 62.303 71.7001 63.75C71.7248 63.8167 71.7661 63.8761 71.8201 63.9225C72.9526 64.9425 78.7051 71.6325 82.6276 75.8325C85.1326 78.5175 86.8201 80.3325 90.3376 81.51C91.8741 82.06 93.5129 82.2648 95.1376 82.11C95.1376 82.56 95.1901 82.965 95.2051 83.31L95.8876 82.995C95.8876 82.9425 95.8876 82.2975 95.8276 81.99C97.9801 81.525 100.373 80.7975 102.068 79.4325C103.295 79.5691 104.509 79.8048 105.698 80.1375C103.942 80.1376 102.198 80.429 100.538 81L100.508 80.97ZM67.3576 66.6675C65.8576 65.505 65.7151 65.73 64.8001 64.275C65.0414 64.1185 65.2481 63.9144 65.4076 63.675C65.7846 62.8517 65.9422 61.9448 65.8651 61.0425C66.4022 61.0125 66.9405 61.0125 67.4776 61.0425C67.5554 61.0452 67.6319 61.0215 67.6945 60.9752C67.7572 60.9289 67.8023 60.8627 67.8226 60.7875C69.7726 53.8575 69.8176 53.2875 70.2301 53.715C70.6201 55.215 70.2751 62.145 69.9676 63.5175C69.5401 63.96 68.5801 65.1375 67.3576 66.6675ZM65.2051 61.2375C65.193 61.6451 65.1503 62.0513 65.0776 62.4525C64.3191 62.824 63.4846 63.014 62.6401 63.0075C61.9573 63.0228 61.2771 62.9188 60.6301 62.7C60.7273 62.1975 60.9264 61.7202 61.2151 61.2975C62.4751 60.5925 64.4476 60 65.2051 61.2375ZM57.0676 42.6075C59.6926 41.8575 64.2676 40.89 65.6101 40.2975C66.0376 40.11 66.1726 40.17 67.1101 37.44C67.1277 37.3831 67.127 37.3221 67.1082 37.2656C67.0894 37.2091 67.0533 37.16 67.0051 37.125C65.1976 35.7684 63.8685 33.8719 63.2101 31.71C63.0751 31.215 61.0576 31.305 60.2101 29.715C59.8964 28.8592 59.9287 27.9149 60.3001 27.0825C60.3717 26.9355 60.4857 26.8133 60.6274 26.7318C60.7691 26.6502 60.932 26.613 61.0951 26.625C61.4426 26.6826 61.7672 26.8358 62.0326 27.0675C62.1601 27.18 62.5651 27.0675 62.7001 26.3175C62.9326 25.08 62.2951 21.0075 62.9326 18.8175C63.4801 16.92 65.0026 16.5675 66.6826 17.37C69.2326 18.5925 69.6076 20.2425 73.7476 21.12C74.6805 21.3137 75.6299 21.4167 76.5826 21.4275C76.9726 21.4275 78.2851 20.955 78.6976 21C78.9901 21.5025 78.5626 24.105 78.9226 24.81C78.9836 24.947 79.0807 25.0647 79.2036 25.1506C79.3265 25.2365 79.4705 25.2873 79.6201 25.2975C79.8723 25.2963 80.1237 25.2686 80.3701 25.215C80.4376 25.215 80.6476 25.1625 80.6926 25.215C80.9223 25.4609 81.1009 25.7499 81.218 26.0653C81.3352 26.3808 81.3886 26.7163 81.3751 27.0525C81.4201 28.17 80.2726 29.4825 80.2426 29.6475C79.5451 30.315 79.2901 30.255 79.3126 30.4725C79.8376 35.7225 76.0651 36.9075 76.0051 37.365C75.8918 38.3432 76.0474 39.3337 76.4551 40.23C76.7626 40.8525 83.2576 40.695 88.9126 43.14C95.1676 45.84 100.163 49.89 103.028 55.89C104.37 58.6875 105.165 64.0575 105.48 67.14C103.14 66.8625 103.62 66.0975 91.7476 65.79C91.3457 65.3148 90.8815 64.896 90.3676 64.545C90.341 63.2654 90.203 61.9906 89.9551 60.735C89.8801 59.295 88.9426 55.5525 88.5751 55.2375C88.4551 55.1025 88.2526 55.2825 88.3576 55.425C88.4326 55.425 88.7776 58.995 89.9701 64.275C86.2201 61.755 79.9126 59.775 74.9701 60.1425C72.7501 53.7375 72.8176 54 72.5776 53.5425C72.3376 53.085 72.0301 52.7925 71.5726 52.89C71.4202 52.9224 71.2778 52.9912 71.1577 53.0904C71.0376 53.1897 70.9432 53.3165 70.8826 53.46C70.8124 53.314 70.7072 53.1876 70.5763 53.0921C70.4455 52.9965 70.2931 52.9349 70.1326 52.9125C69.6751 52.86 69.3826 53.2125 69.1651 53.6625C68.9476 54.1125 68.9851 54.03 67.2226 60.4125C66.597 60.399 65.9711 60.419 65.3476 60.4725C64.1476 59.4825 62.1901 60.27 61.0201 61.14C60.9563 61.2046 60.8986 61.2749 60.8476 61.35C57.8629 62.1894 55.0409 63.5256 52.5001 65.3025C52.6051 64.695 52.7176 64.125 52.8676 63.09C53.2194 61.1041 53.4697 59.1015 53.6176 57.09C53.7151 56.1375 53.4826 55.8675 53.2126 56.9475C52.5054 59.768 52.1478 62.6647 52.1476 65.5725C51.649 65.9473 51.207 66.3918 50.8351 66.8925C48.0901 67.1325 40.0501 67.725 37.5001 69.1125C37.2079 69.1318 36.9148 69.1318 36.6226 69.1125C35.9401 58.7475 45.0901 45.9225 57.0676 42.6075ZM37.1626 69.645C38.7451 68.1975 48.0376 67.59 50.1451 67.4625C49.4445 67.9402 48.883 68.5949 48.5176 69.36C48.5176 69.45 48.3901 69.6675 48.5176 69.7125C48.6451 69.7575 49.1551 69.2775 49.2226 69.2175C51.5476 67.3725 51.7576 65.31 58.7101 62.67C59.2426 62.4675 59.7901 62.28 60.3451 62.1075C60.2581 62.2926 60.1902 62.4861 60.1426 62.685C60.0943 62.7213 60.056 62.7692 60.031 62.8243C60.0061 62.8793 59.9955 62.9398 60.0001 63C60.0071 63.4836 60.1977 63.9464 60.5334 64.2946C60.869 64.6428 61.3246 64.8503 61.8076 64.875C62.0026 64.875 61.8076 64.7625 62.2351 65.9175C62.3301 66.1801 62.4533 66.4316 62.6026 66.6675C63.2737 67.752 64.0971 68.7346 65.0476 69.585C63.4201 71.6325 58.9426 77.31 57.2101 79.05C55.0726 81.195 51.5326 82.95 48.4726 82.8675C47.164 82.4304 45.8009 82.178 44.4226 82.1175C41.3476 81.2175 39.4351 79.59 38.3476 76.41C37.7301 74.1997 37.3332 71.9336 37.1626 69.645ZM126.473 133.935C104.573 144.945 43.5676 145.087 17.1451 128.565C10.3126 124.283 5.73758 118.89 4.72508 112.238C1.86008 93.555 20.0401 82.1625 38.0101 76.605C38.5333 78.3441 39.5811 79.8791 41.0101 81C40.0688 81.4805 39.2285 82.1374 38.5351 82.935C35.9388 83.8003 33.6524 85.4062 31.9576 87.555C28.5451 87.6825 24.1726 88.5525 21.5626 90.7575C19.7701 92.2575 19.3126 93.9975 20.0626 95.58C20.8126 97.1625 22.3876 98.445 24.9451 99.42C13.6351 100.058 9.33758 106.988 17.2351 110.828C19.5972 111.904 22.1423 112.523 24.7351 112.65C22.2676 113.625 20.6551 114.983 20.0176 116.4C19.2676 118.013 19.7326 119.768 21.5176 121.32C25.3876 124.605 33.0526 125.198 38.3926 124.028C37.9052 124.565 37.5841 125.232 37.4683 125.948C37.3525 126.664 37.4469 127.399 37.7401 128.062C38.4901 129.825 40.7401 131.453 44.1676 132.428C50.8351 134.318 58.2751 132.938 61.7401 130.433C62.8426 136.088 76.4251 138.435 84.3301 134.61C86.5801 133.53 88.0126 132.053 88.3276 130.433C91.8301 132.968 99.3001 134.295 105.9 132.428C109.343 131.46 111.555 129.825 112.335 128.062C112.627 127.4 112.72 126.667 112.605 125.952C112.489 125.238 112.169 124.572 111.683 124.035C117 125.198 124.68 124.612 128.558 121.32C130.38 119.775 130.808 118.013 130.058 116.393C129.42 114.96 127.808 113.61 125.4 112.643C127.966 112.502 130.484 111.887 132.825 110.828C140.738 106.988 136.44 100.088 125.325 99.3675C127.793 98.3925 129.413 97.0275 130.05 95.58C130.755 93.975 130.32 92.2275 128.513 90.6975C125.948 88.53 121.68 87.6375 118.26 87.4875C116.498 83.5575 112.26 80.9025 107.708 80.2875C106.063 79.6404 104.341 79.2093 102.585 79.005C103.65 77.9464 104.425 76.6318 104.835 75.1875C115.545 77.76 128.708 82.2375 136.755 89.7825C152.783 104.812 145.875 124.193 126.473 133.935Z" fill="#FFFCF9"/>
<path fill-rule="evenodd" clip-rule="evenodd" d="M53.6553 84.75C59.1078 87.3 65.6028 90.345 71.8728 94.5C72.5778 94.965 73.3728 95.385 74.1228 95.8575C80.3026 91.4207 86.8228 87.4785 93.6228 84.0675C85.6803 83.5425 61.9278 84.4275 53.6553 84.75ZM70.5753 30.915C70.9174 31.1085 71.3025 31.2133 71.6955 31.2199C72.0885 31.2264 72.4769 31.1345 72.8253 30.9525C72.8953 30.8969 72.9411 30.8162 72.9528 30.7275C72.9338 29.9814 72.8662 29.2373 72.7503 28.5C72.6141 27.4192 72.3472 26.3589 71.9553 25.3425C71.9453 25.3057 71.9212 25.2744 71.8881 25.2554C71.8551 25.2364 71.8158 25.2313 71.779 25.2412C71.7422 25.2512 71.7109 25.2753 71.6919 25.3084C71.6729 25.3415 71.6678 25.3807 71.6778 25.4175C71.7828 26.1 72.1728 29.7375 72.2928 30.495C71.7821 30.7052 71.2188 30.7524 70.6803 30.63C70.6616 30.6231 70.6417 30.62 70.6217 30.6208C70.6018 30.6215 70.5822 30.6263 70.5641 30.6346C70.546 30.643 70.5297 30.6548 70.5162 30.6695C70.5027 30.6841 70.4922 30.7013 70.4853 30.72C70.4784 30.7387 70.4752 30.7586 70.476 30.7785C70.4768 30.7985 70.4815 30.818 70.4899 30.8361C70.4982 30.8542 70.5101 30.8705 70.5247 30.8841C70.5394 30.8976 70.5566 30.9081 70.5753 30.915ZM72.2778 30.5775V30.66C72.2778 30.66 72.2703 30.585 72.2778 30.5775ZM67.7328 27.675C68.0535 27.5476 68.3465 27.3591 68.5953 27.12C68.6225 27.0982 68.6407 27.0671 68.6465 27.0327C68.6524 26.9983 68.6454 26.9629 68.6269 26.9334C68.6084 26.9038 68.5797 26.882 68.5462 26.8722C68.5127 26.8623 68.4768 26.8651 68.4453 26.88C67.8787 27.0263 67.2976 27.1093 66.7128 27.1275C66.1259 27.1169 65.5411 27.0542 64.9653 26.94C64.9489 26.9277 64.9301 26.919 64.9101 26.9146C64.8901 26.9102 64.8694 26.9101 64.8494 26.9145C64.8294 26.9188 64.8105 26.9274 64.7941 26.9396C64.7777 26.9519 64.7642 26.9675 64.7543 26.9855C64.7445 27.0035 64.7387 27.0234 64.7373 27.0438C64.7359 27.0642 64.7389 27.0847 64.7461 27.1039C64.7533 27.1231 64.7645 27.1405 64.779 27.1549C64.7936 27.1693 64.8111 27.1804 64.8303 27.1875C65.089 27.408 65.3866 27.5784 65.7078 27.69C66.3696 27.884 67.0739 27.8788 67.7328 27.675ZM73.9878 26.625C74.8128 27.6375 77.1078 27.7125 77.6403 26.4675C77.6511 26.4522 77.6588 26.435 77.663 26.4167C77.6672 26.3985 77.6677 26.3796 77.6646 26.3611C77.6614 26.3427 77.6547 26.325 77.6447 26.3092C77.6348 26.2933 77.6218 26.2796 77.6065 26.2687C77.5913 26.2579 77.574 26.2502 77.5558 26.246C77.5375 26.2419 77.5186 26.2413 77.5002 26.2445C77.4817 26.2476 77.464 26.2543 77.4482 26.2643C77.4323 26.2742 77.4186 26.2872 77.4078 26.3025C77.1891 26.4665 76.9298 26.5677 76.6578 26.595C76.1077 26.7 75.5428 26.7 74.9928 26.595C74.7079 26.5627 74.4282 26.4947 74.1603 26.3925C74.0253 26.25 73.8453 26.505 73.9878 26.625ZM69.9228 33.9525C70.5336 34.1773 71.1896 34.2519 71.8353 34.17C72.2394 34.1618 72.6396 34.0884 73.0203 33.9525C73.0581 33.9525 73.0943 33.9375 73.121 33.9108C73.1478 33.884 73.1628 33.8478 73.1628 33.81C73.1628 33.7722 73.1478 33.736 73.121 33.7092C73.0943 33.6825 73.0581 33.6675 73.0203 33.6675C72.6429 33.5535 72.2519 33.4904 71.8578 33.48C71.2113 33.4328 70.5616 33.4988 69.9378 33.675C69.9172 33.6691 69.8956 33.668 69.8745 33.6716C69.8534 33.6753 69.8334 33.6836 69.816 33.696C69.7985 33.7085 69.7842 33.7246 69.7738 33.7434C69.7635 33.7622 69.7576 33.783 69.7564 33.8044C69.7553 33.8257 69.7589 33.8471 69.7672 33.8668C69.7754 33.8866 69.788 33.9042 69.8039 33.9185C69.8199 33.9327 69.8389 33.9431 69.8595 33.949C69.8801 33.9549 69.9017 33.9561 69.9228 33.9525Z" fill="#FFFCF9"/>
</svg>
