<svg width="144" height="126" viewBox="0 0 144 126" fill="none" xmlns="http://www.w3.org/2000/svg">
<path fill-rule="evenodd" clip-rule="evenodd" d="M101.677 59.67C106.33 58.0437 110.256 54.8237 112.762 50.58C114.772 46.98 115.702 42.285 114.142 36.33C110.797 23.7525 101.61 19.2075 87.6373 24.795C84.2398 26.1525 77.4674 30.1425 75.4949 37.29C73.8524 43.215 76.0348 49.2225 79.3424 54.405C84.4949 62.4975 92.7224 62.6925 101.677 59.67ZM75.9373 37.4475C77.7973 30.4125 84.3974 26.4 87.7349 25.065C100.387 20.01 110.152 23.22 113.572 36.5175C115.072 42.255 114.165 46.7925 112.215 50.2725C109.785 54.3817 105.981 57.5003 101.475 59.0775C92.8048 62.01 84.8473 61.905 79.8373 54.12C76.5973 49.1025 74.3998 43.2225 75.9373 37.4475Z" fill="#FFFCF9"/>
<path fill-rule="evenodd" clip-rule="evenodd" d="M96.0826 29.745C101.91 31.365 105.3 36.6375 106.89 42.495C106.925 42.6776 106.999 42.8508 107.105 43.0034C107.211 43.1561 107.348 43.2849 107.507 43.3816C107.666 43.4783 107.843 43.5408 108.027 43.5649C108.212 43.5891 108.399 43.5745 108.577 43.522C108.756 43.4695 108.921 43.3804 109.063 43.2602C109.205 43.14 109.321 42.9916 109.402 42.8243C109.483 42.657 109.528 42.4745 109.535 42.2887C109.542 42.1028 109.509 41.9176 109.44 41.745C107.31 35.04 103.298 29.82 96.3076 28.7325C96.2368 28.7091 96.1618 28.7009 96.0875 28.7084C96.0133 28.7158 95.9415 28.7388 95.8767 28.7758C95.8119 28.8128 95.7556 28.863 95.7114 28.9232C95.6673 28.9834 95.6363 29.0521 95.6204 29.1251C95.6046 29.198 95.6042 29.2734 95.6194 29.3465C95.6346 29.4195 95.665 29.4886 95.7085 29.5492C95.7521 29.6097 95.8079 29.6605 95.8724 29.6981C95.9368 29.7357 96.0085 29.7593 96.0826 29.7675V29.745ZM98.2501 10.14C98.2595 10.1715 98.275 10.2009 98.2957 10.2264C98.3164 10.252 98.3419 10.2732 98.3708 10.2888C98.3997 10.3045 98.4314 10.3143 98.4641 10.3177C98.4968 10.3212 98.5299 10.3181 98.5614 10.3087C98.5929 10.2994 98.6223 10.2839 98.6478 10.2632C98.6733 10.2425 98.6946 10.217 98.7102 10.1881C98.7259 10.1592 98.7357 10.1275 98.7391 10.0948C98.7426 10.0621 98.7395 10.029 98.7301 9.9975C97.4701 4.5375 98.1301 7.2075 96.7276 1.8975C96.7045 1.81772 96.6659 1.74328 96.6139 1.67843C96.562 1.61358 96.4979 1.5596 96.4251 1.51955C96.3523 1.47951 96.2724 1.45419 96.1898 1.44504C96.1072 1.4359 96.0237 1.4431 95.9439 1.46625C95.8641 1.48939 95.7897 1.52802 95.7248 1.57994C95.66 1.63185 95.606 1.69603 95.5659 1.76881C95.5259 1.84158 95.5006 1.92154 95.4914 2.0041C95.4823 2.08666 95.4895 2.17022 95.5126 2.25C97.1401 7.5 96.3001 4.86 98.2501 10.14ZM53.1826 33C58.5151 34.2825 55.8001 33.645 61.3576 34.71C61.4181 34.7161 61.4788 34.7004 61.5288 34.6657C61.5787 34.6311 61.6147 34.5797 61.63 34.5208C61.6454 34.462 61.6393 34.3996 61.6127 34.3449C61.5861 34.2902 61.5409 34.2468 61.4851 34.2225C56.1451 32.49 58.7851 33.3075 53.5051 31.7775C53.343 31.7347 53.1706 31.7581 53.0257 31.8425C52.8808 31.9269 52.7754 32.0654 52.7326 32.2275C52.6899 32.3896 52.7133 32.5621 52.7976 32.7069C52.882 32.8518 53.0205 32.9572 53.1826 33ZM103.77 9.75C104.318 4.1475 104.175 6.93 104.453 1.425C104.442 1.26758 104.373 1.11967 104.26 1.00989C104.147 0.900099 103.997 0.83623 103.839 0.830632C103.682 0.825035 103.527 0.878104 103.407 0.979579C103.286 1.08105 103.207 1.22372 103.185 1.38C103.073 6.915 103.125 4.1025 103.268 9.735C103.276 9.7946 103.305 9.84933 103.35 9.8895C103.395 9.92967 103.452 9.95269 103.513 9.95448C103.573 9.95628 103.632 9.93674 103.679 9.89931C103.726 9.86189 103.758 9.809 103.77 9.75ZM64.3501 28.62C64.3988 28.6632 64.462 28.6862 64.527 28.6843C64.592 28.6824 64.6539 28.6557 64.6998 28.6097C64.7458 28.5637 64.7725 28.5019 64.7744 28.4369C64.7763 28.3719 64.7533 28.3086 64.7101 28.26C61.0351 24.075 62.8951 26.01 59.1001 22.0725C58.9806 21.9534 58.8188 21.8866 58.6501 21.8866C58.4814 21.8866 58.3196 21.9534 58.2001 22.0725C58.1414 22.131 58.0948 22.2006 58.063 22.2772C58.0312 22.3537 58.0148 22.4358 58.0148 22.5187C58.0148 22.6017 58.0312 22.6838 58.063 22.7603C58.0948 22.8369 58.1414 22.9065 58.2001 22.965C62.1151 26.7825 60.1951 24.915 64.3501 28.62ZM35.5426 16.2075C35.4076 15.57 34.7926 15.4575 34.1701 15.4575C33.9503 15.4708 33.7381 15.5436 33.5564 15.6682C33.3747 15.7927 33.2303 15.9643 33.1386 16.1646C33.047 16.3649 33.0115 16.5864 33.036 16.8053C33.0604 17.0242 33.144 17.2324 33.2776 17.4075C34.1401 18.405 36.1876 17.6325 35.5426 16.2075ZM33.7501 16.4025C33.8031 16.2989 33.8795 16.209 33.9732 16.14C34.067 16.071 34.1755 16.0248 34.2901 16.005C34.7251 15.8925 35.1526 15.885 35.3401 16.29C35.5876 17.61 33.2176 17.4975 33.7501 16.4025ZM35.6176 33.0525C35.3674 32.9314 35.0987 32.8528 34.8226 32.82C34.2164 32.7807 33.6086 32.8675 33.0376 33.075C32.7901 33.1875 32.6176 33.2925 32.5051 33.3525C32.2201 33.525 32.3326 33.675 32.5051 33.66C33.0697 33.6336 33.6314 33.5634 34.1851 33.45C34.2601 33.45 35.3701 33.3 35.5576 33.3C35.5898 33.3061 35.623 33.2996 35.6505 33.2818C35.6779 33.2641 35.6975 33.2365 35.7052 33.2048C35.7129 33.173 35.7081 33.1395 35.6918 33.1111C35.6755 33.0828 35.649 33.0618 35.6176 33.0525ZM40.8451 32.625C40.8113 32.632 40.7817 32.6521 40.7627 32.6809C40.7437 32.7097 40.7369 32.7449 40.7439 32.7787C40.7508 32.8126 40.771 32.8422 40.7998 32.8612C40.8286 32.8802 40.8638 32.887 40.8976 32.88H41.8501C43.0351 32.88 42.2551 32.97 43.8451 32.88C43.8728 32.8731 43.8973 32.8572 43.9149 32.8348C43.9324 32.8124 43.9419 32.7847 43.9419 32.7562C43.9419 32.7278 43.9324 32.7001 43.9149 32.6777C43.8973 32.6553 43.8728 32.6394 43.8451 32.6325C43.3832 32.3853 42.869 32.2516 42.3451 32.2425C41.8195 32.2296 41.3004 32.3619 40.8451 32.625ZM35.3476 34.8C35.3417 34.7165 35.3028 34.6387 35.2395 34.5839C35.1762 34.529 35.0937 34.5015 35.0101 34.5075C34.9266 34.5135 34.8488 34.5524 34.794 34.6157C34.7391 34.679 34.7117 34.7615 34.7176 34.845L34.7701 35.55C34.7731 35.5914 34.7842 35.6317 34.8027 35.6688C34.8213 35.7059 34.847 35.739 34.8783 35.7661C34.9096 35.7933 34.946 35.814 34.9854 35.8271C35.0247 35.8402 35.0663 35.8455 35.1076 35.8425C35.149 35.8395 35.1894 35.8285 35.2265 35.8099C35.2636 35.7914 35.2966 35.7657 35.3238 35.7343C35.3509 35.703 35.3717 35.6666 35.3848 35.6273C35.3979 35.5879 35.4031 35.5464 35.4001 35.505L35.3476 34.8ZM42.0001 34.0875C41.9179 34.0738 41.8336 34.0917 41.764 34.1376C41.6944 34.1835 41.6448 34.254 41.6251 34.335C41.6061 34.6047 41.6061 34.8753 41.6251 35.145C41.6369 35.2211 41.6754 35.2906 41.7339 35.3407C41.7924 35.3909 41.8669 35.4185 41.9439 35.4185C42.0209 35.4185 42.0954 35.3909 42.1539 35.3407C42.2123 35.2906 42.2509 35.2211 42.2626 35.145V34.4625C42.2713 34.4205 42.2712 34.3772 42.2625 34.3353C42.2539 34.2933 42.2367 34.2536 42.2121 34.2185C42.1876 34.1834 42.1561 34.1536 42.1196 34.1311C42.0832 34.1086 42.0425 34.0938 42.0001 34.0875ZM37.0876 42.6375C37.4129 42.8841 37.784 43.0636 38.1793 43.1653C38.5746 43.267 38.9862 43.289 39.3901 43.23C39.7791 43.162 40.1541 43.0302 40.5001 42.84C40.5172 42.8371 40.5334 42.8306 40.5477 42.8208C40.562 42.811 40.5741 42.7983 40.583 42.7834C40.5919 42.7686 40.5975 42.752 40.5993 42.7348C40.6012 42.7176 40.5994 42.7002 40.5939 42.6837C40.5884 42.6673 40.5795 42.6523 40.5676 42.6396C40.5558 42.627 40.5414 42.6171 40.5253 42.6106C40.5093 42.604 40.492 42.601 40.4747 42.6018C40.4575 42.6026 40.4405 42.6071 40.4251 42.615C39.7328 42.7347 39.025 42.7347 38.3326 42.615C37.6695 42.4126 37.0615 42.0611 36.5551 41.5875C36.4651 41.46 36.2701 41.5875 36.3676 41.7225C36.5456 42.0716 36.7902 42.3824 37.0876 42.6375ZM59.7901 86.385C60.0226 86.385 58.9801 76.3725 57.7426 67.845C57.6151 66.945 57.4501 67.2375 57.4576 67.3125C58.0726 75.0825 59.3026 84.3525 59.7076 86.265C59.7101 86.2904 59.7189 86.3147 59.7333 86.3357C59.7478 86.3567 59.7673 86.3736 59.7901 86.385Z" fill="#FFFCF9"/>
<path fill-rule="evenodd" clip-rule="evenodd" d="M142.898 81.585C141.6 79.08 137.708 74.5425 133.005 69.51C135.675 68.0925 137.415 66.9375 137.715 66.2475C137.917 65.7825 137.25 65.3175 136.83 65.0325C134.73 63.5925 128.64 60.7275 121.148 57.3675C119.888 56.115 118.665 54.915 117.525 53.79C121.155 47.94 121.59 41.355 119.842 34.695C115.245 17.3025 102.367 13.1475 85.47 19.89C81.06 21.645 72.285 26.7975 69.72 35.985C68.8857 38.9783 68.737 42.1213 69.285 45.18C64.41 47.0475 58.1625 49.4475 50.2275 52.3125C48.27 51.33 47.475 51.1425 47.49 51.0375C47.5022 50.9775 47.4983 50.9152 47.4785 50.8572C47.4587 50.7992 47.4239 50.7476 47.3775 50.7075C45.8775 49.7775 43.3875 49.485 43.005 49.8075C42.8106 49.9492 42.6429 50.1245 42.51 50.325L41.4075 46.755C42.09 46.47 43.77 45.5025 44.955 42.57C45.807 40.2408 46.224 37.7749 46.185 35.295C46.5044 34.8087 46.6587 34.2323 46.6249 33.6515C46.5911 33.0706 46.3711 32.516 45.9975 32.07C45.9975 31.89 45.945 31.7175 45.9225 31.5375C46.0807 30.9956 46.2059 30.4446 46.2975 29.8875C46.2975 29.01 46.5075 27.6375 46.1025 26.8125C46.0491 26.4193 46.0491 26.0207 46.1025 25.6275C46.1025 24.3525 44.4975 23.775 43.35 22.695C43.35 21.8325 43.4175 20.8875 43.425 20.115C45.706 19.4726 47.939 18.6706 50.1075 17.715C50.4975 17.5125 51.0975 17.1825 51.105 16.77C51.105 15.0075 35.7075 10.935 33.81 11.3775C33.7425 11.1675 19.515 16.335 17.31 18.54C17.2616 18.5843 17.2229 18.6381 17.1964 18.6982C17.1699 18.7582 17.1563 18.8231 17.1563 18.8887C17.1563 18.9544 17.1699 19.0193 17.1964 19.0793C17.2229 19.1393 17.2616 19.1932 17.31 19.2375C17.0793 20.3534 17.1204 21.5084 17.43 22.605C17.1982 22.6226 16.9763 22.7068 16.7912 22.8474C16.606 22.988 16.4654 23.1791 16.3862 23.3977C16.307 23.6163 16.2926 23.8531 16.3447 24.0797C16.3968 24.3062 16.5133 24.513 16.68 24.675C15.93 25.7175 16.0425 27.9225 16.5975 29.055C16.5987 29.074 16.6041 29.0924 16.6133 29.1091C16.6226 29.1257 16.6355 29.14 16.651 29.151C16.6665 29.162 16.6842 29.1694 16.703 29.1727C16.7217 29.1759 16.741 29.1749 16.7593 29.1698C16.7776 29.1646 16.7945 29.1554 16.8088 29.1429C16.8231 29.1304 16.8344 29.1148 16.8419 29.0973C16.8494 29.0798 16.8529 29.0609 16.8521 29.0419C16.8514 29.0229 16.8464 29.0043 16.8375 28.9875C16.7554 27.6095 16.7905 26.227 16.9425 24.855C17.0901 24.9293 17.2504 24.9751 17.415 24.99C17.1125 26.2956 17.1958 27.6609 17.655 28.92C17.6618 28.9476 17.6778 28.9722 17.7002 28.9897C17.7226 29.0073 17.7503 29.0168 17.7787 29.0168C17.8072 29.0168 17.8349 29.0073 17.8573 28.9897C17.8797 28.9722 17.8956 28.9476 17.9025 28.92C18.0225 26.82 17.79 26.9025 17.7675 25.0275C18.7875 24.915 17.715 24.09 18.825 28.7775C18.8203 28.7963 18.82 28.8159 18.824 28.8348C18.8281 28.8537 18.8364 28.8715 18.8483 28.8867C18.8602 28.902 18.8755 28.9143 18.8929 28.9228C18.9103 28.9313 18.9294 28.9357 18.9487 28.9357C18.9681 28.9357 18.9872 28.9313 19.0046 28.9228C19.022 28.9143 19.0372 28.902 19.0492 28.8867C19.0611 28.8715 19.0694 28.8537 19.0734 28.8348C19.0775 28.8159 19.0771 28.7963 19.0725 28.7775C19.1886 27.4004 19.0201 26.0142 18.5775 24.705C18.6878 24.6104 18.7794 24.4959 18.8475 24.3675C19.35 24.8175 19.2375 26.385 19.86 28.785C19.8668 28.8126 19.8828 28.8372 19.9052 28.8547C19.9276 28.8723 19.9553 28.8818 19.9837 28.8818C20.0122 28.8818 20.0399 28.8723 20.0623 28.8547C20.0847 28.8372 20.1006 28.8126 20.1075 28.785C20.1075 27.5175 20.1525 24.51 18.9375 24.105C18.9678 23.9325 18.9605 23.7555 18.916 23.5862C18.8715 23.4168 18.791 23.259 18.6799 23.1237C18.5687 22.9884 18.4297 22.8786 18.2722 22.8021C18.1147 22.7255 17.9426 22.6838 17.7675 22.68C17.8364 21.7112 17.8364 20.7388 17.7675 19.77C17.715 19.3275 17.37 20.055 24.7425 21.39C24.795 22.2225 24.885 23.4825 24.9975 24.615C24.2831 25.3667 23.6932 26.2275 23.25 27.165C22.56 28.785 23.25 30.285 23.76 31.8225C23.865 32.1225 23.8875 32.46 23.9625 32.775C24.0825 33.33 24.27 33.3225 24.2175 33.8775C24.165 34.4325 23.8125 35.1975 24.0375 35.8425C24.4356 36.6259 24.9404 37.3503 25.5375 37.995C25.9515 38.4605 26.2132 39.0415 26.2875 39.66C26.2875 40.23 27.5025 41.0025 27.8625 41.0325L28.3275 42.2475C28.725 43.2675 31.4325 45.8025 32.2425 46.545C32.325 47.205 32.4975 48.795 32.535 49.905C32.27 49.8243 31.9992 49.7641 31.725 49.725C28.29 49.6725 12.0375 56.025 6.34499 66.405C-2.36251 82.335 5.01749 93.135 5.04749 93.21C0.127485 98.1225 -2.78251 109.688 8.92499 114.75C13.2735 116.559 17.8355 117.804 22.5 118.455C22.4325 119.752 22.3425 125.152 23.6325 125.205C24.075 125.205 24.4275 124.658 24.66 124.23C25.4016 122.668 26.0064 121.044 26.4675 119.378C28.7175 119.228 28.6425 119.265 28.7175 119.152C39.8886 119.998 51.1234 119.181 62.055 116.73C62.145 116.73 62.145 116.768 62.295 116.107L63.66 115.875C71.16 127.695 68.4 113.827 66.0975 110.505C65.836 110.024 65.3976 109.663 64.875 109.5C66.5649 108.565 68.1932 107.523 69.75 106.38C74.0998 109.063 78.6081 111.48 83.25 113.618C86.655 115.118 133.8 96.78 135.495 92.8275C135.698 92.3625 135.03 91.8975 134.618 91.6125C133.533 90.9154 132.408 90.2818 131.25 89.715L131.34 89.0325C138.652 94.11 144.81 85.2825 142.898 81.585ZM18.4875 23.4375C18.7725 24.75 16.4025 24.645 16.8975 23.55C16.9496 23.445 17.0256 23.3536 17.1194 23.2833C17.2131 23.213 17.3221 23.1656 17.4375 23.145C17.8725 23.04 18.3 23.0325 18.4875 23.4375ZM120.3 78.75C109.882 82.905 94.9725 88.185 86.79 89.8875C86.7715 89.8878 86.7533 89.8921 86.7366 89.9001C86.7199 89.9082 86.7052 89.9197 86.6934 89.9341C86.6817 89.9483 86.6732 89.965 86.6685 89.983C86.6639 90.0009 86.6632 90.0196 86.6665 90.0378C86.6698 90.056 86.6771 90.0733 86.6877 90.0884C86.6984 90.1035 86.7122 90.1162 86.7282 90.1254C86.7443 90.1347 86.7621 90.1403 86.7806 90.142C86.799 90.1436 86.8176 90.1412 86.835 90.135C95.7 88.4925 110.205 83.55 120.705 79.17C121.395 79.8825 122.077 80.5875 122.745 81.2625C112.395 85.71 95.8575 91.9725 87.1125 93.9375C87.0945 93.939 87.077 93.9444 87.0612 93.9531C87.0454 93.9619 87.0316 93.974 87.0208 93.9885C87.01 94.003 87.0025 94.0197 86.9986 94.0373C86.9948 94.055 86.9947 94.0733 86.9985 94.091C87.0022 94.1087 87.0097 94.1254 87.0204 94.14C87.0311 94.1546 87.0448 94.1667 87.0605 94.1756C87.0763 94.1845 87.0937 94.1899 87.1117 94.1915C87.1298 94.1932 87.1479 94.1909 87.165 94.185C96.705 92.25 112.665 86.4 123.12 81.6375L124.103 82.6275C111.772 87.9675 87.4875 98.1975 84.105 98.6625C83.355 94.515 84.4575 89.385 85.995 87.1575C89.4975 87.225 104.925 81.8025 118.043 76.3725C118.803 77.1525 119.555 77.945 120.3 78.75ZM84.36 103.103C81.96 102.075 79.11 100.628 75.96 98.91C76.1495 98.3676 76.2949 97.8108 76.395 97.245C79.035 98.625 81.645 99.9225 84.315 101.085C86.7675 102.165 113.077 92.49 127.372 85.77C127.823 86.1825 128.25 86.5725 128.662 86.9325C114.862 93.555 86.7675 104.1 84.36 103.065V103.103ZM129.172 87.3525C129.742 87.8325 130.268 88.26 130.74 88.62C130.648 89.7884 130.427 90.943 130.08 92.0625C127.68 93.2625 86.0175 111.263 82.83 111.263C82.2 108.518 83.0925 105.975 84.705 103.68C90.105 103.77 118.02 92.7825 129.172 87.345V87.3525ZM43.5 75.3375C43.6681 75.2265 43.8262 75.101 43.9725 74.9625C44.64 74.3025 44.3325 73.5525 43.6575 73.4625C44.295 72.765 43.92 71.775 42.585 72.0825C41.8419 72.2683 41.1694 72.6671 40.65 73.23C40.4175 72.6 40.2 71.9025 39.7425 71.67C39.45 68.22 39.2475 65.3925 39.3075 64.7625C39.9378 64.6974 40.5743 64.7226 41.1975 64.8375C64.5375 65.925 51.8775 69.12 67.65 59.88C68.085 61.5225 68.52 63.975 68.925 66.6825C68.2955 66.496 67.635 66.4373 66.9825 66.51C65.6175 66.63 65.5725 67.6875 66.39 68.1375C66.2446 68.1985 66.1221 68.3039 66.0399 68.4385C65.9578 68.5731 65.9202 68.7303 65.9325 68.8875C65.9925 69.435 66.6 69.69 67.1325 69.84C66.57 70.26 66.345 71.025 67.0575 71.4225C67.8554 71.8024 68.7463 71.9431 69.6225 71.8275C70.0425 75.21 70.3725 78.435 70.575 80.49C69 82.2075 62.7675 88.5 60.555 89.25C59.88 89.4825 41.9175 87.1725 41.205 87.075C41.13 86.325 40.755 82.5375 40.3575 78.285C41.9175 78.045 44.1075 77.3925 44.325 76.425C44.43 75.9225 43.9875 75.5025 43.5 75.3375ZM69.345 70.35C69.7275 70.35 70.005 69.6 68.505 69.6C67.995 69.45 67.515 69.4125 67.005 69.2175C65.8425 68.76 67.1025 68.4675 68.3025 68.7375C69.0525 68.985 69.315 68.2875 68.4675 68.13C68.355 68.13 65.91 67.6575 66.5175 67.2825C66.6771 67.201 66.8497 67.1477 67.0275 67.125C67.8979 66.9672 68.796 67.1383 69.5475 67.605C70.3875 68.22 70.1475 70.275 69.8625 71.355C69.765 71.6325 69.4875 71.7 69.1575 71.6925C68.5021 71.6252 67.8643 71.4397 67.275 71.145C67.0275 70.995 67.035 70.8525 67.1325 70.68C67.62 69.75 68.82 70.3725 69.3675 70.35H69.345ZM71.115 80.85C71.2575 80.7 71.1975 80.6025 71.0625 79.35C75.6617 82.1669 80.4196 84.7161 85.3125 86.985C83.13 90.3675 82.6275 96.6225 83.8125 100.155C80.7075 98.7525 78.9975 97.905 76.455 96.465C77.1075 90.5775 72.9225 84.69 68.835 83.145C69.855 82.1775 70.665 81.345 71.1375 80.85H71.115ZM84.6675 100.538C84.4501 100.056 84.2817 99.5531 84.165 99.0375C88.3425 98.505 112.515 88.2975 124.56 83.085C125.355 83.835 126.127 84.585 126.862 85.335C112.942 91.7625 87.6975 101.168 84.69 100.538H84.6675ZM70.125 36.105C72.615 27.0375 81.2175 21.855 85.5675 20.1225C102.157 13.5075 114.818 17.685 119.273 34.845C121.215 42.2925 120.023 48.2025 117.428 52.7325C113.79 59.1225 107.43 62.7675 103.38 64.1325C92.0775 67.9575 81.63 67.8825 75.12 57.7725C70.89 51.2325 68.055 43.6125 70.125 36.105ZM69.33 45.645C70.288 50.0914 72.0851 54.3143 74.625 58.0875C78.24 63.705 82.98 66.105 87.72 66.84C93.765 67.7775 99.825 66 103.582 64.7325C104.559 64.3979 105.513 64.0021 106.44 63.5475C109.567 67.11 113.58 71.58 117.562 75.825C116.497 76.275 115.412 76.725 114.308 77.175C101.34 82.425 87.36 87.2325 85.6875 86.5125C80.6483 84.2173 75.7497 81.6253 71.0175 78.75C71.0175 78.75 70.6725 75.54 70.1175 71.43C70.5225 70.14 70.92 68.0625 69.8775 67.215C69.7521 67.1114 69.6164 67.0209 69.4725 66.945C69.1244 64.452 68.6361 61.9806 68.01 59.5425C68.0018 59.5138 67.9875 59.4872 67.9682 59.4645C67.9489 59.4417 67.925 59.4233 67.898 59.4106C67.871 59.3978 67.8417 59.3909 67.8118 59.3904C67.782 59.3898 67.7524 59.3957 67.725 59.4075C67.635 59.4075 67.1925 59.715 66.54 60.1575L64.62 59.4975C64.515 59.46 64.62 59.34 61.17 61.4325C58.4053 57.6594 54.7832 54.5978 50.6025 52.5C58.2975 49.7925 64.5 47.4675 69.33 45.645ZM57.2025 63.9375C57.2775 63.9375 64.44 59.6325 64.545 59.67L66.2625 60.2775C53.3025 68.5275 61.905 65.4225 41.5125 64.3275C42.7425 63.3975 43.0125 63.2025 43.0575 63.1575C43.8675 62.64 56.8425 63.8625 57.2025 63.9375ZM45.405 32.07C45.5561 33.1229 45.6164 34.1868 45.585 35.25C44.9655 35.8602 44.1368 36.2115 43.2675 36.2325C41.9775 36.3 40.5675 36.1425 40.095 34.935C38.715 31.5375 43.71 30.75 45.405 32.07ZM44.25 30.3C44.6025 30.84 44.9175 31.26 45.1125 31.515C43.455 30.855 39.075 31.23 39.4725 34.2525C38.9041 34.1402 38.3154 34.1949 37.7775 34.41C37.365 31.2075 31.56 31.92 30.7875 34.14C30.6072 34.0176 30.4033 33.9344 30.1888 33.8956C29.9744 33.8569 29.7542 33.8635 29.5425 33.915C29.415 32.5275 29.5875 30.555 30.6975 30.015C31.0125 29.8575 31.605 30.7125 32.1 30.84C33.2233 31.1288 34.3899 31.2101 35.5425 31.08C36.8628 30.9655 38.1751 30.7727 39.4725 30.5025C41.3175 30.06 41.1675 29.6475 42.435 28.8825C42.5775 28.8 43.035 28.545 43.185 28.6125C43.92 28.9875 43.695 29.46 44.25 30.3ZM37.365 34.875C37.32 36.375 35.9325 37.185 34.4925 37.26C33.2025 37.335 31.7925 37.17 31.32 35.97C31.1172 35.6026 31.0262 35.184 31.0581 34.7656C31.0901 34.3472 31.2437 33.9473 31.5 33.615C32.91 31.965 37.5 31.8675 37.365 34.875ZM25.6875 26.73C25.3124 24.9622 25.0618 23.1703 24.9375 21.3675C29.5125 22.185 34.515 22.7775 35.0925 22.5675C35.7825 22.32 39.2475 21.375 42.7575 20.3175C42.72 22.68 42.5775 24.2025 42.5625 24.6825C36.8724 24.6294 31.1997 25.3177 25.6875 26.73ZM17.7 18.885C19.6575 17.055 31.845 12.06 33.825 11.6175C35.6025 11.25 48.5925 15 50.4525 16.77C49.1775 18.0825 36.33 21.4575 34.89 21.9675C34.1175 22.245 19.3575 20.1975 17.7 18.885ZM30.1275 43.8525C29.1582 42.9984 28.464 41.8761 28.1325 40.6275C28.0725 39.8775 27.5475 38.085 27.015 37.8375C26.3567 37.3249 25.7911 36.7034 25.3425 36C24.6525 34.9575 24.72 33.675 25.875 33.0825C27.8175 32.0925 28.32 34.7325 28.7625 35.19C29.0175 35.445 29.715 35.1075 29.6025 34.3425C29.945 34.4842 30.3118 34.558 30.6825 34.56C30.6349 35.0831 30.712 35.61 30.9075 36.0975C31.4475 37.5225 32.9925 37.785 34.515 37.71C36.2925 37.6125 37.845 36.5325 37.8075 34.7775C38.1678 34.86 38.5422 34.86 38.9025 34.7775C39.0225 35.175 39.93 38.745 39.6 38.9925C39.4458 39.1053 39.2766 39.1961 39.0975 39.2625C38.235 39.615 38.01 39.4875 38.0325 39.675C38.0334 39.6885 38.0371 39.7017 38.0433 39.7137C38.0496 39.7258 38.0583 39.7364 38.0689 39.7448C38.0795 39.7533 38.0917 39.7595 38.1048 39.7629C38.1179 39.7664 38.1316 39.7671 38.145 39.765C38.895 39.765 40.26 39.5625 40.2225 38.85C40.1638 37.4136 39.8035 36.0055 39.165 34.7175C39.2921 34.6764 39.4151 34.6237 39.5325 34.56C39.96 36.3675 41.4075 36.7725 43.2825 36.675C44.0956 36.6434 44.88 36.3662 45.5325 35.88C45.5053 38.0787 45.0967 40.256 44.325 42.315C42.9525 45.705 40.89 46.23 40.89 46.23C40.8488 46.2395 40.81 46.2573 40.7761 46.2824C40.7421 46.3076 40.7137 46.3394 40.6926 46.376C40.6715 46.4126 40.6581 46.4531 40.6534 46.4951C40.6486 46.5371 40.6526 46.5796 40.665 46.62L42 50.955C40.7775 52.755 41.1675 52.6575 40.8825 52.5375C39.87 52.1175 35.3325 50.685 33.0375 50.04C32.9836 48.82 32.8684 47.6035 32.6925 46.395C32.685 46.1475 32.1975 46.005 30.1275 43.8525ZM27.1275 51.69C28.89 53.19 36.8775 57.945 39.2325 58.7625C39.4646 58.878 39.7296 58.9098 39.9825 58.8525C40.23 58.74 40.1175 59.055 41.1375 53.2875C41.52 53.7225 42.51 54.7875 45.0525 57.42C45.0892 57.4609 45.1358 57.4917 45.1878 57.5095C45.2399 57.5274 45.2956 57.5316 45.3497 57.5218C45.4038 57.512 45.4545 57.4886 45.497 57.4537C45.5395 57.4188 45.5724 57.3737 45.5925 57.3225C46.2476 55.5105 46.7985 53.6625 47.2425 51.7875C47.4958 51.8423 47.7461 51.9099 47.9925 51.99C47.8575 55.365 47.895 61.9425 44.775 62.7825C44.1685 62.7464 43.5599 62.7765 42.96 62.8725C38.0775 62.5725 32.46 58.5 29.13 55.1325C28.065 54.075 27 53.1375 26.01 52.05L27.1275 51.69ZM14.5275 79.1175C20.61 73.6575 29.475 72.465 37.515 74.1375C37.8825 74.25 37.7775 74.205 38.1675 75.36C38.5852 75.0477 38.9697 74.6934 39.315 74.3025C39.5775 74.055 39 73.365 39.0525 72.45C39.0525 72.27 39.0975 72.1125 39.27 72.0825C40.02 71.955 40.02 73.8375 40.4475 73.995C40.875 74.1525 40.89 73.5675 41.85 73.0125C45.255 71.025 41.2425 74.355 41.2425 74.445C41.2403 74.4889 41.2474 74.5328 41.2632 74.5738C41.2791 74.6148 41.3033 74.652 41.3344 74.6831C41.3655 74.7142 41.4027 74.7384 41.4437 74.7543C41.4847 74.7701 41.5286 74.7771 41.5725 74.775C41.9175 74.775 42.0075 74.3925 43.0725 74.1375C43.245 74.0925 43.635 74.025 43.665 74.1975C43.74 74.5575 42.375 75.24 42.0525 75.4575C40.5975 75.96 41.1 76.5675 41.4675 76.47C42.06 76.32 42.57 75.6375 43.2825 75.8625C43.47 75.9225 43.785 76.1175 43.7475 76.3125C43.71 76.5075 43.4175 76.725 43.2525 76.8525C41.9925 77.79 39.195 78.09 39.12 78.1275C39.18 78.8175 39.7275 79.77 39.5925 80.0625C37.4576 84.4662 34.5344 88.4418 30.9675 91.7925C30.885 91.83 27.9675 94.6425 27.3825 94.545C26.7975 94.4475 27.5925 94.335 29.3475 92.8125C33.3607 89.1674 36.633 84.7822 38.985 79.8975C38.76 79.1475 37.485 75.51 37.26 74.7375C32.9887 73.844 28.5788 73.844 24.3075 74.7375C16.155 76.53 13.23 81.0375 12.8325 81.105C12.3375 81.12 14.145 79.5 14.565 79.1175H14.5275ZM23.685 124.553C23.205 123.908 22.9875 121.147 23.085 118.552C23.97 118.68 24.8475 118.785 25.7325 118.882C25.8675 119.205 25.83 119.175 25.8975 119.25C25.6125 120.255 24.48 123.75 23.7225 124.553H23.685ZM61.935 116.43C55.6391 117.633 49.2654 118.384 42.8625 118.68C31.9875 119.213 19.2075 118.492 9.16499 114.135C3.20999 111.562 1.22999 107.273 1.37999 103.118C1.5534 99.6529 2.95147 96.3624 5.32499 93.8325C5.73988 94.8908 6.27595 95.8975 6.92249 96.8325C7.76999 97.8225 21.99 98.4825 36.315 98.5125C37.2799 97.5665 38.2992 96.6775 39.3675 95.85C44.445 97.755 46.8675 98.85 63.54 109.245L61.935 116.43ZM64.875 109.965C66.5625 110.557 68.535 118.635 67.8225 119.933C67.2675 119.783 65.655 117.855 64.0725 115.433C64.042 115.384 63.9979 115.347 63.9458 115.324C63.8936 115.301 63.8359 115.295 63.78 115.305L62.445 115.582C62.6475 114.667 62.985 113.055 63.6 110.19C63.7761 110.045 63.9868 109.948 64.2116 109.908C64.4363 109.869 64.6675 109.888 64.8825 109.965H64.875ZM63.75 109.418C63.75 109.29 63.8175 109.192 63.75 109.132C63.825 109.132 48.3975 99.315 44.325 97.44C42.99 96.825 41.565 96.225 40.0725 95.6325C43.3111 93.1086 46.7387 90.8369 50.325 88.8375C55.2225 89.4375 60.2775 89.9925 60.75 89.8275C62.385 89.2875 65.8425 86.1225 68.415 83.6025C71.1825 84.5025 74.6625 88.1025 75.6825 92.67C76.5375 96.48 75.6075 100.853 71.0775 104.58C68.7978 106.427 66.3438 108.047 63.75 109.418ZM134.835 92.6475C132.54 96.45 86.52 114.397 83.43 113.092C78.8571 111.013 74.4118 108.664 70.1175 106.058C72.5475 104.235 74.6175 102.308 75.7425 99.375C76.965 100.05 83.415 103.508 84.3375 103.65C82.6575 106.028 81.78 108.638 82.44 111.458C82.905 113.4 128.025 93.7125 130.11 92.7075C130.32 92.61 130.508 92.535 130.575 92.4C130.837 91.7422 131.015 91.0544 131.107 90.3525C133.193 91.425 134.527 92.25 134.865 92.6475H134.835ZM132.525 69.0375C129.307 65.61 125.737 61.9725 122.385 58.6275C130.29 62.1975 136.305 65.085 137.062 66.0675C136.56 66.96 133.41 68.6625 132.555 69.0375H132.525Z" fill="#FFFCF9"/>
</svg>
