<svg width="150" height="150" viewBox="0 0 150 150" fill="none" xmlns="http://www.w3.org/2000/svg">
<path d="M112.035 65.9176C112.682 66.2366 113.391 66.4106 114.113 66.4276C114.153 66.423 114.192 66.4104 114.228 66.3905C114.263 66.3705 114.295 66.3438 114.32 66.3117C114.345 66.2795 114.363 66.2428 114.374 66.2035C114.385 66.1641 114.388 66.1231 114.383 66.0826C114.323 65.6101 113.79 66.0151 112.313 65.3326L112.388 64.7776C112.425 64.6201 112.238 64.3651 112.035 64.4401C111.833 64.5151 111.78 64.7551 111.72 65.1901C111.66 65.6251 111.63 65.7151 112.035 65.9176ZM33.7501 68.0476C34.6526 67.8022 35.5002 67.3874 36.2476 66.8251C36.5401 66.6001 36.4426 66.0751 36.3601 65.7751C36.3366 65.6973 36.2852 65.6309 36.2158 65.5886C36.1464 65.5464 36.0638 65.5312 35.9838 65.5461C35.9039 65.5609 35.8323 65.6048 35.7827 65.6692C35.7331 65.7336 35.709 65.8141 35.7151 65.8951C35.7294 66.0577 35.7595 66.2185 35.8051 66.3751C34.0276 67.6726 33.3376 67.3501 33.4426 67.8751C33.4659 67.9351 33.5094 67.985 33.5654 68.0165C33.6215 68.048 33.6868 68.059 33.7501 68.0476ZM31.7101 66.6601C33.2101 66.6601 32.7001 65.7751 32.2951 65.9101L31.7176 66.0001C31.2226 63.6526 31.6201 63.1576 31.1926 63.1426C31.1282 63.1385 31.0646 63.1597 31.0156 63.2017C30.9665 63.2438 30.9359 63.3033 30.9301 63.3676C30.8771 64.295 30.9452 65.2254 31.1326 66.1351C31.2151 66.5401 31.3651 66.6601 31.7101 66.6601ZM75.2626 65.3701C75.6901 65.3701 77.9401 64.8826 78.3226 64.8226C78.8851 64.7251 79.5526 64.5526 79.5976 63.9451C79.5976 63.5701 79.3276 63.1351 79.0201 63.3601C78.9561 63.405 78.9089 63.4699 78.8858 63.5446C78.8627 63.6193 78.8651 63.6995 78.8926 63.7726C79.0051 64.0651 78.7651 64.0426 75.1426 64.8301C75.076 64.8507 75.0196 64.8956 74.9846 64.9559C74.9496 65.0162 74.9386 65.0874 74.9537 65.1555C74.9688 65.2235 75.009 65.2834 75.0662 65.3231C75.1235 65.3629 75.1936 65.3797 75.2626 65.3701ZM25.9351 47.0101C26.1001 47.1976 26.5051 47.0101 26.3851 46.7251C25.6351 44.8951 24.2551 42.8551 23.3851 40.8451C23.2501 40.5226 22.9801 39.9751 22.7176 39.9451C22.6847 39.9405 22.6512 39.9451 22.6208 39.9583C22.5903 39.9716 22.5642 39.993 22.5451 40.0201C22.3801 40.2451 22.6201 40.8676 22.7326 41.1301C23.0776 41.8726 24.7501 45.6526 25.9351 47.0101ZM50.2501 43.8451C50.2642 43.9037 50.2933 43.9576 50.3346 44.0014C50.3759 44.0452 50.428 44.0774 50.4856 44.0948C50.5433 44.1123 50.6045 44.1143 50.6632 44.1008C50.7218 44.0872 50.776 44.0586 50.8201 44.0176C51.4393 43.4538 52.002 42.8309 52.5001 42.1576C54.7501 49.3576 54.7501 49.6126 55.1026 49.6126C55.1531 49.6112 55.2028 49.599 55.2482 49.5767C55.2935 49.5544 55.3336 49.5226 55.3656 49.4835C55.3976 49.4444 55.4208 49.3988 55.4337 49.3499C55.4465 49.301 55.4487 49.25 55.4401 49.2001C54.6001 46.5451 53.7151 43.9501 52.9501 41.3026C52.933 41.2368 52.8968 41.1776 52.846 41.1323C52.7953 41.087 52.7324 41.0577 52.665 41.0481C52.5977 41.0385 52.5291 41.049 52.4677 41.0782C52.4063 41.1075 52.355 41.1543 52.3201 41.2126C51.8894 41.8901 51.3865 42.5188 50.8201 43.0876C50.3701 41.0326 49.3201 36.3376 49.3201 36.3376C49.3012 36.2621 49.2531 36.1971 49.1863 36.157C49.1194 36.1169 49.0395 36.105 48.9639 36.1239C48.8883 36.1428 48.8233 36.1909 48.7832 36.2578C48.7431 36.3246 48.7312 36.4046 48.7501 36.4801C49.0051 37.6426 50.0926 43.3276 50.2501 43.8451ZM11.1826 82.8601C8.76761 81.7052 6.61511 80.5201 4.14011 79.2151C3.66011 78.9601 3.33011 79.8376 4.08011 80.0401C6.24098 81.3889 8.54514 82.4932 10.9501 83.3326C11.2501 83.4151 11.4601 83.0252 11.1826 82.8601ZM13.1026 65.5426C13.1542 65.5883 13.2184 65.617 13.2868 65.6251C13.3552 65.6331 13.4244 65.62 13.4851 65.5876C13.9801 65.3476 13.3426 64.7551 13.5826 61.1926C19.6651 68.5351 19.3276 68.3476 19.5826 68.3476C19.6354 68.3509 19.6881 68.3391 19.7343 68.3134C19.7806 68.2878 19.8186 68.2495 19.8438 68.203C19.869 68.1565 19.8805 68.1037 19.8767 68.051C19.8729 67.9982 19.8542 67.9476 19.8226 67.9051C18.8701 66.7051 14.7001 61.5226 13.5901 60.1126C13.5484 60.0598 13.4923 60.0199 13.4287 59.9979C13.365 59.9759 13.2963 59.9726 13.2308 59.9883C13.1653 60.0041 13.1057 60.0384 13.0591 60.087C13.0124 60.1356 12.9807 60.1965 12.9676 60.2626C12.8151 61.6324 12.79 63.0133 12.8926 64.3876C10.6426 62.3701 8.49011 60.2326 6.21761 58.2676C6.14881 58.2124 6.06276 58.1832 5.97457 58.1852C5.88638 58.1872 5.8017 58.2202 5.73543 58.2784C5.66915 58.3366 5.62552 58.4163 5.6122 58.5035C5.59889 58.5907 5.61673 58.6798 5.66261 58.7551C6.54761 60.1276 11.5426 64.1251 13.1026 65.5426ZM72.2626 37.7251C72.2626 37.7987 72.2918 37.8693 72.3439 37.9214C72.3959 37.9734 72.4665 38.0026 72.5401 38.0026C72.6137 38.0026 72.6843 37.9734 72.7363 37.9214C72.7884 37.8693 72.8176 37.7987 72.8176 37.7251C72.9462 34.9704 72.8307 32.2096 72.4726 29.4751C72.4649 29.403 72.4364 29.3346 72.3906 29.2784C72.3448 29.2221 72.2837 29.1803 72.2146 29.158C72.1456 29.1358 72.0715 29.1341 72.0015 29.1531C71.9315 29.1721 71.8685 29.211 71.8201 29.2651C71.4826 29.7001 72.2926 31.0726 72.2626 37.7251ZM92.5576 50.7526C98.2651 41.1226 97.9576 41.6026 97.9126 41.4301C97.7851 40.9951 97.4251 41.2051 94.5376 42.0751C95.2876 39.4126 96.2251 36.5701 96.8476 33.8776C96.8605 33.7906 96.8404 33.7018 96.7912 33.6288C96.742 33.5559 96.6673 33.5039 96.5818 33.4832C96.4962 33.4625 96.406 33.4746 96.3289 33.5171C96.2518 33.5595 96.1934 33.6293 96.1651 33.7126C95.3176 36.7126 94.4776 39.6451 93.6676 42.5251C93.6545 42.5847 93.6568 42.6466 93.6741 42.705C93.6915 42.7634 93.7234 42.8165 93.7669 42.8592C93.8104 42.9019 93.864 42.9329 93.9227 42.9493C93.9814 42.9656 94.0433 42.9668 94.1026 42.9526C94.1026 42.9526 96.0901 42.3376 96.8926 42.0751L92.1001 50.4976C92.0718 50.5578 92.0674 50.6265 92.0877 50.6898C92.1081 50.7531 92.1517 50.8063 92.2098 50.8387C92.2679 50.8711 92.3361 50.8802 92.4007 50.8642C92.4652 50.8483 92.5213 50.8084 92.5576 50.7526ZM146.183 72.7501C145.793 72.5626 138.578 77.0476 138.503 77.1001C138.24 77.2876 138.503 77.7527 138.773 77.6101C139.208 77.4151 146.1 73.5826 146.333 73.1701C146.35 73.1327 146.361 73.0922 146.363 73.0508C146.365 73.0094 146.359 72.968 146.345 72.929C146.331 72.89 146.309 72.8541 146.281 72.8234C146.254 72.7927 146.22 72.7678 146.183 72.7501ZM127.088 64.1776C127.088 64.1776 134.318 58.6651 135.668 57.6151C135.96 57.3826 135.668 56.8651 135.323 56.9026C133.962 56.9351 132.606 57.0882 131.273 57.3601C133.209 55.2948 134.923 53.0325 136.388 50.6101C136.635 50.2051 136.035 49.7851 135.795 50.1976C134.143 52.893 132.177 55.3829 129.938 57.6151C129.698 57.8476 129.848 58.4176 130.238 58.3651C131.561 58.0281 132.911 57.8023 134.273 57.6901C134.273 57.6901 128.543 62.3026 126.773 63.7651C126.743 63.813 126.728 63.8687 126.731 63.925C126.734 63.9813 126.753 64.0354 126.788 64.0802C126.822 64.1249 126.869 64.1582 126.922 64.1757C126.976 64.1931 127.034 64.1938 127.088 64.1776ZM116.745 42.4651C121.35 34.5301 122.153 33.3751 121.38 33.1801C121.05 33.0976 121.065 33.1276 116.228 42.1801C116.205 42.2469 116.206 42.3195 116.232 42.3852C116.257 42.4509 116.305 42.5056 116.367 42.5396C116.429 42.5736 116.5 42.5847 116.57 42.5711C116.639 42.5575 116.701 42.52 116.745 42.4651Z" fill="#D9D9D9"/>
<path d="M138 91.4176C134.94 81.7651 127.208 74.3401 116.768 71.0551C116.761 70.864 116.741 70.6735 116.708 70.4851C119.558 69.2401 120.195 64.9576 119.565 61.2301C120.113 60.3376 121.568 55.7476 120.495 56.3776L118.538 57.5326C118.26 56.7826 117.938 56.0851 117.593 55.3951C117.668 54.1951 116.573 52.0501 114.645 50.6476C112.875 49.3576 109.83 48.2026 105.39 50.0476C101.925 51.4876 98.0179 54.6676 97.4254 59.2876C96.6754 65.2876 98.6629 68.1976 94.9504 73.7701C90.8482 71.9127 86.4756 70.7227 81.9979 70.2451C81.9981 69.909 81.9755 69.5732 81.9304 69.2401C83.8429 68.2726 84.2479 65.1226 84.3304 64.0951C86.5804 62.1451 86.8429 58.2601 85.0804 58.1701C85.5333 55.3869 85.7067 52.5653 85.5979 49.7476C85.5004 48.0001 84.7504 47.6101 84.4054 47.5351C84.1619 47.4891 83.9104 47.5125 83.6796 47.6027C83.4488 47.6929 83.2481 47.8462 83.1004 48.0451C82.5379 46.8976 81.4579 47.0401 80.8504 47.9101C80.7907 47.6013 80.6355 47.3191 80.4067 47.1033C80.1779 46.8876 79.8871 46.7492 79.5753 46.7077C79.2636 46.6663 78.9467 46.7238 78.6694 46.8723C78.3922 47.0208 78.1686 47.2526 78.0304 47.5351C77.885 47.2255 77.6508 46.9661 77.3576 46.7899C77.0644 46.6136 76.7255 46.5286 76.3838 46.5454C76.0422 46.5623 75.7133 46.6804 75.4389 46.8847C75.1645 47.0889 74.957 47.3702 74.8429 47.6926C74.0929 46.0651 72.1804 46.4401 71.7529 48.0901C71.1904 46.8226 69.6529 46.8301 69.1204 48.3001C67.7179 47.2651 66.6154 48.3001 66.3904 50.0026C66.2541 52.8976 66.3746 55.7989 66.7504 58.6726C64.2079 58.1026 66.1879 64.0576 67.7029 64.2001C67.9654 66.4501 68.8954 68.9251 70.7029 69.5251C70.7029 69.8251 70.6579 70.1326 70.6579 70.4326C65.8086 71.207 61.1418 72.8617 56.8879 75.3151C54.5479 73.6651 49.3429 71.4226 44.3404 71.8351C43.434 69.9201 42.7519 67.9067 42.3079 65.8351C41.9779 64.0276 42.8254 63.3151 42.8179 61.7551C43.7889 59.7982 44.0309 57.5593 43.5004 55.4401C41.1379 47.9401 26.8654 50.7901 27.2704 59.0251C27.3229 59.9626 27.4054 60.9001 27.4879 61.6276C25.7254 62.1601 25.9879 62.2876 26.4754 64.4326C26.7379 65.6026 27.0379 66.5701 28.2679 66.3151C28.8304 68.7526 30.2479 72.6451 33.5929 72.6451C33.7954 72.6451 33.5929 72.5176 33.7804 73.7776C25.3879 77.4301 14.8504 84.2776 12.1204 96.2776C11.4604 99.1726 11.0629 103.283 12.9529 106.388C15.0304 109.845 18.7054 110.063 21.3454 109.89C20.7274 113.285 20.5284 116.744 20.7529 120.188C20.7542 120.236 20.7688 120.283 20.795 120.323C20.8211 120.363 20.8579 120.396 20.9013 120.417C20.9446 120.438 20.9929 120.446 21.0408 120.441C21.0887 120.437 21.1344 120.419 21.1729 120.39C21.5779 120.15 20.7829 119.895 22.0504 109.838C29.1154 109.185 35.8504 106.148 42.0754 102.953C43.1029 103.703 44.1229 104.453 45.1804 105.128C46.0498 106.886 47.3821 108.373 49.034 109.43C50.6859 110.488 52.5948 111.074 54.5554 111.128C54.3679 114.285 54.3679 117.45 54.5554 120.608C54.5582 120.646 54.5686 120.683 54.5861 120.717C54.6036 120.751 54.6278 120.781 54.6572 120.806C54.6865 120.83 54.7206 120.849 54.7572 120.86C54.7938 120.871 54.8323 120.874 54.8704 120.87C55.5154 120.81 54.6829 120.488 55.1929 111.12C61.4329 111.12 66.5554 107.048 71.6929 103.935C77.7379 106.703 92.5579 111.855 100.395 110.37C100.755 113.565 100.703 116.595 101.01 119.685C101.02 119.741 101.049 119.791 101.093 119.827C101.136 119.863 101.19 119.883 101.247 119.883C101.303 119.883 101.357 119.863 101.401 119.827C101.444 119.791 101.473 119.741 101.483 119.685C101.68 116.528 101.552 113.359 101.1 110.228C106.538 108.938 109.875 105.105 110.76 99.1501C111.12 98.9101 111.51 98.6401 111.915 98.3326C116.558 100.185 126.165 104.693 130.86 104.858C130.643 108.345 130.335 112.028 130.283 115.643C130.293 115.704 130.325 115.759 130.372 115.799C130.42 115.839 130.48 115.861 130.542 115.861C130.604 115.861 130.664 115.839 130.711 115.799C130.758 115.759 130.79 115.704 130.8 115.643C130.905 114.645 131.588 106.133 131.55 104.835C139.065 104.663 140.25 98.5126 138 91.4176ZM84.4804 59.3626C84.6829 59.0926 84.7954 58.7776 85.0879 58.8676C86.1379 59.1751 85.2979 61.7851 84.4204 62.9476C84.4954 61.7551 84.5179 60.5476 84.4804 59.3626ZM66.5779 59.3626C66.8179 59.3626 66.7879 59.4676 67.3279 59.5726L67.6279 63.2776C66.5179 62.2501 65.7154 59.3776 66.5779 59.3776V59.3626ZM118.688 58.6126C118.72 58.5072 118.792 58.4187 118.889 58.3667C118.986 58.3146 119.1 58.3033 119.205 58.3351C119.311 58.3669 119.399 58.4393 119.451 58.5364C119.503 58.6334 119.515 58.7472 119.483 58.8526C119.22 59.7826 119.018 60.4576 118.845 61.1026C118.801 61.1829 118.739 61.2517 118.663 61.3038C118.588 61.3558 118.501 61.3897 118.41 61.4026C117.75 61.4251 118.455 59.2876 118.688 58.5976V58.6126ZM106.065 61.6126C106.493 61.2901 107.01 61.7026 107.093 61.7101C107.798 62.1601 108.593 61.5076 108.39 61.3201L108.24 61.2001C107.685 60.7651 106.545 59.8651 106.785 59.2501C106.965 58.7851 107.7 58.8526 108.18 58.8301C108.197 58.8296 108.214 58.8252 108.229 58.8173C108.244 58.8094 108.257 58.7981 108.268 58.7844C108.278 58.7707 108.285 58.7548 108.288 58.7381C108.291 58.7213 108.29 58.704 108.285 58.6876C108.21 58.4476 108.12 58.2076 108.03 57.9376C110.865 56.5319 113.973 55.7639 117.135 55.6876C117.458 56.4376 117.735 57.1501 117.983 57.8551C117.045 58.3876 115.98 58.9726 115.733 60.0376C115.51 60.0099 115.284 60.0326 115.071 60.104C114.858 60.1754 114.664 60.2937 114.503 60.4501C113.325 59.0326 108.45 59.1526 107.468 59.1901C106.2 59.2426 109.545 61.8001 110.468 62.5201C113.565 64.9276 115.59 63.2701 114.818 61.0726C114.926 60.9398 115.068 60.839 115.23 60.7808C115.391 60.7227 115.565 60.7095 115.733 60.7426C115.761 60.8851 115.806 61.0236 115.868 61.1551C115.831 61.1366 115.79 61.127 115.748 61.127C115.706 61.127 115.665 61.1366 115.628 61.1551C115.32 61.3501 115.628 61.6126 116.333 62.8651C116.246 62.9536 116.153 63.0362 116.055 63.1126C115.77 63.3226 116.018 64.2376 116.97 63.1126C117.113 62.9401 116.843 62.4376 116.543 61.9951C116.905 62.2419 117.339 62.3611 117.776 62.3339C118.213 62.3067 118.629 62.1348 118.958 61.8451C119.286 63.8587 119.1 65.9224 118.418 67.8451C117.668 69.6826 115.785 69.7876 116.168 70.4851C116.267 72.9578 116.065 75.4334 115.568 77.8576C113.64 77.4376 109.845 72.7351 108.33 70.5526C108.487 68.7289 108.252 66.8928 107.64 65.1676C107.138 64.2976 106.14 63.9001 105.878 62.9176C105.775 62.6985 105.739 62.4544 105.772 62.2149C105.805 61.9753 105.907 61.7505 106.065 61.5676V61.6126ZM117.435 60.3601C117.353 60.6076 117.3 60.9526 117.03 60.9526C116.76 60.9526 116.625 60.6376 116.655 60.3676C116.685 60.0976 116.76 59.4751 117.045 59.3101C117.1 59.283 117.16 59.2689 117.222 59.2689C117.283 59.2689 117.343 59.283 117.398 59.3101C117.75 59.4076 117.563 59.9326 117.435 60.3151V60.3601ZM113.393 62.0851C113.31 62.2876 113.228 62.6551 112.988 62.7676C112.946 62.7882 112.9 62.7988 112.853 62.7988C112.806 62.7988 112.76 62.7882 112.718 62.7676C112.268 62.6026 112.763 60.9301 113.168 60.6076C113.203 60.5716 113.247 60.5451 113.295 60.5306C113.344 60.516 113.395 60.5139 113.444 60.5243C113.494 60.5348 113.539 60.5575 113.578 60.5905C113.616 60.6234 113.645 60.6654 113.663 60.7126C113.82 61.0576 113.438 61.9276 113.393 62.0401V62.0851ZM111.75 61.3576C111.653 61.5526 111.608 61.7326 111.353 61.7326C111.293 61.7368 111.233 61.7262 111.178 61.7017C111.123 61.6772 111.075 61.6396 111.038 61.5922C111.001 61.5449 110.976 61.4891 110.966 61.4299C110.955 61.3707 110.959 61.3098 110.978 61.2526C111.06 61.0051 111.15 60.4426 111.45 60.2926C111.498 60.2706 111.549 60.2587 111.602 60.2574C111.654 60.2562 111.706 60.2657 111.755 60.2854C111.803 60.3051 111.847 60.3345 111.884 60.3719C111.92 60.4092 111.949 60.4537 111.968 60.5026C112.073 60.7501 111.9 61.0876 111.75 61.3576ZM108 70.9726C110.13 74.6476 115.74 79.9726 116.175 78.1876C116.666 76.0687 116.893 73.8972 116.85 71.7226C127.125 75.3526 134.1 82.0051 137.138 90.9826C134.939 89.9332 132.523 89.4192 130.088 89.4826C129.983 87.0151 126.6 82.2451 125.303 80.8126C125.04 80.5201 124.553 80.8951 124.838 81.1876C126.783 83.3905 128.272 85.9576 129.218 88.7401C125.543 85.9726 118.14 82.1101 107.993 85.2901C105.36 80.7965 101.516 77.1344 96.9004 74.7226C100.222 72.5504 104.042 71.2598 108 70.9726ZM68.8879 54.0526C73.398 52.8216 78.1369 52.6853 82.7104 53.6551C82.6334 54.9261 82.6736 56.2015 82.8304 57.4651H82.6954C82.0729 54.6001 78.0829 53.7151 76.7404 56.7151C76.0546 56.4825 75.3112 56.4825 74.6254 56.7151C73.3279 54.0151 69.5704 54.8851 68.8804 57.5551H68.7379C68.8955 56.3947 68.9458 55.2222 68.8879 54.0526ZM79.0879 60.2251C79.2229 59.8426 80.4379 57.0076 81.2254 56.9251C81.2909 56.9243 81.3557 56.9391 81.4144 56.9683C81.4731 56.9975 81.5239 57.0403 81.5628 57.093C81.6016 57.1458 81.6274 57.2071 81.6378 57.2718C81.6483 57.3365 81.6431 57.4028 81.6229 57.4651C80.9534 58.4189 80.3567 59.4217 79.8379 60.4651C79.6504 60.9301 78.9154 60.7501 79.0879 60.2251ZM78.0004 59.1751C77.9104 59.4001 77.5054 59.5351 77.3629 59.2726C77.2204 59.0101 77.5654 58.0126 78.5404 56.5501C78.7879 56.1826 79.0204 56.0026 79.2229 56.0326C79.2888 56.0514 79.3491 56.0861 79.3985 56.1336C79.4479 56.1811 79.485 56.2399 79.5064 56.305C79.5279 56.3701 79.5331 56.4395 79.5216 56.507C79.51 56.5746 79.4822 56.6383 79.4404 56.6926C78.8696 57.464 78.3866 58.2967 78.0004 59.1751ZM71.4754 60.4201C71.7979 59.7151 72.1579 59.0026 72.5029 58.3051C72.5397 58.2378 72.5939 58.1817 72.6599 58.1426C72.7259 58.1035 72.8012 58.0829 72.8779 58.0829C72.9546 58.0829 73.0298 58.1035 73.0958 58.1426C73.1618 58.1817 73.216 58.2378 73.2529 58.3051C73.3 58.3763 73.3251 58.4598 73.3251 58.5451C73.3251 58.6305 73.3 58.7139 73.2529 58.7851C72.9229 59.4376 72.5854 60.1201 72.2254 60.7801C71.9404 61.1551 71.2504 60.8701 71.4754 60.4201ZM70.5679 59.4751L70.5229 59.5276C70.2904 59.8651 69.7054 59.6476 69.8629 59.2201C70.2959 58.0678 70.8489 56.9642 71.5129 55.9276C71.8354 55.5376 72.4879 55.8751 72.2629 56.3326C71.7304 57.3976 71.0779 58.3951 70.5679 59.4751ZM67.8904 59.5426C68.3704 59.3401 68.5054 58.7926 68.6404 58.3201L68.7979 58.2751C68.7586 58.7954 68.8225 59.3184 68.9859 59.8139C69.1494 60.3095 69.4092 60.7678 69.7504 61.1626C70.1549 61.5599 70.6618 61.8369 71.2146 61.9629C71.7674 62.0888 72.3443 62.0588 72.881 61.876C73.4176 61.6932 73.893 61.3649 74.254 60.9277C74.615 60.4906 74.8474 59.9617 74.9254 59.4001C74.8478 60.1224 74.8153 60.8488 74.8279 61.5751C74.8279 62.0251 74.7229 62.5876 75.2779 62.6251H76.0279C76.4179 62.6251 76.5229 61.9501 76.0729 61.9426H75.5179C75.4741 60.6063 75.5469 59.2688 75.7354 57.9451C75.7879 57.5776 75.2554 57.5251 75.1804 57.8701C74.8504 59.4826 75.1804 58.5601 74.8879 57.3676C75.4115 57.1799 75.9842 57.1799 76.5079 57.3676C76.3427 57.9689 76.3102 58.5989 76.4125 59.214C76.5148 59.8291 76.7495 60.4146 77.1004 60.9301C77.3676 61.2763 77.7062 61.5611 78.0931 61.7651C78.48 61.9691 78.9063 62.0875 79.343 62.1124C79.7796 62.1373 80.2166 62.068 80.6242 61.9094C81.0318 61.7507 81.4005 61.5062 81.7054 61.1926C82.4422 60.3704 82.8343 59.2961 82.8004 58.1926H82.9429C83.0329 58.8451 83.1679 59.7451 83.8579 59.6926C83.7829 62.2576 84.0079 66.6526 81.9754 68.2576C81.7129 68.4676 81.4129 68.7076 81.3754 68.9476C81.2815 69.7424 81.2815 70.5454 81.3754 71.3401C81.5929 73.4176 77.9554 77.5276 76.0729 79.2826C72.4429 74.3476 71.4004 73.8601 71.4079 69.5326C71.4079 69.0976 71.3554 69.0301 71.0554 68.8801C68.0179 67.4101 68.2954 63.1726 67.8904 59.5426ZM70.6954 71.0926C70.7779 73.3951 72.5854 76.5076 75.7729 79.8601C76.4179 80.7001 82.1179 73.7026 82.0054 72.1876V70.9201C97.3579 72.7276 108.36 81.5626 110.115 93.4726C103.74 92.2201 95.6854 93.6901 94.3204 93.9526C93.735 90.2226 92.6318 86.5926 91.0429 83.1676C91.016 83.101 90.9638 83.0477 90.8977 83.0196C90.8316 82.9915 90.757 82.9908 90.6904 83.0176C90.6237 83.0445 90.5705 83.0967 90.5424 83.1628C90.5142 83.2289 90.5135 83.3035 90.5404 83.3701C91.9194 86.7506 92.9254 90.2714 93.5404 93.8701C89.5954 89.7151 83.5954 87.8701 75.2329 88.2451C70.1994 88.4785 65.1995 89.1892 60.3004 90.3676C60.6922 88.0805 61.6257 85.9203 63.0229 84.0676C63.0535 84.0118 63.0628 83.9467 63.0489 83.8845C63.0351 83.8223 62.9992 83.7673 62.9478 83.7296C62.8964 83.692 62.833 83.6743 62.7696 83.68C62.7061 83.6856 62.6469 83.7141 62.6029 83.7601C61.027 85.7073 59.9922 88.0355 59.6029 90.5101C54.1652 91.8145 48.8845 93.703 43.8529 96.1426C44.5429 81.4501 58.1254 73.5751 70.6954 71.0926ZM38.1679 57.2026C38.1602 57.9147 38.2028 58.6265 38.2954 59.3326C35.5954 59.4001 31.3054 60.4501 28.1104 61.4401C28.0279 60.7801 27.8404 59.5801 27.8329 58.8676C31.0477 57.3354 34.6345 56.7576 38.1679 57.2026ZM35.7829 61.2301C34.2829 63.7801 34.6054 64.2301 34.1029 64.2301C34.0465 64.2335 33.9901 64.2234 33.9385 64.2005C33.8868 64.1776 33.8415 64.1426 33.8062 64.0985C33.7709 64.0544 33.7467 64.0024 33.7357 63.947C33.7247 63.8916 33.7271 63.8344 33.7429 63.7801C34.4254 61.2001 35.0779 60.7201 35.4079 60.6601C35.4798 60.6455 35.5545 60.6527 35.6223 60.6809C35.6901 60.7091 35.7479 60.7569 35.7882 60.8182C35.8286 60.8796 35.8496 60.9516 35.8487 61.025C35.8477 61.0984 35.8248 61.1698 35.7829 61.2301ZM33.4654 61.7926C33.1879 62.2501 33.1204 62.8876 32.7154 62.7901C32.3104 62.6926 32.6029 61.7776 32.8429 61.2901C33.0829 60.8026 33.2929 60.7951 33.4354 60.8326C33.5157 60.8544 33.5871 60.9009 33.6396 60.9655C33.692 61.0301 33.7229 61.1095 33.7279 61.1926C33.6985 61.4133 33.6075 61.6212 33.4654 61.7926ZM27.8854 63.2926C27.8029 63.4876 27.7954 64.0876 27.3904 64.0876C27.3116 64.0907 27.234 64.0672 27.1701 64.021C27.1062 63.9748 27.0596 63.9084 27.0379 63.8326C26.9982 63.3079 27.165 62.7885 27.5029 62.3851C27.5725 62.3228 27.6601 62.2842 27.7531 62.2748C27.846 62.2654 27.9396 62.2856 28.0204 62.3326C28.2004 62.4526 28.1629 62.7676 27.8854 63.2701V63.2926ZM28.1629 65.0401C28.8454 62.5876 29.2354 62.2276 29.4679 62.1751C29.5157 62.1641 29.5656 62.1667 29.612 62.1826C29.6584 62.1985 29.6994 62.2271 29.7304 62.2651C29.8323 62.3833 29.8835 62.5369 29.8729 62.6926L28.8829 65.2501C28.852 65.3456 28.7845 65.4249 28.6952 65.4706C28.6059 65.5163 28.5021 65.5247 28.4066 65.4939C28.3111 65.463 28.2318 65.3955 28.1861 65.3062C28.1404 65.2169 28.132 65.1131 28.1629 65.0176V65.0401ZM28.9129 66.1726C30.3529 65.7526 30.8179 65.8726 30.6604 63.6826C30.6079 63.0601 30.4879 61.6426 31.1179 61.6651C31.6279 61.6651 31.6429 64.0351 32.4004 64.7701C33.1579 65.5051 34.1404 64.9876 34.9654 64.7701C37.2154 64.1551 36.7204 63.1951 36.5554 60.2176L38.4454 60.0676C39.2929 64.4626 40.4329 61.1701 41.1979 60.6751C41.6854 60.3676 42.1054 61.0426 42.1954 61.5601C42.3679 62.6701 41.4454 63.8851 41.6404 65.5126C42.0823 67.8682 42.8391 70.1537 43.8904 72.3076C42.2479 75.4276 37.5304 78.3076 35.4304 79.4476C34.5454 76.2376 34.4704 72.0226 33.9304 72.0376C31.4404 72.0526 29.8054 70.1701 28.8829 66.1501L28.9129 66.1726ZM33.8479 74.4976C33.9829 75.6301 34.5379 80.4976 35.3479 80.0926C37.3879 79.1326 43.5979 75.0526 44.4829 72.4276C45.7954 72.7276 49.8904 71.9326 56.2504 75.7651C51.5571 78.5685 47.7911 82.6892 45.4204 87.6151C39.3529 86.8651 31.8454 85.9276 25.5379 89.2576C27.4654 84.7126 28.6204 84.2626 28.0729 83.9026C28.0445 83.8832 28.0126 83.8698 27.9789 83.863C27.9452 83.8563 27.9105 83.8564 27.8769 83.8635C27.8433 83.8705 27.8114 83.8842 27.7832 83.9038C27.755 83.9234 27.7311 83.9485 27.7129 83.9776C27.5179 84.2701 24.7804 88.7926 24.7129 89.7151C23.6554 90.3601 21.3979 92.0101 20.7229 93.3076C17.9656 93.3614 15.2788 94.1877 12.9679 95.6926C15.2479 86.8651 22.4554 79.5376 33.8179 74.4751L33.8479 74.4976ZM14.4004 107.25C11.5354 104.25 12.1504 99.2326 12.7429 96.4801C20.0629 91.6726 29.7379 93.7276 41.5129 102.6C37.5529 104.295 20.2504 113.318 14.4004 107.25ZM21.4804 93.2926C27.4354 86.7001 36.0454 87.1201 45.1129 88.2376C42.7879 93.6001 42.5854 99.2626 44.5279 103.883C37.7779 98.8276 29.8054 93.2701 21.4804 93.2701V93.2926ZM55.1404 110.543C47.7529 110.543 43.7854 104.055 43.8904 96.8551C54.3904 92.1376 63.5629 89.7226 73.6129 89.0251C82.7929 88.3876 88.9729 90.0601 93.0229 94.2751C73.2379 98.7076 65.0704 110.52 55.1404 110.52V110.543ZM100.5 109.718C93.1579 111.375 81.0004 107.04 72.3604 103.583C86.1304 95.4526 98.5204 92.3851 110.213 94.2076C111.135 102.585 107.685 108.09 100.5 109.718ZM110.903 98.3626C111.292 94.0258 110.375 89.6717 108.27 85.8601C116.325 83.7751 123.128 84.9901 129.038 89.5651C121.275 90.1426 113.453 96.2026 110.895 98.3626H110.903ZM131.303 104.19C126.713 104.19 117.053 99.6901 112.605 97.8751C117.36 94.2751 122.993 90.4576 129.773 90.1876C132.422 90.024 135.063 90.6033 137.4 91.8601C139.41 98.6401 138.405 104.145 131.295 104.19H131.303Z" fill="#D9D9D9"/>
</svg>
