<svg width="62" height="62" viewBox="0 0 62 62" fill="none" xmlns="http://www.w3.org/2000/svg">
<rect width="62" height="62" fill="#FFFCF9"/>
<path d="M55.9112 26.459L40.9731 21.0267L35.5409 6.08862C35.202 5.15636 34.5845 4.35097 33.7721 3.78184C32.9597 3.21271 31.9918 2.90741 30.9998 2.90741C30.0079 2.90741 29.04 3.21271 28.2276 3.78184C27.4152 4.35097 26.7977 5.15636 26.4588 6.08862L21.0266 21.0267L6.08843 26.459C5.15617 26.7978 4.35079 27.4154 3.78166 28.2278C3.21252 29.0402 2.90723 30.0081 2.90723 31C2.90723 31.9919 3.21252 32.9598 3.78166 33.7722C4.35079 34.5847 5.15617 35.2022 6.08843 35.541L21.0266 40.9733L26.4588 55.9114C26.7977 56.8437 27.4152 57.6491 28.2276 58.2182C29.04 58.7873 30.0079 59.0926 30.9998 59.0926C31.9918 59.0926 32.9597 58.7873 33.7721 58.2182C34.5845 57.6491 35.202 56.8437 35.5409 55.9114L40.9731 40.9733L55.9112 35.541C56.8435 35.2022 57.6489 34.5847 58.218 33.7722C58.7872 32.9598 59.0925 31.9919 59.0925 31C59.0925 30.0081 58.7872 29.0402 58.218 28.2278C57.6489 27.4154 56.8435 26.7978 55.9112 26.459ZM37.7133 35.9746C37.3139 36.1197 36.9513 36.3506 36.6508 36.651C36.3504 36.9515 36.1195 37.3141 35.9744 37.7135L30.9998 51.3946L26.0253 37.7135C25.8802 37.3141 25.6493 36.9515 25.3488 36.651C25.0484 36.3506 24.6857 36.1197 24.2864 35.9746L10.6052 31L24.2864 26.0255C24.6857 25.8804 25.0484 25.6495 25.3488 25.349C25.6493 25.0486 25.8802 24.6859 26.0253 24.2866L30.9998 10.6054L35.9744 24.2866C36.1195 24.6859 36.3504 25.0486 36.6508 25.349C36.9513 25.6495 37.3139 25.8804 37.7133 26.0255L51.3945 31L37.7133 35.9746Z" fill="#FDD835"/>
</svg>
