<svg width="40" height="40" viewBox="0 0 40 40" fill="none" xmlns="http://www.w3.org/2000/svg">
<rect width="28" height="28" transform="translate(0 16.713) rotate(-36.6477)" fill="#FFFCF9"/>
<path d="M27.3915 11.2284L20.5145 13.2868L14.5194 9.33853C14.1453 9.09208 13.7044 8.96672 13.2566 8.9795C12.8089 8.99228 12.3759 9.14257 12.0164 9.40996C11.657 9.67734 11.3886 10.0489 11.2477 10.4741C11.1067 10.8993 11.1001 11.3576 11.2286 11.7867L13.2871 18.6637L9.33875 24.6588C9.09229 25.0329 8.96694 25.4738 8.97972 25.9216C8.9925 26.3693 9.14279 26.8023 9.41017 27.1618C9.67756 27.5212 10.0491 27.7896 10.4743 27.9305C10.8995 28.0715 11.3578 28.0781 11.7869 27.9496L18.6639 25.8911L24.6591 29.8394C25.0331 30.0859 25.474 30.2113 25.9218 30.1985C26.3696 30.1857 26.8026 30.0354 27.162 29.768C27.5214 29.5006 27.7898 29.1291 27.9308 28.7039C28.0717 28.2787 28.0784 27.8204 27.9498 27.3913L25.8914 20.5143L29.8397 14.5191C30.0861 14.1451 30.2115 13.7042 30.1987 13.2564C30.1859 12.8086 30.0356 12.3756 29.7682 12.0162C29.5009 11.6568 29.1293 11.3884 28.7041 11.2475C28.2789 11.1065 27.8206 11.0998 27.3915 11.2284ZM23.3627 19.5818C23.2571 19.742 23.188 19.9234 23.1601 20.1133C23.1322 20.3031 23.1463 20.4968 23.2014 20.6806L25.0869 26.9787L19.5964 23.3625C19.4362 23.2569 19.2548 23.1877 19.0649 23.1599C18.8751 23.132 18.6814 23.1461 18.4976 23.2012L12.1995 25.0867L15.8157 19.5962C15.9213 19.436 15.9905 19.2546 16.0183 19.0647C16.0462 18.8749 16.0321 18.6812 15.977 18.4974L14.0915 12.1992L19.582 15.8155C19.7422 15.9211 19.9236 15.9902 20.1135 16.0181C20.3033 16.046 20.497 16.0319 20.6808 15.9768L26.979 14.0913L23.3627 19.5818Z" fill="#343330"/>
</svg>
