<svg width="150" height="150" viewBox="0 0 150 150" fill="none" xmlns="http://www.w3.org/2000/svg">
<g clip-path="url(#clip0_56_169)">
<path fill-rule="evenodd" clip-rule="evenodd" d="M129.645 59.61C129.765 59.8575 130.222 59.9325 130.522 59.985C132.967 60.42 143.565 60.645 144.585 59.7675C145.477 59.0175 144.982 46.7625 144.112 46.2675C142.987 45.6 130.717 45.4725 129.862 46.155C129.24 46.6725 128.85 57.8775 129.645 59.61ZM130.05 46.3125C130.732 45.7425 142.717 46.17 143.797 46.695C144.375 48.24 144.75 57.945 144.187 59.325C143.272 59.955 132.06 59.9325 130.102 59.325C129.337 57.4875 129.622 46.6725 130.05 46.3125ZM99.8172 45C99.5198 45.5088 99.1181 45.949 98.6386 46.2915C98.159 46.6341 97.6124 46.8713 97.0347 46.9875C97.017 46.983 96.9984 46.9826 96.9805 46.9863C96.9626 46.99 96.9458 46.9978 96.9313 47.009C96.9169 47.0202 96.9052 47.0346 96.8971 47.051C96.8891 47.0674 96.8849 47.0855 96.8849 47.1038C96.8849 47.1221 96.8891 47.1401 96.8971 47.1566C96.9052 47.173 96.9169 47.1874 96.9313 47.1986C96.9458 47.2098 96.9626 47.2176 96.9805 47.2213C96.9984 47.225 97.017 47.2246 97.0347 47.22C98.3547 47.565 100.072 46.365 100.072 45.045C100.078 45.0112 100.07 44.9764 100.051 44.9483C100.031 44.9202 100.001 44.901 99.9672 44.895C99.9333 44.8891 99.8986 44.8968 99.8704 44.9165C99.8423 44.9362 99.8231 44.9662 99.8172 45ZM93.6897 38.2875V39.0375C93.6897 39.137 93.7292 39.2324 93.7995 39.3027C93.8698 39.373 93.9652 39.4125 94.0647 39.4125C94.1635 39.4106 94.2578 39.3705 94.3277 39.3006C94.3976 39.2307 94.4377 39.1364 94.4397 39.0375V38.2875C94.4397 38.1881 94.4002 38.0927 94.3298 38.0224C94.2595 37.952 94.1641 37.9125 94.0647 37.9125C93.9652 37.9125 93.8698 37.952 93.7995 38.0224C93.7292 38.0927 93.6897 38.1881 93.6897 38.2875ZM101.167 39C101.167 39.0995 101.207 39.1949 101.277 39.2652C101.347 39.3355 101.443 39.375 101.542 39.375C101.642 39.375 101.737 39.3355 101.807 39.2652C101.878 39.1949 101.917 39.0995 101.917 39V38.07C101.917 37.9706 101.878 37.8752 101.807 37.8049C101.737 37.7345 101.642 37.695 101.542 37.695C101.443 37.695 101.347 37.7345 101.277 37.8049C101.207 37.8752 101.167 37.9706 101.167 38.07C101.137 38.3925 101.167 38.7675 101.167 39Z" fill="#FFFCF9"/>
<path fill-rule="evenodd" clip-rule="evenodd" d="M144.652 93.255C144.603 93.1714 144.533 93.1017 144.45 93.0525C143.805 92.7375 140.295 92.895 139.567 92.925C139.695 73.2525 129.33 60.9825 114.285 57.465C111.525 56.82 111.517 56.775 111.442 56.82L110.932 55.4175C112.372 55.3725 113.55 54.2625 114.87 54.4875C115.867 54.6525 116.37 55.5375 117.352 55.9125C119.017 56.5425 121.98 55.575 122.887 53.9925C123.352 53.1675 122.94 52.3125 123.232 51.7425C123.757 51.285 125.25 50.55 125.677 50.0175C126.555 48.9225 126.592 46.47 126.195 45.1425C125.477 43.6403 124.5 42.2768 123.307 41.115C122.01 39.8651 120.86 38.4711 119.88 36.96C118.672 34.5525 118.627 31.2225 117.63 28.71C116.53 26.4414 114.828 24.5189 112.71 23.1525C110.641 21.6909 108.146 20.9552 105.615 21.06C103.252 21.21 102.33 22.215 101.227 22.56C100.125 22.905 99.8923 22.56 98.0998 23.3475C97.3881 23.7811 96.7542 24.3313 96.2248 24.975C95.9998 25.215 96.0148 25.23 95.6323 25.245C95.2204 25.214 94.8067 25.214 94.3948 25.245C93.6925 25.4008 93.0209 25.672 92.4073 26.0475C88.2298 28.5525 89.3548 33.5925 87.7798 37.2975C86.7073 39.8175 83.7223 42.24 83.4673 44.8725C83.377 46.0829 83.6373 47.2937 84.2173 48.36C86.0398 51.5625 88.6573 49.05 90.0148 51.0075C90.4423 51.6225 90.7648 52.2225 91.5598 52.3425C92.5723 52.4775 93.9523 51.675 94.7773 51.0825C94.9507 51.2846 95.147 51.4658 95.3623 51.6225C96.0934 52.1154 96.8785 52.523 97.7023 52.8375L95.7973 55.5C92.2273 55.095 86.7448 56.25 83.2123 57.3375C83.0848 56.4375 81.9748 49.005 81.1348 48.645C79.9723 48.135 67.7698 49.5525 67.0273 50.355C66.4798 50.94 67.4623 62.0775 68.5273 63.7425C68.6848 63.9975 69.2248 64.005 69.5248 64.0125C67.7698 65.2125 66.0748 66.4275 65.4673 66.87C64.9948 65.235 62.5123 56.5875 61.5973 55.17C61.3348 54.7575 61.0948 54.765 59.8873 55.17C59.199 51.7359 58.3278 48.3411 57.2773 45C57.6712 44.3525 57.986 43.66 58.2148 42.9375C58.4943 41.7931 58.5352 40.6034 58.3348 39.4425C59.2498 39.75 64.7173 41.25 65.6023 40.815C65.84 40.6454 66.0163 40.4033 66.1048 40.125C67.0723 38.01 68.7298 30.7875 68.8573 28.5C68.9098 28.2071 68.8595 27.905 68.7148 27.645C67.8373 26.73 56.0323 23.3325 55.0348 23.7825C54.4273 24.06 52.7848 29.4525 52.6123 30.09C51.1798 34.8975 51.9073 33.84 51.1123 34.1175C50.1973 34.44 49.4098 36.3675 49.0873 37.26C48.7648 38.1525 48.4273 39.3525 48.8098 40.0575C48.6545 40.3442 48.592 40.6721 48.631 40.9959C48.6699 41.3196 48.8084 41.6233 49.0273 41.865C48.7888 42.1309 48.6333 42.4607 48.58 42.8139C48.5267 43.167 48.5779 43.5281 48.7273 43.8525C48.9448 44.535 50.3023 44.985 50.9773 45.18C50.4444 46.6161 50.001 48.084 49.6498 49.575C49.0515 51.8887 48.5734 54.2319 48.2173 56.595C47.9955 57.7433 47.9224 58.9155 47.9998 60.0825L46.7698 60.6375C46.7225 60.6592 46.6825 60.6941 46.6545 60.738C46.6266 60.7819 46.6119 60.833 46.6123 60.885C46.6123 60.885 46.8448 69.975 49.8373 77.5275C53.4523 86.67 59.3998 89.73 68.4523 86.31C68.5339 87.0277 68.7105 87.7313 68.9773 88.4025C69.1123 88.6425 69.5698 88.6875 69.8773 88.7175C72.5399 88.8047 75.2053 88.722 77.8573 88.47L80.1073 102.72C79.4998 104.475 72.6073 124.47 72.7048 126.33C72.7048 126.525 72.7798 126.675 73.1023 126.825C75.0898 127.748 93.9223 130.207 94.6348 128.152C94.8148 127.65 95.2498 124.447 95.3323 123.84L105.93 122.67L116.032 123.337C116.141 124.349 116.322 125.352 116.572 126.337C116.662 126.562 116.767 126.683 117.03 126.66C118.027 126.563 123.345 125.603 124.815 125.325C130.455 124.26 130.327 124.17 130.162 123.615C129.765 122.303 126.075 112.065 124.635 107.288C126.741 107.512 128.866 107.512 130.972 107.288C130.995 107.369 131.038 107.443 131.097 107.503C131.156 107.563 131.229 107.608 131.31 107.632C132.682 108.135 144.945 107.438 145.95 106.433C146.857 105.63 145.335 94.395 144.652 93.255ZM55.0498 24.105C55.1323 23.9775 55.1023 23.925 55.7623 24.0225C58.5148 24.4125 67.5148 27.315 68.2948 27.9975C68.4448 29.715 66.2173 39.1425 65.3398 40.2825C64.7023 40.5 60.4723 39.42 59.8198 39.2475C54.8548 37.95 55.0498 37.7475 53.9173 37.485C53.3323 37.2825 53.2723 37.275 53.2873 37.1925C53.2892 37.1739 53.2979 37.1567 53.3118 37.1443C53.3256 37.1318 53.3437 37.1249 53.3623 37.125C54.0373 37.125 55.8448 37.0725 56.2873 36.5475C56.385 36.4407 56.4579 36.3137 56.5008 36.1755C56.5437 36.0373 56.5555 35.8914 56.5354 35.7481C56.5154 35.6048 56.4639 35.4677 56.3847 35.3465C56.3055 35.2254 56.2005 35.1233 56.0773 35.0475C55.1134 34.6613 54.106 34.3943 53.0773 34.2525C52.7698 34.1925 52.3948 34.0875 52.0198 34.0425C52.5373 31.7025 54.2473 25.35 55.0498 24.105ZM48.6073 59.835V58.6725C48.6748 57.2475 49.3573 53.505 49.5598 52.4775C49.8898 50.8125 49.9648 50.4375 50.9248 46.8225C50.9248 46.725 51.5023 45.1125 51.5023 45.1125C51.5127 45.0845 51.5169 45.0546 51.5148 45.0248C51.5127 44.9951 51.5043 44.9661 51.4901 44.9398C51.4759 44.9136 51.4563 44.8906 51.4325 44.8726C51.4087 44.8545 51.3814 44.8417 51.3523 44.835C51.2698 44.835 49.3198 44.355 49.1023 43.7325C48.8848 43.11 48.8398 42.36 49.3873 42.03C49.4074 42.0154 49.4238 41.9962 49.4351 41.9741C49.4465 41.9519 49.4523 41.9274 49.4523 41.9025C49.4523 41.8776 49.4465 41.8531 49.4351 41.8309C49.4238 41.8088 49.4074 41.7896 49.3873 41.775C49.1476 41.5782 48.9864 41.3021 48.9327 40.9967C48.879 40.6912 48.9365 40.3767 49.0948 40.11C49.2673 39.7575 48.3448 39.93 49.4398 37.4025C49.7173 36.78 50.6548 34.8675 51.2923 34.6575C51.8568 34.6024 52.4265 34.6663 52.9648 34.845C53.9049 34.9931 54.8289 35.2291 55.7248 35.55C55.7818 35.5806 55.8309 35.624 55.8684 35.6767C55.9059 35.7294 55.9306 35.7901 55.9408 35.854C55.951 35.9179 55.9462 35.9832 55.927 36.045C55.9077 36.1067 55.8745 36.1632 55.8298 36.21C55.5003 36.3967 55.1393 36.5213 54.7648 36.5775C52.4023 37.0425 52.8223 36.525 52.5148 37.3275C51.6123 37.2746 50.7101 37.4365 49.8823 37.8C49.5598 37.8675 49.6948 38.0775 49.9273 38.04C50.9322 37.7107 52.0068 37.6563 53.0398 37.8825C53.6391 37.992 54.225 38.1655 54.7873 38.4C55.2973 38.6072 55.75 38.9338 56.1073 39.3525C56.1711 39.5112 56.1949 39.6831 56.1766 39.8531C56.1583 40.0231 56.0984 40.1861 56.0023 40.3275C55.8223 40.605 54.9523 40.4175 54.6223 40.3275C54.1723 40.1925 53.6998 40.08 53.2573 39.9375C52.6348 39.7425 52.7023 39.69 52.5073 39.705C51.8194 39.8025 51.1466 39.9864 50.5048 40.2525C50.4867 40.2546 50.4692 40.2608 50.4538 40.2706C50.4384 40.2805 50.4255 40.2937 50.416 40.3093C50.4065 40.3249 50.4006 40.3425 50.399 40.3607C50.3973 40.3789 50.3998 40.3972 50.4063 40.4143C50.4127 40.4314 50.423 40.4467 50.4364 40.4592C50.4497 40.4717 50.4657 40.481 50.4832 40.4864C50.5006 40.4918 50.5191 40.4931 50.5371 40.4903C50.5552 40.4874 50.5723 40.4805 50.5873 40.47C51.1617 40.308 51.7488 40.1951 52.3423 40.1325C52.6798 40.1325 52.4623 40.1325 53.3098 40.47C53.6923 40.6125 54.0598 40.725 54.4648 40.86C54.7253 40.9493 54.9942 41.0121 55.2673 41.0475C55.7473 41.4975 56.0923 42.5475 55.4473 42.735C55.1939 42.7787 54.9332 42.7474 54.6973 42.645C52.9798 42.0825 54.1423 41.6775 50.4148 42.4425C50.3843 42.4463 50.3564 42.4616 50.3369 42.4853C50.3173 42.509 50.3077 42.5393 50.3098 42.57C50.3098 42.765 50.4373 42.645 52.4998 42.57C52.7492 42.5449 53.0004 42.5449 53.2498 42.57C53.8948 42.9 54.8548 43.4625 55.5973 43.245C56.5048 42.9525 56.4748 41.9475 55.8898 41.2125C55.6798 40.9575 55.6573 41.0325 55.8373 41.0025C55.9689 40.9882 56.0962 40.9469 56.2111 40.881C56.3259 40.8152 56.4259 40.7263 56.5048 40.62C56.6824 40.375 56.7818 40.082 56.7898 39.7795C56.7978 39.477 56.7142 39.1791 56.5498 38.925L57.8098 39.3C58.0593 40.4616 58.0387 41.665 57.7498 42.8175C57.6694 43.0988 57.564 43.3724 57.4348 43.635C56.8873 44.79 56.6848 44.8275 56.7523 45.045C57.7945 48.4338 58.6532 51.8763 59.3248 55.3575C56.4973 56.3475 51.3148 58.6275 48.6073 59.835ZM107.955 111.953C111.165 112.088 118.065 112.335 121.23 112.237C121.012 113.182 120.877 113.782 120.84 113.917C119.332 113.917 109.59 112.23 107.955 111.953ZM122.445 111.57C120.435 112.042 94.3423 111.022 92.1073 110.07C92.3398 108.39 94.5298 98.9475 94.9723 97.02C96.9408 97.6226 98.9887 97.926 101.047 97.92C101.797 98.31 103.035 98.985 103.777 99.3375C103.695 99.975 103.492 101.483 103.942 101.933C104.392 102.383 114.75 106.185 123.832 107.25C123.466 108.719 123.002 110.162 122.445 111.57ZM94.7323 93.5175C94.387 93.4127 94.0676 93.2364 93.7948 93C93.5998 92.79 93.6673 92.1525 93.7948 91.8525C93.8646 91.7067 93.9883 91.5937 94.1398 91.5375C94.3229 91.4579 94.5182 91.4097 94.7173 91.395C94.7769 91.3936 94.8346 91.3741 94.8828 91.339C94.9309 91.3039 94.9672 91.2549 94.9868 91.1987C95.0063 91.1424 95.0083 91.0815 94.9923 91.0241C94.9763 90.9667 94.9432 90.9155 94.8973 90.8775C94.4586 90.5079 94.153 90.0047 94.0273 89.445C94.0273 89.0325 94.1848 88.605 94.8448 88.23C95.5948 88.29 97.8448 90.15 98.8873 89.0775C99.9298 88.005 98.6998 85.4925 99.8623 85.2825C101.025 85.0725 101.61 88.5675 101.812 88.95C102.487 90.2625 104.302 91.2 105.337 92.28C104.712 94.5156 104.212 96.7841 103.837 99.075C102.337 98.2725 101.227 97.575 101.115 97.575C99.5473 97.5225 95.3398 97.0875 94.2448 95.97C94.0501 95.8196 93.9168 95.6034 93.8699 95.3618C93.8229 95.1203 93.8656 94.8699 93.9898 94.6575C94.0696 94.5165 94.1772 94.3933 94.3061 94.2953C94.4351 94.1973 94.5826 94.1266 94.7398 94.0875C94.8041 94.0718 94.8611 94.0348 94.9016 93.9825C94.9421 93.9302 94.9637 93.8657 94.9628 93.7995C94.962 93.7334 94.9387 93.6695 94.8968 93.6182C94.855 93.567 94.797 93.5315 94.7323 93.5175ZM103.087 68.5425C101.694 68.4092 100.294 68.3541 98.8948 68.3775C98.7148 68.3775 98.5648 68.4675 98.5123 68.64C98.3848 69.12 96.2623 84.72 96.1573 85.485C95.7073 77.985 95.2423 70.0875 94.8973 64.2975C97.5073 68.46 97.7323 68.8725 98.1448 68.58C99.5356 67.4363 100.851 66.2037 102.082 64.89C102.307 65.7225 102.667 67.08 103.087 68.5425ZM109.95 65.91C109.44 65.16 108.937 64.41 108.75 64.1325L111.172 58.035L109.95 65.91ZM111.697 57.3C114.534 57.885 117.3 58.7725 119.947 59.9475C119.835 60.3 118.387 64.725 116.655 70.005C115.86 69.9075 111.307 69.3525 109.905 69.2025L111.697 57.3ZM108.63 64.965L109.815 66.75L109.44 69.15L108.277 69C108.45 67.3725 108.57 65.8275 108.63 64.965ZM129.337 72.8775C129.328 73.854 129.233 74.8277 129.052 75.7875C126.48 75.1275 104.04 69.6075 101.76 70.905C100.62 71.565 96.8698 86.955 96.5098 88.3425L96.2398 88.2075C97.4248 79.875 98.9998 68.9475 98.9998 68.9175C101.557 68.625 126.195 71.415 129.337 72.8775ZM116.25 88.56C114.57 88.4475 107.902 88.1175 106.5 89.0475C106.282 89.1975 106.192 89.2275 105.42 92.0025C104.422 90.945 102.75 89.9475 102.187 88.77C101.932 88.2525 101.52 84.4725 99.7723 84.765C97.4173 85.1625 100.425 90.015 96.9448 88.515C97.1698 87.5625 100.86 71.6775 101.887 71.0925C104.062 69.855 127.785 75.8925 130.785 76.74C130.612 78.57 128.407 88.335 128.002 90.12C124.118 89.3737 120.194 88.8528 116.25 88.56ZM104.7 36.0975C105.12 36.3825 105.105 37.065 105.03 37.56C104.505 40.9125 101.145 42.945 98.8123 39.735C98.2798 38.985 97.8673 36.6 98.2273 36.075C98.4673 35.7675 100.402 35.7525 100.792 35.7525C101.512 35.76 104.325 35.8725 104.67 36.0975H104.7ZM95.7673 36.6375C95.7673 38.0475 95.2948 40.3875 94.0423 41.0625C92.0248 42.1125 89.9773 40.4475 89.9248 38.28C89.8479 37.4887 89.8858 36.6905 90.0373 35.91L90.1123 35.8725C89.9923 35.6625 95.2648 35.595 95.7373 36.0675C95.7533 36.2572 95.7533 36.4478 95.7373 36.6375H95.7673ZM98.3773 52.965C99.6748 53.34 101.767 53.16 102.772 52.1325C102.793 52.1102 102.805 52.0807 102.805 52.05C102.805 52.0193 102.793 51.9898 102.772 51.9675C102.6 51.7575 102.772 52.1625 100.822 52.455C98.8723 52.7475 97.6948 52.455 95.7223 51.1725C94.8156 50.3395 94.1367 49.2889 93.7498 48.12C92.9422 46.1418 92.4366 44.0535 92.2498 41.925C92.9557 42.0406 93.6801 41.9221 94.3123 41.5875C94.9261 41.2286 95.4015 40.6739 95.6623 40.0125C95.4093 40.8051 95.2014 41.6114 95.0398 42.4275C95.0047 42.532 94.9994 42.6442 95.0246 42.7515C95.0498 42.8588 95.1044 42.957 95.1823 43.035C95.7009 43.352 96.3115 43.4841 96.9148 43.41C96.9325 43.4145 96.9511 43.415 96.969 43.4112C96.9869 43.4075 97.0037 43.3998 97.0182 43.3885C97.0326 43.3773 97.0443 43.363 97.0523 43.3465C97.0604 43.3301 97.0646 43.312 97.0646 43.2937C97.0646 43.2755 97.0604 43.2574 97.0523 43.241C97.0443 43.2245 97.0326 43.2102 97.0182 43.199C97.0037 43.1877 96.9869 43.18 96.969 43.1763C96.9511 43.1725 96.9325 43.173 96.9148 43.1775C96.4699 43.128 96.0405 42.9848 95.6548 42.7575C95.4823 42.6375 95.5573 42.7125 95.6098 42.465C95.6623 42.2175 96.6373 38.64 96.6898 38.415C96.9223 38.415 97.8073 38.295 97.8073 38.0775C97.8073 37.86 97.1023 37.8 96.8398 37.815C96.8398 37.7175 96.8848 37.635 96.9073 37.56C96.9192 37.5302 96.9188 37.4968 96.9062 37.4673C96.8935 37.4377 96.8696 37.4144 96.8398 37.4025C96.81 37.3906 96.7766 37.391 96.7471 37.4036C96.7175 37.4163 96.6942 37.4402 96.6823 37.47C96.4198 37.98 96.5998 37.7925 96.2473 37.8825C96.3826 37.189 96.3826 36.476 96.2473 35.7825C95.8198 35.1225 93.2473 35.2725 92.4073 35.325C92.8348 32.8125 94.4998 31.575 95.5198 29.565C95.8056 29.0985 96.1863 28.6973 96.6373 28.3875C96.8623 28.3275 97.3048 28.89 97.5748 29.025C97.8448 29.16 98.0998 29.9025 98.3248 30.1575C99.0323 30.963 99.8475 31.6672 100.747 32.25C101.497 32.7825 102.667 32.865 103.177 33.5475C103.393 34.1279 103.497 34.7436 103.485 35.3625C102.517 35.3025 98.4823 35.2425 98.0023 35.9325C97.5673 36.4875 97.7548 39.0225 98.3923 39.9975C99.9973 42.4275 102.465 42.5775 104.392 40.3875C104.6 40.129 104.776 39.8471 104.917 39.5475C106.357 41.7975 107.49 43.14 107.542 45.78C107.602 49.125 106.657 54.6675 110.28 55.365L110.902 57.0825C107.902 64.6275 108.06 64.155 108.06 64.23C108.06 64.305 107.917 66.48 107.655 68.97C106.215 68.82 104.872 68.6925 103.68 68.595C103.59 68.2875 102.472 64.3125 102.495 64.23C102.607 63.855 102.045 63.12 101.61 62.4675C99.9785 60.1057 98.1974 57.8511 96.2773 55.7175L98.3773 52.965ZM95.7373 55.92C95.8648 56.115 101.265 62.055 101.925 64.2375C100.712 65.5825 99.4004 66.8359 98.0023 67.9875C97.4998 67.3275 96.1423 65.1525 94.8523 63.12C94.6198 59.1975 94.4623 56.4675 94.4248 55.8975C94.8448 55.8675 95.3173 55.89 95.7073 55.92H95.7373ZM68.9548 63.42C68.0998 61.92 66.9148 52.17 67.1923 50.67C67.1923 50.535 67.1923 50.49 67.8223 50.3175C70.5073 49.62 79.9273 48.8175 80.9173 49.155C81.6673 50.6175 83.3098 60.165 82.9198 61.635C82.1548 62.25 71.1598 63.8025 68.9248 63.42H68.9548ZM69.4798 88.095C68.6173 86.4 67.9798 75.5325 68.4073 75.12C69.0448 74.505 81.0148 73.98 82.1473 74.4225C82.8973 75.9975 83.9623 85.6725 83.5198 86.985C82.4998 87.75 71.2498 88.5 69.4498 88.095H69.4798ZM86.6023 75.525C87.1423 75.3825 90.9073 74.4225 91.3573 74.1525C91.6798 73.965 92.0473 74.5725 85.7398 57.2625C86.4898 56.5725 93.0448 55.6875 94.0798 56.01C94.0798 56.4225 95.0623 73.9275 95.8348 87.975C95.4673 87.795 94.9348 87.5175 94.5973 87.705C93.1873 88.455 93.0973 89.7 94.1398 90.915C93.9451 90.9627 93.7643 91.0554 93.6119 91.1857C93.4595 91.3159 93.3398 91.4801 93.2623 91.665C93.1421 91.9465 93.091 92.2527 93.1132 92.558C93.1354 92.8633 93.2302 93.1588 93.3898 93.42C93.5647 93.5874 93.7646 93.7266 93.9823 93.8325C93.7582 93.9827 93.5814 94.1933 93.4723 94.44C93.374 94.6525 93.3155 94.8813 93.2998 95.115L86.6023 75.525ZM105.27 122.197L95.4748 123.285C95.5198 122.925 96.6223 114.233 96.9748 111.285C99.0148 111.465 101.475 111.623 104.107 111.765C104.542 117.173 105.307 120.907 105.24 122.197H105.27ZM105.787 122.138C105.892 120.428 104.482 111.855 104.475 111.78L105.225 111.817C107.775 112.29 114.345 113.452 115.057 113.572C115.297 115.987 115.897 121.613 116.04 122.768C104.857 122.048 106.065 122.108 105.75 122.138H105.787ZM145.582 106.087C144.832 106.687 133.815 107.692 131.542 107.197C130.665 105.495 130.042 94.635 130.47 94.2225C131.115 93.6 143.085 93.09 144.202 93.525C144.907 95.0925 145.995 104.805 145.552 106.087H145.582Z" fill="#FFFCF9"/>
<path fill-rule="evenodd" clip-rule="evenodd" d="M69.4949 100.575C69.4349 100.305 69.3524 99.9151 69.1349 99.8251C68.3849 99.3751 63.4424 99.285 62.5649 99.27C62.3699 95.6925 62.0249 91.56 61.4624 90.45C61.0949 89.7 36.8549 89.625 36.0224 89.6175C36.0824 85.5825 36.0899 79.4325 36.0224 75.3675C37.0799 75.3675 42.3599 75.3675 43.0874 74.7675C44.0174 74.0175 43.3949 64.005 42.9749 62.0175C42.9149 61.7475 42.8249 61.3575 42.6149 61.2675C41.5199 60.615 29.2349 60.4575 28.3649 61.155C27.9074 61.5375 27.7349 66.225 27.7124 66.8175C25.9949 66.8175 15.3749 66.6 11.5799 66.69V60.5625C12.5624 60.5625 18.3299 60.72 19.0799 60.09C19.9874 59.34 19.6874 47.085 18.8249 46.59C17.9624 46.095 12.5774 45.9375 11.6474 45.915C11.6474 44.85 11.5649 42.165 11.5574 42.0975C15.0299 41.97 24.1799 42.2625 27.9524 42.2625C27.9524 43.44 27.8849 47.6325 28.3799 48.705C28.4999 48.96 28.9574 49.035 29.2574 49.0875C31.6424 49.5075 42.2774 49.755 43.3199 48.87C44.3624 47.985 43.6349 36.7725 43.0274 35.565C42.9871 35.4782 42.9251 35.4033 42.8474 35.3475C41.7149 34.68 29.4449 34.5975 28.5974 35.235C28.1099 35.6475 27.9449 41.0175 27.9299 41.6625C24.0974 41.6625 15.0824 41.37 11.5124 41.4975C11.5124 40.05 11.4374 38.5875 11.4374 37.1475C12.5024 37.1475 18.9374 37.05 19.7399 36.345C20.5424 35.64 19.7399 24.2775 19.0949 23.0475C19.0548 22.9604 18.9895 22.8872 18.9074 22.8375C17.7674 22.2 5.49738 22.395 4.65738 23.1C4.01988 23.655 3.90738 34.8675 4.76238 36.6C4.82128 36.6968 4.91114 36.7708 5.01738 36.81C5.87238 37.17 9.86238 37.1775 10.7999 37.1775C10.7999 40.53 10.9499 43.2525 10.9799 45.93C10.2299 45.93 5.11488 45.8175 4.54488 46.275C3.97488 46.7325 3.28488 57.9375 4.07988 59.775C4.19238 60.0225 4.64988 60.1125 4.94988 60.165C6.93756 60.4521 8.94177 60.6099 10.9499 60.6375V71.7075C10.2374 71.7075 5.35488 71.6175 4.80738 72.06C4.25988 72.5025 3.53988 83.7225 4.33488 85.56C4.44738 85.815 4.90488 85.8975 5.20488 85.9575C7.63488 86.4225 18.2249 86.8275 19.2674 85.9575C20.3099 85.0875 19.7699 73.845 19.1999 72.6525C19.1593 72.5639 19.0975 72.4866 19.0199 72.4275C18.2024 71.9325 12.5174 71.7675 11.5199 71.745V67.41C15.4049 67.3125 25.5899 67.53 27.6449 67.5375C27.6449 68.805 27.5249 73.5825 28.0649 74.745C28.1139 74.8457 28.1999 74.9236 28.3049 74.9625C29.2724 75.405 34.3049 75.495 35.3324 75.5025C35.4299 79.5825 35.4224 85.7475 35.3324 89.7525C25.2524 89.7 14.7974 89.805 12.6899 90.2325C12.4649 90.2775 12.0974 90.3525 12.0824 90.6675C12.0824 90.6675 11.6774 97.1475 11.4899 99.375C10.8224 99.375 6.43488 99.3751 5.92488 99.8251C5.41488 100.275 4.85238 111.51 5.67738 113.325C5.78988 113.573 6.24738 113.655 6.54738 113.708C8.93988 114.128 19.5674 114.375 20.6099 113.49C21.6524 112.605 20.9174 101.37 20.3174 100.185C20.3475 100.113 20.3571 100.035 20.3452 99.958C20.3333 99.8812 20.3003 99.8092 20.2499 99.75C19.3874 99.2325 13.2299 99.1876 12.2099 99.1801C12.3899 96.9301 12.7799 90.6675 12.7799 90.6675C15.3449 89.9175 58.0124 90.0075 60.9974 90.765C61.4549 91.86 61.7474 95.6175 61.9874 99.21C61.2374 99.21 55.5374 99.165 54.9449 99.66C54.3524 100.155 53.9024 111.413 54.6974 113.16C54.75 113.261 54.8382 113.338 54.9449 113.378C56.2724 113.978 68.5499 114.248 69.6299 113.325C69.8155 113.1 69.9234 112.821 69.9374 112.53C70.2899 110.25 69.9824 102.825 69.4949 100.575ZM28.7549 35.325C29.4224 34.77 41.3924 35.1675 42.5024 35.7075C42.7809 36.8913 42.9417 38.0997 42.9824 39.315C38.1749 38.8275 31.6799 39.2025 28.3649 39.315C28.3799 38.865 28.4999 35.505 28.7549 35.3025V35.325ZM28.3574 39.7275C33.8174 39.9 40.2974 39.615 43.0049 39.645C43.0874 40.9725 43.3799 47.19 42.8924 48.3375C42.3374 48.72 37.9649 48.7875 37.2974 48.795C35.6849 48.795 30.3674 48.795 28.8074 48.345C28.2674 47.0325 28.3199 41.205 28.3574 39.705V39.7275ZM4.85238 23.16C5.51988 22.575 17.5124 22.6875 18.6074 23.16C18.8535 23.996 19.0094 24.8559 19.0724 25.725C14.2275 25.5822 9.37911 25.833 4.57488 26.475C4.58238 26.205 4.63488 23.355 4.85238 23.16ZM5.24988 36.1725C4.64238 34.815 4.55988 28.5 4.57488 26.73C5.20488 26.655 18.8249 25.98 19.1024 25.98C19.2674 27.48 19.8524 34.4775 19.3274 35.79C18.3224 36.5175 7.03488 36.66 5.24988 36.1725ZM4.73238 46.32C5.41488 45.7725 17.3774 46.365 18.4799 46.92C18.7252 48.0392 18.8608 49.1796 18.8849 50.325C18.9599 50.325 8.27988 49.905 4.29738 50.0325C4.31988 49.59 4.49988 46.5 4.73238 46.32ZM18.8699 85.32C18.0449 85.86 6.98238 85.7925 4.79238 85.095C4.25238 83.7525 4.41738 77.595 4.49238 76.0275C4.56738 76.0275 14.8199 76.8225 19.1099 76.32C19.1849 77.6925 19.3874 84.15 18.8699 85.3125V85.32ZM18.6899 72.675C18.9341 73.7971 19.0722 74.9396 19.1024 76.0875C19.1774 76.0875 8.51988 75.6675 4.50738 75.7875C4.5408 74.5819 4.66869 73.3807 4.88988 72.195C4.94238 72.045 4.88988 72.015 5.56488 71.94C8.24988 71.64 17.7299 72.1875 18.6899 72.6675V72.675ZM4.57488 59.3325C4.04238 57.99 4.20738 51.8775 4.28238 50.2725C4.37238 50.2725 14.5949 51.0675 18.8999 50.565C18.9749 51.945 19.1849 58.365 18.6599 59.565C17.6474 60.225 6.38238 59.91 4.57488 59.3325ZM20.4149 104.07C20.5049 105.465 20.7899 111.668 20.3024 112.845C19.5074 113.4 8.39988 113.513 6.21738 112.845C5.67738 111.54 5.72988 105.668 5.76738 104.1C10.6049 104.288 14.9999 104.07 20.4149 104.07ZM19.9124 100.215C20.1898 101.397 20.3531 102.602 20.3999 103.815C15.6299 103.335 8.90988 103.718 5.77488 103.86C5.77488 103.388 5.91738 100.035 6.16488 99.8325C6.83988 99.2775 18.8024 99.675 19.9124 100.215ZM28.4999 61.2525C29.1899 60.675 41.1599 61.11 42.2474 61.635C42.5326 62.8662 42.6984 64.122 42.7424 65.385C39.4874 65.2125 31.3874 64.695 28.1174 65.1C28.1549 64.6725 28.2824 61.455 28.4999 61.2525ZM28.5749 74.25C28.0274 72.9375 28.0874 66.9375 28.1324 65.37C29.1899 65.265 36.8399 65.745 40.3949 65.715C41.3024 65.715 42.1199 65.6775 42.7799 65.655C42.8624 66.99 43.1399 73.0875 42.6599 74.2425C41.6774 74.94 30.3974 74.8275 28.5749 74.25ZM55.0724 99.8325C55.7474 99.2775 67.7099 99.675 68.8274 100.215C69.1023 101.399 69.263 102.607 69.3074 103.823C64.5824 103.343 57.7424 103.725 54.6899 103.823C54.6974 103.425 54.8249 100.058 55.0724 99.855V99.8325ZM69.2174 112.845C68.3999 113.4 57.2924 113.513 55.1324 112.845C54.5849 111.548 54.6374 105.653 54.6824 104.093C59.7299 104.288 63.5174 104.093 69.3224 104.093C69.4124 105.473 69.6974 111.698 69.2174 112.868V112.845Z" fill="#FFFCF9"/>
<path d="M220.642 65.9176C221.289 66.2366 221.998 66.4106 222.719 66.4276C222.76 66.423 222.799 66.4104 222.834 66.3905C222.87 66.3705 222.901 66.3438 222.926 66.3117C222.951 66.2795 222.97 66.2428 222.981 66.2035C222.991 66.1641 222.994 66.1231 222.989 66.0826C222.929 65.6101 222.397 66.0151 220.919 65.3326L220.994 64.7776C221.032 64.6201 220.844 64.3651 220.642 64.4401C220.439 64.5151 220.387 64.7551 220.327 65.1901C220.267 65.6251 220.237 65.7151 220.642 65.9176ZM142.357 68.0476C143.259 67.8023 144.107 67.3874 144.854 66.8251C145.147 66.6001 145.049 66.0751 144.967 65.7751C144.943 65.6973 144.892 65.6309 144.822 65.5886C144.753 65.5464 144.67 65.5312 144.59 65.5461C144.51 65.5609 144.439 65.6048 144.389 65.6692C144.34 65.7336 144.315 65.8141 144.322 65.8951C144.336 66.0577 144.366 66.2185 144.412 66.3751C142.634 67.6726 141.944 67.3501 142.049 67.8751C142.072 67.9351 142.116 67.985 142.172 68.0165C142.228 68.048 142.293 68.059 142.357 68.0476ZM140.317 66.6601C141.817 66.6601 141.307 65.7751 140.902 65.9101L140.324 66.0001C139.829 63.6526 140.227 63.1576 139.799 63.1426C139.735 63.1385 139.671 63.1597 139.622 63.2017C139.573 63.2438 139.542 63.3033 139.537 63.3676C139.484 64.295 139.552 65.2254 139.739 66.1351C139.822 66.5401 139.972 66.6601 140.317 66.6601ZM183.869 65.3701C184.297 65.3701 186.547 64.8826 186.929 64.8226C187.492 64.7251 188.159 64.5526 188.204 63.9451C188.204 63.5701 187.934 63.1351 187.627 63.3601C187.563 63.405 187.515 63.4699 187.492 63.5446C187.469 63.6193 187.472 63.6995 187.499 63.7726C187.612 64.0651 187.372 64.0426 183.749 64.8301C183.682 64.8507 183.626 64.8956 183.591 64.9559C183.556 65.0162 183.545 65.0874 183.56 65.1555C183.575 65.2235 183.615 65.2834 183.673 65.3231C183.73 65.3629 183.8 65.3797 183.869 65.3701ZM134.542 47.0101C134.707 47.1976 135.112 47.0101 134.992 46.7251C134.242 44.8951 132.862 42.8551 131.992 40.8451C131.857 40.5226 131.587 39.9751 131.324 39.9451C131.291 39.9405 131.258 39.9451 131.227 39.9583C131.197 39.9716 131.171 39.993 131.152 40.0201C130.987 40.2451 131.227 40.8676 131.339 41.1301C131.684 41.8726 133.357 45.6526 134.542 47.0101ZM158.857 43.8451C158.871 43.9037 158.9 43.9576 158.941 44.0014C158.982 44.0452 159.034 44.0774 159.092 44.0948C159.15 44.1123 159.211 44.1143 159.27 44.1008C159.328 44.0872 159.382 44.0586 159.427 44.0176C160.046 43.4538 160.608 42.8309 161.107 42.1576C163.357 49.3576 163.357 49.6126 163.709 49.6126C163.76 49.6112 163.809 49.599 163.855 49.5767C163.9 49.5544 163.94 49.5226 163.972 49.4835C164.004 49.4444 164.027 49.3988 164.04 49.3499C164.053 49.301 164.055 49.25 164.047 49.2001C163.207 46.5451 162.322 43.9501 161.557 41.3026C161.539 41.2368 161.503 41.1776 161.452 41.1323C161.402 41.087 161.339 41.0577 161.271 41.0481C161.204 41.0385 161.136 41.049 161.074 41.0782C161.013 41.1075 160.961 41.1543 160.927 41.2126C160.496 41.8901 159.993 42.5188 159.427 43.0876C158.977 41.0326 157.927 36.3376 157.927 36.3376C157.908 36.2621 157.86 36.1971 157.793 36.157C157.726 36.1169 157.646 36.105 157.57 36.1239C157.495 36.1428 157.43 36.1909 157.39 36.2578C157.35 36.3246 157.338 36.4046 157.357 36.4801C157.612 37.6426 158.699 43.3276 158.857 43.8451ZM119.789 82.8601C117.374 81.7051 115.222 80.5201 112.747 79.2151C112.267 78.9601 111.937 79.8376 112.687 80.0401C114.847 81.3889 117.152 82.4932 119.557 83.3326C119.857 83.4151 120.067 83.0251 119.789 82.8601ZM121.709 65.5426C121.761 65.5883 121.825 65.617 121.893 65.6251C121.962 65.6331 122.031 65.62 122.092 65.5876C122.587 65.3476 121.949 64.7551 122.189 61.1926C128.272 68.5351 127.934 68.3476 128.189 68.3476C128.242 68.3509 128.294 68.3391 128.341 68.3134C128.387 68.2878 128.425 68.2495 128.45 68.203C128.475 68.1565 128.487 68.1037 128.483 68.051C128.479 67.9982 128.461 67.9476 128.429 67.9051C127.477 66.7051 123.307 61.5226 122.197 60.1126C122.155 60.0598 122.099 60.0199 122.035 59.9979C121.971 59.9759 121.903 59.9726 121.837 59.9883C121.772 60.0041 121.712 60.0384 121.666 60.087C121.619 60.1356 121.587 60.1965 121.574 60.2626C121.422 61.6324 121.396 63.0133 121.499 64.3876C119.249 62.3701 117.097 60.2326 114.824 58.2676C114.755 58.2124 114.669 58.1832 114.581 58.1852C114.493 58.1872 114.408 58.2202 114.342 58.2784C114.276 58.3366 114.232 58.4163 114.219 58.5035C114.205 58.5907 114.223 58.6798 114.269 58.7551C115.154 60.1276 120.149 64.1251 121.709 65.5426ZM180.869 37.7251C180.869 37.7987 180.898 37.8693 180.95 37.9214C181.002 37.9734 181.073 38.0026 181.147 38.0026C181.22 38.0026 181.291 37.9734 181.343 37.9214C181.395 37.8693 181.424 37.7987 181.424 37.7251C181.553 34.9704 181.437 32.2096 181.079 29.4751C181.071 29.403 181.043 29.3346 180.997 29.2784C180.951 29.2221 180.89 29.1803 180.821 29.158C180.752 29.1358 180.678 29.1341 180.608 29.1531C180.538 29.1721 180.475 29.211 180.427 29.2651C180.089 29.7001 180.899 31.0726 180.869 37.7251ZM201.164 50.7526C206.872 41.1226 206.564 41.6026 206.519 41.4301C206.392 40.9951 206.032 41.2051 203.144 42.0751C203.894 39.4126 204.832 36.5701 205.454 33.8776C205.467 33.7906 205.447 33.7018 205.398 33.6288C205.348 33.5559 205.274 33.5039 205.188 33.4832C205.103 33.4625 205.012 33.4746 204.935 33.5171C204.858 33.5595 204.8 33.6293 204.772 33.7126C203.924 36.7126 203.084 39.6451 202.274 42.5251C202.261 42.5847 202.263 42.6466 202.281 42.705C202.298 42.7634 202.33 42.8165 202.373 42.8592C202.417 42.9019 202.47 42.9329 202.529 42.9493C202.588 42.9656 202.65 42.9668 202.709 42.9526C202.709 42.9526 204.697 42.3376 205.499 42.0751L200.707 50.4976C200.678 50.5578 200.674 50.6265 200.694 50.6898C200.715 50.7531 200.758 50.8063 200.816 50.8387C200.874 50.8711 200.943 50.8802 201.007 50.8642C201.072 50.8483 201.128 50.8084 201.164 50.7526ZM254.789 72.7501C254.399 72.5626 247.184 77.0476 247.109 77.1001C246.847 77.2876 247.109 77.7526 247.379 77.6101C247.814 77.4151 254.707 73.5826 254.939 73.1701C254.957 73.1327 254.967 73.0922 254.969 73.0508C254.971 73.0094 254.965 72.968 254.951 72.929C254.937 72.89 254.916 72.8541 254.888 72.8234C254.86 72.7927 254.827 72.7678 254.789 72.7501ZM235.694 64.1776C235.694 64.1776 242.924 58.6651 244.274 57.6151C244.567 57.3826 244.274 56.8651 243.929 56.9026C242.568 56.9351 241.213 57.0882 239.879 57.3601C241.815 55.2948 243.529 53.0325 244.994 50.6101C245.242 50.2051 244.642 49.7851 244.402 50.1976C242.749 52.893 240.783 55.3829 238.544 57.6151C238.304 57.8476 238.454 58.4176 238.844 58.3651C240.168 58.0281 241.518 57.8023 242.879 57.6901C242.879 57.6901 237.149 62.3026 235.379 63.7651C235.349 63.813 235.335 63.8687 235.337 63.925C235.34 63.9813 235.36 64.0354 235.394 64.0802C235.428 64.1249 235.475 64.1582 235.529 64.1757C235.582 64.1931 235.64 64.1938 235.694 64.1776ZM225.352 42.4651C229.957 34.5301 230.759 33.3751 229.987 33.1801C229.657 33.0976 229.672 33.1276 224.834 42.1801C224.811 42.2469 224.813 42.3195 224.838 42.3852C224.864 42.4509 224.912 42.5056 224.973 42.5396C225.035 42.5736 225.107 42.5847 225.176 42.5711C225.245 42.5575 225.307 42.52 225.352 42.4651Z" fill="#FFFCF9"/>
<path d="M246.607 91.4176C243.547 81.7651 235.814 74.3401 225.374 71.0551C225.367 70.864 225.347 70.6735 225.314 70.4851C228.164 69.2401 228.802 64.9576 228.172 61.2301C228.719 60.3376 230.174 55.7476 229.102 56.3776L227.144 57.5326C226.867 56.7826 226.544 56.0851 226.199 55.3951C226.274 54.1951 225.179 52.0501 223.252 50.6476C221.482 49.3576 218.437 48.2026 213.997 50.0476C210.532 51.4876 206.624 54.6676 206.032 59.2876C205.282 65.2876 207.269 68.1976 203.557 73.7701C199.455 71.9127 195.082 70.7227 190.604 70.2451C190.605 69.909 190.582 69.5732 190.537 69.2401C192.449 68.2726 192.854 65.1226 192.937 64.0951C195.187 62.1451 195.449 58.2601 193.687 58.1701C194.14 55.3869 194.313 52.5653 194.204 49.7476C194.107 48.0001 193.357 47.6101 193.012 47.5351C192.768 47.4891 192.517 47.5125 192.286 47.6027C192.055 47.6929 191.855 47.8462 191.707 48.0451C191.144 46.8976 190.064 47.0401 189.457 47.9101C189.397 47.6013 189.242 47.3191 189.013 47.1033C188.784 46.8876 188.494 46.7492 188.182 46.7077C187.87 46.6663 187.553 46.7238 187.276 46.8723C186.999 47.0208 186.775 47.2526 186.637 47.5351C186.491 47.2255 186.257 46.9661 185.964 46.7899C185.671 46.6136 185.332 46.5286 184.99 46.5454C184.649 46.5623 184.32 46.6804 184.045 46.8847C183.771 47.0889 183.563 47.3702 183.449 47.6926C182.699 46.0651 180.787 46.4401 180.359 48.0901C179.797 46.8226 178.259 46.8301 177.727 48.3001C176.324 47.2651 175.222 48.3001 174.997 50.0026C174.861 52.8976 174.981 55.7989 175.357 58.6726C172.814 58.1026 174.794 64.0576 176.309 64.2001C176.572 66.4501 177.502 68.9251 179.309 69.5251C179.309 69.8251 179.264 70.1326 179.264 70.4326C174.415 71.207 169.748 72.8617 165.494 75.3151C163.154 73.6651 157.949 71.4226 152.947 71.8351C152.04 69.9201 151.358 67.9067 150.914 65.8351C150.584 64.0276 151.432 63.3151 151.424 61.7551C152.395 59.7982 152.637 57.5593 152.107 55.4401C149.744 47.9401 135.472 50.7901 135.877 59.0251C135.929 59.9626 136.012 60.9001 136.094 61.6276C134.332 62.1601 134.594 62.2876 135.082 64.4326C135.344 65.6026 135.644 66.5701 136.874 66.3151C137.437 68.7526 138.854 72.6451 142.199 72.6451C142.402 72.6451 142.199 72.5176 142.387 73.7776C133.994 77.4301 123.457 84.2776 120.727 96.2776C120.067 99.1726 119.669 103.283 121.559 106.388C123.637 109.845 127.312 110.063 129.952 109.89C129.334 113.285 129.135 116.744 129.359 120.188C129.361 120.236 129.375 120.283 129.401 120.323C129.428 120.363 129.464 120.396 129.508 120.417C129.551 120.438 129.599 120.446 129.647 120.441C129.695 120.437 129.741 120.419 129.779 120.39C130.184 120.15 129.389 119.895 130.657 109.838C137.722 109.185 144.457 106.148 150.682 102.953C151.709 103.703 152.729 104.453 153.787 105.128C154.656 106.886 155.989 108.373 157.64 109.43C159.292 110.488 161.201 111.074 163.162 111.128C162.974 114.285 162.974 117.45 163.162 120.608C163.165 120.646 163.175 120.683 163.193 120.717C163.21 120.751 163.234 120.781 163.264 120.806C163.293 120.83 163.327 120.849 163.364 120.86C163.4 120.871 163.439 120.874 163.477 120.87C164.122 120.81 163.289 120.488 163.799 111.12C170.039 111.12 175.162 107.048 180.299 103.935C186.344 106.703 201.164 111.855 209.002 110.37C209.362 113.565 209.309 116.595 209.617 119.685C209.627 119.741 209.656 119.791 209.699 119.827C209.742 119.863 209.797 119.883 209.853 119.883C209.909 119.883 209.964 119.863 210.007 119.827C210.05 119.791 210.079 119.741 210.089 119.685C210.286 116.528 210.158 113.359 209.707 110.228C215.144 108.938 218.482 105.105 219.367 99.1501C219.727 98.9101 220.117 98.6401 220.522 98.3326C225.164 100.185 234.772 104.693 239.467 104.858C239.249 108.345 238.942 112.028 238.889 115.643C238.9 115.704 238.931 115.759 238.979 115.799C239.026 115.839 239.086 115.861 239.148 115.861C239.21 115.861 239.27 115.839 239.317 115.799C239.365 115.759 239.396 115.704 239.407 115.643C239.512 114.645 240.194 106.133 240.157 104.835C247.672 104.663 248.857 98.5126 246.607 91.4176ZM193.087 59.3626C193.289 59.0926 193.402 58.7776 193.694 58.8676C194.744 59.1751 193.904 61.7851 193.027 62.9476C193.102 61.7551 193.124 60.5476 193.087 59.3626ZM175.184 59.3626C175.424 59.3626 175.394 59.4676 175.934 59.5726L176.234 63.2776C175.124 62.2501 174.322 59.3776 175.184 59.3776V59.3626ZM227.294 58.6126C227.326 58.5072 227.399 58.4187 227.496 58.3667C227.593 58.3146 227.706 58.3033 227.812 58.3351C227.917 58.3669 228.006 58.4393 228.058 58.5364C228.11 58.6334 228.121 58.7472 228.089 58.8526C227.827 59.7826 227.624 60.4576 227.452 61.1026C227.407 61.1829 227.345 61.2517 227.27 61.3038C227.194 61.3558 227.108 61.3897 227.017 61.4026C226.357 61.4251 227.062 59.2876 227.294 58.5976V58.6126ZM214.672 61.6126C215.099 61.2901 215.617 61.7026 215.699 61.7101C216.404 62.1601 217.199 61.5076 216.997 61.3201L216.847 61.2001C216.292 60.7651 215.152 59.8651 215.392 59.2501C215.572 58.7851 216.307 58.8526 216.787 58.8301C216.804 58.8296 216.821 58.8252 216.836 58.8173C216.851 58.8094 216.864 58.7981 216.874 58.7844C216.884 58.7707 216.891 58.7548 216.894 58.7381C216.897 58.7213 216.896 58.704 216.892 58.6876C216.817 58.4476 216.727 58.2076 216.637 57.9376C219.471 56.5319 222.579 55.7639 225.742 55.6876C226.064 56.4376 226.342 57.1501 226.589 57.8551C225.652 58.3876 224.587 58.9726 224.339 60.0376C224.117 60.0099 223.89 60.0326 223.677 60.104C223.465 60.1754 223.27 60.2937 223.109 60.4501C221.932 59.0326 217.057 59.1526 216.074 59.1901C214.807 59.2426 218.152 61.8001 219.074 62.5201C222.172 64.9276 224.197 63.2701 223.424 61.0726C223.533 60.9398 223.675 60.839 223.836 60.7808C223.997 60.7227 224.171 60.7095 224.339 60.7426C224.367 60.8851 224.413 61.0236 224.474 61.1551C224.437 61.1366 224.396 61.127 224.354 61.127C224.313 61.127 224.272 61.1366 224.234 61.1551C223.927 61.3501 224.234 61.6126 224.939 62.8651C224.852 62.9536 224.76 63.0362 224.662 63.1126C224.377 63.3226 224.624 64.2376 225.577 63.1126C225.719 62.9401 225.449 62.4376 225.149 61.9951C225.511 62.2419 225.945 62.3611 226.383 62.3339C226.82 62.3067 227.236 62.1348 227.564 61.8451C227.892 63.8587 227.706 65.9224 227.024 67.8451C226.274 69.6826 224.392 69.7876 224.774 70.4851C224.873 72.9578 224.672 75.4334 224.174 77.8576C222.247 77.4376 218.452 72.7351 216.937 70.5526C217.094 68.7289 216.858 66.8928 216.247 65.1676C215.744 64.2976 214.747 63.9001 214.484 62.9176C214.382 62.6985 214.345 62.4544 214.378 62.2149C214.412 61.9753 214.514 61.7505 214.672 61.5676V61.6126ZM226.042 60.3601C225.959 60.6076 225.907 60.9526 225.637 60.9526C225.367 60.9526 225.232 60.6376 225.262 60.3676C225.292 60.0976 225.367 59.4751 225.652 59.3101C225.707 59.283 225.767 59.2689 225.828 59.2689C225.889 59.2689 225.95 59.283 226.004 59.3101C226.357 59.4076 226.169 59.9326 226.042 60.3151V60.3601ZM221.999 62.0851C221.917 62.2876 221.834 62.6551 221.594 62.7676C221.552 62.7882 221.506 62.7988 221.459 62.7988C221.413 62.7988 221.366 62.7882 221.324 62.7676C220.874 62.6026 221.369 60.9301 221.774 60.6076C221.81 60.5716 221.854 60.5451 221.902 60.5306C221.95 60.516 222.001 60.5139 222.051 60.5243C222.1 60.5348 222.146 60.5575 222.184 60.5904C222.222 60.6234 222.252 60.6654 222.269 60.7126C222.427 61.0576 222.044 61.9276 221.999 62.0401V62.0851ZM220.357 61.3576C220.259 61.5526 220.214 61.7326 219.959 61.7326C219.899 61.7368 219.839 61.7261 219.784 61.7017C219.729 61.6772 219.681 61.6396 219.644 61.5922C219.607 61.5449 219.582 61.4891 219.572 61.4299C219.562 61.3707 219.566 61.3098 219.584 61.2526C219.667 61.0051 219.757 60.4426 220.057 60.2926C220.104 60.2706 220.156 60.2587 220.208 60.2574C220.261 60.2562 220.313 60.2657 220.361 60.2854C220.41 60.3051 220.454 60.3345 220.49 60.3719C220.527 60.4092 220.556 60.4537 220.574 60.5026C220.679 60.7501 220.507 61.0876 220.357 61.3576ZM216.607 70.9726C218.737 74.6476 224.347 79.9726 224.782 78.1876C225.272 76.0687 225.499 73.8972 225.457 71.7226C235.732 75.3526 242.707 82.0051 245.744 90.9826C243.546 89.9332 241.13 89.4192 238.694 89.4826C238.589 87.0151 235.207 82.2451 233.909 80.8126C233.647 80.5201 233.159 80.8951 233.444 81.1876C235.39 83.3905 236.878 85.9576 237.824 88.7401C234.149 85.9726 226.747 82.1101 216.599 85.2901C213.967 80.7965 210.123 77.1344 205.507 74.7226C208.828 72.5504 212.648 71.2598 216.607 70.9726ZM177.494 54.0526C182.004 52.8216 186.743 52.6853 191.317 53.6551C191.24 54.9261 191.28 56.2015 191.437 57.4651H191.302C190.679 54.6001 186.689 53.7151 185.347 56.7151C184.661 56.4825 183.918 56.4825 183.232 56.7151C181.934 54.0151 178.177 54.8851 177.487 57.5551H177.344C177.502 56.3947 177.552 55.2222 177.494 54.0526ZM187.694 60.2251C187.829 59.8426 189.044 57.0076 189.832 56.9251C189.897 56.9243 189.962 56.9391 190.021 56.9683C190.08 56.9975 190.13 57.0403 190.169 57.093C190.208 57.1458 190.234 57.2071 190.244 57.2718C190.255 57.3365 190.25 57.4028 190.229 57.4651C189.56 58.4189 188.963 59.4217 188.444 60.4651C188.257 60.9301 187.522 60.7501 187.694 60.2251ZM186.607 59.1751C186.517 59.4001 186.112 59.5351 185.969 59.2726C185.827 59.0101 186.172 58.0126 187.147 56.5501C187.394 56.1826 187.627 56.0026 187.829 56.0326C187.895 56.0514 187.956 56.0861 188.005 56.1336C188.054 56.1811 188.091 56.2399 188.113 56.305C188.134 56.3701 188.14 56.4395 188.128 56.507C188.116 56.5746 188.089 56.6383 188.047 56.6926C187.476 57.464 186.993 58.2967 186.607 59.1751ZM180.082 60.4201C180.404 59.7151 180.764 59.0026 181.109 58.3051C181.146 58.2378 181.2 58.1817 181.266 58.1426C181.332 58.1035 181.408 58.0829 181.484 58.0829C181.561 58.0829 181.636 58.1035 181.702 58.1426C181.768 58.1817 181.822 58.2378 181.859 58.3051C181.906 58.3763 181.932 58.4598 181.932 58.5451C181.932 58.6305 181.906 58.7139 181.859 58.7851C181.529 59.4376 181.192 60.1201 180.832 60.7801C180.547 61.1551 179.857 60.8701 180.082 60.4201ZM179.174 59.4751L179.129 59.5276C178.897 59.8651 178.312 59.6476 178.469 59.2201C178.902 58.0678 179.455 56.9642 180.119 55.9276C180.442 55.5376 181.094 55.8751 180.869 56.3326C180.337 57.3976 179.684 58.3951 179.174 59.4751ZM176.497 59.5426C176.977 59.3401 177.112 58.7926 177.247 58.3201L177.404 58.2751C177.365 58.7954 177.429 59.3184 177.592 59.8139C177.756 60.3095 178.016 60.7678 178.357 61.1626C178.761 61.5599 179.268 61.8369 179.821 61.9629C180.374 62.0888 180.951 62.0588 181.487 61.876C182.024 61.6932 182.499 61.3649 182.86 60.9277C183.221 60.4905 183.454 59.9617 183.532 59.4001C183.454 60.1224 183.422 60.8488 183.434 61.5751C183.434 62.0251 183.329 62.5876 183.884 62.6251H184.634C185.024 62.6251 185.129 61.9501 184.679 61.9426H184.124C184.081 60.6063 184.153 59.2688 184.342 57.9451C184.394 57.5776 183.862 57.5251 183.787 57.8701C183.457 59.4826 183.787 58.5601 183.494 57.3676C184.018 57.1799 184.591 57.1799 185.114 57.3676C184.949 57.9689 184.917 58.5989 185.019 59.214C185.121 59.8291 185.356 60.4146 185.707 60.9301C185.974 61.2763 186.313 61.5611 186.7 61.7651C187.086 61.9691 187.513 62.0875 187.949 62.1124C188.386 62.1373 188.823 62.068 189.231 61.9094C189.638 61.7507 190.007 61.5062 190.312 61.1926C191.049 60.3704 191.441 59.2961 191.407 58.1926H191.549C191.639 58.8451 191.774 59.7451 192.464 59.6926C192.389 62.2576 192.614 66.6526 190.582 68.2576C190.319 68.4676 190.019 68.7076 189.982 68.9476C189.888 69.7423 189.888 70.5454 189.982 71.3401C190.199 73.4176 186.562 77.5276 184.679 79.2826C181.049 74.3476 180.007 73.8601 180.014 69.5326C180.014 69.0976 179.962 69.0301 179.662 68.8801C176.624 67.4101 176.902 63.1726 176.497 59.5426ZM179.302 71.0926C179.384 73.3951 181.192 76.5076 184.379 79.8601C185.024 80.7001 190.724 73.7026 190.612 72.1876V70.9201C205.964 72.7276 216.967 81.5626 218.722 93.4726C212.347 92.2201 204.292 93.6901 202.927 93.9526C202.341 90.2226 201.238 86.5926 199.649 83.1676C199.622 83.101 199.57 83.0477 199.504 83.0196C199.438 82.9915 199.363 82.9908 199.297 83.0176C199.23 83.0445 199.177 83.0967 199.149 83.1628C199.121 83.2289 199.12 83.3035 199.147 83.3701C200.526 86.7505 201.532 90.2714 202.147 93.8701C198.202 89.7151 192.202 87.8701 183.839 88.2451C178.806 88.4785 173.806 89.1891 168.907 90.3676C169.299 88.0805 170.232 85.9203 171.629 84.0676C171.66 84.0117 171.669 83.9467 171.655 83.8845C171.642 83.8223 171.606 83.7673 171.554 83.7296C171.503 83.692 171.439 83.6743 171.376 83.6799C171.313 83.6856 171.253 83.714 171.209 83.7601C169.633 85.7073 168.599 88.0355 168.209 90.5101C162.772 91.8145 157.491 93.703 152.459 96.1426C153.149 81.4501 166.732 73.5751 179.302 71.0926ZM146.774 57.2026C146.767 57.9147 146.809 58.6265 146.902 59.3326C144.202 59.4001 139.912 60.4501 136.717 61.4401C136.634 60.7801 136.447 59.5801 136.439 58.8676C139.654 57.3354 143.241 56.7576 146.774 57.2026ZM144.389 61.2301C142.889 63.7801 143.212 64.2301 142.709 64.2301C142.653 64.2335 142.597 64.2234 142.545 64.2005C142.493 64.1776 142.448 64.1426 142.413 64.0985C142.377 64.0544 142.353 64.0024 142.342 63.947C142.331 63.8916 142.334 63.8344 142.349 63.7801C143.032 61.2001 143.684 60.7201 144.014 60.6601C144.086 60.6455 144.161 60.6527 144.229 60.6809C144.297 60.7091 144.354 60.7569 144.395 60.8182C144.435 60.8796 144.456 60.9516 144.455 61.025C144.454 61.0984 144.431 61.1698 144.389 61.2301ZM142.072 61.7926C141.794 62.2501 141.727 62.8876 141.322 62.7901C140.917 62.6926 141.209 61.7776 141.449 61.2901C141.689 60.8026 141.899 60.7951 142.042 60.8326C142.122 60.8544 142.194 60.9009 142.246 60.9655C142.298 61.0301 142.329 61.1095 142.334 61.1926C142.305 61.4133 142.214 61.6212 142.072 61.7926ZM136.492 63.2926C136.409 63.4876 136.402 64.0876 135.997 64.0876C135.918 64.0907 135.84 64.0672 135.777 64.021C135.713 63.9748 135.666 63.9084 135.644 63.8326C135.605 63.3079 135.771 62.7885 136.109 62.3851C136.179 62.3228 136.267 62.2842 136.36 62.2748C136.452 62.2654 136.546 62.2856 136.627 62.3326C136.807 62.4526 136.769 62.7676 136.492 63.2701V63.2926ZM136.769 65.0401C137.452 62.5876 137.842 62.2276 138.074 62.1751C138.122 62.1641 138.172 62.1667 138.218 62.1826C138.265 62.1985 138.306 62.2271 138.337 62.2651C138.439 62.3833 138.49 62.5369 138.479 62.6926L137.489 65.2501C137.458 65.3456 137.391 65.4249 137.302 65.4706C137.212 65.5163 137.109 65.5247 137.013 65.4939C136.918 65.463 136.838 65.3955 136.793 65.3062C136.747 65.2169 136.738 65.1131 136.769 65.0176V65.0401ZM137.519 66.1726C138.959 65.7526 139.424 65.8726 139.267 63.6826C139.214 63.0601 139.094 61.6426 139.724 61.6651C140.234 61.6651 140.249 64.0351 141.007 64.7701C141.764 65.5051 142.747 64.9876 143.572 64.7701C145.822 64.1551 145.327 63.1951 145.162 60.2176L147.052 60.0676C147.899 64.4626 149.039 61.1701 149.804 60.6751C150.292 60.3676 150.712 61.0426 150.802 61.5601C150.974 62.6701 150.052 63.8851 150.247 65.5126C150.689 67.8682 151.446 70.1537 152.497 72.3076C150.854 75.4276 146.137 78.3076 144.037 79.4476C143.152 76.2376 143.077 72.0226 142.537 72.0376C140.047 72.0526 138.412 70.1701 137.489 66.1501L137.519 66.1726ZM142.454 74.4976C142.589 75.6301 143.144 80.4976 143.954 80.0926C145.994 79.1326 152.204 75.0526 153.089 72.4276C154.402 72.7276 158.497 71.9326 164.857 75.7651C160.164 78.5685 156.398 82.6892 154.027 87.6151C147.959 86.8651 140.452 85.9276 134.144 89.2576C136.072 84.7126 137.227 84.2626 136.679 83.9026C136.651 83.8832 136.619 83.8698 136.585 83.863C136.552 83.8563 136.517 83.8564 136.483 83.8634C136.45 83.8704 136.418 83.8842 136.39 83.9038C136.361 83.9234 136.338 83.9485 136.319 83.9776C136.124 84.2701 133.387 88.7926 133.319 89.7151C132.262 90.3601 130.004 92.0101 129.329 93.3076C126.572 93.3614 123.885 94.1877 121.574 95.6926C123.854 86.8651 131.062 79.5376 142.424 74.4751L142.454 74.4976ZM123.007 107.25C120.142 104.25 120.757 99.2326 121.349 96.4801C128.669 91.6726 138.344 93.7276 150.119 102.6C146.159 104.295 128.857 113.318 123.007 107.25ZM130.087 93.2926C136.042 86.7001 144.652 87.1201 153.719 88.2376C151.394 93.6001 151.192 99.2626 153.134 103.883C146.384 98.8276 138.412 93.2701 130.087 93.2701V93.2926ZM163.747 110.543C156.359 110.543 152.392 104.055 152.497 96.8551C162.997 92.1376 172.169 89.7226 182.219 89.0251C191.399 88.3876 197.579 90.0601 201.629 94.2751C181.844 98.7076 173.677 110.52 163.747 110.52V110.543ZM209.107 109.718C201.764 111.375 189.607 107.04 180.967 103.583C194.737 95.4526 207.127 92.3851 218.819 94.2076C219.742 102.585 216.292 108.09 209.107 109.718ZM219.509 98.3626C219.899 94.0258 218.982 89.6717 216.877 85.8601C224.932 83.7751 231.734 84.9901 237.644 89.5651C229.882 90.1426 222.059 96.2026 219.502 98.3626H219.509ZM239.909 104.19C235.319 104.19 225.659 99.6901 221.212 97.8751C225.967 94.2751 231.599 90.4576 238.379 90.1876C241.028 90.024 243.67 90.6033 246.007 91.8601C248.017 98.6401 247.012 104.145 239.902 104.19H239.909Z" fill="#FFFCF9"/>
</g>
<defs>
<clipPath id="clip0_56_169">
<rect width="150" height="150" rx="26" fill="white"/>
</clipPath>
</defs>
</svg>
