<svg width="134" height="144" viewBox="0 0 134 144" fill="none" xmlns="http://www.w3.org/2000/svg">
<path d="M57.9999 15.9526C58.3374 18.5851 59.9574 18.9976 59.9574 18.9976C62.6049 19.1776 61.6749 16.8151 61.6749 16.8151C58.9599 11.3776 52.3374 13.1851 52.3374 13.1851C52.3374 13.1851 57.6324 13.3201 57.9999 15.9526ZM96.3624 26.1076C100.157 20.9101 93.4224 16.9351 93.4224 16.9351C93.8658 18.9586 93.8658 21.0541 93.4224 23.0776C93.0624 28.0051 96.3624 26.1076 96.3624 26.1076Z" fill="#D9D9D9"/>
<path d="M130.75 30.8926C130.75 30.8926 123.25 11.9176 96.4151 4.26764C69.5801 -3.38236 49.2851 12.5176 49.2851 12.5176C74.9951 4.26764 79.8776 10.9201 79.8776 10.9201C79.8776 10.9201 84.2726 15.9226 88.3151 15.3151C92.3576 14.7076 89.6651 10.8151 89.6651 10.8151C99.3626 12.7501 100.953 18.4276 103.338 23.2501C105.723 28.0726 108.588 25.6051 111.318 22.8901C114.048 20.1751 116.92 23.4301 116.92 23.4301C119.36 26.8093 120.926 30.7398 121.478 34.8711C122.031 39.0024 121.552 43.2062 120.085 47.1076C115.113 60.8476 123.7 61.6576 123.7 61.6576C141.138 58.5451 130.75 30.8926 130.75 30.8926ZM107.343 19.6426C105.903 20.1001 105.175 17.5201 105.175 17.5201C105.007 17.1793 104.97 16.7887 105.071 16.4224C105.172 16.0561 105.404 15.7396 105.723 15.5326C107.373 14.7826 107.973 16.9126 107.973 16.9126C107.973 16.9126 108.783 19.2151 107.335 19.6651L107.343 19.6426ZM129.25 40.5001C129.436 40.5016 129.619 40.5479 129.783 40.635C129.947 40.7222 130.087 40.8477 130.193 41.0008C130.298 41.1539 130.365 41.3301 130.387 41.5146C130.41 41.699 130.388 41.8861 130.323 42.0601C129.933 43.5601 128.335 42.3676 128.335 42.3676C128.222 42.1917 128.156 41.9896 128.144 41.7808C128.132 41.572 128.174 41.3637 128.266 41.1758C128.358 40.988 128.497 40.8272 128.669 40.7088C128.842 40.5904 129.042 40.5185 129.25 40.5001ZM127.218 56.5951C127.218 56.5951 126.543 56.0551 127.218 54.3451C127.775 52.6055 128.184 50.8216 128.44 49.0126C129.295 46.0726 131.148 48.1576 131.148 48.1576C131.148 48.1576 132.46 50.2351 130.473 54.2551C128.485 58.2751 127.218 56.6026 127.218 56.6026V56.5951ZM47.7626 42.0001C47.7785 42.0001 47.7938 41.9938 47.805 41.9826C47.8163 41.9713 47.8226 41.9561 47.8226 41.9401C47.8226 41.9242 47.8163 41.909 47.805 41.8977C47.7938 41.8865 47.7785 41.8801 47.7626 41.8801C47.7467 41.8801 47.7314 41.8865 47.7202 41.8977C47.7089 41.909 47.7026 41.9242 47.7026 41.9401C47.7026 41.9561 47.7089 41.9713 47.7202 41.9826C47.7314 41.9938 47.7467 42.0001 47.7626 42.0001ZM54.4076 46.8751C54.3366 46.9409 54.2586 46.9987 54.1751 47.0476C54.1655 47.056 54.1588 47.0671 54.156 47.0795C54.1531 47.0919 54.1543 47.1049 54.1593 47.1165C54.1643 47.1282 54.1729 47.138 54.1838 47.1445C54.1947 47.151 54.2074 47.1538 54.2201 47.1526C55.2101 46.8826 54.2876 46.0951 54.2201 45.5701C54.2201 45.4576 53.9651 45.5701 54.5051 46.4551C54.5319 46.527 54.537 46.6051 54.5197 46.6798C54.5023 46.7545 54.4633 46.8225 54.4076 46.8751ZM55.4126 44.5576C55.3599 44.82 55.3599 45.0903 55.4126 45.3526C55.4216 45.365 55.4335 45.3751 55.4472 45.3821C55.4609 45.389 55.476 45.3927 55.4913 45.3927C55.5067 45.3927 55.5218 45.389 55.5355 45.3821C55.5492 45.3751 55.561 45.365 55.5701 45.3526C55.6045 45.1038 55.6045 44.8515 55.5701 44.6026C55.6226 44.4676 55.4276 44.4376 55.4126 44.5576ZM52.3001 44.6401C52.2379 44.9306 52.2721 45.2334 52.3976 45.5026C52.412 45.5163 52.4295 45.5262 52.4486 45.5314C52.4677 45.5366 52.4879 45.537 52.5072 45.5325C52.5265 45.5281 52.5444 45.5189 52.5593 45.5058C52.5742 45.4928 52.5856 45.4762 52.5926 45.4576C52.613 45.1814 52.5799 44.9038 52.4951 44.6401C52.4852 44.623 52.471 44.6088 52.4539 44.5989C52.4368 44.589 52.4174 44.5838 52.3976 44.5838C52.3778 44.5838 52.3584 44.589 52.3413 44.5989C52.3242 44.6088 52.31 44.623 52.3001 44.6401ZM51.4601 44.0101C51.6251 43.8526 52.3451 43.3351 52.4951 43.1926C52.6451 43.0501 52.3001 42.8476 51.3551 43.9051C51.2876 43.9726 51.3926 44.0851 51.4601 44.0101ZM55.9826 43.6801C55.8017 43.4318 55.5654 43.2289 55.2926 43.0876C55.1876 43.0426 55.1051 43.2301 55.2176 43.2751C55.3301 43.3201 56.0651 44.0926 55.9826 43.6801ZM51.7301 48.9151C51.7751 48.9676 51.8501 48.9151 51.8201 48.8476C51.5887 48.5463 51.4622 48.1776 51.4601 47.7976C52.3001 48.7201 53.2226 48.4951 52.8626 48.3976C52.3411 48.2826 51.8628 48.0226 51.4826 47.6476C51.2951 47.4676 51.1826 48.2701 51.7301 48.9151ZM47.1326 42.9001C47.1047 42.9001 47.078 42.9112 47.0583 42.9309C47.0386 42.9506 47.0276 42.9773 47.0276 43.0051C47.0276 43.033 47.0386 43.0597 47.0583 43.0794C47.078 43.0991 47.1047 43.1101 47.1326 43.1101C47.1604 43.1101 47.1871 43.0991 47.2068 43.0794C47.2265 43.0597 47.2376 43.033 47.2376 43.0051C47.2376 42.9773 47.2265 42.9506 47.2068 42.9309C47.1871 42.9112 47.1604 42.9001 47.1326 42.9001ZM47.9951 43.6876C48.0269 43.6876 48.0574 43.675 48.0799 43.6525C48.1024 43.63 48.1151 43.5995 48.1151 43.5676C48.1151 43.5358 48.1024 43.5053 48.0799 43.4828C48.0574 43.4603 48.0269 43.4476 47.9951 43.4476C47.9633 43.4476 47.9327 43.4603 47.9102 43.4828C47.8877 43.5053 47.8751 43.5358 47.8751 43.5676C47.8751 43.5995 47.8877 43.63 47.9102 43.6525C47.9327 43.675 47.9633 43.6876 47.9951 43.6876ZM48.1301 42.6826C48.1541 42.6763 48.1753 42.6622 48.1904 42.6425C48.2056 42.6228 48.2138 42.5987 48.2138 42.5739C48.2138 42.5491 48.2056 42.5249 48.1904 42.5053C48.1753 42.4856 48.1541 42.4715 48.1301 42.4651C48.1061 42.4715 48.0849 42.4856 48.0697 42.5053C48.0546 42.5249 48.0464 42.5491 48.0464 42.5739C48.0464 42.5987 48.0546 42.6228 48.0697 42.6425C48.0849 42.6622 48.1061 42.6763 48.1301 42.6826ZM49.3226 42.8476C49.3484 42.841 49.3713 42.826 49.3876 42.805C49.404 42.7839 49.4128 42.758 49.4128 42.7314C49.4128 42.7047 49.404 42.6789 49.3876 42.6578C49.3713 42.6368 49.3484 42.6217 49.3226 42.6151C49.2968 42.6217 49.2739 42.6368 49.2576 42.6578C49.2412 42.6789 49.2324 42.7047 49.2324 42.7314C49.2324 42.758 49.2412 42.7839 49.2576 42.805C49.2739 42.826 49.2968 42.841 49.3226 42.8476ZM49.5926 44.8876C49.8101 44.8126 49.5251 44.5651 49.4651 44.7601C49.4426 44.8201 49.5176 44.9176 49.5926 44.8876ZM49.2326 43.9951C49.2505 43.9951 49.2677 43.988 49.2803 43.9754C49.293 43.9627 49.3001 43.9455 49.3001 43.9276C49.3001 43.9097 49.293 43.8926 49.2803 43.8799C49.2677 43.8673 49.2505 43.8601 49.2326 43.8601C49.2147 43.8601 49.1975 43.8673 49.1849 43.8799C49.1722 43.8926 49.1651 43.9097 49.1651 43.9276C49.1651 43.9455 49.1722 43.9627 49.1849 43.9754C49.1975 43.988 49.2147 43.9951 49.2326 43.9951ZM47.0651 44.2501C47.0452 44.2501 47.0261 44.258 47.0121 44.2721C46.998 44.2862 46.9901 44.3052 46.9901 44.3251C46.9901 44.345 46.998 44.3641 47.0121 44.3782C47.0261 44.3922 47.0452 44.4001 47.0651 44.4001C47.085 44.4001 47.1041 44.3922 47.1181 44.3782C47.1322 44.3641 47.1401 44.345 47.1401 44.3251C47.1401 44.3052 47.1322 44.2862 47.1181 44.2721C47.1041 44.258 47.085 44.2501 47.0651 44.2501ZM47.8526 47.3026C47.834 47.3082 47.8177 47.3196 47.8061 47.3351C47.7946 47.3506 47.7883 47.3695 47.7883 47.3889C47.7883 47.4083 47.7946 47.4271 47.8061 47.4427C47.8177 47.4582 47.834 47.4696 47.8526 47.4751C47.8712 47.4696 47.8875 47.4582 47.899 47.4427C47.9106 47.4271 47.9169 47.4083 47.9169 47.3889C47.9169 47.3695 47.9106 47.3506 47.899 47.3351C47.8875 47.3196 47.8712 47.3082 47.8526 47.3026ZM46.8851 45.2776C46.8533 45.2776 46.8227 45.2903 46.8002 45.3128C46.7777 45.3353 46.7651 45.3658 46.7651 45.3976C46.7651 45.4295 46.7777 45.46 46.8002 45.4825C46.8227 45.505 46.8533 45.5176 46.8851 45.5176C46.9169 45.5176 46.9474 45.505 46.9699 45.4825C46.9924 45.46 47.0051 45.4295 47.0051 45.3976C47.0051 45.3658 46.9924 45.3353 46.9699 45.3128C46.9474 45.2903 46.9169 45.2776 46.8851 45.2776ZM47.9951 44.2501C47.9795 44.2459 47.9631 44.2452 47.9473 44.2483C47.9314 44.2514 47.9165 44.2581 47.9036 44.2679C47.8908 44.2777 47.8803 44.2903 47.8732 44.3048C47.866 44.3193 47.8623 44.3352 47.8623 44.3514C47.8623 44.3675 47.866 44.3835 47.8732 44.398C47.8803 44.4125 47.8908 44.4251 47.9036 44.4349C47.9165 44.4447 47.9314 44.4514 47.9473 44.4545C47.9631 44.4576 47.9795 44.4569 47.9951 44.4526C48.0173 44.4465 48.0368 44.4333 48.0508 44.4151C48.0647 44.3968 48.0723 44.3744 48.0723 44.3514C48.0723 44.3284 48.0647 44.306 48.0508 44.2877C48.0368 44.2694 48.0173 44.2562 47.9951 44.2501ZM48.8276 43.6201C48.8534 43.6201 48.8782 43.6099 48.8965 43.5916C48.9148 43.5733 48.9251 43.5485 48.9251 43.5226C48.9251 43.4968 48.9148 43.472 48.8965 43.4537C48.8782 43.4354 48.8534 43.4251 48.8276 43.4251C48.8017 43.4251 48.7769 43.4354 48.7586 43.4537C48.7404 43.472 48.7301 43.4968 48.7301 43.5226C48.7301 43.5485 48.7404 43.5733 48.7586 43.5916C48.7769 43.6099 48.8017 43.6201 48.8276 43.6201ZM38.6351 68.6101C38.642 68.5755 38.642 68.5398 38.6351 68.5051C38.5526 67.7551 37.3451 68.4001 37.8851 69.0151C37.9361 69.066 38.0016 69.1001 38.0726 69.1126C38.1445 69.1285 38.2192 69.127 38.2904 69.1084C38.3617 69.0897 38.4275 69.0544 38.4824 69.0053C38.5373 68.9562 38.5798 68.8948 38.6064 68.8261C38.6329 68.7574 38.6427 68.6834 38.6351 68.6101ZM39.5051 64.3951C39.5601 64.4498 39.629 64.4884 39.7043 64.5069C39.7796 64.5254 39.8585 64.5231 39.9326 64.5001C39.9913 64.4798 40.0451 64.4473 40.0904 64.4048C40.1358 64.3622 40.1716 64.3106 40.1957 64.2533C40.2197 64.196 40.2315 64.1343 40.2301 64.0721C40.2287 64.01 40.2142 63.9488 40.1876 63.8926C40.0526 63.3301 38.9801 63.8476 39.5051 64.3951ZM41.2376 66.9901C41.2836 66.8668 41.2836 66.731 41.2376 66.6076C40.2851 65.7751 40.3601 68.0776 41.2376 66.9901ZM34.1351 70.3726C34.6076 70.7101 35.0576 70.2451 34.6451 69.7576C34.4876 69.5701 33.5651 69.9451 34.1351 70.3726ZM38.4101 72.1501C37.4351 71.4451 37.2926 73.5601 38.3126 72.9001C38.4137 72.8066 38.4804 72.6819 38.5022 72.5459C38.524 72.4099 38.4994 72.2705 38.4326 72.1501H38.4101ZM41.3201 60.6301C41.0951 61.0951 41.8376 61.5001 42.0101 60.7801C42.0101 60.6151 42.0101 60.3976 41.6276 60.3676C41.5563 60.3765 41.4891 60.4062 41.4345 60.4528C41.3798 60.4995 41.3401 60.5611 41.3201 60.6301ZM40.7501 57.7501C40.8224 57.79 40.9056 57.8059 40.9876 57.7955C41.0695 57.785 41.1461 57.7488 41.2061 57.6921C41.2662 57.6354 41.3067 57.561 41.3218 57.4798C41.3369 57.3986 41.3258 57.3147 41.2901 57.2401C41.0651 56.8051 40.2476 57.3001 40.7501 57.7501ZM42.1676 54.5776C42.1676 55.0051 42.9626 54.9451 42.9176 54.4576C42.9171 54.4085 42.9045 54.3602 42.881 54.317C42.8574 54.2739 42.8236 54.2372 42.7826 54.2101C42.6101 54.0001 41.9726 54.1576 42.1676 54.5776ZM45.4226 50.2051C45.8501 49.9501 45.5726 49.3276 45.1601 49.5526C44.6201 49.6051 44.9351 50.4901 45.4226 50.2051ZM42.5051 46.8826C42.5084 46.8578 42.5084 46.8325 42.5051 46.8076C42.5167 46.7486 42.5133 46.6877 42.4953 46.6303C42.4773 46.5729 42.4451 46.521 42.4019 46.4793C42.3586 46.4375 42.3056 46.4072 42.2476 46.3912C42.1897 46.3752 42.1286 46.374 42.0701 46.3876C42.0089 46.4036 41.9531 46.4358 41.9087 46.4808C41.8642 46.5257 41.8326 46.5818 41.8173 46.6432C41.8019 46.7045 41.8034 46.7689 41.8215 46.8295C41.8396 46.8901 41.8736 46.9447 41.9201 46.9876C41.9488 47.049 41.997 47.0992 42.0572 47.1304C42.1174 47.1616 42.1862 47.172 42.253 47.16C42.3197 47.1481 42.3806 47.1144 42.4262 47.0642C42.4718 47.014 42.4995 46.9502 42.5051 46.8826ZM37.7501 43.5001C37.3976 43.0426 36.8276 43.6126 37.1801 43.9876C37.2119 44.0168 37.2472 44.042 37.2851 44.0626C37.5326 44.3026 38.0726 43.8751 37.7501 43.5001ZM38.2151 38.9326C38.0351 39.1051 38.0576 39.5776 38.3726 39.6151C38.4455 39.6485 38.5273 39.6572 38.6056 39.6398C38.6838 39.6223 38.7543 39.5798 38.8061 39.5186C38.8579 39.4574 38.8883 39.381 38.8927 39.3009C38.897 39.2208 38.875 39.1416 38.8301 39.0751C38.8028 39.0216 38.764 38.9746 38.7166 38.9376C38.6693 38.9005 38.6143 38.8743 38.5558 38.8607C38.4972 38.8472 38.4363 38.8466 38.3775 38.859C38.3186 38.8714 38.2632 38.8965 38.2151 38.9326ZM39.4676 34.2226C39.3866 34.1828 39.2943 34.1723 39.2065 34.1929C39.1186 34.2135 39.0406 34.2639 38.9858 34.3356C38.9309 34.4072 38.9026 34.4957 38.9057 34.5859C38.9087 34.676 38.943 34.7624 39.0026 34.8301C39.0214 34.906 39.0597 34.9756 39.1136 35.0321C39.1675 35.0887 39.2352 35.1302 39.3101 35.1526C39.3584 35.1589 39.4075 35.1555 39.4545 35.1427C39.5015 35.1298 39.5455 35.1077 39.5838 35.0777C39.6222 35.0477 39.6543 35.0104 39.6781 34.9679C39.7019 34.9254 39.717 34.8785 39.7226 34.8301C39.7388 34.7562 39.7371 34.6795 39.7175 34.6064C39.6979 34.5333 39.6611 34.466 39.6101 34.4101C39.5879 34.3319 39.537 34.2649 39.4676 34.2226ZM36.7526 36.8701C36.9326 36.2926 35.9576 36.2326 35.9576 36.7726C35.9593 36.871 35.9981 36.9651 36.0663 37.036C36.1344 37.1069 36.2269 37.1495 36.3251 37.1551C36.4181 37.163 36.511 37.1391 36.5886 37.0873C36.6663 37.0356 36.7241 36.959 36.7526 36.8701ZM36.3851 66.0601C36.7001 66.6076 37.3901 65.6251 36.5801 65.5726C36.4526 65.6551 36.2501 65.7226 36.3851 66.0601ZM54.6926 68.7076C54.7691 68.695 54.8405 68.6611 54.8986 68.6097C54.9567 68.5583 54.9992 68.4917 55.0211 68.4173C55.043 68.3429 55.0435 68.2638 55.0226 68.1892C55.0016 68.1145 54.96 68.0472 54.9026 67.9951C54.5276 67.5901 53.8976 68.6701 54.6926 68.7076ZM55.5551 63.0901C55.6451 62.9101 55.6451 62.6776 55.4201 62.6026C54.3401 62.4376 54.9026 64.0876 55.5551 63.0901ZM53.7851 58.6576C53.7113 58.6389 53.6339 58.6389 53.5601 58.6576C52.4051 59.4601 54.8876 59.7151 53.7851 58.6576ZM56.5001 57.4276C56.7701 57.1876 56.7851 56.6326 56.2601 56.6776C55.7351 56.7226 55.8701 57.8026 56.5001 57.4276ZM57.9026 60.2251C57.8956 60.176 57.8779 60.129 57.8506 60.0876C57.8234 60.0461 57.7874 60.0111 57.7451 59.9851C57.6899 59.9461 57.6239 59.9249 57.5563 59.9245C57.4886 59.9241 57.4225 59.9446 57.3668 59.983C57.3111 60.0215 57.2687 60.0762 57.2451 60.1396C57.2215 60.203 57.218 60.2722 57.2351 60.3376C57.25 60.4262 57.2995 60.5051 57.3726 60.5572C57.4458 60.6092 57.5366 60.6301 57.6251 60.6151C57.7136 60.6002 57.7926 60.5508 57.8446 60.4776C57.8966 60.4045 57.9175 60.3137 57.9026 60.2251ZM60.0476 62.5201C60.1205 62.5022 60.1855 62.4611 60.2329 62.4029C60.2803 62.3447 60.3074 62.2726 60.3101 62.1976C60.333 62.1191 60.3237 62.0346 60.2843 61.9629C60.2449 61.8912 60.1787 61.838 60.1001 61.8151C60.0215 61.7923 59.9371 61.8015 59.8653 61.8409C59.7936 61.8803 59.7405 61.9466 59.7176 62.0251C59.6051 62.1376 59.6651 62.6176 60.0476 62.5201ZM59.4176 66.0451C59.3414 66.0803 59.2802 66.1414 59.2451 66.2176C58.7951 67.7476 60.7976 66.0676 59.4176 66.0451ZM64.8551 66.3301C64.8443 66.2479 64.8042 66.1723 64.7422 66.1173C64.6803 66.0622 64.6005 66.0312 64.5176 66.0301C63.3026 66.3676 64.6451 67.5001 64.8551 66.3301ZM65.9426 61.9801C66.2651 62.1301 66.5276 61.4926 66.1451 61.3201C65.9351 61.1551 65.4851 61.5226 65.7626 61.8901C65.8087 61.9422 65.8732 61.9745 65.9426 61.9801ZM68.7926 63.1801C69.1301 63.1801 69.3476 62.4301 68.7926 62.4301C68.6351 62.4301 68.4626 62.5201 68.4251 62.8051C68.4206 62.8549 68.427 62.905 68.4438 62.952C68.4606 62.999 68.4874 63.0418 68.5223 63.0774C68.5572 63.1131 68.5995 63.1407 68.6462 63.1585C68.6928 63.1762 68.7428 63.1836 68.7926 63.1801ZM58.1426 73.5451C58.242 73.5352 58.3335 73.4861 58.3968 73.4088C58.4601 73.3314 58.49 73.2321 58.4801 73.1326C58.4701 73.0332 58.4211 72.9417 58.3437 72.8785C58.2664 72.8152 58.167 72.7852 58.0676 72.7951C57.9681 72.8051 57.8767 72.8541 57.8134 72.9315C57.7501 73.0089 57.7201 73.1082 57.7301 73.2076C57.74 73.3071 57.7891 73.3985 57.8664 73.4618C57.9438 73.5251 58.0431 73.5551 58.1426 73.5451ZM54.8201 77.8051C55.1426 78.0676 55.7726 77.5651 55.4126 77.1151C55.1651 76.6876 54.3776 77.2951 54.8201 77.8051ZM59.2226 78.9151C59.3016 78.8632 59.3604 78.7857 59.389 78.6955C59.4177 78.6054 59.4145 78.5082 59.3801 78.4201C59.3801 78.2026 58.8701 77.8651 58.7276 78.3526C58.6821 78.4239 58.6611 78.508 58.6676 78.5923C58.6741 78.6766 58.7078 78.7565 58.7637 78.8199C58.8195 78.8834 58.8945 78.927 58.9772 78.9442C59.06 78.9613 59.1461 78.9512 59.2226 78.9151ZM54.3026 72.4351C54.2126 72.3826 54.1751 72.3751 53.9501 72.4351C53.7251 72.4951 53.7026 72.7576 53.9501 72.9826C54.1976 73.2076 54.8501 72.7501 54.3026 72.4351ZM81.2051 50.4526C81.2237 50.3324 81.2127 50.2094 81.1731 50.0943C81.1336 49.9793 81.0666 49.8755 80.978 49.7921C80.8895 49.7087 80.7819 49.6481 80.6647 49.6155C80.5474 49.5829 80.424 49.5794 80.3051 49.6051C80.1544 49.6627 80.0311 49.7753 79.9601 49.9201C79.9003 49.9777 79.8543 50.0482 79.8257 50.1261C79.7971 50.2041 79.7867 50.2875 79.7951 50.3701C79.5851 51.2026 81.0026 51.4801 81.2051 50.4526ZM83.0876 52.9126C83.9726 53.5351 85.0751 52.2376 84.4901 51.4651C84.3516 51.2695 84.1504 51.1271 83.9198 51.0616C83.6893 50.9961 83.4432 51.0115 83.2226 51.1051C82.6001 51.4351 82.3376 52.5376 83.0876 52.9126ZM83.8001 57.1426C84.2801 58.2151 86.0501 56.5576 84.8726 55.8151C84.1001 55.3201 83.4251 56.5201 83.8001 57.1426ZM81.5951 61.1026C81.7271 61.1174 81.8607 61.1042 81.9872 61.0638C82.1138 61.0234 82.2304 60.9569 82.3295 60.8684C82.4285 60.7799 82.5079 60.6716 82.5622 60.5504C82.6166 60.4292 82.6449 60.298 82.6451 60.1651C82.9901 59.2501 81.9851 58.7101 81.3776 58.8601C80.4551 59.0851 80.6801 61.2151 81.5951 61.1026ZM77.5676 62.1601C77.7215 62.2793 77.9107 62.344 78.1054 62.3438C78.3001 62.3437 78.4893 62.2788 78.643 62.1594C78.7968 62.04 78.9065 61.8728 78.9549 61.6842C79.0032 61.4956 78.9875 61.2963 78.9101 61.1176C78.4826 60.1201 77.1101 60.5326 77.2826 61.7101C77.3397 61.881 77.4375 62.0355 77.5676 62.1601ZM75.2501 58.6801C75.1571 58.6703 75.0631 58.6799 74.974 58.7083C74.8849 58.7367 74.8027 58.7833 74.7326 58.8451C74.3426 59.1901 74.3351 60.1426 74.9276 60.2476C75.6776 60.5551 76.3676 59.3701 75.7301 58.8751C75.5904 58.7684 75.4247 58.701 75.2501 58.6801Z" fill="#D9D9D9"/>
<path d="M73.3373 108.953C69.3698 108.503 65.1623 108.158 61.2323 109.103L54.8798 94.9651C56.3798 92.7601 57.3098 89.3101 57.9473 86.2951C61.1798 86.7451 64.4348 85.4776 63.2948 82.4476C62.6123 80.6701 61.4948 78.8476 60.9623 77.0176C60.4085 75.0021 60.1905 72.909 60.3173 70.8226C60.6916 70.9705 61.086 71.0615 61.4873 71.0926C62.9273 71.1901 64.0373 70.3426 65.0798 69.4801C67.5186 67.4235 69.5271 64.9053 70.9898 62.0701C70.83 61.6771 70.642 61.2961 70.4273 60.9301C71.1003 60.6922 71.7308 60.3478 72.2948 59.9101C72.5798 63.7351 75.9323 66.0976 78.4223 65.6476C81.9098 65.0251 84.1673 62.7376 86.3423 59.9176C87.4088 58.6564 88.1138 57.1299 88.3823 55.5001C88.7198 52.7701 88.2623 48.9451 85.6073 47.4601C84.9267 47.0892 84.1674 46.8861 83.3925 46.8679C82.6176 46.8496 81.8496 47.0167 81.1523 47.3551C79.5078 48.05 78.1981 49.3571 77.4998 51.0001C76.1948 48.9301 71.6123 50.3401 72.8498 54.7501C71.9995 55.0725 71.269 55.6485 70.7573 56.4001C70.4585 56.8249 70.1275 57.2261 69.7673 57.6001C69.4673 57.8701 69.0848 58.0201 68.7698 58.2751C68.7099 58.2276 68.657 58.1721 68.6123 58.1101H68.5148C66.2892 59.4333 64.2145 60.995 62.3273 62.7676C60.5498 59.0926 57.5723 54.1876 54.2498 52.0651C54.2048 51.3676 54.1448 50.5651 54.1523 50.5651C55.1198 50.0101 56.4023 49.9051 56.8148 47.5651C57.1048 45.6838 56.9975 43.7625 56.4998 41.9251C58.5623 41.1751 58.9673 38.2801 58.4123 38.8801C58.1484 39.2084 57.7761 39.4318 57.3623 39.5101C57.94 38.7908 58.2364 37.8859 58.1964 36.9642C58.1564 36.0425 57.7826 35.1667 57.1448 34.5001C57.1183 34.4677 57.0821 34.4447 57.0415 34.4345C57.0009 34.4243 56.9581 34.4274 56.9194 34.4434C56.8807 34.4594 56.8482 34.4874 56.8267 34.5232C56.8051 34.5591 56.7957 34.601 56.7998 34.6426C56.8856 35.1247 56.7897 35.6215 56.5307 36.037C56.2717 36.4526 55.8679 36.7574 55.3973 36.8926V36.0601C55.3986 36.0294 55.3894 35.9991 55.3712 35.9743C55.3529 35.9494 55.3267 35.9316 55.2969 35.9237C55.2672 35.9158 55.2356 35.9184 55.2075 35.9309C55.1793 35.9435 55.1563 35.9652 55.1423 35.9926C54.9408 36.3351 54.6732 36.634 54.3552 36.8722C54.0372 37.1104 53.675 37.2831 53.2898 37.3801C53.3936 37.0223 53.4787 36.6593 53.5448 36.2926C53.5484 36.2532 53.5412 36.2135 53.524 36.1779C53.5067 36.1422 53.4801 36.112 53.4469 36.0903C53.4137 36.0687 53.3752 36.0566 53.3356 36.0552C53.2961 36.0539 53.2569 36.0634 53.2223 36.0826L51.5123 37.1176C51.5123 37.1176 51.7823 36.4276 50.9648 36.4876C50.9648 36.4876 48.3023 38.9626 47.3498 38.9101C46.6673 38.9101 46.3748 40.1551 47.4623 41.1601C45.4598 42.6601 46.0448 46.7626 47.9798 48.1351C47.4923 48.8851 47.4173 48.9676 47.5223 48.9901C47.7908 49.0792 48.0718 49.1248 48.3548 49.1251C48.0377 49.2115 47.7346 49.3428 47.4548 49.5151C45.533 47.1497 43.4505 44.9194 41.2223 42.8401C41.0498 37.5226 40.8623 32.6251 40.3973 32.4526C40.2699 32.4086 40.1395 32.3735 40.0073 32.3476C40.4498 30.9076 40.0073 28.8601 38.5073 28.2226C43.9673 22.1476 44.6798 21.9676 44.4098 20.8426C45.3923 21.4651 46.6598 20.7601 47.2673 19.9351C49.8698 18.9751 49.4348 12.9601 48.6323 13.7776C48.3323 14.0851 48.5498 15.1951 46.8848 15.2401C45.9473 15.2401 44.9423 14.9176 44.4473 15.3526C42.5723 15.4501 41.8673 18.5176 42.7823 19.7551C42.48 19.8145 42.1937 19.9372 41.9423 20.1151L36.6398 27.0001C36.4448 27.0001 35.5898 26.4751 35.3648 27.3301C35.3174 27.5096 35.3174 27.6982 35.3648 27.8776C35.1422 27.7949 34.8973 27.7949 34.6748 27.8776C34.5139 27.9244 34.3734 28.0237 34.2755 28.1596C34.1777 28.2955 34.1281 28.4603 34.1348 28.6276C34.1299 28.7514 34.1612 28.8739 34.2248 28.9801C34.1156 28.991 34.0132 29.0383 33.9343 29.1146C33.8553 29.1908 33.8044 29.2914 33.7898 29.4001C33.764 29.5423 33.7695 29.6884 33.8057 29.8282C33.842 29.9681 33.9082 30.0984 33.9998 30.2101L27.7223 37.0426C27.7223 37.0426 26.8448 38.0101 27.3173 38.4826C27.3173 38.4826 27.7748 38.9401 28.8173 37.8976L35.8748 31.3501C35.8762 31.5723 35.9366 31.7901 36.05 31.9813C36.1633 32.1724 36.3255 32.3299 36.5198 32.4376C36.3314 32.444 36.1436 32.4615 35.9573 32.4901C35.9123 32.4901 35.9573 32.5651 35.9573 32.5651C40.2548 32.4376 40.3748 32.6476 40.3973 32.6401C40.4573 34.3051 41.0873 41.0776 41.0198 42.7951C41.0167 42.8125 41.0167 42.8303 41.0198 42.8476C41.0198 43.0126 44.5373 46.3501 47.2673 49.5976C46.391 50.2696 45.6654 51.1179 45.1373 52.0876C43.0448 55.5526 42.2873 66.1276 42.2498 69.6151C41.6498 75.0676 37.7498 76.2976 36.5198 74.8126C35.6128 73.7942 34.6079 72.8672 33.5198 72.0451C32.7248 71.1451 31.4573 69.8926 30.4673 70.2451C32.1473 68.6701 35.1098 67.9951 36.9173 64.3651C39.8048 58.5526 39.6473 50.7676 39.3473 54.1201C36.8412 51.1912 35.1946 47.6258 34.5897 43.8188C33.9847 40.0118 34.4451 36.1117 35.9198 32.5501C35.9198 32.4751 35.8148 32.4151 35.7848 32.4976C30.3398 44.8576 39.2498 54.3076 39.2873 54.3826C39.0784 56.3449 38.6969 58.2849 38.1473 60.1801C36.0998 67.5001 34.2023 67.0426 30.7373 69.6826C30.2403 69.995 29.8443 70.4444 29.5968 70.9767C29.3493 71.5089 29.2609 72.1013 29.3423 72.6826C19.5098 76.4326 21.4898 84.9226 21.4898 84.9226L24.1223 101.333C16.3523 104.393 8.67977 107.685 1.13477 111.27C1.08227 111.27 1.09727 111.405 1.17227 111.398C6.77477 110.933 12.1373 112.38 17.0723 114.855C15.6942 115.21 14.3473 115.677 13.0448 116.25C11.7473 116.76 10.4648 117.323 9.20477 117.923C6.5187 119.219 3.93831 120.723 1.48727 122.423C1.38227 122.423 1.42727 122.595 1.48727 122.573C5.76227 121.823 8.91977 121.283 13.0223 121.703C8.99477 123.87 0.827266 128.4 0.759766 128.4L1.24727 130.268H33.0923C33.0923 130.268 33.6923 127.973 35.3798 130.568C35.3798 130.568 48.6323 132.495 63.3923 143.22V141.053C63.3923 141.053 52.8923 131.82 34.4423 128.49C39.8798 128.22 45.5948 127.38 50.9423 128.993C59.1548 131.483 65.0123 135.743 65.2598 135.548C74.6198 126.915 71.3723 130.343 80.4248 122.273C81.6469 122.818 82.8989 123.294 84.1748 123.698C83.1248 124.388 74.6048 130.103 63.6623 140.948L63.7823 143.235C63.7823 143.235 75.3848 130.553 84.2798 125.085C84.2798 125.085 84.2798 123.585 84.2348 123.585C83.0123 123.113 81.7673 122.588 80.4848 122.22C83.0948 119.91 84.0848 119.693 83.6798 119.52C82.0133 118.678 80.2889 117.957 78.5198 117.36C80.8898 115.433 85.9373 111.57 85.8173 111.525C80.8823 109.755 80.4998 109.77 73.3373 108.953ZM44.2748 15.5251C44.1758 15.6661 44.1144 15.83 44.0965 16.0013C44.0785 16.1726 44.1046 16.3457 44.1721 16.5041C44.2397 16.6626 44.3466 16.8011 44.4827 16.9067C44.6188 17.0123 44.7795 17.0815 44.9498 17.1076C46.3523 17.1076 44.7623 17.9326 44.7023 18.1051C44.6817 18.1956 44.6928 18.2905 44.7337 18.3737C44.7747 18.457 44.843 18.5237 44.9273 18.5626C45.3548 18.7651 45.7223 18.3451 46.0823 18.2626C46.3073 18.2101 46.5923 18.3151 46.6148 18.5401C46.6373 18.7651 46.3148 18.9601 46.2023 19.2076C46.157 19.3247 46.154 19.4539 46.1937 19.573C46.2334 19.6921 46.3133 19.7936 46.4198 19.8601C46.5501 19.9413 46.7012 19.983 46.8548 19.9801C46.5745 20.3585 46.1731 20.6296 45.7174 20.7483C45.2617 20.867 44.7791 20.8262 44.3498 20.6326C44.2713 20.3557 44.1024 20.1129 43.8699 19.9431C43.6375 19.7732 43.355 19.6859 43.0673 19.6951C42.4448 19.0876 42.0023 16.2976 44.2748 15.5251ZM36.3173 27.0751C36.401 27.1021 36.4862 27.1246 36.5723 27.1426C36.9473 27.3451 36.9173 27.9601 36.8948 28.1701C36.6473 28.1701 36.5648 28.4551 36.5348 28.6501C36.1823 28.5526 36.0398 28.5901 35.7848 28.2151C35.7329 28.1498 35.6877 28.0795 35.6498 28.0051C35.3123 27.4201 35.5823 26.8201 36.3173 27.0751ZM34.7498 28.0051C35.0097 27.9598 35.2772 28.0133 35.4998 28.1551C35.5862 28.3462 35.7268 28.5077 35.9041 28.6196C36.0814 28.7316 36.2876 28.7891 36.4973 28.7851C36.4874 28.9027 36.5054 29.0209 36.5498 29.1301C36.4817 29.2639 36.3711 29.3712 36.2352 29.435C36.0994 29.4989 35.9462 29.5156 35.7998 29.4826C35.5544 29.507 35.3067 29.4766 35.0745 29.3936C34.8424 29.3106 34.6315 29.1771 34.4573 29.0026C34.3925 28.9234 34.348 28.8295 34.3277 28.7292C34.3074 28.6288 34.3118 28.525 34.3406 28.4268C34.3694 28.3286 34.4217 28.2388 34.493 28.1654C34.5643 28.0919 34.6524 28.0369 34.7498 28.0051ZM34.1498 30.1726C34.0286 30.0321 33.9574 29.8554 33.9473 29.6701C33.9473 29.4226 34.0373 29.0551 34.3598 29.1526C34.5355 29.3241 34.7449 29.4572 34.9747 29.5437C35.2044 29.6302 35.4496 29.6681 35.6948 29.6551C35.6457 29.8048 35.5623 29.9409 35.4514 30.0527C35.3405 30.1645 35.205 30.2489 35.0557 30.2992C34.9064 30.3494 34.7475 30.3641 34.5915 30.3422C34.4356 30.3202 34.2869 30.2622 34.1573 30.1726H34.1498ZM39.8423 32.2876L36.7373 32.3701C36.5163 32.2838 36.3235 32.1378 36.1805 31.9485C36.0375 31.7591 35.9499 31.5338 35.9273 31.2976L37.2623 30.0676C37.5548 30.8176 38.5823 30.8176 38.2673 30.6751C37.9523 30.5326 37.4723 30.4501 37.3673 29.8801C37.3566 29.7501 37.3969 29.621 37.4798 29.5201C37.226 29.4321 36.9861 29.3084 36.7673 29.1526C36.6669 29.0143 36.6241 28.8424 36.6478 28.6732C36.6716 28.5039 36.7601 28.3505 36.8948 28.2451H38.3348C39.9323 29.1526 39.9998 30.6076 39.8498 32.2876H39.8423ZM61.3448 112.373C61.5152 112.946 61.7231 113.507 61.9673 114.053C61.2357 114.752 60.378 115.307 59.4398 115.688C58.4648 114.548 58.6898 114.795 58.4648 114.525C59.503 113.919 60.4692 113.197 61.3448 112.373ZM61.7723 117.54C61.1798 118.08 58.7723 120.12 58.0223 120.54C57.7223 120.323 58.0223 119.603 58.1198 119.363C58.7198 118.328 59.1548 118.41 59.2073 115.845C60.1148 115.778 61.8623 114.443 62.2073 114C62.6638 114.819 63.0261 115.687 63.2873 116.588C63.1598 116.67 62.9948 116.775 62.8898 116.858C62.7694 116.542 62.5914 116.253 62.3648 116.003C62.2523 115.868 62.0948 115.658 61.8923 115.755C61.6898 115.853 61.6223 116.235 61.5998 116.415C61.5693 116.797 61.6204 117.18 61.7498 117.54H61.7723ZM62.8898 84.4951C62.1398 86.1976 59.6498 86.1601 58.0298 85.9201C58.5173 83.5501 58.7423 81.8851 58.7798 81.4201C60.5123 81.6151 63.0848 82.6051 62.8898 84.4951ZM73.3898 51.2626C74.3198 50.1301 76.4798 49.6651 77.3273 51.1276C77.3333 51.1413 77.3426 51.1533 77.3544 51.1624C77.3662 51.1716 77.3801 51.1777 77.3948 51.1801C77.4005 51.1912 77.409 51.2004 77.4196 51.2068C77.4302 51.2133 77.4424 51.2167 77.4548 51.2167C77.4672 51.2167 77.4793 51.2133 77.4899 51.2068C77.5005 51.2004 77.5091 51.1912 77.5148 51.1801C80.2148 45.6976 88.2548 44.8951 88.1498 54.5326C88.1498 57.5326 86.1698 59.8951 84.2273 61.9801C76.7273 70.0051 70.3823 62.1901 73.0673 56.5501C73.0782 56.5211 73.0782 56.4891 73.0673 56.4601C73.4787 56.2306 73.9286 56.0781 74.3948 56.0101C74.0573 57.6376 76.9523 57.7276 77.1848 55.8226C77.2219 55.4441 77.1282 55.0643 76.9195 54.7463C76.7107 54.4284 76.3994 54.1915 76.0373 54.0751C75.7091 53.996 75.3629 54.0503 75.0747 54.226C74.7865 54.4018 74.5797 54.6847 74.4998 55.0126C74.041 54.7006 73.4797 54.577 72.9323 54.6676C72.8048 53.4901 72.6173 52.2526 73.4273 51.2626H73.3898ZM74.5523 55.1101C74.6409 54.8108 74.8447 54.559 75.119 54.4099C75.3932 54.2608 75.7154 54.2267 76.0148 54.3151C76.2806 54.407 76.5132 54.5758 76.6828 54.8002C76.8524 55.0246 76.9514 55.2943 76.9673 55.5751C77.0198 57.0751 74.3798 57.6976 74.4623 56.0176H74.5373C74.5973 56.0176 74.6798 55.9201 74.6873 55.8976C74.7463 55.7704 74.7684 55.6291 74.7512 55.4899C74.734 55.3507 74.678 55.2192 74.5898 55.1101H74.5523ZM70.6373 56.6626C71.1198 55.9446 71.7748 55.3592 72.5423 54.9601C73.1198 54.7051 74.7923 54.7276 74.4998 55.8301C73.9529 55.8542 73.4277 56.0512 72.9998 56.3926C72.7448 56.3926 72.1973 58.2901 72.2498 59.7151C71.6423 60.1276 70.9748 60.4651 70.3673 60.8701C68.1098 56.6026 68.3423 59.5801 70.6748 56.6626H70.6373ZM56.3873 41.9551C57.3398 49.2451 56.0798 49.3501 54.0323 50.3551C54.0159 50.3636 54.0023 50.3766 53.993 50.3925C53.9837 50.4085 53.9791 50.4267 53.9798 50.4451C53.9717 51.2869 54.0143 52.1285 54.1073 52.9651C53.3291 53.8695 52.487 54.7167 51.5873 55.5001C50.0637 54.3914 48.9506 52.8089 48.4223 51.0001C48.5253 50.3654 48.5455 49.72 48.4823 49.0801C48.9473 49.0801 49.4348 49.0126 49.8398 48.9901C49.9223 48.9901 49.9598 48.8176 49.9523 48.8026C49.6735 48.0176 49.3141 47.2635 48.8798 46.5526C48.8798 46.6276 48.7298 46.8151 48.6923 46.8901C48.6854 46.8862 48.6777 46.8841 48.6698 46.8841C48.6619 46.8841 48.6541 46.8862 48.6473 46.8901C47.3048 46.8901 47.0723 44.9401 48.2798 44.8726C49.0298 44.8276 49.0298 45.6601 49.5773 45.8851C49.5843 45.8885 49.592 45.8902 49.5998 45.8902C49.6076 45.8902 49.6152 45.8885 49.6223 45.8851C49.9898 45.9751 50.2973 45.6451 50.3723 45.2551C50.4698 44.6026 49.8098 43.7551 50.4998 42.5401C53.0273 43.0276 54.8348 42.3451 56.3948 41.9551H56.3873ZM47.5373 41.1526C48.3594 41.787 49.3124 42.2302 50.3273 42.4501C49.7348 43.2976 50.2598 44.4001 50.2598 44.9101C50.2498 45.0991 50.1786 45.2797 50.0568 45.4245C49.935 45.5693 49.7692 45.6705 49.5848 45.7126C49.2473 45.3901 49.1498 44.9101 48.6698 44.7301C48.4619 44.6567 48.236 44.6521 48.0253 44.7169C47.8146 44.7817 47.6304 44.9126 47.4998 45.0901C47.3912 45.2853 47.3368 45.5059 47.3421 45.7291C47.3475 45.9524 47.4124 46.1701 47.5302 46.3598C47.648 46.5495 47.8144 46.7043 48.0121 46.8081C48.2099 46.9119 48.4317 46.9609 48.6548 46.9501C48.4748 47.2876 48.2723 47.6026 48.0698 47.9251C47.1675 47.0571 46.615 45.8882 46.5168 44.6401C46.4187 43.3919 46.7818 42.151 47.5373 41.1526ZM47.6573 48.8326C48.1191 48.2253 48.5376 47.5862 48.9098 46.9201C49.0148 47.1901 49.5698 48.4201 49.7498 48.7426C49.3673 48.7501 47.9648 48.7876 47.6573 48.8326ZM48.3323 49.2826C48.3323 49.4626 48.1523 50.9176 48.3323 51.0226C48.5226 51.9777 48.902 52.885 49.4481 53.6913C49.9942 54.4976 50.696 55.1865 51.5123 55.7176C52.564 54.9706 53.4883 54.0589 54.2498 53.0176C54.263 53.01 54.2741 52.9991 54.282 52.986C54.2899 52.9729 54.2943 52.9579 54.2948 52.9426C54.2948 52.8076 54.2948 52.5301 54.2498 52.1926C57.8048 55.3801 59.0948 56.7751 62.1548 62.8201C62.2073 62.9176 62.3273 62.8651 62.3423 62.7751C64.4273 61.2751 66.3023 59.4826 68.5298 58.1551C69.2798 59.4601 70.0298 60.7051 70.7798 62.0176C69.0098 65.2501 65.2973 69.9601 62.6948 70.7701C60.8798 71.3326 58.8248 69.8176 58.2398 69.2701L58.1948 69.3151C58.7516 69.9511 59.4366 70.4623 60.2048 70.8151C59.5823 73.6726 60.6098 76.8901 61.6298 79.5151C62.1398 80.8201 63.2873 82.5151 63.0473 84.0151C62.8523 81.9301 60.2198 80.5126 50.5898 79.9801L51.2498 75.0001C51.7148 72.5926 50.7548 69.4951 50.9873 63.8626C51.3248 55.8751 53.5673 55.1401 55.1948 53.2126C55.2007 53.2072 55.2055 53.2007 55.2089 53.1934C55.2122 53.1862 55.2142 53.1783 55.2145 53.1703C55.2149 53.1623 55.2136 53.1543 55.2109 53.1467C55.2081 53.1392 55.2039 53.1323 55.1985 53.1264C55.1931 53.1205 55.1866 53.1157 55.1793 53.1123C55.172 53.1089 55.1642 53.107 55.1562 53.1067C55.1482 53.1063 55.1402 53.1075 55.1326 53.1103C55.1251 53.113 55.1182 53.1172 55.1123 53.1226C52.6748 55.3201 51.3623 56.5576 50.8598 62.5126C50.4173 67.6126 51.3248 71.5876 51.1223 74.3101L42.4073 69.6676C42.9998 60.7051 43.1948 51.5701 48.3323 49.2826ZM29.9273 70.8076C30.9773 69.8851 31.9748 70.8076 32.8598 71.6776C31.7335 71.9062 30.6256 72.217 29.5448 72.6076C29.4666 72.2983 29.4604 71.9752 29.5267 71.6632C29.593 71.3511 29.73 71.0584 29.9273 70.8076ZM32.0198 86.3776C35.3873 86.0626 41.5073 83.7301 41.5073 83.7301C41.5073 83.7301 41.7323 77.2276 42.0023 76.7551C42.2723 76.2826 42.2273 76.7551 42.2273 76.7551C40.8773 96.5401 46.1123 102.188 46.1123 102.188L53.4998 111C52.9704 111.174 52.452 111.379 51.9473 111.615C50.041 108.164 47.5893 105.044 44.6873 102.375C43.3103 101.097 41.8019 99.9682 40.1873 99.0076C38.5748 98.0701 36.7298 97.1851 34.8248 97.3276C34.7723 97.2376 34.9673 97.1851 31.1573 98.6101L32.0198 86.3776ZM1.68977 122.378C4.09373 120.81 6.59926 119.405 9.18977 118.17C10.5773 117.51 11.9948 116.903 13.4273 116.355C14.7098 115.86 16.0748 115.515 17.3273 114.968C23.5068 118.206 29.0286 122.568 33.6098 127.83C29.4548 124.83 24.1148 123.728 19.2098 122.58C12.7523 121.058 9.13727 120.87 1.68977 122.408V122.378ZM1.32977 128.378C1.40477 128.34 13.3748 121.815 13.4348 121.74C17.5373 122.213 28.8323 124.59 33.9023 128.393C33.2498 128.393 20.4998 127.74 1.32977 128.415V128.378ZM1.50227 111.195C8.94227 107.695 16.4898 104.445 24.1448 101.445L24.5648 104.04L25.5848 104.078C25.7014 104.748 25.89 105.405 26.1473 106.035C25.7723 106.035 25.5323 106.785 24.8648 107.535C24.4053 107.951 23.9024 108.315 23.3648 108.623C22.7048 109.103 22.8848 109.62 23.6048 109.853C24.8573 110.25 26.5148 109.508 27.6623 109.103C27.7948 108.689 27.9578 108.285 28.1498 107.895C28.5773 107.49 28.6523 108.75 28.6373 108.938C28.9713 108.997 29.3118 109.013 29.6498 108.983C29.8292 107.948 29.7857 106.887 29.5223 105.87H29.3648C29.4522 105.335 29.4973 104.793 29.4998 104.25L30.7298 104.295L31.1198 98.8201C34.7498 97.5001 34.7498 97.5676 34.8173 97.5001C38.6723 97.5826 42.3173 100.5 44.9573 103.02C47.6153 105.602 49.9022 108.54 51.7523 111.75C48.7523 113.25 46.3148 115.763 43.8623 117.953C40.2687 121.031 37.0128 124.483 34.1498 128.25C26.4998 119.25 13.2698 109.785 1.50227 111.233V111.195ZM27.6473 108.945C26.6422 109.28 25.6112 109.531 24.5648 109.695C24.2348 109.695 22.6073 109.695 23.4248 108.705C24.5904 108.184 25.5263 107.256 26.0573 106.095C27.1953 106.264 28.3558 106.203 29.4698 105.915C29.4698 106.59 29.5523 106.088 29.5298 108.833C29.3092 108.83 29.0886 108.842 28.8698 108.87C28.9523 107.348 27.9548 107.168 27.6473 109.005V108.945ZM29.2373 105.848C28.2637 105.986 27.2805 106.046 26.2973 106.028C26.2973 106.028 25.9673 104.715 25.7798 104.078L29.3798 104.205C29.2973 104.798 29.2298 105.893 29.2373 105.908V105.848ZM83.4173 119.595C80.1998 121.658 77.6423 124.62 74.6423 126.96C71.266 129.492 68.1029 132.297 65.1848 135.345C60.6382 132.637 55.8128 130.426 50.7923 128.753C46.6073 127.47 38.5373 127.658 34.5098 128.325C39.8423 126.075 43.5473 125.76 48.8573 126.323C54.1673 126.885 57.8048 127.725 62.5298 130.823C62.8448 131.033 68.0048 125.82 78.3923 117.375C80.1023 118.11 81.7523 118.905 83.4173 119.655V119.595ZM85.4798 111.57C77.6423 117.645 69.9923 123.923 62.7323 130.673C62.7284 130.656 62.7211 130.641 62.7107 130.628C62.7003 130.615 62.6872 130.605 62.6723 130.598C58.4798 127.808 53.8148 126.638 48.8573 126.098C43.6073 125.543 39.5948 125.843 34.3073 128.22C37.152 124.696 40.261 121.394 43.6073 118.343C48.9398 113.468 50.6273 112.11 53.6423 111.12L56.9123 115.035C57.3935 114.941 57.8567 114.772 58.2848 114.533L59.3198 115.665C59.2823 115.665 59.0948 115.71 59.0948 115.778C58.8998 118.26 58.9598 117.615 57.9698 119.355C57.8226 119.565 57.7527 119.819 57.7718 120.075C57.7909 120.331 57.898 120.572 58.0748 120.758C58.1198 120.758 61.9823 117.578 61.9673 117.555C61.9523 117.533 61.5098 115.965 62.0273 115.935C62.4098 115.935 62.8898 116.955 62.9273 116.94C63.1019 116.869 63.264 116.77 63.4073 116.648C63.1978 115.633 62.801 114.667 62.2373 113.798C62.2373 113.798 62.0948 113.858 62.0723 113.88C61.8848 113.31 61.6898 112.74 61.4723 112.178C61.9748 111.713 62.2898 111.383 62.2898 111.383L61.2848 109.133C65.2794 108.548 69.3363 108.525 73.3373 109.065C80.1923 109.943 80.8148 109.935 85.4798 111.63V111.57Z" fill="#D9D9D9"/>
<path d="M115.225 77.2051V77.1601H115.172C115.155 77.1576 115.137 77.1614 115.121 77.1711C115.106 77.1807 115.095 77.1954 115.09 77.2126L106.187 82.1926C105.782 84.2626 106.262 84.1351 105.557 91.8976C104.912 92.6926 104.507 93.8326 102.212 94.6876C100.927 95.0683 99.6726 95.5498 98.4624 96.1276C96.8874 97.0201 96.4749 98.6701 98.0574 99.8776C98.024 99.9011 97.9937 99.9288 97.9674 99.9601L97.7424 100.088C97.7123 100.109 97.6891 100.139 97.6759 100.173C97.6626 100.208 97.6598 100.245 97.6678 100.281C97.6758 100.317 97.6943 100.35 97.7209 100.376C97.7475 100.401 97.7811 100.419 97.8174 100.425C97.9149 100.515 97.9974 100.47 98.0874 100.425C98.0911 100.478 98.0911 100.53 98.0874 100.583C98.0874 100.626 98.1048 100.668 98.1358 100.699C98.1667 100.73 98.2087 100.748 98.2524 100.748C98.2962 100.748 98.3382 100.73 98.3691 100.699C98.4 100.668 98.4174 100.626 98.4174 100.583V100.268L98.5524 100.193C99.6699 100.838 101.275 101.145 101.612 102.6C101.86 103.68 101.02 105 99.9549 105.758C99.9549 105.758 99.8274 104.7 99.8199 104.685C99.7674 104.535 99.5199 104.535 99.5274 104.723V105.075L99.2499 104.61C99.2235 104.579 99.1872 104.559 99.1473 104.552C99.1074 104.546 99.0664 104.553 99.0315 104.574C98.9967 104.595 98.9702 104.627 98.9566 104.665C98.9431 104.703 98.9434 104.745 98.9574 104.783C99.1524 105.203 99.3399 105.623 99.5424 106.043C96.8274 107.543 95.8524 104.205 94.1499 102.795C94.3674 101.64 94.4199 101.663 94.3749 101.558C94.3813 101.534 94.3831 101.51 94.3802 101.486C94.3772 101.463 94.3696 101.44 94.3578 101.419C94.3459 101.398 94.3301 101.379 94.3112 101.365C94.2922 101.35 94.2706 101.339 94.2474 101.333C94.2243 101.326 94.2001 101.324 94.1763 101.327C94.1524 101.33 94.1294 101.338 94.1085 101.35C94.0876 101.362 94.0693 101.377 94.0545 101.396C94.0397 101.415 94.0288 101.437 94.0224 101.46C93.9699 101.588 93.9324 101.723 93.8874 101.858C93.8424 101.993 93.8349 101.933 93.7974 102.075L93.7149 101.828C93.705 101.791 93.6808 101.759 93.6478 101.74C93.6147 101.722 93.5755 101.716 93.5387 101.726C93.5019 101.736 93.4706 101.76 93.4516 101.794C93.4326 101.827 93.4275 101.866 93.4374 101.903C93.3999 101.978 93.4374 102.098 93.5049 102.345C93.1437 102.116 92.7558 101.932 92.3499 101.798C91.2948 101.488 90.1637 101.568 89.1624 102.023C89.1024 101.738 89.0574 101.445 89.0199 101.16C88.9824 100.875 88.7499 101.025 88.7124 101.16C88.6654 101.181 88.6279 101.218 88.6074 101.265C88.5549 101.19 88.4949 101.07 88.3524 101.13C88.329 101.122 88.3037 101.121 88.2797 101.127C88.2557 101.134 88.234 101.147 88.2173 101.165C88.2006 101.183 88.1896 101.206 88.1856 101.23C88.1816 101.255 88.1849 101.28 88.1949 101.303C88.3824 101.603 88.5624 101.903 88.7424 102.203C87.4816 102.867 86.3551 103.76 85.4199 104.835C85.411 104.851 85.4075 104.869 85.4099 104.887C85.4123 104.905 85.4205 104.921 85.4333 104.934C85.4461 104.947 85.4627 104.955 85.4806 104.958C85.4985 104.96 85.5167 104.957 85.5324 104.948C86.5442 104.047 87.6362 103.241 88.7949 102.54C88.8549 102.9 88.9299 103.29 89.0049 103.613C89.0049 103.815 89.3874 103.77 89.3574 103.568C89.3611 103.523 89.3611 103.478 89.3574 103.433C89.3858 103.406 89.4065 103.372 89.4174 103.335L89.4849 103.44C89.5045 103.476 89.5354 103.505 89.573 103.522C89.6105 103.539 89.6526 103.543 89.6928 103.534C89.7329 103.524 89.7688 103.502 89.795 103.47C89.8211 103.438 89.836 103.399 89.8374 103.358V103.32C89.8377 103.3 89.8331 103.279 89.824 103.261C89.8148 103.243 89.8015 103.227 89.7849 103.215C89.6349 102.913 89.4672 102.62 89.2824 102.338C89.9785 102.013 90.7497 101.884 91.5134 101.965C92.2771 102.046 93.0045 102.333 93.6174 102.795V102.855C93.6174 103.02 93.5574 103.185 93.5199 103.35C93.4824 103.515 93.4599 103.635 93.4374 103.778C93.4149 103.92 93.7674 104.13 93.8049 103.883V103.778C93.8355 103.755 93.8589 103.723 93.8724 103.688L94.0974 104.273C94.1799 104.483 94.5174 104.4 94.4424 104.175C94.3674 103.95 94.2399 103.56 94.1349 103.26C95.5749 104.685 96.7749 107.85 99.5799 106.418C99.6324 106.92 99.6399 107.07 99.7074 107.693C99.716 107.735 99.739 107.773 99.7725 107.8C99.806 107.828 99.8479 107.843 99.8912 107.843C99.9344 107.843 99.9764 107.828 100.01 107.8C100.043 107.773 100.066 107.735 100.075 107.693C100.075 107.535 100.075 107.378 100.037 107.22C100.045 107.188 100.045 107.155 100.037 107.123C100.057 107.13 100.078 107.13 100.097 107.123C100.225 107.205 100.442 107.123 100.382 106.92C100.279 106.649 100.161 106.384 100.03 106.125C101.357 105.21 102.392 103.47 101.635 102.045C101.072 100.995 99.8349 100.658 98.7399 100.103C99.0924 99.8626 99.6474 99.7651 99.3174 99.5026C99.2199 99.1201 98.8974 99.5026 98.3799 99.7651V99.4501C98.3799 99.4263 98.3705 99.4034 98.3536 99.3865C98.3367 99.3696 98.3138 99.3601 98.2899 99.3601C98.2661 99.3601 98.2432 99.3696 98.2263 99.3865C98.2094 99.4034 98.1999 99.4263 98.1999 99.4501C98.1999 99.5551 98.1624 99.6526 98.1399 99.7576C96.7524 98.7376 97.0974 97.2451 98.5224 96.4126C99.9474 95.5801 101.68 95.2726 103.202 94.6426C103.765 94.389 104.273 94.0265 104.695 93.576C105.117 93.1254 105.446 92.5958 105.662 92.0176L116.08 86.8576C116.1 86.8625 116.121 86.8599 116.139 86.8502C116.157 86.8405 116.171 86.8244 116.177 86.8051C116.027 86.1226 115.3 77.2501 115.225 77.2051ZM110.995 84.6151L105.745 91.8601C105.895 90.4951 106.495 83.8951 106.285 82.2526L111.01 84.6151L115.12 77.4076C115.291 80.5271 115.619 83.6361 116.102 86.7226L110.995 84.6151ZM6.09993 92.7676L5.28243 91.4101L4.98243 92.8876L3.63243 93.1876L4.69743 93.9451L4.38243 95.3851L5.64244 94.3501L7.11994 95.0251L6.43744 93.6676L7.33744 92.5576L6.09993 92.7676ZM84.3474 91.4851L83.1924 89.6476L82.7649 91.6501L80.8299 92.0551L82.3449 93.0826L81.9024 95.0401L83.6949 93.6301L85.8024 94.5526L84.8274 92.7151L86.1024 91.2001L84.3474 91.4851ZM31.5174 12.4951C32.3274 12.6301 33.3624 12.4501 33.8199 13.2826L33.5949 13.4401C33.5493 13.6484 33.5785 13.8662 33.6774 14.0551C33.8155 14.3501 34.0115 14.6143 34.2537 14.8321C34.4959 15.0498 34.7795 15.2166 35.0874 15.3226L35.2599 15.2776C35.6874 15.5551 36.2724 15.7501 36.6774 15.3151C37.0824 14.8801 36.8124 14.1901 36.8199 14.1751C37.6824 12.9826 35.8899 11.8426 35.8899 11.8426L35.6799 11.9926C34.8849 10.4926 37.0299 9.05262 35.1549 6.46512C32.9724 3.46512 27.1599 4.85262 28.8249 9.94512C28.9933 10.578 29.3342 11.1516 29.8097 11.6018C30.2851 12.0521 30.8764 12.3614 31.5174 12.4951ZM34.4574 12.8476C33.4713 11.8641 32.4079 10.9612 31.2774 10.1476C31.5924 10.2226 31.7799 10.3876 32.0274 10.1101V10.0051C32.3199 9.25512 32.4999 10.0426 32.8824 9.47262V9.31512C33.0924 9.01512 33.0624 9.26262 33.2649 9.24012C33.3615 9.24611 33.4582 9.23338 33.5499 9.20262C33.7824 9.09762 33.7374 8.72262 34.1424 8.76762C34.3251 10.0131 34.6497 11.2335 35.1099 12.4051L34.4574 12.8476ZM36.6249 14.4151C36.6854 14.5571 36.7047 14.7132 36.6809 14.8657C36.657 15.0182 36.5909 15.1609 36.4899 15.2776C36.1749 15.5701 35.7399 15.4051 35.4399 15.2101C35.8888 15.0358 36.2934 14.7643 36.6249 14.4151ZM35.6199 8.06262C35.9499 9.56262 34.7499 11.0626 35.5074 12.1126L35.2599 12.2851C34.5999 10.1026 33.8574 6.73512 34.0899 8.58012C33.3849 8.53512 33.5574 8.82012 33.4299 8.92512C33.3024 9.03012 32.9574 8.92512 32.7249 9.03762C32.6574 9.03762 32.7249 9.19512 32.6574 9.22512C32.1999 9.70512 32.3424 9.35262 31.9599 9.48012C31.8174 9.53262 31.8099 9.57012 31.7424 9.69012C31.6749 9.81012 31.9224 9.95262 31.6749 10.0876C31.6749 10.0876 31.2624 10.0276 31.1049 10.0201C29.6049 8.85012 32.7849 11.7301 34.2474 13.0201L33.9474 13.2301C33.0699 11.4751 29.1924 13.7176 28.7799 8.51262C28.4499 4.19262 34.7499 3.99012 35.6199 8.06262ZM89.2674 126.638C89.2501 126.812 89.2947 126.988 89.3934 127.133C89.4921 127.278 89.6386 127.384 89.8074 127.433C90.6624 127.5 90.7374 126.885 90.7374 126.885L91.1199 125.46L89.6199 125.303L89.2674 126.638ZM31.3374 0.825119C31.3374 0.712619 31.1199 0.727619 31.1349 0.825119C31.22 1.64018 31.3552 2.44922 31.5399 3.24762C31.6299 3.51012 32.1324 3.57012 31.3374 0.825119ZM35.4249 5.07012C35.757 4.48116 36.0092 3.85063 36.1749 3.19512C36.1724 3.17551 36.1648 3.15691 36.1528 3.14119C36.1408 3.12547 36.1249 3.11319 36.1066 3.10558C36.0884 3.09798 36.0684 3.09532 36.0488 3.09787C36.0292 3.10042 36.0106 3.1081 35.9949 3.12012C35.629 3.69127 35.3485 4.31284 35.1624 4.96512C35.1174 5.10762 35.3574 5.25012 35.4249 5.07012ZM27.1074 5.35512C27.1239 5.36146 27.1417 5.36355 27.1592 5.3612C27.1766 5.35885 27.1933 5.35213 27.2075 5.34167C27.2217 5.3312 27.233 5.31733 27.2404 5.30133C27.2478 5.28533 27.2511 5.26772 27.2499 5.25012C26.7482 4.47711 26.1676 3.75826 25.5174 3.10512C25.4349 3.03762 25.2924 3.10512 25.3599 3.22512C25.6299 3.56262 26.7699 5.01762 27.1074 5.35512ZM23.8299 10.6126C26.3274 10.2676 26.0799 9.86262 25.9074 9.86262C25.1574 9.95262 24.4824 10.2526 23.7699 10.3951C23.6199 10.4176 23.6874 10.6351 23.8299 10.6126ZM28.8999 13.5751C28.9674 13.4851 28.8549 13.3501 28.7499 13.3876C28.1546 13.7596 27.588 14.1758 27.0549 14.6326C26.9349 14.7301 27.0549 14.9251 27.2124 14.8426C27.8049 14.4615 28.3688 14.0379 28.8999 13.5751ZM31.5174 14.2876C31.3899 14.9176 31.4124 15.5851 31.3224 16.2226C31.3224 16.3801 31.5399 16.4551 31.5699 16.2901C31.7382 15.6368 31.799 14.9605 31.7499 14.2876C31.7499 14.2568 31.7377 14.2272 31.7159 14.2054C31.6941 14.1836 31.6645 14.1714 31.6337 14.1714C31.6029 14.1714 31.5733 14.1836 31.5515 14.2054C31.5297 14.2272 31.5174 14.2568 31.5174 14.2876ZM28.7049 23.0776C28.8855 23.0927 29.0672 23.0692 29.2379 23.0085C29.4087 22.9479 29.5645 22.8515 29.6951 22.7259C29.8257 22.6003 29.928 22.4483 29.9952 22.28C30.0624 22.1118 30.093 21.9311 30.0849 21.7501C29.9499 19.8976 27.3099 20.1376 27.2424 21.6526C27.2613 22.0309 27.4225 22.3881 27.6938 22.6524C27.9651 22.9167 28.3263 23.0686 28.7049 23.0776ZM29.7699 21.5776C29.8075 21.7327 29.8075 21.8945 29.7701 22.0496C29.7327 22.2047 29.6589 22.3486 29.5549 22.4696C29.4508 22.5905 29.3194 22.6849 29.1716 22.745C29.0238 22.8051 28.8639 22.8291 28.7049 22.8151C28.4028 22.8215 28.1089 22.7165 27.8793 22.5201C27.6497 22.3237 27.5004 22.0496 27.4599 21.7501C27.4762 21.4683 27.5938 21.2018 27.791 20.9998C27.9883 20.7979 28.2519 20.674 28.5333 20.6512C28.8147 20.6283 29.0949 20.708 29.3222 20.8755C29.5494 21.043 29.7085 21.2871 29.7699 21.5626V21.5776ZM63.4599 38.4001C63.5199 38.5801 71.3424 38.9176 73.0674 38.8801C72.8431 39.0901 72.683 39.3595 72.606 39.657C72.529 39.9544 72.5382 40.2677 72.6324 40.5601C72.8574 41.1226 73.5624 41.2351 74.0874 41.3101C76.8999 41.6851 79.6974 42.2476 82.8099 41.6176C87.0549 40.7626 84.8049 36.5476 82.2474 38.4901C82.3429 37.9395 82.2718 37.373 82.0432 36.8631C81.8145 36.3532 81.4388 35.9232 80.9642 35.6283C80.4895 35.3333 79.9376 35.1869 79.3792 35.2077C78.8208 35.2285 78.2813 35.4157 77.8299 35.7451C77.8299 33.8326 74.9949 32.2351 73.7949 33.9526C74.1024 31.2226 71.6799 29.5051 69.0624 30.0151C66.2499 30.5476 65.7474 33.7501 66.9999 35.9101C66.6196 35.6023 66.1493 35.4268 65.6602 35.4103C65.1712 35.3938 64.6901 35.5372 64.2899 35.8187C63.8897 36.1002 63.5922 36.5045 63.4424 36.9703C63.2926 37.4362 63.2988 37.9381 63.4599 38.4001ZM77.9799 35.9251C80.0049 34.7176 82.1874 35.9251 81.9924 38.7076C81.9924 38.7076 82.1799 38.7826 82.1949 38.7676C84.5874 36.8476 86.5374 40.5301 83.0574 41.3251C80.2299 41.9701 76.8324 41.5501 73.9299 41.0401C71.6799 40.6426 73.3749 37.6576 75.0774 38.8276C75.2049 38.9176 75.2499 37.8901 76.0974 37.8826C76.5099 37.8826 77.0724 38.0251 77.2074 38.4601C77.2074 38.4601 77.3574 38.2651 77.3424 38.2201C77.1474 37.3801 77.1399 36.4276 77.9799 35.9251ZM73.4799 34.2226C73.4799 34.3726 73.7124 34.2676 73.7199 34.2226C75.0774 32.4601 77.4699 34.0051 77.5449 35.8801C77.2467 36.1006 77.0322 36.4159 76.9368 36.7744C76.8414 37.1328 76.8707 37.513 77.0199 37.8526C76.2699 37.3501 75.0624 37.5676 74.9799 38.6026C74.8501 38.4895 74.699 38.4033 74.5355 38.3491C74.372 38.295 74.1993 38.2739 74.0276 38.2872C73.8558 38.3004 73.6885 38.3477 73.5352 38.4264C73.3819 38.505 73.2459 38.6134 73.1349 38.7451C70.1349 38.3251 63.9849 38.3626 63.6624 38.2201C63.3399 38.0776 63.6624 36.8701 63.8874 36.5101C64.0731 36.265 64.3106 36.0639 64.5828 35.921C64.8551 35.778 65.1555 35.6969 65.4627 35.6833C65.7699 35.6697 66.0763 35.724 66.3602 35.8422C66.644 35.9605 66.8983 36.1399 67.1049 36.3676C67.2249 36.4726 67.2624 36.1726 67.2549 36.1651C63.7749 28.2301 74.5674 28.6651 73.5174 34.2226H73.4799ZM81.6699 21.1651C81.5321 20.1892 81.1272 19.2704 80.4999 18.5101C77.6349 15.9001 71.6499 18.7801 74.6424 24.5101C74.9755 25.0345 75.3439 25.5357 75.7449 26.0101C76.4199 26.9851 76.7274 29.1676 76.8699 30.3451C76.8699 30.375 76.8818 30.4036 76.9029 30.4247C76.924 30.4458 76.9526 30.4576 76.9824 30.4576H79.1349C79.4874 30.4576 79.0224 27.7726 79.4649 26.5501C80.1099 24.6751 82.1724 23.3926 81.6699 21.1651ZM77.0949 17.8426C77.5895 17.7386 78.1003 17.7386 78.5949 17.8426C79.1103 19.2335 79.3375 20.7147 79.2627 22.1961C79.1879 23.6775 78.8127 25.1282 78.1599 26.4601H77.5524C76.9002 25.1284 76.5235 23.6788 76.4449 22.198C76.3662 20.7173 76.5874 19.2359 77.0949 17.8426ZM74.6274 23.9026C73.7349 21.6526 73.7199 19.6951 75.7374 18.4051C74.5074 20.0026 74.7999 24.2326 77.2374 26.4676C76.8924 26.4676 76.5549 26.3626 76.2099 26.3251C75.6311 25.5524 75.1025 24.7432 74.6274 23.9026ZM78.9549 30.2626C78.4749 30.3151 78.0099 30.2626 77.5299 30.2626C77.0499 30.2626 77.1474 30.5251 76.8999 28.9651C77.6278 29.0812 78.3695 29.0812 79.0974 28.9651C79.1092 29.4021 79.0613 29.8386 78.9549 30.2626ZM79.0974 28.7626C78.3474 28.8601 77.5974 28.7626 76.8474 28.8376C76.6828 28.0175 76.4674 27.2085 76.2024 26.4151C77.1947 26.7525 78.2682 26.7683 79.2699 26.4601C79.0844 27.2152 79.0261 27.9959 79.0974 28.7701V28.7626ZM79.3749 26.2501C79.1229 26.276 78.8725 26.3161 78.6249 26.3701C81.0399 24.0001 81.1524 19.8601 79.9824 18.3751C81.1749 19.2076 81.9399 21.8326 81.2199 23.2726C80.6949 24.3076 79.8549 25.1701 79.4049 26.2726L79.3749 26.2501ZM85.4949 31.7926C85.6524 32.1676 85.7949 29.7901 87.4149 29.5876C87.4749 29.5876 87.5274 29.5276 87.4749 29.4751C87.1449 29.1526 86.2224 29.1376 86.1099 27.1426C86.1099 27.0601 85.9524 27.0301 85.9524 27.1426C85.9074 29.3926 83.1474 29.4601 83.7024 29.6251C85.0674 30.0001 85.2999 31.3351 85.4949 31.7926ZM86.0274 27.7501C86.0486 28.0968 86.1531 28.4332 86.3319 28.7309C86.5108 29.0285 86.7588 29.2787 87.0549 29.4601C86.6871 29.6626 86.3643 29.938 86.1064 30.2694C85.8485 30.6008 85.6609 30.9813 85.5549 31.3876C85.4311 30.9965 85.2298 30.6342 84.9631 30.3224C84.6964 30.0106 84.3697 29.7556 84.0024 29.5726C84.4694 29.4714 84.9018 29.25 85.257 28.9303C85.6121 28.6107 85.8777 28.2039 86.0274 27.7501ZM95.3724 40.1176C95.3124 40.1176 95.3274 40.2376 95.3724 40.2526C95.794 40.3457 96.1717 40.5787 96.444 40.9137C96.7164 41.2487 96.8673 41.6659 96.8724 42.0976C96.8724 42.1501 96.9849 42.1651 96.9999 42.0976C97.0149 42.0301 96.9999 40.5976 97.9299 40.0426C97.9899 40.0426 98.0199 39.8776 97.9299 39.8851C96.9099 40.0351 96.3174 38.0026 96.3099 37.9726C96.3024 37.9426 96.1599 37.9276 96.1824 37.9726C96.2679 38.3702 96.237 38.784 96.0933 39.1644C95.9497 39.5448 95.6994 39.8758 95.3724 40.1176ZM96.4524 38.6176C96.6924 39.2176 97.0824 39.9676 97.6674 40.0651C97.3058 40.4136 97.0641 40.8679 96.9774 41.3626C96.7316 40.8213 96.2853 40.3964 95.7324 40.1776C96.1594 39.757 96.4158 39.1934 96.4524 38.5951V38.6176ZM45.3999 28.6801V28.7476C45.7726 28.816 46.1157 28.9961 46.3836 29.264C46.6515 29.5319 46.8316 29.875 46.8999 30.2476C46.9049 30.2626 46.9144 30.2757 46.9272 30.285C46.94 30.2942 46.9554 30.2992 46.9712 30.2992C46.987 30.2992 47.0024 30.2942 47.0152 30.285C47.028 30.2757 47.0375 30.2626 47.0424 30.2476C47.2524 29.5651 47.3949 28.8301 48.5424 28.6651C48.5874 28.6651 48.6024 28.5676 48.5424 28.5676C47.1849 28.4326 46.9224 26.7526 46.8699 26.6326C46.8174 26.5126 46.7424 26.6326 46.7499 26.6326C46.9524 27.9076 45.8049 28.4476 45.3999 28.6801ZM46.9599 27.3001C47.0516 27.5812 47.202 27.8396 47.4011 28.0581C47.6002 28.2766 47.8436 28.4503 48.1149 28.5676C47.8519 28.6823 47.6177 28.8542 47.4296 29.0709C47.2414 29.2876 47.104 29.5436 47.0274 29.8201C46.8998 29.5333 46.7051 29.2813 46.4597 29.0855C46.2143 28.8897 45.9254 28.7558 45.6174 28.6951C45.9392 28.592 46.2304 28.4105 46.4647 28.167C46.699 27.9235 46.8692 27.6256 46.9599 27.3001ZM115.36 55.9576C114.61 53.3776 114.505 50.9776 114.205 51.2776C113.26 52.2151 111.205 54.0751 111.205 54.0826C111.205 54.0901 113.942 55.4026 115.165 56.0926C115.195 56.1151 115.382 56.0251 115.36 55.9576ZM111.497 54.0376C112.499 53.2632 113.421 52.3914 114.25 51.4351C114.337 52.9213 114.622 54.3893 115.097 55.8001C113.867 55.1476 112.697 54.7501 111.497 54.0376ZM108.25 55.6426C108.045 56.3818 107.887 57.1334 107.777 57.8926C107.777 58.0501 107.987 58.1176 108.017 57.9601C108.214 57.1969 108.329 56.4151 108.362 55.6276C108.357 55.6164 108.348 55.6073 108.337 55.6014C108.326 55.5956 108.313 55.5933 108.301 55.595C108.288 55.5966 108.277 55.6021 108.268 55.6106C108.259 55.6192 108.252 55.6304 108.25 55.6426ZM107.185 61.1776C107.428 60.4441 107.608 59.6914 107.725 58.9276C107.725 58.8301 107.59 58.8226 107.56 58.9276C107.319 59.6464 107.139 60.3839 107.02 61.1326C107.021 61.1516 107.028 61.1697 107.04 61.1845C107.052 61.1992 107.068 61.2099 107.086 61.2149C107.104 61.2199 107.124 61.219 107.142 61.2123C107.159 61.2056 107.174 61.1935 107.185 61.1776ZM109.892 59.3101C109.92 59.3189 109.951 59.3171 109.978 59.3051C110.004 59.293 110.026 59.2715 110.038 59.2447C110.05 59.2179 110.052 59.1876 110.043 59.1596C110.034 59.1315 110.015 59.1077 109.99 59.0926C109.397 58.7912 108.758 58.5886 108.1 58.4926C107.552 58.5001 109.517 59.2501 109.892 59.3101ZM107.065 58.0726C106.412 57.8926 105.767 57.6601 105.115 57.4876C104.972 57.4876 104.462 57.6301 106.99 58.3501C107.027 58.3601 107.066 58.355 107.099 58.336C107.132 58.317 107.156 58.2857 107.166 58.2489C107.176 58.2121 107.171 58.1728 107.152 58.1398C107.133 58.1067 107.102 58.0826 107.065 58.0726ZM88.0674 67.7551C86.9949 68.3026 86.0949 70.0951 86.4999 71.2576C86.4999 71.2576 86.5599 71.3101 86.5749 71.3176C88.3749 71.4976 99.3249 71.4826 102.94 71.4076C102.966 71.407 102.991 71.3993 103.013 71.3854C103.035 71.3716 103.052 71.352 103.064 71.3289C103.075 71.3058 103.08 71.28 103.078 71.2542C103.076 71.2284 103.067 71.2037 103.052 71.1826C103.169 70.6796 103.121 70.1525 102.916 69.6788C102.71 69.205 102.359 68.8094 101.912 68.5501C101.412 68.3596 100.877 68.2785 100.343 68.3121C99.8083 68.3458 99.2874 68.4934 98.8149 68.7451C99.3324 67.8226 98.8149 66.8026 98.1849 66.0076C97.4349 65.0326 96.6099 64.0951 95.3124 64.0051C94.1652 63.8511 93.001 64.1175 92.0349 64.7551C91.0824 65.5501 91.1649 66.7201 91.3299 67.8226C90.6099 66.8401 89.0349 67.2601 88.0674 67.7551ZM92.0649 65.1301C92.4567 64.7727 92.9198 64.5025 93.4237 64.3373C93.9276 64.172 94.4608 64.1155 94.9882 64.1715C95.5155 64.2275 96.025 64.3947 96.4829 64.6621C96.9409 64.9295 97.3369 65.2909 97.6449 65.7226C98.3349 66.5776 99.2799 67.7776 98.4474 68.8576C98.3499 68.9851 98.6799 68.9626 98.6874 68.9551C101.95 67.9276 102.782 69.0451 102.835 71.1301C99.2499 71.3326 87.4149 71.0626 86.5974 71.1826C86.3649 67.6201 90.3474 66.6826 91.4499 68.2876C91.4949 68.3551 91.5924 68.2876 91.5249 68.1601C91.4199 67.1551 91.2999 65.9101 92.0649 65.1301ZM99.8724 77.8051C99.9549 77.7526 99.8724 77.6251 99.8349 77.6476C98.5599 78.0976 97.8174 76.2826 97.7649 76.2076C97.7124 76.1326 97.6299 76.2076 97.6524 76.2526C98.0049 77.1376 97.8999 78.1801 96.9024 78.5551C96.8892 78.5597 96.8777 78.5683 96.8696 78.5798C96.8615 78.5912 96.8571 78.6049 96.8571 78.6189C96.8571 78.6329 96.8615 78.6466 96.8696 78.658C96.8777 78.6694 96.8892 78.678 96.9024 78.6826C97.3236 78.6198 97.7535 78.7071 98.1168 78.9292C98.4801 79.1513 98.7538 79.4941 98.8899 79.8976C98.8899 79.9876 99.0699 79.9726 99.0624 79.8976C99.0549 79.8226 98.8449 78.4051 99.8724 77.8051ZM98.8599 79.3801C98.692 79.1341 98.4689 78.9308 98.2085 78.7863C97.9481 78.6417 97.6575 78.56 97.3599 78.5476C97.5965 78.3606 97.7794 78.1143 97.89 77.8337C98.0006 77.5531 98.0351 77.2483 97.9899 76.9501C98.142 77.2191 98.3588 77.4457 98.6208 77.6095C98.8828 77.7732 99.1816 77.8688 99.4899 77.8876C99.292 78.0828 99.1345 78.3151 99.0264 78.5712C98.9183 78.8273 98.8617 79.1021 98.8599 79.3801ZM70.4949 106.995C72.2124 101.79 76.3674 97.2451 80.8749 94.2451C81.0174 94.1476 80.8749 93.9226 80.7399 94.0126C71.3949 100.23 69.9324 108.75 70.4949 106.995ZM67.6449 101.693C70.2024 97.7851 72.6699 96.2176 76.7574 94.0351C76.9149 93.9526 76.7574 93.7201 76.6224 93.8026C73.1499 95.5351 69.3174 98.0476 67.5699 101.648C67.5669 101.657 67.5673 101.668 67.5708 101.677C67.5744 101.686 67.5811 101.694 67.5897 101.7C67.5984 101.705 67.6085 101.707 67.6185 101.706C67.6286 101.704 67.6379 101.7 67.6449 101.693ZM79.2849 90.9001C79.6374 90.8551 79.3374 90.3376 76.1499 91.0651C69.3474 92.5651 67.7724 95.7001 68.1399 95.2951C71.4174 91.7101 76.2474 91.2901 79.2849 90.9001ZM10.5099 76.8751C9.44493 77.4376 8.61244 76.5901 8.32744 75.6301C8.32744 75.5551 8.16993 75.5626 8.17743 75.6301C8.37243 77.9851 11.9724 77.9251 11.4474 74.8801C11.0774 73.3472 10.4484 71.8888 9.58744 70.5676C7.68994 67.3351 6.00993 66.1576 6.34743 66.5776C8.29743 69.0001 13.1649 75.4801 10.5099 76.8751ZM19.2699 81.0451C19.7199 80.7676 19.4724 80.0626 19.5174 79.6351C19.5174 79.5301 19.3599 79.5151 19.3374 79.6351C19.3088 79.8541 19.2912 80.0744 19.2849 80.2951C19.1349 81.0451 18.4149 80.8426 17.9124 80.6026C17.1355 80.1476 16.4795 79.5122 15.9999 78.7501C15.0324 77.4076 14.1924 75.9601 13.3524 74.5426C8.10243 65.7901 7.72744 66.3376 7.83244 66.4651C10.4124 69.8176 12.4074 73.5001 14.6349 77.0851C15.4674 78.4351 16.3749 80.1301 17.8974 80.8351C18.2499 81.0001 18.8949 81.2701 19.2699 81.0451ZM11.1324 68.8126C11.0799 68.7451 10.9674 68.8126 11.0124 68.9026C14.6199 74.0626 14.0424 72.3151 11.1324 68.8126ZM3.03243 63.6301C1.42743 66.0526 4.23243 67.1776 4.23243 67.1776C4.02676 66.8769 3.94546 66.5083 4.00559 66.1489C4.06571 65.7896 4.26258 65.4675 4.55493 65.2501C4.77054 65.398 4.99607 65.5308 5.22993 65.6476C5.93269 65.4041 6.56052 64.983 7.05243 64.4251C6.97191 64.1476 6.86387 63.8787 6.72993 63.6226C7.04343 63.4137 7.42631 63.336 7.79646 63.4061C8.16661 63.4762 8.49455 63.6885 8.70994 63.9976C8.70994 63.9976 8.70994 60.8776 5.70994 61.6201C2.36493 55.7476 -2.86257 53.7826 2.49993 62.7451C2.64243 63.0451 2.82993 63.3376 3.03243 63.6301ZM2.32744 57.6976C3.17493 58.6426 4.91494 59.5876 6.87994 64.3201C6.38042 64.7808 5.83218 65.1857 5.24493 65.5276C1.88493 61.9426 2.09493 61.2451 0.662435 58.8901L2.32744 57.6976ZM19.9674 44.5351C18.4674 44.7601 16.1124 46.3951 16.6824 48.1726C16.2081 47.7893 15.6229 47.5692 15.0135 47.5448C14.4042 47.5205 13.8033 47.6933 13.2999 48.0376C12.6871 48.5079 12.2417 49.1628 12.0297 49.9056C11.8176 50.6484 11.8502 51.4397 12.1224 52.1626H25.5549C26.8374 52.1626 27.2649 46.3276 22.7949 48.0976C22.9696 47.669 23.0272 47.2016 22.9617 46.7434C22.8962 46.2852 22.71 45.8526 22.4223 45.4901C22.1345 45.1275 21.7555 44.848 21.3242 44.6802C20.8928 44.5124 20.4245 44.4623 19.9674 44.5351ZM22.6524 48.3901C25.0224 46.8901 27.3174 49.4176 25.5849 52.0126C25.5849 52.0126 13.0149 51.8326 12.3324 51.9676C11.1624 48.2176 15.2049 46.4026 16.8849 48.6526C16.9374 48.7276 16.8849 48.4051 16.8249 48.3226C16.1274 45.8326 20.3649 43.4326 22.1724 45.4351C23.3724 46.7551 22.2999 48.6226 22.6524 48.3901ZM7.83244 28.1251C7.78778 28.2015 7.76059 28.2869 7.75281 28.3751C7.74503 28.4633 7.75685 28.5521 7.78743 28.6351C7.50993 28.9426 7.98994 29.8276 8.70994 29.3401C9.96629 29.8643 11.2931 30.2004 12.6474 30.3376C12.2649 31.5526 11.3874 34.7401 12.4824 35.3851C13.5774 36.0301 15.0999 32.3851 15.5499 31.2976C15.8681 31.188 16.1631 31.0201 16.4199 30.8026C18.3324 30.9601 22.5099 31.0951 21.2274 29.2276C20.7099 28.4776 17.7474 27.9151 16.8474 27.7726C17.3499 26.2351 18.6999 21.6301 16.4574 22.5226C15.5049 22.8901 14.5974 25.1251 13.9674 26.6926C13.5603 26.7869 13.1884 26.995 12.8949 27.2926C11.6724 27.1726 8.33494 27.0001 7.83244 28.1251ZM16.9074 27.9451C17.7774 28.0801 20.7549 28.6951 21.0699 29.3176C21.9249 30.9526 18.3924 30.6526 16.6524 30.5551C16.9976 30.221 17.2128 29.7751 17.2595 29.297C17.3062 28.8189 17.1814 28.3397 16.9074 27.9451ZM16.5024 22.6951C18.3324 22.1626 17.1474 25.9351 16.6149 27.6376C16.3082 27.2975 15.9278 27.0322 15.5027 26.8619C15.0776 26.6916 14.6191 26.6208 14.1624 26.6551C14.4999 25.8226 15.6699 22.9201 16.5024 22.6801V22.6951ZM15.2949 31.3951C13.2024 37.1251 11.0574 36.1351 12.8199 30.4426C13.0746 30.8466 13.4539 31.1566 13.9005 31.3258C14.347 31.4949 14.8366 31.514 15.2949 31.3801V31.3951ZM12.7824 27.4726C12.518 27.8561 12.3624 28.304 12.332 28.7688C12.3017 29.2336 12.3977 29.698 12.6099 30.1126C12.6099 30.1126 9.48993 29.6251 8.85993 29.1976C9.10743 28.9651 8.93494 28.3201 8.02744 28.4476C7.87744 28.0351 8.47744 27.8026 8.73993 27.6976C10.0579 27.3484 11.4324 27.2668 12.7824 27.4576V27.4726ZM7.20244 18.6301C7.56054 18.7834 7.87487 19.0234 8.11709 19.3285C8.35931 19.6335 8.5218 19.9941 8.58994 20.3776C8.79244 20.8051 8.58993 18.6901 9.78243 18.6001C9.83493 18.6001 9.86493 18.5101 9.78243 18.4801C9.25743 18.2101 8.52993 18.1276 8.06493 16.0576C8.06493 15.9376 7.82493 15.9976 7.88494 16.1101C8.34994 17.0101 7.18743 18.5251 7.17993 18.5251C7.16601 18.5281 7.15384 18.5365 7.14611 18.5485C7.13837 18.5604 7.1357 18.5749 7.13868 18.5889C7.14167 18.6028 7.15006 18.615 7.16202 18.6227C7.17397 18.6304 7.18851 18.6331 7.20244 18.6301ZM8.13243 16.9351C8.21488 17.2775 8.371 17.5978 8.5899 17.8737C8.80881 18.1496 9.08524 18.3745 9.39994 18.5326C9.17098 18.6567 8.97601 18.8351 8.83216 19.0522C8.6883 19.2693 8.59998 19.5184 8.57493 19.7776C8.48952 19.4744 8.32506 19.1993 8.09839 18.9806C7.87173 18.7618 7.59099 18.6072 7.28493 18.5326C7.75038 18.1194 8.05127 17.5522 8.13243 16.9351ZM7.09743 10.5001C8.44237 10.1938 9.76532 9.79794 11.0574 9.31512C11.8599 9.72012 8.71744 6.31512 7.52494 5.49012C7.47244 5.45262 7.41244 5.53512 7.44993 5.58012C7.21741 7.17131 7.06721 8.77344 6.99994 10.3801C6.99993 10.3801 7.06743 10.5001 7.09743 10.5001ZM7.53243 5.65512C10.0674 8.19762 9.91743 8.31762 10.8774 9.15762C9.64744 9.55512 8.43244 10.0726 7.17993 10.3726C7.26993 8.79012 7.38243 7.21512 7.53243 5.64762V5.65512ZM6.84244 49.9501C6.85536 49.966 6.87409 49.9762 6.89448 49.9783C6.91488 49.9804 6.93527 49.9743 6.95118 49.9614C6.9671 49.9484 6.97722 49.9297 6.97933 49.9093C6.98144 49.8889 6.97536 49.8685 6.96244 49.8526C6.89732 49.4802 6.92709 49.0974 7.049 48.7396C7.17091 48.3817 7.38102 48.0603 7.65993 47.8051C7.74993 47.7226 7.65994 47.5501 7.57744 47.6101C6.34744 48.2926 5.48493 46.9126 5.46993 46.8601C5.45493 46.8076 5.31244 46.8601 5.34244 46.9126C5.91994 48.4126 5.04243 48.9751 4.65993 49.1626C4.62243 49.1626 4.65993 49.2526 4.65993 49.2376C5.04677 49.0609 5.4859 49.0361 5.89018 49.1681C6.29447 49.3001 6.63437 49.5792 6.84244 49.9501ZM5.63493 47.3701C5.84435 47.6051 6.11194 47.7808 6.4108 47.8795C6.70966 47.9783 7.02925 47.9966 7.33744 47.9326C6.94091 48.3726 6.72409 48.9454 6.72993 49.5376C6.55063 49.3411 6.3274 49.1897 6.07844 49.0958C5.82949 49.002 5.56187 48.9683 5.29743 48.9976C5.48808 48.7778 5.61921 48.5128 5.67829 48.2279C5.73738 47.9429 5.72245 47.6476 5.63493 47.3701ZM16.1574 64.3201C16.1199 64.3201 16.1574 64.3951 16.1574 64.3951C16.5312 64.2059 16.9636 64.1682 17.3645 64.2897C17.7655 64.4112 18.1041 64.6827 18.3099 65.0476C18.3624 65.1226 18.4674 65.0476 18.4299 64.9501C18.3748 64.578 18.4093 64.198 18.5306 63.8419C18.6519 63.4857 18.8565 63.1637 19.1274 62.9026C19.2099 62.8201 19.1274 62.6626 19.0449 62.7076C18.8578 62.7998 18.6542 62.8534 18.446 62.8655C18.2377 62.8775 18.0292 62.8477 17.8328 62.7778C17.6363 62.7079 17.4558 62.5993 17.302 62.4584C17.1482 62.3175 17.0243 62.1472 16.9374 61.9576C16.9374 61.8901 16.7799 61.9576 16.8099 62.0101C17.4399 63.5101 16.5474 64.0951 16.1574 64.3201ZM17.1324 62.4676C17.3418 62.7026 17.6094 62.8783 17.9083 62.977C18.2072 63.0758 18.5268 63.0941 18.8349 63.0301C18.4769 63.4908 18.2723 64.0521 18.2499 64.6351C18.0738 64.4345 17.851 64.2803 17.6011 64.1862C17.3513 64.092 17.0822 64.0607 16.8174 64.0951C17.0043 63.8732 17.1313 63.6071 17.1864 63.3223C17.2415 63.0375 17.2229 62.7433 17.1324 62.4676ZM2.69493 73.0501C2.70786 73.066 2.72658 73.0762 2.74698 73.0783C2.76737 73.0804 2.78777 73.0743 2.80368 73.0614C2.8196 73.0484 2.82972 73.0297 2.83183 73.0093C2.83394 72.9889 2.82786 72.9685 2.81493 72.9526C2.65743 72.1501 2.81493 71.8201 3.52743 70.9201C3.60243 70.8301 3.52743 70.6801 3.44493 70.7251C3.25767 70.8195 3.05323 70.875 2.84393 70.8882C2.63463 70.9015 2.42483 70.8721 2.22718 70.8021C2.02952 70.732 1.84812 70.6226 1.69391 70.4804C1.5397 70.3383 1.41589 70.1664 1.32993 69.9751C1.32993 69.9076 1.17993 69.9751 1.20993 70.0276C1.32387 70.2206 1.39672 70.435 1.42393 70.6575C1.45113 70.8799 1.4321 71.1056 1.36802 71.3204C1.30395 71.5351 1.19622 71.7343 1.05157 71.9055C0.906926 72.0767 0.728486 72.2161 0.527434 72.3151V72.3901C0.905014 72.2045 1.33906 72.1694 1.74156 72.2919C2.14406 72.4145 2.48489 72.6856 2.69493 73.0501ZM1.49493 70.5001C1.70318 70.7345 1.96948 70.9099 2.26703 71.0086C2.56458 71.1073 2.88289 71.126 3.18993 71.0626C2.98769 71.2783 2.82994 71.5317 2.7257 71.8084C2.62147 72.0851 2.57278 72.3796 2.58243 72.6751C2.40465 72.4783 2.18297 72.3262 1.93538 72.231C1.6878 72.1359 1.42127 72.1005 1.15743 72.1276C1.34683 71.9071 1.47714 71.6421 1.53617 71.3574C1.5952 71.0728 1.58101 70.7778 1.49493 70.5001ZM8.27494 93.8851C10.1668 94.4912 11.8973 95.5167 13.3374 96.8851C14.6439 98.2437 15.8686 99.6788 17.0049 101.183C17.0799 101.273 17.2149 101.183 17.1549 101.07C15.2649 97.7776 12.0099 94.7701 8.28993 93.8251C8.25243 93.8176 8.24494 93.8776 8.27494 93.8851ZM16.9374 95.6626C17.0199 95.7076 17.1174 95.5876 17.0424 95.5276C15.6801 94.2396 13.9108 93.4677 12.0399 93.3451C11.9574 93.3451 11.9574 93.4726 12.0399 93.4801C13.9449 93.6151 15.3924 94.6726 16.9374 95.6626ZM17.2374 92.5576C15.9024 91.6212 14.3511 91.0397 12.7295 90.8678C11.1078 90.696 9.46912 90.9393 7.96744 91.5751C7.91494 91.5751 7.96744 91.6876 7.96744 91.6726C9.4757 91.1601 11.078 90.9845 12.6615 91.1581C14.2449 91.3318 15.7711 91.8504 17.1324 92.6776C17.1483 92.6916 17.1691 92.6986 17.1902 92.6972C17.2113 92.6958 17.231 92.686 17.2449 92.6701C17.2589 92.6542 17.2659 92.6334 17.2645 92.6123C17.2631 92.5912 17.2533 92.5716 17.2374 92.5576ZM93.3999 111.21C92.9649 112.245 92.0274 114.278 92.0199 114.293C91.0806 117.607 90.3442 120.976 89.8149 124.38C89.8149 124.38 91.3149 124.658 91.3149 124.643C92.3499 121.298 92.9199 117.788 93.8499 114.428C93.8499 114.428 93.5199 111.263 93.5274 111.248C93.5349 111.233 93.4224 111.143 93.3999 111.21ZM93.4674 111.405C93.4525 111.625 93.4525 111.845 93.4674 112.065H93.2274C93.3324 111.818 93.3999 111.608 93.4674 111.405ZM89.9049 124.26C90.3399 122.43 91.9149 115.83 92.1549 114.368C92.1549 114.368 92.6199 114.315 92.8524 114.315C91.9299 117.6 90.5274 124.328 90.5274 124.335C90.3236 124.286 90.1146 124.261 89.9049 124.26ZM91.2549 124.455L90.6624 124.358C91.4124 121.02 92.9649 114.315 92.9649 114.308C93.221 114.339 93.4727 114.399 93.7149 114.488C93.0774 116.003 91.6674 122.73 91.2549 124.455ZM92.1474 114.218C92.5446 113.58 92.8883 112.91 93.1749 112.215C93.2841 112.252 93.3975 112.275 93.5124 112.283C93.5124 112.395 93.6324 113.783 93.6924 114.323C93.1828 114.231 92.6647 114.196 92.1474 114.218ZM91.1199 124.725C90.6712 124.634 90.2181 124.567 89.7624 124.523C89.7099 124.523 89.6799 124.598 89.7624 124.628C90.1932 124.782 90.6418 124.88 91.0974 124.92C91.1949 124.95 91.2474 124.748 91.1199 124.725ZM89.6724 125.018C90.0249 125.325 90.5649 125.183 90.9699 125.355C90.9836 125.364 90.999 125.37 91.0153 125.373C91.0315 125.375 91.0481 125.374 91.0639 125.37C91.0796 125.365 91.0942 125.357 91.1066 125.347C91.119 125.336 91.1289 125.322 91.1356 125.307C91.1422 125.292 91.1455 125.276 91.1452 125.26C91.1449 125.243 91.141 125.227 91.1338 125.212C91.1266 125.198 91.1163 125.185 91.1035 125.174C91.0908 125.164 91.0759 125.157 91.0599 125.153C90.8349 125.078 89.4999 124.838 89.6724 125.018ZM102.37 118.658C101.952 118.568 101.516 118.631 101.142 118.836C100.767 119.042 100.479 119.375 100.33 119.775C99.7074 122.025 103.18 122.91 103.66 120.683C103.754 120.243 103.671 119.785 103.43 119.406C103.189 119.027 102.808 118.758 102.37 118.658ZM100.615 119.528C100.96 118.778 102.115 118.733 102.332 118.778C102.683 118.888 102.986 119.115 103.192 119.42C103.398 119.725 103.494 120.091 103.465 120.458C103.322 122.805 99.5799 121.725 100.615 119.528ZM109.247 123.623C109.33 122.28 108.992 121.215 108.932 121.65C108.855 122.32 108.883 122.999 109.015 123.66C109.045 123.788 109.24 123.75 109.247 123.623ZM109.225 127.05C109.225 127.193 109.472 127.155 109.472 127.013C109.477 126.396 109.419 125.78 109.3 125.175C109.082 124.635 109.135 126.458 109.225 127.05ZM111.325 123.885C108.325 124.373 109.367 124.515 111.4 124.155C111.58 124.125 111.497 123.855 111.325 123.885ZM108.707 124.35C108.112 124.358 107.518 124.411 106.93 124.508C106.917 124.512 106.905 124.521 106.897 124.532C106.889 124.544 106.885 124.557 106.885 124.571C106.885 124.585 106.889 124.599 106.897 124.61C106.905 124.622 106.917 124.631 106.93 124.635C107.533 124.718 108.146 124.688 108.737 124.545C108.75 124.543 108.763 124.539 108.774 124.532C108.785 124.525 108.794 124.516 108.802 124.506C108.81 124.496 108.815 124.484 108.818 124.471C108.821 124.458 108.822 124.445 108.82 124.433C108.818 124.42 108.813 124.408 108.807 124.396C108.8 124.385 108.791 124.376 108.781 124.368C108.77 124.36 108.758 124.355 108.746 124.352C108.733 124.349 108.72 124.348 108.707 124.35Z" fill="#D9D9D9"/>
<path d="M4.10475 62.8802C4.12018 63.0095 4.18253 63.1288 4.27997 63.2153C4.37741 63.3018 4.50319 63.3496 4.6335 63.3496C4.7638 63.3496 4.88958 63.3018 4.98702 63.2153C5.08447 63.1288 5.14681 63.0095 5.16225 62.8802C5.16225 62.5877 4.10475 62.1752 4.10475 62.8802ZM2.94975 61.0802C2.9653 61.2115 3.02849 61.3325 3.12732 61.4203C3.22616 61.5081 3.35378 61.5566 3.486 61.5566C3.61821 61.5566 3.74583 61.5081 3.84467 61.4203C3.94351 61.3325 4.00669 61.2115 4.02225 61.0802C4.00669 60.9489 3.94351 60.8278 3.84467 60.74C3.74583 60.6522 3.61821 60.6037 3.486 60.6037C3.35378 60.6037 3.22616 60.6522 3.12732 60.74C3.02849 60.8278 2.9653 60.9489 2.94975 61.0802ZM1.61475 59.4077C1.61475 59.5489 1.67085 59.6843 1.77071 59.7842C1.87058 59.884 2.00602 59.9402 2.14725 59.9402C2.28847 59.9402 2.42392 59.884 2.52378 59.7842C2.62364 59.6843 2.67975 59.5489 2.67975 59.4077C2.67975 59.1152 1.61475 58.7027 1.61475 59.4077ZM38.7997 49.3052C38.929 49.3052 39.053 49.2538 39.1445 49.1624C39.2359 49.0709 39.2872 48.9469 39.2872 48.8176C39.2872 48.6884 39.2359 48.5644 39.1445 48.4729C39.053 48.3815 38.929 48.3302 38.7997 48.3302C38.4997 48.3302 38.1547 49.3052 38.7997 49.3052ZM42.7447 51.1277C42.7531 51.0621 42.7474 50.9956 42.7281 50.9325C42.7087 50.8693 42.6762 50.811 42.6325 50.7615C42.5889 50.7119 42.5352 50.6722 42.475 50.645C42.4148 50.6178 42.3495 50.6037 42.2835 50.6037C42.2174 50.6037 42.1522 50.6178 42.092 50.645C42.0318 50.6722 41.9781 50.7119 41.9345 50.7615C41.8908 50.811 41.8583 50.8693 41.8389 50.9325C41.8196 50.9956 41.8139 51.0621 41.8222 51.1277C41.8222 51.4052 42.7447 51.7502 42.7447 51.1277Z" fill="#D9D9D9"/>
</svg>
